<svg xmlns="http://www.w3.org/2000/svg" xmlns:xlink="http://www.w3.org/1999/xlink" width="1024" zoomAndPan="magnify" viewBox="0 0 768 576" height="768" preserveAspectRatio="xMidYMid meet" version="1.0"><defs><g/><clipPath id="id1"><path d="M 289.679688 85.082031 L 478.46875 85.082031 L 478.46875 312.964844 L 289.679688 312.964844 Z M 289.679688 85.082031 " clip-rule="nonzero"/></clipPath></defs><g clip-path="url(#id1)"><path fill="#1d918a" d="M 436.648438 270.117188 C 433.542969 269.734375 430.683594 271.875 430.195312 274.972656 L 427.824219 293.121094 L 406.121094 264.816406 C 407.15625 265.039062 408.230469 265.160156 409.285156 265.160156 C 410.625 265.140625 411.960938 264.898438 413.242188 264.472656 C 420.257812 262.226562 423.300781 255.003906 426.019531 248.691406 C 427.074219 245.820312 428.453125 243.089844 430.195312 240.578125 L 454.71875 272.605469 Z M 384.074219 243.613281 C 382.695312 243.632812 381.335938 243.835938 379.996094 244.179688 C 379.894531 244.179688 379.894531 244.179688 379.773438 244.28125 C 379.308594 244.300781 378.839844 244.421875 378.414062 244.625 C 378.3125 244.625 378.191406 244.746094 377.96875 244.746094 C 374.621094 246.042969 371.398438 247.660156 368.355469 249.601562 C 364.96875 251.625 360.222656 254.4375 358.417969 253.769531 C 356.265625 253.101562 354.117188 248.023438 352.535156 244.179688 C 350.832031 238.921875 347.75 234.207031 343.609375 230.542969 C 342.253906 229.511719 340.710938 228.746094 339.089844 228.277344 C 338.480469 227.976562 337.832031 227.773438 337.160156 227.710938 C 334.039062 226.945312 330.875 226.457031 327.667969 226.253906 C 323.59375 225.910156 318.054688 225.34375 316.816406 223.667969 C 315.558594 221.964844 316.816406 216.667969 317.710938 212.722656 C 319.476562 207.359375 319.777344 201.65625 318.621094 196.152344 C 316.332031 191.15625 312.78125 186.84375 308.339844 183.628906 C 305.054688 180.796875 300.976562 177.195312 300.976562 174.949219 C 300.976562 172.683594 305.054688 169.082031 308.339844 166.148438 C 312.800781 162.992188 316.351562 158.722656 318.621094 153.746094 C 319.777344 148.246094 319.476562 142.519531 317.710938 137.15625 C 316.816406 133.214844 315.558594 127.914062 316.816406 126.234375 C 318.054688 124.535156 323.59375 123.96875 327.667969 123.644531 C 333.265625 123.644531 338.761719 122.167969 343.609375 119.355469 C 347.75 115.671875 350.832031 110.957031 352.535156 105.699219 C 354.117188 101.875 356.265625 96.796875 358.417969 96.128906 C 358.578125 96.007812 358.78125 95.96875 358.984375 96.007812 C 362.332031 96.859375 365.515625 98.3125 368.355469 100.296875 C 372.980469 103.636719 378.394531 105.679688 384.074219 106.265625 C 389.753906 105.679688 395.167969 103.636719 399.792969 100.296875 C 403.179688 98.253906 407.925781 95.5625 409.730469 96.128906 C 411.882812 96.796875 414.03125 101.875 415.613281 105.699219 C 417.316406 110.957031 420.398438 115.671875 424.539062 119.355469 C 429.386719 122.167969 434.882812 123.644531 440.480469 123.644531 C 444.558594 123.96875 450.09375 124.535156 451.351562 126.234375 C 452.589844 127.914062 451.351562 133.214844 450.4375 137.15625 C 448.675781 142.519531 448.371094 148.246094 449.527344 153.746094 C 451.796875 158.722656 455.347656 162.992188 459.828125 166.148438 C 463.09375 169.082031 467.171875 172.683594 467.171875 174.949219 C 467.171875 177.195312 463.09375 180.796875 459.828125 183.628906 C 455.367188 186.84375 451.816406 191.15625 449.527344 196.152344 C 448.371094 201.65625 448.675781 207.359375 450.4375 212.722656 C 451.351562 216.667969 452.589844 221.964844 451.351562 223.667969 C 450.09375 225.34375 444.558594 225.910156 440.480469 226.253906 C 437.011719 226.457031 433.5625 227.023438 430.195312 227.957031 C 430.074219 227.957031 429.972656 228.054688 429.851562 228.054688 C 427.945312 228.542969 426.140625 229.371094 424.539062 230.542969 C 420.398438 234.207031 417.316406 238.921875 415.613281 244.179688 C 414.03125 248.023438 411.882812 253.082031 409.730469 253.769531 C 407.925781 254.316406 403.179688 251.625 399.792969 249.601562 C 396.75 247.660156 393.546875 246.042969 390.179688 244.746094 C 389.957031 244.746094 389.835938 244.625 389.734375 244.625 C 389.308594 244.421875 388.839844 244.300781 388.375 244.28125 C 388.253906 244.179688 388.253906 244.179688 388.152344 244.179688 C 386.8125 243.835938 385.453125 243.632812 384.074219 243.613281 Z M 340.324219 293.121094 L 337.953125 274.972656 C 337.464844 271.875 334.605469 269.734375 331.503906 270.117188 L 313.410156 272.605469 L 337.953125 240.578125 C 339.675781 243.089844 341.097656 245.820312 342.128906 248.691406 C 344.847656 255.003906 347.890625 262.226562 354.910156 264.472656 C 357.21875 265.199219 359.675781 265.320312 362.027344 264.816406 Z M 442.0625 237.523438 C 448.957031 237.867188 455.671875 235.238281 460.5 230.300781 C 463.683594 224.070312 464.007812 216.746094 461.410156 210.234375 C 460.378906 206.8125 459.992188 203.210938 460.277344 199.632812 C 462.082031 196.738281 464.414062 194.210938 467.171875 192.1875 C 473.257812 188.363281 477.394531 182.050781 478.46875 174.949219 C 477.394531 167.828125 473.257812 161.535156 467.171875 157.691406 C 464.414062 155.667969 462.082031 153.140625 460.277344 150.246094 C 459.992188 146.6875 460.378906 143.085938 461.410156 139.644531 C 464.007812 133.152344 463.683594 125.828125 460.5 119.578125 C 455.488281 114.578125 448.574219 111.96875 441.492188 112.355469 C 437.964844 112.394531 434.476562 111.707031 431.210938 110.332031 C 428.898438 107.660156 427.113281 104.566406 426.019531 101.1875 C 423.300781 94.875 420.257812 87.671875 413.242188 85.40625 C 406.386719 84.273438 399.367188 86.15625 394.011719 90.605469 C 391.03125 92.710938 387.644531 94.207031 384.074219 94.996094 C 380.484375 94.207031 377.117188 92.710938 374.136719 90.605469 C 368.78125 86.175781 361.765625 84.273438 354.910156 85.40625 C 347.890625 87.671875 344.847656 94.875 342.128906 101.1875 C 341.015625 104.566406 339.25 107.660156 336.9375 110.332031 C 333.671875 111.707031 330.183594 112.394531 326.632812 112.355469 C 319.578125 111.96875 312.660156 114.578125 307.648438 119.578125 C 304.464844 125.828125 304.140625 133.152344 306.757812 139.644531 C 307.773438 143.085938 308.15625 146.6875 307.875 150.246094 C 306.066406 153.140625 303.734375 155.667969 300.976562 157.691406 C 294.890625 161.535156 290.753906 167.828125 289.679688 174.949219 C 290.753906 182.050781 294.890625 188.363281 300.976562 192.1875 C 303.734375 194.210938 306.066406 196.738281 307.875 199.632812 C 308.15625 203.210938 307.773438 206.8125 306.757812 210.234375 C 304.140625 216.746094 304.464844 224.070312 307.648438 230.300781 C 312.476562 235.238281 319.191406 237.867188 326.085938 237.523438 L 296.128906 276.550781 C 294.792969 278.390625 294.667969 280.839844 295.804688 282.800781 C 296.960938 284.742188 299.171875 285.835938 301.445312 285.554688 L 327.445312 282.074219 L 330.953125 308.109375 L 330.933594 308.109375 C 331.277344 310.355469 332.921875 312.175781 335.132812 312.742188 C 335.597656 312.863281 336.105469 312.945312 336.59375 312.964844 C 338.378906 312.945312 340.042969 312.117188 341.117188 310.699219 L 383.730469 255.003906 C 383.933594 254.863281 384.214844 254.863281 384.417969 255.003906 L 427.03125 310.699219 C 428.109375 312.117188 429.769531 312.945312 431.554688 312.964844 C 432.042969 312.945312 432.550781 312.886719 433.015625 312.742188 C 435.226562 312.175781 436.871094 310.355469 437.214844 308.109375 L 440.722656 282.074219 L 466.707031 285.554688 C 468.976562 285.835938 471.1875 284.742188 472.324219 282.800781 C 473.5 280.839844 473.378906 278.390625 472.019531 276.550781 Z M 408.230469 155.871094 C 410.707031 157.734375 411.210938 161.273438 409.347656 163.761719 L 380.078125 202.222656 C 379.003906 203.65625 377.339844 204.488281 375.554688 204.488281 C 373.769531 204.46875 372.085938 203.617188 371.03125 202.179688 L 358.800781 185.46875 C 356.957031 182.960938 357.503906 179.441406 360.019531 177.601562 C 362.554688 175.757812 366.082031 176.304688 367.929688 178.8125 L 375.675781 189.394531 L 400.320312 156.945312 C 402.207031 154.496094 405.734375 154.011719 408.230469 155.871094 Z M 384.074219 225.6875 C 370.585938 225.6875 357.644531 220.328125 348.09375 210.839844 C 338.5625 201.3125 333.207031 188.402344 333.207031 174.949219 C 333.207031 161.496094 338.5625 148.589844 348.09375 139.058594 C 357.644531 129.550781 370.585938 124.210938 384.074219 124.210938 C 397.5625 124.210938 410.503906 129.550781 420.035156 139.058594 C 429.589844 148.589844 434.941406 161.496094 434.941406 174.949219 C 434.921875 188.402344 429.566406 201.289062 420.015625 210.820312 C 410.503906 220.328125 397.5625 225.667969 384.074219 225.6875 Z M 446.261719 174.949219 C 446.261719 158.5 439.710938 142.722656 428.046875 131.089844 C 416.382812 119.457031 400.5625 112.921875 384.074219 112.921875 C 367.585938 112.921875 351.765625 119.457031 340.101562 131.089844 C 328.460938 142.722656 321.910156 158.5 321.910156 174.949219 C 321.910156 191.398438 328.460938 207.179688 340.101562 218.8125 C 351.765625 230.421875 367.585938 236.957031 384.074219 236.957031 C 400.5625 236.957031 416.363281 230.402344 428.027344 218.789062 C 439.6875 207.15625 446.238281 191.398438 446.261719 174.949219 " fill-opacity="1" fill-rule="nonzero"/></g><g fill="#3a3d41" fill-opacity="1"><g transform="translate(190.054679, 376.94435)"><g/></g></g><g fill="#3a3d41" fill-opacity="1"><g transform="translate(190.054679, 376.94435)"><g><path d="M 20.15625 0 L 4.15625 0 L 4.15625 -29.296875 L 20.15625 -29.296875 L 20.15625 -27.421875 L 6.1875 -27.421875 L 6.1875 -16.328125 L 19.375 -16.328125 L 19.375 -14.453125 L 6.1875 -14.453125 L 6.1875 -1.890625 L 20.15625 -1.890625 Z M 20.15625 0 "/></g></g></g><g fill="#3a3d41" fill-opacity="1"><g transform="translate(212.698302, 376.94435)"><g><path d="M 9 -11.203125 L 1.40625 -21.78125 L 3.6875 -21.78125 L 10.1875 -12.609375 L 16.609375 -21.78125 L 18.796875 -21.78125 L 11.328125 -11.203125 L 19.34375 0 L 17.03125 0 L 10.1875 -9.71875 L 3.28125 0 L 1.109375 0 Z M 9 -11.203125 "/></g></g></g><g fill="#3a3d41" fill-opacity="1"><g transform="translate(233.137678, 376.94435)"><g><path d="M 9.40625 -1.359375 C 10.65625 -1.359375 11.75 -1.46875 12.6875 -1.6875 L 12.6875 -0.078125 C 11.726562 0.242188 10.617188 0.40625 9.359375 0.40625 C 7.429688 0.40625 6.007812 -0.109375 5.09375 -1.140625 C 4.1875 -2.171875 3.734375 -3.789062 3.734375 -6 L 3.734375 -20.0625 L 0.5 -20.0625 L 0.5 -21.21875 L 3.734375 -22.125 L 4.734375 -27.0625 L 5.75 -27.0625 L 5.75 -21.78125 L 12.140625 -21.78125 L 12.140625 -20.0625 L 5.75 -20.0625 L 5.75 -6.265625 C 5.75 -4.597656 6.039062 -3.363281 6.625 -2.5625 C 7.21875 -1.757812 8.144531 -1.359375 9.40625 -1.359375 Z M 9.40625 -1.359375 "/></g></g></g><g fill="#3a3d41" fill-opacity="1"><g transform="translate(246.88416, 376.94435)"><g><path d="M 12.453125 0.40625 C 9.285156 0.40625 6.816406 -0.566406 5.046875 -2.515625 C 3.273438 -4.472656 2.390625 -7.207031 2.390625 -10.71875 C 2.390625 -14.195312 3.242188 -16.976562 4.953125 -19.0625 C 6.660156 -21.15625 8.960938 -22.203125 11.859375 -22.203125 C 14.429688 -22.203125 16.457031 -21.304688 17.9375 -19.515625 C 19.414062 -17.722656 20.15625 -15.289062 20.15625 -12.21875 L 20.15625 -10.625 L 4.46875 -10.625 C 4.5 -7.632812 5.195312 -5.347656 6.5625 -3.765625 C 7.9375 -2.191406 9.898438 -1.40625 12.453125 -1.40625 C 13.691406 -1.40625 14.78125 -1.488281 15.71875 -1.65625 C 16.664062 -1.832031 17.859375 -2.207031 19.296875 -2.78125 L 19.296875 -0.984375 C 18.066406 -0.453125 16.929688 -0.0859375 15.890625 0.109375 C 14.847656 0.304688 13.703125 0.40625 12.453125 0.40625 Z M 11.859375 -20.4375 C 9.765625 -20.4375 8.082031 -19.742188 6.8125 -18.359375 C 5.539062 -16.984375 4.800781 -14.992188 4.59375 -12.390625 L 18.0625 -12.390625 C 18.0625 -14.910156 17.507812 -16.878906 16.40625 -18.296875 C 15.3125 -19.722656 13.796875 -20.4375 11.859375 -20.4375 Z M 11.859375 -20.4375 "/></g></g></g><g fill="#3a3d41" fill-opacity="1"><g transform="translate(269.407551, 376.94435)"><g><path d="M 18.84375 0 L 18.84375 -14.125 C 18.84375 -16.320312 18.378906 -17.914062 17.453125 -18.90625 C 16.535156 -19.90625 15.109375 -20.40625 13.171875 -20.40625 C 10.566406 -20.40625 8.65625 -19.742188 7.4375 -18.421875 C 6.226562 -17.109375 5.625 -14.976562 5.625 -12.03125 L 5.625 0 L 3.640625 0 L 3.640625 -21.78125 L 5.328125 -21.78125 L 5.71875 -18.796875 L 5.828125 -18.796875 C 7.242188 -21.066406 9.765625 -22.203125 13.390625 -22.203125 C 18.328125 -22.203125 20.796875 -19.550781 20.796875 -14.25 L 20.796875 0 Z M 18.84375 0 "/></g></g></g><g fill="#3a3d41" fill-opacity="1"><g transform="translate(293.614185, 376.94435)"><g><path d="M 17.15625 -5.671875 C 17.15625 -3.722656 16.410156 -2.222656 14.921875 -1.171875 C 13.441406 -0.117188 11.34375 0.40625 8.625 0.40625 C 5.707031 0.40625 3.394531 -0.0390625 1.6875 -0.9375 L 1.6875 -3.09375 C 3.875 -1.988281 6.1875 -1.4375 8.625 -1.4375 C 10.769531 -1.4375 12.398438 -1.796875 13.515625 -2.515625 C 14.628906 -3.234375 15.1875 -4.1875 15.1875 -5.375 C 15.1875 -6.46875 14.742188 -7.390625 13.859375 -8.140625 C 12.972656 -8.890625 11.515625 -9.625 9.484375 -10.34375 C 7.304688 -11.132812 5.773438 -11.8125 4.890625 -12.375 C 4.003906 -12.945312 3.335938 -13.585938 2.890625 -14.296875 C 2.441406 -15.015625 2.21875 -15.890625 2.21875 -16.921875 C 2.21875 -18.546875 2.898438 -19.832031 4.265625 -20.78125 C 5.640625 -21.726562 7.554688 -22.203125 10.015625 -22.203125 C 12.367188 -22.203125 14.601562 -21.765625 16.71875 -20.890625 L 15.96875 -19.078125 C 13.832031 -19.960938 11.847656 -20.40625 10.015625 -20.40625 C 8.242188 -20.40625 6.835938 -20.109375 5.796875 -19.515625 C 4.753906 -18.929688 4.234375 -18.117188 4.234375 -17.078125 C 4.234375 -15.941406 4.632812 -15.03125 5.4375 -14.34375 C 6.25 -13.664062 7.832031 -12.90625 10.1875 -12.0625 C 12.144531 -11.351562 13.570312 -10.710938 14.46875 -10.140625 C 15.363281 -9.578125 16.035156 -8.9375 16.484375 -8.21875 C 16.929688 -7.5 17.15625 -6.648438 17.15625 -5.671875 Z M 17.15625 -5.671875 "/></g></g></g><g fill="#3a3d41" fill-opacity="1"><g transform="translate(312.731013, 376.94435)"><g><path d="M 5.625 0 L 3.640625 0 L 3.640625 -21.78125 L 5.625 -21.78125 Z M 3.359375 -27.84375 C 3.359375 -29.125 3.78125 -29.765625 4.625 -29.765625 C 5.039062 -29.765625 5.363281 -29.597656 5.59375 -29.265625 C 5.832031 -28.929688 5.953125 -28.457031 5.953125 -27.84375 C 5.953125 -27.238281 5.832031 -26.757812 5.59375 -26.40625 C 5.363281 -26.0625 5.039062 -25.890625 4.625 -25.890625 C 3.78125 -25.890625 3.359375 -26.539062 3.359375 -27.84375 Z M 3.359375 -27.84375 "/></g></g></g><g fill="#3a3d41" fill-opacity="1"><g transform="translate(322.008886, 376.94435)"><g><path d="M 8.421875 0 L 0 -21.78125 L 2.046875 -21.78125 L 7.671875 -6.96875 C 8.421875 -5.070312 8.984375 -3.414062 9.359375 -2 L 9.484375 -2 C 10.023438 -3.820312 10.582031 -5.492188 11.15625 -7.015625 L 16.796875 -21.78125 L 18.84375 -21.78125 L 10.421875 0 Z M 8.421875 0 "/></g></g></g><g fill="#3a3d41" fill-opacity="1"><g transform="translate(340.845174, 376.94435)"><g><path d="M 12.453125 0.40625 C 9.285156 0.40625 6.816406 -0.566406 5.046875 -2.515625 C 3.273438 -4.472656 2.390625 -7.207031 2.390625 -10.71875 C 2.390625 -14.195312 3.242188 -16.976562 4.953125 -19.0625 C 6.660156 -21.15625 8.960938 -22.203125 11.859375 -22.203125 C 14.429688 -22.203125 16.457031 -21.304688 17.9375 -19.515625 C 19.414062 -17.722656 20.15625 -15.289062 20.15625 -12.21875 L 20.15625 -10.625 L 4.46875 -10.625 C 4.5 -7.632812 5.195312 -5.347656 6.5625 -3.765625 C 7.9375 -2.191406 9.898438 -1.40625 12.453125 -1.40625 C 13.691406 -1.40625 14.78125 -1.488281 15.71875 -1.65625 C 16.664062 -1.832031 17.859375 -2.207031 19.296875 -2.78125 L 19.296875 -0.984375 C 18.066406 -0.453125 16.929688 -0.0859375 15.890625 0.109375 C 14.847656 0.304688 13.703125 0.40625 12.453125 0.40625 Z M 11.859375 -20.4375 C 9.765625 -20.4375 8.082031 -19.742188 6.8125 -18.359375 C 5.539062 -16.984375 4.800781 -14.992188 4.59375 -12.390625 L 18.0625 -12.390625 C 18.0625 -14.910156 17.507812 -16.878906 16.40625 -18.296875 C 15.3125 -19.722656 13.796875 -20.4375 11.859375 -20.4375 Z M 11.859375 -20.4375 "/></g></g></g><g fill="#3a3d41" fill-opacity="1"><g transform="translate(363.368564, 376.94435)"><g/></g></g><g fill="#3a3d41" fill-opacity="1"><g transform="translate(374.029102, 376.94435)"><g><path d="M 12.453125 0.40625 C 9.285156 0.40625 6.816406 -0.566406 5.046875 -2.515625 C 3.273438 -4.472656 2.390625 -7.207031 2.390625 -10.71875 C 2.390625 -14.195312 3.242188 -16.976562 4.953125 -19.0625 C 6.660156 -21.15625 8.960938 -22.203125 11.859375 -22.203125 C 14.429688 -22.203125 16.457031 -21.304688 17.9375 -19.515625 C 19.414062 -17.722656 20.15625 -15.289062 20.15625 -12.21875 L 20.15625 -10.625 L 4.46875 -10.625 C 4.5 -7.632812 5.195312 -5.347656 6.5625 -3.765625 C 7.9375 -2.191406 9.898438 -1.40625 12.453125 -1.40625 C 13.691406 -1.40625 14.78125 -1.488281 15.71875 -1.65625 C 16.664062 -1.832031 17.859375 -2.207031 19.296875 -2.78125 L 19.296875 -0.984375 C 18.066406 -0.453125 16.929688 -0.0859375 15.890625 0.109375 C 14.847656 0.304688 13.703125 0.40625 12.453125 0.40625 Z M 11.859375 -20.4375 C 9.765625 -20.4375 8.082031 -19.742188 6.8125 -18.359375 C 5.539062 -16.984375 4.800781 -14.992188 4.59375 -12.390625 L 18.0625 -12.390625 C 18.0625 -14.910156 17.507812 -16.878906 16.40625 -18.296875 C 15.3125 -19.722656 13.796875 -20.4375 11.859375 -20.4375 Z M 11.859375 -20.4375 "/></g></g></g><g fill="#3a3d41" fill-opacity="1"><g transform="translate(396.552504, 376.94435)"><g><path d="M 9 -11.203125 L 1.40625 -21.78125 L 3.6875 -21.78125 L 10.1875 -12.609375 L 16.609375 -21.78125 L 18.796875 -21.78125 L 11.328125 -11.203125 L 19.34375 0 L 17.03125 0 L 10.1875 -9.71875 L 3.28125 0 L 1.109375 0 Z M 9 -11.203125 "/></g></g></g><g fill="#3a3d41" fill-opacity="1"><g transform="translate(416.991879, 376.94435)"><g><path d="M 12.96875 0.40625 C 9.613281 0.40625 7.164062 -0.847656 5.625 -3.359375 L 5.484375 -3.359375 L 5.546875 -1.6875 C 5.597656 -0.695312 5.625 0.382812 5.625 1.5625 L 5.625 9.859375 L 3.640625 9.859375 L 3.640625 -21.78125 L 5.328125 -21.78125 L 5.71875 -18.671875 L 5.828125 -18.671875 C 7.328125 -21.023438 9.71875 -22.203125 13 -22.203125 C 15.945312 -22.203125 18.191406 -21.238281 19.734375 -19.3125 C 21.273438 -17.382812 22.046875 -14.578125 22.046875 -10.890625 C 22.046875 -7.304688 21.234375 -4.523438 19.609375 -2.546875 C 17.984375 -0.578125 15.769531 0.40625 12.96875 0.40625 Z M 12.921875 -1.359375 C 15.160156 -1.359375 16.890625 -2.1875 18.109375 -3.84375 C 19.328125 -5.5 19.9375 -7.816406 19.9375 -10.796875 C 19.9375 -17.203125 17.625 -20.40625 13 -20.40625 C 10.46875 -20.40625 8.601562 -19.707031 7.40625 -18.3125 C 6.21875 -16.914062 5.625 -14.640625 5.625 -11.484375 L 5.625 -10.84375 C 5.625 -7.4375 6.195312 -5.003906 7.34375 -3.546875 C 8.488281 -2.085938 10.347656 -1.359375 12.921875 -1.359375 Z M 12.921875 -1.359375 "/></g></g></g><g fill="#3a3d41" fill-opacity="1"><g transform="translate(441.418926, 376.94435)"><g><path d="M 12.453125 0.40625 C 9.285156 0.40625 6.816406 -0.566406 5.046875 -2.515625 C 3.273438 -4.472656 2.390625 -7.207031 2.390625 -10.71875 C 2.390625 -14.195312 3.242188 -16.976562 4.953125 -19.0625 C 6.660156 -21.15625 8.960938 -22.203125 11.859375 -22.203125 C 14.429688 -22.203125 16.457031 -21.304688 17.9375 -19.515625 C 19.414062 -17.722656 20.15625 -15.289062 20.15625 -12.21875 L 20.15625 -10.625 L 4.46875 -10.625 C 4.5 -7.632812 5.195312 -5.347656 6.5625 -3.765625 C 7.9375 -2.191406 9.898438 -1.40625 12.453125 -1.40625 C 13.691406 -1.40625 14.78125 -1.488281 15.71875 -1.65625 C 16.664062 -1.832031 17.859375 -2.207031 19.296875 -2.78125 L 19.296875 -0.984375 C 18.066406 -0.453125 16.929688 -0.0859375 15.890625 0.109375 C 14.847656 0.304688 13.703125 0.40625 12.453125 0.40625 Z M 11.859375 -20.4375 C 9.765625 -20.4375 8.082031 -19.742188 6.8125 -18.359375 C 5.539062 -16.984375 4.800781 -14.992188 4.59375 -12.390625 L 18.0625 -12.390625 C 18.0625 -14.910156 17.507812 -16.878906 16.40625 -18.296875 C 15.3125 -19.722656 13.796875 -20.4375 11.859375 -20.4375 Z M 11.859375 -20.4375 "/></g></g></g><g fill="#3a3d41" fill-opacity="1"><g transform="translate(463.942317, 376.94435)"><g><path d="M 12.21875 -22.203125 C 13.144531 -22.203125 14.132812 -22.109375 15.1875 -21.921875 L 14.8125 -20.015625 C 13.90625 -20.242188 12.960938 -20.359375 11.984375 -20.359375 C 10.128906 -20.359375 8.601562 -19.570312 7.40625 -18 C 6.21875 -16.425781 5.625 -14.4375 5.625 -12.03125 L 5.625 0 L 3.640625 0 L 3.640625 -21.78125 L 5.328125 -21.78125 L 5.53125 -17.859375 L 5.671875 -17.859375 C 6.566406 -19.460938 7.519531 -20.585938 8.53125 -21.234375 C 9.550781 -21.878906 10.78125 -22.203125 12.21875 -22.203125 Z M 12.21875 -22.203125 "/></g></g></g><g fill="#3a3d41" fill-opacity="1"><g transform="translate(479.913096, 376.94435)"><g><path d="M 5.625 0 L 3.640625 0 L 3.640625 -21.78125 L 5.625 -21.78125 Z M 3.359375 -27.84375 C 3.359375 -29.125 3.78125 -29.765625 4.625 -29.765625 C 5.039062 -29.765625 5.363281 -29.597656 5.59375 -29.265625 C 5.832031 -28.929688 5.953125 -28.457031 5.953125 -27.84375 C 5.953125 -27.238281 5.832031 -26.757812 5.59375 -26.40625 C 5.363281 -26.0625 5.039062 -25.890625 4.625 -25.890625 C 3.78125 -25.890625 3.359375 -26.539062 3.359375 -27.84375 Z M 3.359375 -27.84375 "/></g></g></g><g fill="#3a3d41" fill-opacity="1"><g transform="translate(489.190958, 376.94435)"><g><path d="M 12.453125 0.40625 C 9.285156 0.40625 6.816406 -0.566406 5.046875 -2.515625 C 3.273438 -4.472656 2.390625 -7.207031 2.390625 -10.71875 C 2.390625 -14.195312 3.242188 -16.976562 4.953125 -19.0625 C 6.660156 -21.15625 8.960938 -22.203125 11.859375 -22.203125 C 14.429688 -22.203125 16.457031 -21.304688 17.9375 -19.515625 C 19.414062 -17.722656 20.15625 -15.289062 20.15625 -12.21875 L 20.15625 -10.625 L 4.46875 -10.625 C 4.5 -7.632812 5.195312 -5.347656 6.5625 -3.765625 C 7.9375 -2.191406 9.898438 -1.40625 12.453125 -1.40625 C 13.691406 -1.40625 14.78125 -1.488281 15.71875 -1.65625 C 16.664062 -1.832031 17.859375 -2.207031 19.296875 -2.78125 L 19.296875 -0.984375 C 18.066406 -0.453125 16.929688 -0.0859375 15.890625 0.109375 C 14.847656 0.304688 13.703125 0.40625 12.453125 0.40625 Z M 11.859375 -20.4375 C 9.765625 -20.4375 8.082031 -19.742188 6.8125 -18.359375 C 5.539062 -16.984375 4.800781 -14.992188 4.59375 -12.390625 L 18.0625 -12.390625 C 18.0625 -14.910156 17.507812 -16.878906 16.40625 -18.296875 C 15.3125 -19.722656 13.796875 -20.4375 11.859375 -20.4375 Z M 11.859375 -20.4375 "/></g></g></g><g fill="#3a3d41" fill-opacity="1"><g transform="translate(511.714349, 376.94435)"><g><path d="M 18.84375 0 L 18.84375 -14.125 C 18.84375 -16.320312 18.378906 -17.914062 17.453125 -18.90625 C 16.535156 -19.90625 15.109375 -20.40625 13.171875 -20.40625 C 10.566406 -20.40625 8.65625 -19.742188 7.4375 -18.421875 C 6.226562 -17.109375 5.625 -14.976562 5.625 -12.03125 L 5.625 0 L 3.640625 0 L 3.640625 -21.78125 L 5.328125 -21.78125 L 5.71875 -18.796875 L 5.828125 -18.796875 C 7.242188 -21.066406 9.765625 -22.203125 13.390625 -22.203125 C 18.328125 -22.203125 20.796875 -19.550781 20.796875 -14.25 L 20.796875 0 Z M 18.84375 0 "/></g></g></g><g fill="#3a3d41" fill-opacity="1"><g transform="translate(535.920983, 376.94435)"><g><path d="M 12.34375 0.40625 C 9.226562 0.40625 6.789062 -0.570312 5.03125 -2.53125 C 3.269531 -4.5 2.390625 -7.242188 2.390625 -10.765625 C 2.390625 -14.367188 3.300781 -17.175781 5.125 -19.1875 C 6.957031 -21.195312 9.460938 -22.203125 12.640625 -22.203125 C 14.523438 -22.203125 16.332031 -21.875 18.0625 -21.21875 L 17.515625 -19.46875 C 15.628906 -20.09375 13.992188 -20.40625 12.609375 -20.40625 C 9.929688 -20.40625 7.90625 -19.578125 6.53125 -17.921875 C 5.15625 -16.273438 4.46875 -13.898438 4.46875 -10.796875 C 4.46875 -7.859375 5.15625 -5.554688 6.53125 -3.890625 C 7.90625 -2.234375 9.832031 -1.40625 12.3125 -1.40625 C 14.28125 -1.40625 16.113281 -1.757812 17.8125 -2.46875 L 17.8125 -0.625 C 16.425781 0.0625 14.601562 0.40625 12.34375 0.40625 Z M 12.34375 0.40625 "/></g></g></g><g fill="#3a3d41" fill-opacity="1"><g transform="translate(555.418556, 376.94435)"><g><path d="M 12.453125 0.40625 C 9.285156 0.40625 6.816406 -0.566406 5.046875 -2.515625 C 3.273438 -4.472656 2.390625 -7.207031 2.390625 -10.71875 C 2.390625 -14.195312 3.242188 -16.976562 4.953125 -19.0625 C 6.660156 -21.15625 8.960938 -22.203125 11.859375 -22.203125 C 14.429688 -22.203125 16.457031 -21.304688 17.9375 -19.515625 C 19.414062 -17.722656 20.15625 -15.289062 20.15625 -12.21875 L 20.15625 -10.625 L 4.46875 -10.625 C 4.5 -7.632812 5.195312 -5.347656 6.5625 -3.765625 C 7.9375 -2.191406 9.898438 -1.40625 12.453125 -1.40625 C 13.691406 -1.40625 14.78125 -1.488281 15.71875 -1.65625 C 16.664062 -1.832031 17.859375 -2.207031 19.296875 -2.78125 L 19.296875 -0.984375 C 18.066406 -0.453125 16.929688 -0.0859375 15.890625 0.109375 C 14.847656 0.304688 13.703125 0.40625 12.453125 0.40625 Z M 11.859375 -20.4375 C 9.765625 -20.4375 8.082031 -19.742188 6.8125 -18.359375 C 5.539062 -16.984375 4.800781 -14.992188 4.59375 -12.390625 L 18.0625 -12.390625 C 18.0625 -14.910156 17.507812 -16.878906 16.40625 -18.296875 C 15.3125 -19.722656 13.796875 -20.4375 11.859375 -20.4375 Z M 11.859375 -20.4375 "/></g></g></g><g fill="#3a3d41" fill-opacity="1"><g transform="translate(577.93357, 376.94435)"><g/></g></g><g fill="#3a3d41" fill-opacity="1"><g transform="translate(239.286524, 447.115225)"><g><path d="M 26.71875 -4.390625 C 27.269531 -4.390625 27.546875 -3.664062 27.546875 -2.21875 C 27.546875 -0.738281 27.269531 0 26.71875 0 L 25.859375 0 C 22.492188 0 20.179688 -0.972656 18.921875 -2.921875 C 17.929688 -2.453125 16.863281 -2.070312 15.71875 -1.78125 C 14.570312 -1.5 13.460938 -1.359375 12.390625 -1.359375 C 10.453125 -1.359375 8.660156 -1.800781 7.015625 -2.6875 C 5.378906 -3.570312 4.070312 -4.785156 3.09375 -6.328125 C 2.125 -7.878906 1.640625 -9.570312 1.640625 -11.40625 C 1.640625 -13.269531 2.125 -14.96875 3.09375 -16.5 C 4.070312 -18.03125 5.378906 -19.25 7.015625 -20.15625 C 8.660156 -21.0625 10.441406 -21.515625 12.359375 -21.515625 L 17.65625 -21.515625 L 17.65625 -22.53125 L 22.375 -22.53125 L 22.375 -8.328125 C 22.375 -6.878906 22.644531 -5.859375 23.1875 -5.265625 C 23.738281 -4.679688 24.753906 -4.390625 26.234375 -4.390625 Z M 12.515625 -5.78125 C 14.210938 -5.78125 15.9375 -6.273438 17.6875 -7.265625 C 17.664062 -7.484375 17.65625 -7.828125 17.65625 -8.296875 L 17.65625 -17.109375 L 12.359375 -17.109375 C 11.265625 -17.109375 10.257812 -16.851562 9.34375 -16.34375 C 8.425781 -15.84375 7.695312 -15.15625 7.15625 -14.28125 C 6.625 -13.40625 6.359375 -12.445312 6.359375 -11.40625 C 6.359375 -10.363281 6.617188 -9.421875 7.140625 -8.578125 C 7.660156 -7.734375 8.390625 -7.054688 9.328125 -6.546875 C 10.273438 -6.035156 11.335938 -5.78125 12.515625 -5.78125 Z M 8.78125 -24.578125 C 8.0625 -24.578125 7.460938 -24.820312 6.984375 -25.3125 C 6.503906 -25.8125 6.265625 -26.429688 6.265625 -27.171875 C 6.265625 -27.910156 6.503906 -28.523438 6.984375 -29.015625 C 7.460938 -29.503906 8.0625 -29.75 8.78125 -29.75 C 9.488281 -29.75 10.082031 -29.507812 10.5625 -29.03125 C 11.039062 -28.550781 11.28125 -27.929688 11.28125 -27.171875 C 11.28125 -26.429688 11.039062 -25.8125 10.5625 -25.3125 C 10.082031 -24.820312 9.488281 -24.578125 8.78125 -24.578125 Z M 15.265625 -24.578125 C 14.546875 -24.578125 13.945312 -24.820312 13.46875 -25.3125 C 13 -25.8125 12.765625 -26.429688 12.765625 -27.171875 C 12.765625 -27.910156 13 -28.523438 13.46875 -29.015625 C 13.945312 -29.503906 14.546875 -29.75 15.265625 -29.75 C 15.972656 -29.75 16.566406 -29.507812 17.046875 -29.03125 C 17.523438 -28.550781 17.765625 -27.929688 17.765625 -27.171875 C 17.765625 -26.429688 17.523438 -25.8125 17.046875 -25.3125 C 16.566406 -24.820312 15.972656 -24.578125 15.265625 -24.578125 Z M 15.265625 -24.578125 "/></g></g></g><g fill="#3a3d41" fill-opacity="1"><g transform="translate(266.00295, 447.115225)"><g><path d="M 28.328125 -4.390625 C 28.867188 -4.390625 29.140625 -3.664062 29.140625 -2.21875 C 29.140625 -0.738281 28.867188 0 28.328125 0 L 21.140625 0 C 18.097656 0 15.289062 -0.53125 12.71875 -1.59375 C 9.851562 -0.53125 7.351562 0 5.21875 0 L 0 0 C -0.550781 0 -0.828125 -0.738281 -0.828125 -2.21875 C -0.828125 -3.664062 -0.550781 -4.390625 0 -4.390625 L 5.21875 -4.390625 C 6.113281 -4.390625 6.988281 -4.484375 7.84375 -4.671875 C 5.269531 -6.921875 3.476562 -9.820312 2.46875 -13.375 L 6.4375 -20.234375 C 8.820312 -20.921875 11.175781 -21.265625 13.5 -21.265625 C 15.851562 -21.265625 17.925781 -20.957031 19.71875 -20.34375 C 21.507812 -19.726562 22.90625 -18.851562 23.90625 -17.71875 C 24.90625 -16.582031 25.40625 -15.273438 25.40625 -13.796875 C 25.40625 -12.117188 24.789062 -10.488281 23.5625 -8.90625 C 22.332031 -7.320312 20.691406 -5.875 18.640625 -4.5625 C 19.316406 -4.445312 20.148438 -4.390625 21.140625 -4.390625 Z M 6.859375 -15.59375 C 7.296875 -13.570312 8.046875 -11.78125 9.109375 -10.21875 C 10.179688 -8.65625 11.523438 -7.394531 13.140625 -6.4375 C 15.273438 -7.457031 17.066406 -8.644531 18.515625 -10 C 19.960938 -11.351562 20.6875 -12.578125 20.6875 -13.671875 C 20.6875 -14.628906 20.054688 -15.398438 18.796875 -15.984375 C 17.535156 -16.578125 15.785156 -16.875 13.546875 -16.875 C 11.222656 -16.875 8.992188 -16.445312 6.859375 -15.59375 Z M 6.859375 -15.59375 "/></g></g></g><g fill="#3a3d41" fill-opacity="1"><g transform="translate(294.319888, 447.115225)"><g><path d="M 7.09375 -4.390625 C 7.644531 -4.390625 7.921875 -3.664062 7.921875 -2.21875 C 7.921875 -0.738281 7.644531 0 7.09375 0 L 0 0 C -0.550781 0 -0.828125 -0.738281 -0.828125 -2.21875 C -0.828125 -3.664062 -0.550781 -4.390625 0 -4.390625 Z M 7.09375 -4.390625 "/></g></g></g><g fill="#3a3d41" fill-opacity="1"><g transform="translate(301.419642, 447.115225)"><g><path d="M 7.09375 -4.390625 C 7.644531 -4.390625 7.921875 -3.664062 7.921875 -2.21875 C 7.921875 -0.738281 7.644531 0 7.09375 0 L 0 0 C -0.550781 0 -0.828125 -0.738281 -0.828125 -2.21875 C -0.828125 -3.664062 -0.550781 -4.390625 0 -4.390625 Z M 7.09375 -4.390625 "/></g></g></g><g fill="#3a3d41" fill-opacity="1"><g transform="translate(308.519396, 447.115225)"><g><path d="M 7.09375 -4.390625 C 7.644531 -4.390625 7.921875 -3.664062 7.921875 -2.21875 C 7.921875 -0.738281 7.644531 0 7.09375 0 L 0 0 C -0.550781 0 -0.828125 -0.738281 -0.828125 -2.21875 C -0.828125 -3.664062 -0.550781 -4.390625 0 -4.390625 Z M 7.09375 -4.390625 "/></g></g></g><g fill="#3a3d41" fill-opacity="1"><g transform="translate(315.61915, 447.115225)"><g><path d="M 7.09375 -4.390625 C 7.644531 -4.390625 7.921875 -3.664062 7.921875 -2.21875 C 7.921875 -0.738281 7.644531 0 7.09375 0 L 0 0 C -0.550781 0 -0.828125 -0.738281 -0.828125 -2.21875 C -0.828125 -3.664062 -0.550781 -4.390625 0 -4.390625 Z M 7.09375 -4.390625 "/></g></g></g><g fill="#3a3d41" fill-opacity="1"><g transform="translate(322.718905, 447.115225)"><g><path d="M 7.09375 -4.390625 C 7.644531 -4.390625 7.921875 -3.664062 7.921875 -2.21875 C 7.921875 -0.738281 7.644531 0 7.09375 0 L 0 0 C -0.550781 0 -0.828125 -0.738281 -0.828125 -2.21875 C -0.828125 -3.664062 -0.550781 -4.390625 0 -4.390625 Z M 7.09375 -4.390625 "/></g></g></g><g fill="#3a3d41" fill-opacity="1"><g transform="translate(329.818659, 447.115225)"><g><path d="M 28.9375 -19.984375 L 33.65625 -19.984375 L 33.65625 -8.296875 C 33.65625 -5.503906 33.003906 -3.421875 31.703125 -2.046875 C 30.410156 -0.679688 28.394531 0 25.65625 0 C 23.164062 0 21.179688 -0.585938 19.703125 -1.765625 C 18.410156 -0.585938 16.492188 0 13.953125 0 C 11.460938 0 9.476562 -0.585938 8 -1.765625 C 6.664062 -0.585938 4.679688 0 2.046875 0 L 0 0 C -0.550781 0 -0.828125 -0.738281 -0.828125 -2.21875 C -0.828125 -3.664062 -0.550781 -4.390625 0 -4.390625 L 1.6875 -4.390625 C 3.164062 -4.390625 4.175781 -4.679688 4.71875 -5.265625 C 5.269531 -5.859375 5.546875 -6.878906 5.546875 -8.328125 L 5.546875 -15.890625 L 10.265625 -15.890625 L 10.265625 -8.296875 C 10.265625 -7.085938 10.140625 -6.003906 9.890625 -5.046875 C 10.679688 -4.609375 11.773438 -4.390625 13.171875 -4.390625 C 14.765625 -4.390625 15.835938 -4.675781 16.390625 -5.25 C 16.953125 -5.820312 17.234375 -6.847656 17.234375 -8.328125 L 17.234375 -17.9375 L 21.953125 -17.9375 L 21.953125 -8.296875 C 21.953125 -7.085938 21.832031 -6.003906 21.59375 -5.046875 C 22.382812 -4.609375 23.476562 -4.390625 24.875 -4.390625 C 26.457031 -4.390625 27.53125 -4.675781 28.09375 -5.25 C 28.65625 -5.820312 28.9375 -6.847656 28.9375 -8.328125 Z M 28.9375 -19.984375 "/></g></g></g><g fill="#3a3d41" fill-opacity="1"><g transform="translate(365.933018, 447.115225)"><g><path d="M 8.421875 0 L 3.6875 0 L 3.6875 -30.421875 L 8.421875 -30.421875 Z M 8.421875 0 "/></g></g></g><g fill="#3a3d41" fill-opacity="1"><g transform="translate(378.039539, 447.115225)"><g><path d="M 12.96875 -21.140625 C 14.476562 -21.140625 16.070312 -20.929688 17.75 -20.515625 C 19.4375 -20.109375 20.945312 -19.550781 22.28125 -18.84375 L 22.28125 0.078125 C 22.28125 3.003906 21.488281 5.273438 19.90625 6.890625 C 18.320312 8.503906 16.144531 9.3125 13.375 9.3125 L 5.375 9.3125 L 5.375 4.921875 L 13.34375 4.921875 C 14.820312 4.921875 15.894531 4.535156 16.5625 3.765625 C 17.226562 3.003906 17.5625 1.773438 17.5625 0.078125 L 17.5625 0 L 12.359375 0 C 10.242188 0 8.375 -0.46875 6.75 -1.40625 C 5.125 -2.351562 3.863281 -3.617188 2.96875 -5.203125 C 2.082031 -6.796875 1.640625 -8.550781 1.640625 -10.46875 C 1.640625 -12.40625 2.101562 -14.1875 3.03125 -15.8125 C 3.96875 -17.445312 5.289062 -18.742188 7 -19.703125 C 8.707031 -20.660156 10.695312 -21.140625 12.96875 -21.140625 Z M 17.5625 -4.390625 L 17.5625 -15.96875 C 16.007812 -16.488281 14.492188 -16.75 13.015625 -16.75 C 10.960938 -16.75 9.335938 -16.171875 8.140625 -15.015625 C 6.953125 -13.867188 6.359375 -12.351562 6.359375 -10.46875 C 6.359375 -8.664062 6.910156 -7.203125 8.015625 -6.078125 C 9.128906 -4.953125 10.578125 -4.390625 12.359375 -4.390625 Z M 17.5625 -4.390625 "/></g></g></g><g fill="#3a3d41" fill-opacity="1"><g transform="translate(402.786082, 447.115225)"><g/></g></g><g fill="#3a3d41" fill-opacity="1"><g transform="translate(413.866629, 447.115225)"><g><path d="M 12.234375 0 C 10.234375 0 8.425781 -0.441406 6.8125 -1.328125 C 5.195312 -2.222656 3.929688 -3.425781 3.015625 -4.9375 C 2.097656 -6.457031 1.640625 -8.148438 1.640625 -10.015625 C 1.640625 -11.960938 2.144531 -13.8125 3.15625 -15.5625 C 4.164062 -17.3125 5.492188 -18.71875 7.140625 -19.78125 C 8.785156 -20.851562 10.484375 -21.390625 12.234375 -21.390625 C 13.984375 -21.390625 15.675781 -20.851562 17.3125 -19.78125 C 18.957031 -18.71875 20.285156 -17.3125 21.296875 -15.5625 C 22.316406 -13.8125 22.828125 -11.960938 22.828125 -10.015625 C 22.828125 -8.148438 22.367188 -6.457031 21.453125 -4.9375 C 20.535156 -3.425781 19.269531 -2.222656 17.65625 -1.328125 C 16.039062 -0.441406 14.234375 0 12.234375 0 Z M 12.234375 -4.390625 C 13.929688 -4.390625 15.332031 -4.914062 16.4375 -5.96875 C 17.550781 -7.019531 18.109375 -8.367188 18.109375 -10.015625 C 18.109375 -11.140625 17.8125 -12.238281 17.21875 -13.3125 C 16.632812 -14.394531 15.882812 -15.28125 14.96875 -15.96875 C 14.050781 -16.65625 13.140625 -17 12.234375 -17 C 11.328125 -17 10.414062 -16.65625 9.5 -15.96875 C 8.582031 -15.28125 7.828125 -14.394531 7.234375 -13.3125 C 6.648438 -12.238281 6.359375 -11.140625 6.359375 -10.015625 C 6.359375 -8.367188 6.910156 -7.019531 8.015625 -5.96875 C 9.128906 -4.914062 10.535156 -4.390625 12.234375 -4.390625 Z M 8.78125 -24.578125 C 8.0625 -24.578125 7.460938 -24.820312 6.984375 -25.3125 C 6.503906 -25.8125 6.265625 -26.429688 6.265625 -27.171875 C 6.265625 -27.910156 6.503906 -28.523438 6.984375 -29.015625 C 7.460938 -29.503906 8.0625 -29.75 8.78125 -29.75 C 9.488281 -29.75 10.082031 -29.507812 10.5625 -29.03125 C 11.039062 -28.550781 11.28125 -27.929688 11.28125 -27.171875 C 11.28125 -26.429688 11.039062 -25.8125 10.5625 -25.3125 C 10.082031 -24.820312 9.488281 -24.578125 8.78125 -24.578125 Z M 15.265625 -24.578125 C 14.546875 -24.578125 13.945312 -24.820312 13.46875 -25.3125 C 13 -25.8125 12.765625 -26.429688 12.765625 -27.171875 C 12.765625 -27.910156 13 -28.523438 13.46875 -29.015625 C 13.945312 -29.503906 14.546875 -29.75 15.265625 -29.75 C 15.972656 -29.75 16.566406 -29.507812 17.046875 -29.03125 C 17.523438 -28.550781 17.765625 -27.929688 17.765625 -27.171875 C 17.765625 -26.429688 17.523438 -25.8125 17.046875 -25.3125 C 16.566406 -24.820312 15.972656 -24.578125 15.265625 -24.578125 Z M 15.265625 -24.578125 "/></g></g></g><g fill="#3a3d41" fill-opacity="1"><g transform="translate(439.146683, 447.115225)"><g><path d="M 13.21875 -4.390625 C 13.757812 -4.390625 14.03125 -3.664062 14.03125 -2.21875 C 14.03125 -0.738281 13.757812 0 13.21875 0 L 8.703125 0 L 8.703125 0.078125 C 8.703125 2.953125 7.921875 5.195312 6.359375 6.8125 C 4.796875 8.425781 2.648438 9.257812 -0.078125 9.3125 L -0.828125 4.890625 C 0.867188 4.992188 2.09375 4.671875 2.84375 3.921875 C 3.601562 3.171875 3.984375 1.890625 3.984375 0.078125 L 3.984375 -19.953125 L 8.703125 -19.953125 L 8.703125 -4.390625 Z M 13.21875 -4.390625 "/></g></g></g><g fill="#3a3d41" fill-opacity="1"><g transform="translate(452.361267, 447.115225)"><g><path d="M 16.046875 -4.390625 C 16.597656 -4.390625 16.875 -3.664062 16.875 -2.21875 C 16.875 -0.738281 16.597656 0 16.046875 0 L 13.796875 0 C 11.460938 0 9.546875 -0.585938 8.046875 -1.765625 C 6.753906 -0.585938 4.769531 0 2.09375 0 L 0 0 C -0.550781 0 -0.828125 -0.738281 -0.828125 -2.21875 C -0.828125 -3.664062 -0.550781 -4.390625 0 -4.390625 L 1.71875 -4.390625 C 3.195312 -4.390625 4.207031 -4.679688 4.75 -5.265625 C 5.300781 -5.859375 5.578125 -6.878906 5.578125 -8.328125 L 5.578125 -19.953125 L 10.296875 -19.953125 L 10.296875 -8.296875 C 10.296875 -7.054688 10.175781 -5.957031 9.9375 -5 C 10.644531 -4.59375 11.503906 -4.390625 12.515625 -4.390625 Z M 8.390625 9.6875 C 7.597656 9.6875 6.941406 9.410156 6.421875 8.859375 C 5.898438 8.316406 5.640625 7.632812 5.640625 6.8125 C 5.640625 5.988281 5.898438 5.3125 6.421875 4.78125 C 6.941406 4.25 7.597656 3.984375 8.390625 3.984375 C 9.179688 3.984375 9.835938 4.25 10.359375 4.78125 C 10.878906 5.3125 11.140625 5.988281 11.140625 6.8125 C 11.140625 7.632812 10.878906 8.316406 10.359375 8.859375 C 9.835938 9.410156 9.179688 9.6875 8.390625 9.6875 Z M 8.390625 9.6875 "/></g></g></g><g fill="#3a3d41" fill-opacity="1"><g transform="translate(468.407532, 447.115225)"><g><path d="M 7.09375 -4.390625 C 7.644531 -4.390625 7.921875 -3.664062 7.921875 -2.21875 C 7.921875 -0.738281 7.644531 0 7.09375 0 L 0 0 C -0.550781 0 -0.828125 -0.738281 -0.828125 -2.21875 C -0.828125 -3.664062 -0.550781 -4.390625 0 -4.390625 Z M 7.09375 -4.390625 "/></g></g></g><g fill="#3a3d41" fill-opacity="1"><g transform="translate(475.507286, 447.115225)"><g><path d="M 7.09375 -4.390625 C 7.644531 -4.390625 7.921875 -3.664062 7.921875 -2.21875 C 7.921875 -0.738281 7.644531 0 7.09375 0 L 0 0 C -0.550781 0 -0.828125 -0.738281 -0.828125 -2.21875 C -0.828125 -3.664062 -0.550781 -4.390625 0 -4.390625 Z M 7.09375 -4.390625 "/></g></g></g><g fill="#3a3d41" fill-opacity="1"><g transform="translate(482.60704, 447.115225)"><g><path d="M 7.09375 -4.390625 C 7.644531 -4.390625 7.921875 -3.664062 7.921875 -2.21875 C 7.921875 -0.738281 7.644531 0 7.09375 0 L 0 0 C -0.550781 0 -0.828125 -0.738281 -0.828125 -2.21875 C -0.828125 -3.664062 -0.550781 -4.390625 0 -4.390625 Z M 7.09375 -4.390625 "/></g></g></g><g fill="#3a3d41" fill-opacity="1"><g transform="translate(489.706794, 447.115225)"><g><path d="M 7.09375 -4.390625 C 7.644531 -4.390625 7.921875 -3.664062 7.921875 -2.21875 C 7.921875 -0.738281 7.644531 0 7.09375 0 L 0 0 C -0.550781 0 -0.828125 -0.738281 -0.828125 -2.21875 C -0.828125 -3.664062 -0.550781 -4.390625 0 -4.390625 Z M 7.09375 -4.390625 "/></g></g></g><g fill="#3a3d41" fill-opacity="1"><g transform="translate(496.806548, 447.115225)"><g><path d="M 7.09375 -4.390625 C 7.644531 -4.390625 7.921875 -3.664062 7.921875 -2.21875 C 7.921875 -0.738281 7.644531 0 7.09375 0 L 0 0 C -0.550781 0 -0.828125 -0.738281 -0.828125 -2.21875 C -0.828125 -3.664062 -0.550781 -4.390625 0 -4.390625 Z M 7.09375 -4.390625 "/></g></g></g><g fill="#3a3d41" fill-opacity="1"><g transform="translate(503.906302, 447.115225)"><g><path d="M 21.015625 -4.390625 L 22.734375 -4.390625 L 22.078125 0 L 0 0 C -0.550781 0 -0.828125 -0.738281 -0.828125 -2.21875 C -0.828125 -3.664062 -0.550781 -4.390625 0 -4.390625 L 16.296875 -4.390625 L 16.296875 -10.625 C 16.296875 -12.707031 15.628906 -14.363281 14.296875 -15.59375 C 12.972656 -16.820312 11.203125 -17.4375 8.984375 -17.4375 C 6.578125 -17.4375 4.265625 -16.78125 2.046875 -15.46875 L 0.046875 -19.296875 C 2.722656 -20.992188 5.703125 -21.84375 8.984375 -21.84375 C 11.316406 -21.84375 13.390625 -21.363281 15.203125 -20.40625 C 17.023438 -19.445312 18.445312 -18.117188 19.46875 -16.421875 C 20.5 -14.722656 21.015625 -12.789062 21.015625 -10.625 Z M 9.390625 -25.3125 C 8.597656 -25.3125 7.941406 -25.582031 7.421875 -26.125 C 6.898438 -26.675781 6.640625 -27.363281 6.640625 -28.1875 C 6.640625 -29.007812 6.898438 -29.6875 7.421875 -30.21875 C 7.941406 -30.75 8.597656 -31.015625 9.390625 -31.015625 C 10.179688 -31.015625 10.835938 -30.75 11.359375 -30.21875 C 11.878906 -29.6875 12.140625 -29.007812 12.140625 -28.1875 C 12.140625 -27.363281 11.878906 -26.675781 11.359375 -26.125 C 10.835938 -25.582031 10.179688 -25.3125 9.390625 -25.3125 Z M 9.390625 -25.3125 "/></g></g></g></svg>