<svg xmlns="http://www.w3.org/2000/svg" xmlns:xlink="http://www.w3.org/1999/xlink" width="500" zoomAndPan="magnify" viewBox="0 0 375 374.999991" height="500" preserveAspectRatio="xMidYMid meet" version="1.0"><defs><clipPath id="id1"><path d="M 90 114.160156 L 285.464844 114.160156 L 285.464844 245 L 90 245 Z M 90 114.160156 " clip-rule="nonzero"/></clipPath><clipPath id="id2"><path d="M 111 224 L 149 224 L 149 261.160156 L 111 261.160156 Z M 111 224 " clip-rule="nonzero"/></clipPath><clipPath id="id3"><path d="M 228 224 L 266 224 L 266 261.160156 L 228 261.160156 Z M 228 224 " clip-rule="nonzero"/></clipPath></defs><path fill="#ffffff" d="M 351.675781 58.050781 L 351.675781 316.949219 C 351.675781 336.148438 336.148438 351.675781 316.949219 351.675781 L 58.050781 351.675781 C 38.851562 351.675781 23.324219 336.148438 23.324219 316.949219 L 23.324219 58.050781 C 23.324219 38.851562 38.851562 23.324219 58.050781 23.324219 L 316.949219 23.324219 C 336.148438 23.324219 351.675781 38.851562 351.675781 58.050781 " fill-opacity="1" fill-rule="nonzero"/><path fill="#3a3d41" d="M 53.476562 312.523438 C 48.503906 312.523438 44.476562 316.554688 44.476562 321.523438 C 44.476562 326.496094 48.503906 330.523438 53.476562 330.523438 C 58.445312 330.523438 62.476562 326.496094 62.476562 321.523438 C 62.476562 316.554688 58.445312 312.523438 53.476562 312.523438 M 53.476562 44.476562 C 48.503906 44.476562 44.476562 48.503906 44.476562 53.476562 C 44.476562 58.445312 48.503906 62.476562 53.476562 62.476562 C 58.445312 62.476562 62.476562 58.445312 62.476562 53.476562 C 62.476562 48.503906 58.445312 44.476562 53.476562 44.476562 M 321.523438 44.476562 C 316.554688 44.476562 312.523438 48.503906 312.523438 53.476562 C 312.523438 58.445312 316.554688 62.476562 321.523438 62.476562 C 326.496094 62.476562 330.523438 58.445312 330.523438 53.476562 C 330.523438 48.503906 326.496094 44.476562 321.523438 44.476562 M 321.523438 312.523438 C 316.554688 312.523438 312.523438 316.554688 312.523438 321.523438 C 312.523438 326.496094 316.554688 330.523438 321.523438 330.523438 C 326.496094 330.523438 330.523438 326.496094 330.523438 321.523438 C 330.523438 316.554688 326.496094 312.523438 321.523438 312.523438 " fill-opacity="1" fill-rule="nonzero"/><path fill="#d3c2bb" d="M 375 62.476562 L 375 33.375 C 368.101562 30.75 361.125 26.25 354.898438 20.101562 C 348.75 13.875 344.25 6.898438 341.625 0 L 33.375 0 C 30.75 6.898438 26.25 13.875 20.101562 20.101562 C 13.875 26.25 6.898438 30.75 0 33.375 L 0 341.625 C 1.726562 342.300781 3.449219 343.050781 5.175781 343.949219 C 5.625 344.175781 6 344.398438 6.449219 344.625 C 6.75 344.773438 7.050781 344.925781 7.351562 345.148438 C 7.425781 345.148438 7.5 345.226562 7.574219 345.300781 C 7.800781 345.375 7.949219 345.523438 8.175781 345.675781 C 10.351562 347.023438 12.523438 348.523438 14.699219 350.175781 C 15.074219 350.476562 15.449219 350.773438 15.824219 351.148438 C 16.125 351.375 16.351562 351.601562 16.574219 351.824219 C 17.324219 352.5 18.074219 353.175781 18.824219 353.925781 C 19.199219 354.300781 19.574219 354.675781 20.023438 355.050781 C 20.398438 355.425781 20.773438 355.800781 21.148438 356.25 C 21.824219 357 22.574219 357.75 23.25 358.5 C 23.476562 358.800781 23.699219 359.023438 23.925781 359.324219 L 24.824219 360.449219 C 25.050781 360.675781 25.199219 360.976562 25.425781 361.199219 C 25.800781 361.648438 26.175781 362.175781 26.550781 362.625 C 27 363.226562 27.375 363.824219 27.75 364.351562 C 28.875 366.074219 29.925781 367.800781 30.898438 369.601562 C 31.050781 369.898438 31.199219 370.125 31.273438 370.425781 L 31.5 370.875 C 31.648438 371.175781 31.800781 371.476562 31.875 371.699219 C 32.398438 372.824219 32.925781 373.949219 33.300781 375.148438 L 341.550781 375.148438 C 344.175781 368.25 348.675781 361.273438 354.824219 355.050781 C 357.148438 352.726562 359.550781 350.625 362.101562 348.824219 C 363.375 347.925781 364.648438 347.023438 365.925781 346.273438 C 366.75 345.75 367.648438 345.226562 368.476562 344.773438 C 369.300781 344.324219 370.199219 343.875 371.023438 343.425781 C 372.300781 342.824219 373.648438 342.226562 374.925781 341.773438 L 375 62.476562 M 351.675781 316.949219 C 351.675781 336.148438 336.148438 351.675781 316.949219 351.675781 L 58.050781 351.675781 C 38.851562 351.675781 23.324219 336.148438 23.324219 316.949219 L 23.324219 58.050781 C 23.324219 38.851562 38.851562 23.324219 58.050781 23.324219 L 316.949219 23.324219 C 336.148438 23.324219 351.675781 38.851562 351.675781 58.050781 L 351.675781 316.949219 " fill-opacity="1" fill-rule="nonzero"/><g clip-path="url(#id1)"><path fill="#1d918a" d="M 285.136719 225.9375 C 284.375 213.28125 280.109375 202.300781 272.648438 196.351562 C 264.421875 189.796875 254.675781 189.339844 250.410156 189.644531 L 238.835938 168.449219 C 237.164062 165.550781 234.117188 163.71875 230.765625 163.71875 L 209.140625 163.71875 C 203.960938 163.71875 199.851562 167.835938 199.851562 172.871094 L 199.851562 206.417969 L 188.277344 206.417969 L 197.261719 157.621094 L 230.308594 157.621094 C 233.660156 157.621094 236.402344 154.875 236.402344 151.519531 L 236.402344 145.421875 C 236.402344 142.066406 233.660156 139.320312 230.308594 139.320312 L 199.851562 139.320312 C 199.242188 129.105469 190.40625 121.023438 179.59375 121.023438 C 175.941406 121.023438 172.285156 121.9375 169.085938 123.769531 C 165.429688 117.972656 158.882812 114.160156 151.726562 114.160156 C 143.804688 114.160156 136.648438 118.734375 133.296875 125.445312 C 131.773438 125.140625 130.25 124.988281 128.574219 124.988281 C 119.285156 124.988281 111.367188 131.085938 109.082031 139.320312 L 107.863281 139.320312 C 104.96875 139.320312 102.382812 141.457031 101.925781 144.355469 L 90.199219 208.703125 C 90.046875 209.621094 90.351562 210.535156 90.804688 211.144531 C 91.414062 211.90625 92.175781 212.210938 93.089844 212.210938 L 95.527344 212.210938 L 90.199219 240.726562 C 90.046875 241.644531 90.199219 242.558594 90.804688 243.320312 C 91.414062 244.082031 92.175781 244.386719 93.089844 244.386719 L 105.425781 244.386719 C 105.425781 243.625 105.273438 242.863281 105.273438 242.101562 C 105.273438 240.726562 105.425781 239.507812 105.578125 238.289062 L 96.898438 238.289062 L 101.773438 212.363281 L 199.851562 212.363281 L 199.851562 238.289062 L 153.855469 238.289062 C 154.007812 239.507812 154.160156 240.726562 154.160156 242.101562 C 154.160156 242.863281 154.160156 243.625 154.007812 244.386719 L 222.847656 244.386719 C 222.847656 243.625 222.695312 242.863281 222.695312 242.101562 C 222.695312 240.726562 222.847656 239.507812 223 238.289062 L 205.941406 238.289062 L 205.941406 172.71875 C 205.941406 171.039062 207.3125 169.667969 209.140625 169.667969 L 230.765625 169.667969 C 231.984375 169.667969 233.050781 170.277344 233.507812 171.34375 L 245.996094 194.371094 C 246.605469 195.4375 247.824219 196.046875 249.195312 195.894531 C 249.347656 195.894531 260.3125 194.21875 268.839844 201.082031 C 274.929688 205.960938 278.28125 215.414062 279.042969 226.242188 L 279.042969 238.289062 L 271.125 238.289062 C 271.277344 239.507812 271.429688 240.726562 271.429688 242.101562 C 271.429688 242.863281 271.429688 243.625 271.277344 244.386719 L 282.089844 244.386719 C 283.765625 244.386719 285.136719 243.015625 285.136719 241.335938 L 285.136719 226.089844 C 285.136719 226.089844 285.136719 225.9375 285.136719 225.9375 Z M 105.730469 206.265625 L 116.847656 145.269531 L 123.09375 145.269531 L 111.976562 206.265625 Z M 120.960938 206.265625 L 132.078125 145.269531 L 138.324219 145.269531 L 127.207031 206.265625 Z M 136.191406 206.265625 L 147.308594 145.269531 L 153.550781 145.269531 L 142.433594 206.265625 Z M 151.421875 206.265625 L 162.539062 145.269531 L 168.78125 145.269531 L 157.664062 206.265625 Z M 172.894531 206.265625 L 166.648438 206.265625 L 177.765625 145.269531 L 184.011719 145.269531 Z M 118.675781 139.167969 L 115.628906 139.167969 C 117.761719 134.289062 122.789062 130.933594 128.726562 130.933594 C 130.554688 130.933594 132.382812 131.238281 134.058594 132.003906 C 134.820312 132.308594 135.734375 132.308594 136.496094 131.851562 C 137.257812 131.546875 137.867188 130.78125 138.019531 130.019531 C 139.695312 124.226562 145.328125 120.261719 151.574219 120.261719 C 157.664062 120.261719 162.996094 123.921875 164.972656 129.410156 C 165.277344 130.324219 166.039062 131.085938 167.105469 131.394531 C 168.019531 131.699219 169.085938 131.394531 169.847656 130.78125 C 172.4375 128.496094 175.789062 127.277344 179.441406 127.277344 C 186.753906 127.277344 192.84375 132.613281 193.453125 139.476562 L 118.675781 139.476562 Z M 118.675781 139.167969 " fill-opacity="1" fill-rule="nonzero"/></g><g clip-path="url(#id2)"><path fill="#1d918a" d="M 129.792969 224.5625 C 119.742188 224.5625 111.519531 232.796875 111.519531 242.863281 C 111.519531 252.925781 119.742188 261.160156 129.792969 261.160156 C 139.84375 261.160156 148.070312 252.925781 148.070312 242.863281 C 148.070312 232.796875 139.84375 224.5625 129.792969 224.5625 Z M 129.792969 255.0625 C 123.09375 255.0625 117.609375 249.570312 117.609375 242.863281 C 117.609375 236.152344 123.09375 230.664062 129.792969 230.664062 C 136.496094 230.664062 141.976562 236.152344 141.976562 242.863281 C 141.976562 249.570312 136.496094 255.0625 129.792969 255.0625 Z M 129.792969 255.0625 " fill-opacity="1" fill-rule="nonzero"/></g><g clip-path="url(#id3)"><path fill="#1d918a" d="M 247.0625 224.5625 C 237.011719 224.5625 228.785156 232.796875 228.785156 242.863281 C 228.785156 252.925781 237.011719 261.160156 247.0625 261.160156 C 257.113281 261.160156 265.335938 252.925781 265.335938 242.863281 C 265.335938 232.796875 257.113281 224.5625 247.0625 224.5625 Z M 247.0625 255.0625 C 240.359375 255.0625 234.878906 249.570312 234.878906 242.863281 C 234.878906 236.152344 240.359375 230.664062 247.0625 230.664062 C 253.761719 230.664062 259.246094 236.152344 259.246094 242.863281 C 259.246094 249.570312 253.761719 255.0625 247.0625 255.0625 Z M 247.0625 255.0625 " fill-opacity="1" fill-rule="nonzero"/></g></svg>