<svg xmlns="http://www.w3.org/2000/svg" xmlns:xlink="http://www.w3.org/1999/xlink" width="1024" zoomAndPan="magnify" viewBox="0 0 768 576" height="768" preserveAspectRatio="xMidYMid meet" version="1.0"><defs><g/><clipPath id="id1"><path d="M 269 73.15625 L 499 73.15625 L 499 303.40625 L 269 303.40625 Z M 269 73.15625 " clip-rule="nonzero"/></clipPath></defs><g clip-path="url(#id1)"><path fill="#1d918a" d="M 373.226562 198.84375 C 374.832031 200.179688 376.972656 199.914062 378.042969 198.84375 L 445.964844 130.917969 L 461.210938 136 C 462.546875 136.265625 463.882812 136 464.6875 135.195312 L 497.3125 102.304688 C 498.113281 101.5 498.382812 100.429688 498.113281 99.09375 C 497.847656 98.023438 497.042969 96.953125 495.976562 96.6875 L 483.941406 92.675781 L 485.011719 91.605469 C 486.347656 90.269531 486.347656 88.128906 485.011719 86.792969 C 483.671875 85.457031 481.535156 85.457031 480.195312 86.792969 L 479.128906 87.863281 L 475.117188 75.5625 C 474.847656 74.492188 473.777344 73.6875 472.707031 73.421875 C 471.640625 73.15625 470.570312 73.421875 469.5 74.222656 L 436.605469 107.382812 C 435.804688 108.1875 435.539062 109.523438 435.804688 110.859375 L 440.886719 126.371094 L 435.003906 132.253906 C 419.226562 117.8125 399.167969 109.523438 377.773438 108.988281 L 377.773438 96.6875 C 377.773438 94.816406 376.167969 93.476562 374.566406 93.476562 C 372.960938 93.476562 371.355469 95.082031 371.355469 96.6875 L 371.355469 108.988281 C 324.289062 110.324219 286.582031 148.03125 284.980469 195.097656 L 272.675781 195.097656 C 270.804688 195.097656 269.46875 196.703125 269.46875 198.308594 C 269.46875 199.914062 271.074219 201.515625 272.675781 201.515625 L 284.980469 201.515625 C 286.582031 248.582031 324.289062 286.289062 371.355469 287.894531 L 371.355469 300.195312 C 371.355469 302.066406 372.960938 303.40625 374.566406 303.40625 C 376.167969 303.40625 377.773438 301.800781 377.773438 300.195312 L 377.773438 287.894531 C 424.839844 286.289062 462.546875 248.582031 464.152344 201.515625 L 476.453125 201.515625 C 478.324219 201.515625 479.660156 199.914062 479.660156 198.308594 C 479.660156 196.703125 478.058594 195.097656 476.453125 195.097656 L 464.152344 195.097656 C 463.617188 176.113281 456.664062 157.660156 444.898438 142.953125 C 443.828125 141.347656 441.6875 141.078125 440.082031 142.417969 C 438.480469 143.753906 438.210938 145.625 439.546875 147.230469 C 450.511719 160.867188 456.664062 177.714844 457.199219 195.367188 L 447.035156 195.367188 C 445.164062 195.367188 443.828125 196.96875 443.828125 198.574219 C 443.828125 200.179688 445.433594 201.785156 447.035156 201.785156 L 457.199219 201.785156 C 456.128906 245.105469 421.363281 279.871094 378.042969 281.476562 L 378.042969 271.3125 C 378.042969 269.441406 376.4375 268.105469 374.832031 268.105469 C 373.226562 268.105469 371.625 269.710938 371.625 271.3125 L 371.625 281.476562 C 328.300781 279.871094 293.535156 245.105469 291.933594 201.785156 L 302.09375 201.785156 C 303.964844 201.785156 305.304688 200.179688 305.304688 198.574219 C 305.304688 196.96875 303.699219 195.367188 302.09375 195.367188 L 291.933594 195.367188 C 293.535156 152.042969 328.300781 117.277344 371.625 115.675781 L 371.625 125.835938 C 371.625 127.707031 373.226562 129.046875 374.832031 129.046875 C 376.4375 129.046875 378.042969 127.441406 378.042969 125.835938 L 378.042969 115.675781 C 397.5625 116.476562 416.015625 123.964844 430.457031 137.066406 L 414.410156 153.113281 C 389.007812 130.917969 350.496094 133.859375 328.300781 159.265625 C 306.105469 184.667969 309.046875 222.910156 334.453125 245.105469 C 359.855469 267.300781 398.367188 264.359375 420.5625 238.957031 C 439.28125 217.292969 440.617188 185.738281 423.503906 162.742188 L 395.957031 190.019531 C 400.773438 201.785156 394.890625 214.886719 383.121094 219.703125 C 371.355469 224.515625 358.253906 218.632812 353.4375 206.867188 C 348.625 195.097656 354.507812 181.996094 366.273438 177.179688 C 373.226562 174.238281 381.25 175.308594 387.667969 179.589844 L 373.226562 194.027344 C 371.890625 195.367188 371.890625 197.503906 373.226562 198.84375 Z M 488.753906 101.5 L 461.210938 129.046875 L 451.046875 125.570312 L 478.59375 98.023438 Z M 488.753906 101.5 " fill-opacity="1" fill-rule="nonzero"/></g><g fill="#3a3d41" fill-opacity="1"><g transform="translate(239.718185, 361.183842)"><g/></g></g><g fill="#3a3d41" fill-opacity="1"><g transform="translate(239.718185, 361.183842)"><g><path d="M 9.859375 0 L 8.140625 0 L 8.140625 -22.90625 L 0.171875 -22.90625 L 0.171875 -24.515625 L 17.828125 -24.515625 L 17.828125 -22.90625 L 9.859375 -22.90625 Z M 9.859375 0 "/></g></g></g><g fill="#3a3d41" fill-opacity="1"><g transform="translate(257.707638, 361.183842)"><g><path d="M 15.765625 0 L 15.765625 -11.828125 C 15.765625 -13.660156 15.378906 -14.992188 14.609375 -15.828125 C 13.835938 -16.660156 12.640625 -17.078125 11.015625 -17.078125 C 8.835938 -17.078125 7.242188 -16.523438 6.234375 -15.421875 C 5.222656 -14.316406 4.71875 -12.53125 4.71875 -10.0625 L 4.71875 0 L 3.046875 0 L 3.046875 -26.09375 L 4.71875 -26.09375 L 4.71875 -17.796875 L 4.625 -15.46875 L 4.75 -15.46875 C 5.425781 -16.5625 6.285156 -17.351562 7.328125 -17.84375 C 8.367188 -18.332031 9.660156 -18.578125 11.203125 -18.578125 C 15.335938 -18.578125 17.40625 -16.359375 17.40625 -11.921875 L 17.40625 0 Z M 15.765625 0 "/></g></g></g><g fill="#3a3d41" fill-opacity="1"><g transform="translate(277.960437, 361.183842)"><g><path d="M 10.40625 0.328125 C 7.757812 0.328125 5.695312 -0.484375 4.21875 -2.109375 C 2.738281 -3.742188 2 -6.03125 2 -8.96875 C 2 -11.875 2.710938 -14.203125 4.140625 -15.953125 C 5.566406 -17.703125 7.492188 -18.578125 9.921875 -18.578125 C 12.066406 -18.578125 13.757812 -17.828125 15 -16.328125 C 16.25 -14.835938 16.875 -12.804688 16.875 -10.234375 L 16.875 -8.890625 L 3.734375 -8.890625 C 3.753906 -6.378906 4.335938 -4.460938 5.484375 -3.140625 C 6.628906 -1.828125 8.269531 -1.171875 10.40625 -1.171875 C 11.445312 -1.171875 12.363281 -1.242188 13.15625 -1.390625 C 13.945312 -1.535156 14.945312 -1.847656 16.15625 -2.328125 L 16.15625 -0.828125 C 15.125 -0.378906 14.171875 -0.078125 13.296875 0.078125 C 12.421875 0.242188 11.457031 0.328125 10.40625 0.328125 Z M 9.921875 -17.109375 C 8.171875 -17.109375 6.765625 -16.53125 5.703125 -15.375 C 4.640625 -14.21875 4.019531 -12.546875 3.84375 -10.359375 L 15.109375 -10.359375 C 15.109375 -12.472656 14.648438 -14.125 13.734375 -15.3125 C 12.816406 -16.507812 11.546875 -17.109375 9.921875 -17.109375 Z M 9.921875 -17.109375 "/></g></g></g><g fill="#3a3d41" fill-opacity="1"><g transform="translate(296.804928, 361.183842)"><g/></g></g><g fill="#3a3d41" fill-opacity="1"><g transform="translate(305.724207, 361.183842)"><g><path d="M 10.75 -18.578125 C 13.300781 -18.578125 15.222656 -17.773438 16.515625 -16.171875 C 17.804688 -14.566406 18.453125 -12.222656 18.453125 -9.140625 C 18.453125 -6.109375 17.769531 -3.769531 16.40625 -2.125 C 15.050781 -0.488281 13.144531 0.328125 10.6875 0.328125 C 9.382812 0.328125 8.210938 0.0625 7.171875 -0.46875 C 6.140625 -1.007812 5.320312 -1.769531 4.71875 -2.75 L 4.5625 -2.75 L 4.09375 0 L 3.046875 0 L 3.046875 -26.09375 L 4.71875 -26.09375 L 4.71875 -19.53125 C 4.71875 -18.550781 4.691406 -17.644531 4.640625 -16.8125 L 4.59375 -15.390625 L 4.71875 -15.390625 C 5.40625 -16.484375 6.238281 -17.285156 7.21875 -17.796875 C 8.195312 -18.316406 9.375 -18.578125 10.75 -18.578125 Z M 10.71875 -17.078125 C 8.570312 -17.078125 7.035156 -16.457031 6.109375 -15.21875 C 5.179688 -13.988281 4.71875 -11.960938 4.71875 -9.140625 L 4.71875 -8.859375 C 4.71875 -6.109375 5.195312 -4.132812 6.15625 -2.9375 C 7.125 -1.738281 8.632812 -1.140625 10.6875 -1.140625 C 12.675781 -1.140625 14.171875 -1.832031 15.171875 -3.21875 C 16.179688 -4.613281 16.6875 -6.597656 16.6875 -9.171875 C 16.6875 -14.441406 14.695312 -17.078125 10.71875 -17.078125 Z M 10.71875 -17.078125 "/></g></g></g><g fill="#3a3d41" fill-opacity="1"><g transform="translate(326.161433, 361.183842)"><g><path d="M 10.40625 0.328125 C 7.757812 0.328125 5.695312 -0.484375 4.21875 -2.109375 C 2.738281 -3.742188 2 -6.03125 2 -8.96875 C 2 -11.875 2.710938 -14.203125 4.140625 -15.953125 C 5.566406 -17.703125 7.492188 -18.578125 9.921875 -18.578125 C 12.066406 -18.578125 13.757812 -17.828125 15 -16.328125 C 16.25 -14.835938 16.875 -12.804688 16.875 -10.234375 L 16.875 -8.890625 L 3.734375 -8.890625 C 3.753906 -6.378906 4.335938 -4.460938 5.484375 -3.140625 C 6.628906 -1.828125 8.269531 -1.171875 10.40625 -1.171875 C 11.445312 -1.171875 12.363281 -1.242188 13.15625 -1.390625 C 13.945312 -1.535156 14.945312 -1.847656 16.15625 -2.328125 L 16.15625 -0.828125 C 15.125 -0.378906 14.171875 -0.078125 13.296875 0.078125 C 12.421875 0.242188 11.457031 0.328125 10.40625 0.328125 Z M 9.921875 -17.109375 C 8.171875 -17.109375 6.765625 -16.53125 5.703125 -15.375 C 4.640625 -14.21875 4.019531 -12.546875 3.84375 -10.359375 L 15.109375 -10.359375 C 15.109375 -12.472656 14.648438 -14.125 13.734375 -15.3125 C 12.816406 -16.507812 11.546875 -17.109375 9.921875 -17.109375 Z M 9.921875 -17.109375 "/></g></g></g><g fill="#3a3d41" fill-opacity="1"><g transform="translate(345.005924, 361.183842)"><g><path d="M 14.359375 -4.75 C 14.359375 -3.113281 13.734375 -1.859375 12.484375 -0.984375 C 11.242188 -0.109375 9.484375 0.328125 7.203125 0.328125 C 4.773438 0.328125 2.84375 -0.0390625 1.40625 -0.78125 L 1.40625 -2.578125 C 3.238281 -1.660156 5.171875 -1.203125 7.203125 -1.203125 C 9.003906 -1.203125 10.375 -1.5 11.3125 -2.09375 C 12.25 -2.695312 12.71875 -3.5 12.71875 -4.5 C 12.71875 -5.414062 12.34375 -6.1875 11.59375 -6.8125 C 10.851562 -7.4375 9.632812 -8.050781 7.9375 -8.65625 C 6.113281 -9.3125 4.832031 -9.875 4.09375 -10.34375 C 3.351562 -10.820312 2.796875 -11.359375 2.421875 -11.953125 C 2.046875 -12.554688 1.859375 -13.289062 1.859375 -14.15625 C 1.859375 -15.519531 2.429688 -16.597656 3.578125 -17.390625 C 4.722656 -18.179688 6.328125 -18.578125 8.390625 -18.578125 C 10.359375 -18.578125 12.222656 -18.207031 13.984375 -17.46875 L 13.359375 -15.96875 C 11.578125 -16.707031 9.921875 -17.078125 8.390625 -17.078125 C 6.898438 -17.078125 5.71875 -16.828125 4.84375 -16.328125 C 3.96875 -15.835938 3.53125 -15.15625 3.53125 -14.28125 C 3.53125 -13.332031 3.867188 -12.570312 4.546875 -12 C 5.222656 -11.4375 6.546875 -10.800781 8.515625 -10.09375 C 10.160156 -9.5 11.359375 -8.960938 12.109375 -8.484375 C 12.859375 -8.015625 13.421875 -7.476562 13.796875 -6.875 C 14.171875 -6.269531 14.359375 -5.5625 14.359375 -4.75 Z M 14.359375 -4.75 "/></g></g></g><g fill="#3a3d41" fill-opacity="1"><g transform="translate(361.00027, 361.183842)"><g><path d="M 7.859375 -1.140625 C 8.910156 -1.140625 9.828125 -1.226562 10.609375 -1.40625 L 10.609375 -0.0625 C 9.804688 0.195312 8.878906 0.328125 7.828125 0.328125 C 6.222656 0.328125 5.035156 -0.0976562 4.265625 -0.953125 C 3.503906 -1.816406 3.125 -3.171875 3.125 -5.015625 L 3.125 -16.78125 L 0.421875 -16.78125 L 0.421875 -17.765625 L 3.125 -18.515625 L 3.953125 -22.640625 L 4.8125 -22.640625 L 4.8125 -18.234375 L 10.15625 -18.234375 L 10.15625 -16.78125 L 4.8125 -16.78125 L 4.8125 -5.25 C 4.8125 -3.851562 5.054688 -2.816406 5.546875 -2.140625 C 6.035156 -1.472656 6.804688 -1.140625 7.859375 -1.140625 Z M 7.859375 -1.140625 "/></g></g></g><g fill="#3a3d41" fill-opacity="1"><g transform="translate(372.501445, 361.183842)"><g/></g></g><g fill="#3a3d41" fill-opacity="1"><g transform="translate(381.420724, 361.183842)"><g><path d="M 4.71875 0 L 3.046875 0 L 3.046875 -26.09375 L 4.71875 -26.09375 Z M 4.71875 0 "/></g></g></g><g fill="#3a3d41" fill-opacity="1"><g transform="translate(389.183185, 361.183842)"><g><path d="M 18.125 -9.140625 C 18.125 -6.160156 17.398438 -3.835938 15.953125 -2.171875 C 14.515625 -0.503906 12.53125 0.328125 10 0.328125 C 8.394531 0.328125 6.984375 -0.0546875 5.765625 -0.828125 C 4.546875 -1.597656 3.613281 -2.703125 2.96875 -4.140625 C 2.320312 -5.585938 2 -7.253906 2 -9.140625 C 2 -12.109375 2.71875 -14.421875 4.15625 -16.078125 C 5.601562 -17.742188 7.582031 -18.578125 10.09375 -18.578125 C 12.59375 -18.578125 14.554688 -17.734375 15.984375 -16.046875 C 17.410156 -14.367188 18.125 -12.066406 18.125 -9.140625 Z M 3.734375 -9.140625 C 3.734375 -6.640625 4.285156 -4.6875 5.390625 -3.28125 C 6.492188 -1.875 8.050781 -1.171875 10.0625 -1.171875 C 12.070312 -1.171875 13.628906 -1.875 14.734375 -3.28125 C 15.835938 -4.6875 16.390625 -6.640625 16.390625 -9.140625 C 16.390625 -11.648438 15.832031 -13.597656 14.71875 -14.984375 C 13.601562 -16.378906 12.039062 -17.078125 10.03125 -17.078125 C 8.019531 -17.078125 6.46875 -16.382812 5.375 -15 C 4.28125 -13.613281 3.734375 -11.660156 3.734375 -9.140625 Z M 3.734375 -9.140625 "/></g></g></g><g fill="#3a3d41" fill-opacity="1"><g transform="translate(409.301859, 361.183842)"><g><path d="M 10.328125 0.328125 C 7.722656 0.328125 5.679688 -0.488281 4.203125 -2.125 C 2.734375 -3.769531 2 -6.0625 2 -9 C 2 -12.019531 2.765625 -14.367188 4.296875 -16.046875 C 5.828125 -17.734375 7.921875 -18.578125 10.578125 -18.578125 C 12.160156 -18.578125 13.671875 -18.304688 15.109375 -17.765625 L 14.65625 -16.28125 C 13.082031 -16.8125 11.710938 -17.078125 10.546875 -17.078125 C 8.304688 -17.078125 6.609375 -16.382812 5.453125 -15 C 4.304688 -13.613281 3.734375 -11.625 3.734375 -9.03125 C 3.734375 -6.570312 4.304688 -4.644531 5.453125 -3.25 C 6.609375 -1.863281 8.222656 -1.171875 10.296875 -1.171875 C 11.953125 -1.171875 13.488281 -1.46875 14.90625 -2.0625 L 14.90625 -0.515625 C 13.738281 0.046875 12.210938 0.328125 10.328125 0.328125 Z M 10.328125 0.328125 "/></g></g></g><g fill="#3a3d41" fill-opacity="1"><g transform="translate(425.614756, 361.183842)"><g><path d="M 14.125 0 L 13.703125 -2.890625 L 13.5625 -2.890625 C 12.644531 -1.710938 11.703125 -0.878906 10.734375 -0.390625 C 9.773438 0.0859375 8.632812 0.328125 7.3125 0.328125 C 5.519531 0.328125 4.125 -0.128906 3.125 -1.046875 C 2.132812 -1.960938 1.640625 -3.226562 1.640625 -4.84375 C 1.640625 -6.625 2.378906 -8.003906 3.859375 -8.984375 C 5.347656 -9.972656 7.492188 -10.492188 10.296875 -10.546875 L 13.765625 -10.65625 L 13.765625 -11.859375 C 13.765625 -13.585938 13.410156 -14.894531 12.703125 -15.78125 C 12.003906 -16.664062 10.875 -17.109375 9.3125 -17.109375 C 7.625 -17.109375 5.875 -16.640625 4.0625 -15.703125 L 3.4375 -17.140625 C 5.4375 -18.078125 7.414062 -18.546875 9.375 -18.546875 C 11.375 -18.546875 12.867188 -18.023438 13.859375 -16.984375 C 14.847656 -15.941406 15.34375 -14.320312 15.34375 -12.125 L 15.34375 0 Z M 7.40625 -1.171875 C 9.351562 -1.171875 10.890625 -1.726562 12.015625 -2.84375 C 13.140625 -3.957031 13.703125 -5.503906 13.703125 -7.484375 L 13.703125 -9.28125 L 10.515625 -9.140625 C 7.953125 -9.015625 6.125 -8.613281 5.03125 -7.9375 C 3.945312 -7.257812 3.40625 -6.207031 3.40625 -4.78125 C 3.40625 -3.632812 3.753906 -2.742188 4.453125 -2.109375 C 5.148438 -1.484375 6.132812 -1.171875 7.40625 -1.171875 Z M 7.40625 -1.171875 "/></g></g></g><g fill="#3a3d41" fill-opacity="1"><g transform="translate(443.805385, 361.183842)"><g><path d="M 4.71875 0 L 3.046875 0 L 3.046875 -26.09375 L 4.71875 -26.09375 Z M 4.71875 0 "/></g></g></g><g fill="#3a3d41" fill-opacity="1"><g transform="translate(451.567845, 361.183842)"><g/></g></g><g fill="#3a3d41" fill-opacity="1"><g transform="translate(460.487124, 361.183842)"><g><path d="M 14.125 0 L 13.703125 -2.890625 L 13.5625 -2.890625 C 12.644531 -1.710938 11.703125 -0.878906 10.734375 -0.390625 C 9.773438 0.0859375 8.632812 0.328125 7.3125 0.328125 C 5.519531 0.328125 4.125 -0.128906 3.125 -1.046875 C 2.132812 -1.960938 1.640625 -3.226562 1.640625 -4.84375 C 1.640625 -6.625 2.378906 -8.003906 3.859375 -8.984375 C 5.347656 -9.972656 7.492188 -10.492188 10.296875 -10.546875 L 13.765625 -10.65625 L 13.765625 -11.859375 C 13.765625 -13.585938 13.410156 -14.894531 12.703125 -15.78125 C 12.003906 -16.664062 10.875 -17.109375 9.3125 -17.109375 C 7.625 -17.109375 5.875 -16.640625 4.0625 -15.703125 L 3.4375 -17.140625 C 5.4375 -18.078125 7.414062 -18.546875 9.375 -18.546875 C 11.375 -18.546875 12.867188 -18.023438 13.859375 -16.984375 C 14.847656 -15.941406 15.34375 -14.320312 15.34375 -12.125 L 15.34375 0 Z M 7.40625 -1.171875 C 9.351562 -1.171875 10.890625 -1.726562 12.015625 -2.84375 C 13.140625 -3.957031 13.703125 -5.503906 13.703125 -7.484375 L 13.703125 -9.28125 L 10.515625 -9.140625 C 7.953125 -9.015625 6.125 -8.613281 5.03125 -7.9375 C 3.945312 -7.257812 3.40625 -6.207031 3.40625 -4.78125 C 3.40625 -3.632812 3.753906 -2.742188 4.453125 -2.109375 C 5.148438 -1.484375 6.132812 -1.171875 7.40625 -1.171875 Z M 7.40625 -1.171875 "/></g></g></g><g fill="#3a3d41" fill-opacity="1"><g transform="translate(478.677753, 361.183842)"><g><path d="M 15.765625 0 L 15.765625 -11.828125 C 15.765625 -13.660156 15.378906 -14.992188 14.609375 -15.828125 C 13.835938 -16.660156 12.640625 -17.078125 11.015625 -17.078125 C 8.835938 -17.078125 7.242188 -16.523438 6.234375 -15.421875 C 5.222656 -14.316406 4.71875 -12.53125 4.71875 -10.0625 L 4.71875 0 L 3.046875 0 L 3.046875 -18.234375 L 4.453125 -18.234375 L 4.78125 -15.734375 L 4.875 -15.734375 C 6.0625 -17.628906 8.171875 -18.578125 11.203125 -18.578125 C 15.335938 -18.578125 17.40625 -16.359375 17.40625 -11.921875 L 17.40625 0 Z M 15.765625 0 "/></g></g></g><g fill="#3a3d41" fill-opacity="1"><g transform="translate(498.930552, 361.183842)"><g><path d="M 9.71875 -18.578125 C 11.039062 -18.578125 12.179688 -18.335938 13.140625 -17.859375 C 14.109375 -17.378906 14.972656 -16.554688 15.734375 -15.390625 L 15.828125 -15.390625 C 15.765625 -16.796875 15.734375 -18.175781 15.734375 -19.53125 L 15.734375 -26.09375 L 17.375 -26.09375 L 17.375 0 L 16.28125 0 L 15.859375 -2.78125 L 15.734375 -2.78125 C 14.347656 -0.707031 12.359375 0.328125 9.765625 0.328125 C 7.242188 0.328125 5.316406 -0.453125 3.984375 -2.015625 C 2.660156 -3.578125 2 -5.859375 2 -8.859375 C 2 -12.003906 2.65625 -14.410156 3.96875 -16.078125 C 5.289062 -17.742188 7.207031 -18.578125 9.71875 -18.578125 Z M 9.71875 -17.078125 C 7.726562 -17.078125 6.234375 -16.375 5.234375 -14.96875 C 4.234375 -13.570312 3.734375 -11.546875 3.734375 -8.890625 C 3.734375 -3.722656 5.742188 -1.140625 9.765625 -1.140625 C 11.816406 -1.140625 13.320312 -1.738281 14.28125 -2.9375 C 15.25 -4.132812 15.734375 -6.109375 15.734375 -8.859375 L 15.734375 -9.140625 C 15.734375 -11.953125 15.257812 -13.976562 14.3125 -15.21875 C 13.363281 -16.457031 11.832031 -17.078125 9.71875 -17.078125 Z M 9.71875 -17.078125 "/></g></g></g><g fill="#3a3d41" fill-opacity="1"><g transform="translate(519.358384, 361.183842)"><g/></g></g><g fill="#3a3d41" fill-opacity="1"><g transform="translate(151.048868, 409.151955)"><g><path d="M 4.71875 0 L 3.046875 0 L 3.046875 -18.234375 L 4.71875 -18.234375 Z M 2.8125 -23.296875 C 2.8125 -24.367188 3.164062 -24.90625 3.875 -24.90625 C 4.21875 -24.90625 4.488281 -24.765625 4.6875 -24.484375 C 4.882812 -24.203125 4.984375 -23.804688 4.984375 -23.296875 C 4.984375 -22.785156 4.882812 -22.382812 4.6875 -22.09375 C 4.488281 -21.8125 4.21875 -21.671875 3.875 -21.671875 C 3.164062 -21.671875 2.8125 -22.210938 2.8125 -23.296875 Z M 2.8125 -23.296875 "/></g></g></g><g fill="#3a3d41" fill-opacity="1"><g transform="translate(158.811328, 409.151955)"><g><path d="M 15.765625 0 L 15.765625 -11.828125 C 15.765625 -13.660156 15.378906 -14.992188 14.609375 -15.828125 C 13.835938 -16.660156 12.640625 -17.078125 11.015625 -17.078125 C 8.835938 -17.078125 7.242188 -16.523438 6.234375 -15.421875 C 5.222656 -14.316406 4.71875 -12.53125 4.71875 -10.0625 L 4.71875 0 L 3.046875 0 L 3.046875 -18.234375 L 4.453125 -18.234375 L 4.78125 -15.734375 L 4.875 -15.734375 C 6.0625 -17.628906 8.171875 -18.578125 11.203125 -18.578125 C 15.335938 -18.578125 17.40625 -16.359375 17.40625 -11.921875 L 17.40625 0 Z M 15.765625 0 "/></g></g></g><g fill="#3a3d41" fill-opacity="1"><g transform="translate(179.064127, 409.151955)"><g><path d="M 7.859375 -1.140625 C 8.910156 -1.140625 9.828125 -1.226562 10.609375 -1.40625 L 10.609375 -0.0625 C 9.804688 0.195312 8.878906 0.328125 7.828125 0.328125 C 6.222656 0.328125 5.035156 -0.0976562 4.265625 -0.953125 C 3.503906 -1.816406 3.125 -3.171875 3.125 -5.015625 L 3.125 -16.78125 L 0.421875 -16.78125 L 0.421875 -17.765625 L 3.125 -18.515625 L 3.953125 -22.640625 L 4.8125 -22.640625 L 4.8125 -18.234375 L 10.15625 -18.234375 L 10.15625 -16.78125 L 4.8125 -16.78125 L 4.8125 -5.25 C 4.8125 -3.851562 5.054688 -2.816406 5.546875 -2.140625 C 6.035156 -1.472656 6.804688 -1.140625 7.859375 -1.140625 Z M 7.859375 -1.140625 "/></g></g></g><g fill="#3a3d41" fill-opacity="1"><g transform="translate(190.565302, 409.151955)"><g><path d="M 10.40625 0.328125 C 7.757812 0.328125 5.695312 -0.484375 4.21875 -2.109375 C 2.738281 -3.742188 2 -6.03125 2 -8.96875 C 2 -11.875 2.710938 -14.203125 4.140625 -15.953125 C 5.566406 -17.703125 7.492188 -18.578125 9.921875 -18.578125 C 12.066406 -18.578125 13.757812 -17.828125 15 -16.328125 C 16.25 -14.835938 16.875 -12.804688 16.875 -10.234375 L 16.875 -8.890625 L 3.734375 -8.890625 C 3.753906 -6.378906 4.335938 -4.460938 5.484375 -3.140625 C 6.628906 -1.828125 8.269531 -1.171875 10.40625 -1.171875 C 11.445312 -1.171875 12.363281 -1.242188 13.15625 -1.390625 C 13.945312 -1.535156 14.945312 -1.847656 16.15625 -2.328125 L 16.15625 -0.828125 C 15.125 -0.378906 14.171875 -0.078125 13.296875 0.078125 C 12.421875 0.242188 11.457031 0.328125 10.40625 0.328125 Z M 9.921875 -17.109375 C 8.171875 -17.109375 6.765625 -16.53125 5.703125 -15.375 C 4.640625 -14.21875 4.019531 -12.546875 3.84375 -10.359375 L 15.109375 -10.359375 C 15.109375 -12.472656 14.648438 -14.125 13.734375 -15.3125 C 12.816406 -16.507812 11.546875 -17.109375 9.921875 -17.109375 Z M 9.921875 -17.109375 "/></g></g></g><g fill="#3a3d41" fill-opacity="1"><g transform="translate(209.409794, 409.151955)"><g><path d="M 10.234375 -18.578125 C 11.003906 -18.578125 11.832031 -18.5 12.71875 -18.34375 L 12.390625 -16.75 C 11.628906 -16.9375 10.84375 -17.03125 10.03125 -17.03125 C 8.476562 -17.03125 7.203125 -16.367188 6.203125 -15.046875 C 5.210938 -13.734375 4.71875 -12.070312 4.71875 -10.0625 L 4.71875 0 L 3.046875 0 L 3.046875 -18.234375 L 4.453125 -18.234375 L 4.625 -14.9375 L 4.75 -14.9375 C 5.5 -16.28125 6.296875 -17.222656 7.140625 -17.765625 C 7.992188 -18.304688 9.023438 -18.578125 10.234375 -18.578125 Z M 10.234375 -18.578125 "/></g></g></g><g fill="#3a3d41" fill-opacity="1"><g transform="translate(222.771952, 409.151955)"><g><path d="M 15.765625 0 L 15.765625 -11.828125 C 15.765625 -13.660156 15.378906 -14.992188 14.609375 -15.828125 C 13.835938 -16.660156 12.640625 -17.078125 11.015625 -17.078125 C 8.835938 -17.078125 7.242188 -16.523438 6.234375 -15.421875 C 5.222656 -14.316406 4.71875 -12.53125 4.71875 -10.0625 L 4.71875 0 L 3.046875 0 L 3.046875 -18.234375 L 4.453125 -18.234375 L 4.78125 -15.734375 L 4.875 -15.734375 C 6.0625 -17.628906 8.171875 -18.578125 11.203125 -18.578125 C 15.335938 -18.578125 17.40625 -16.359375 17.40625 -11.921875 L 17.40625 0 Z M 15.765625 0 "/></g></g></g><g fill="#3a3d41" fill-opacity="1"><g transform="translate(243.02475, 409.151955)"><g><path d="M 14.125 0 L 13.703125 -2.890625 L 13.5625 -2.890625 C 12.644531 -1.710938 11.703125 -0.878906 10.734375 -0.390625 C 9.773438 0.0859375 8.632812 0.328125 7.3125 0.328125 C 5.519531 0.328125 4.125 -0.128906 3.125 -1.046875 C 2.132812 -1.960938 1.640625 -3.226562 1.640625 -4.84375 C 1.640625 -6.625 2.378906 -8.003906 3.859375 -8.984375 C 5.347656 -9.972656 7.492188 -10.492188 10.296875 -10.546875 L 13.765625 -10.65625 L 13.765625 -11.859375 C 13.765625 -13.585938 13.410156 -14.894531 12.703125 -15.78125 C 12.003906 -16.664062 10.875 -17.109375 9.3125 -17.109375 C 7.625 -17.109375 5.875 -16.640625 4.0625 -15.703125 L 3.4375 -17.140625 C 5.4375 -18.078125 7.414062 -18.546875 9.375 -18.546875 C 11.375 -18.546875 12.867188 -18.023438 13.859375 -16.984375 C 14.847656 -15.941406 15.34375 -14.320312 15.34375 -12.125 L 15.34375 0 Z M 7.40625 -1.171875 C 9.351562 -1.171875 10.890625 -1.726562 12.015625 -2.84375 C 13.140625 -3.957031 13.703125 -5.503906 13.703125 -7.484375 L 13.703125 -9.28125 L 10.515625 -9.140625 C 7.953125 -9.015625 6.125 -8.613281 5.03125 -7.9375 C 3.945312 -7.257812 3.40625 -6.207031 3.40625 -4.78125 C 3.40625 -3.632812 3.753906 -2.742188 4.453125 -2.109375 C 5.148438 -1.484375 6.132812 -1.171875 7.40625 -1.171875 Z M 7.40625 -1.171875 "/></g></g></g><g fill="#3a3d41" fill-opacity="1"><g transform="translate(261.21539, 409.151955)"><g><path d="M 7.859375 -1.140625 C 8.910156 -1.140625 9.828125 -1.226562 10.609375 -1.40625 L 10.609375 -0.0625 C 9.804688 0.195312 8.878906 0.328125 7.828125 0.328125 C 6.222656 0.328125 5.035156 -0.0976562 4.265625 -0.953125 C 3.503906 -1.816406 3.125 -3.171875 3.125 -5.015625 L 3.125 -16.78125 L 0.421875 -16.78125 L 0.421875 -17.765625 L 3.125 -18.515625 L 3.953125 -22.640625 L 4.8125 -22.640625 L 4.8125 -18.234375 L 10.15625 -18.234375 L 10.15625 -16.78125 L 4.8125 -16.78125 L 4.8125 -5.25 C 4.8125 -3.851562 5.054688 -2.816406 5.546875 -2.140625 C 6.035156 -1.472656 6.804688 -1.140625 7.859375 -1.140625 Z M 7.859375 -1.140625 "/></g></g></g><g fill="#3a3d41" fill-opacity="1"><g transform="translate(272.716566, 409.151955)"><g><path d="M 4.71875 0 L 3.046875 0 L 3.046875 -18.234375 L 4.71875 -18.234375 Z M 2.8125 -23.296875 C 2.8125 -24.367188 3.164062 -24.90625 3.875 -24.90625 C 4.21875 -24.90625 4.488281 -24.765625 4.6875 -24.484375 C 4.882812 -24.203125 4.984375 -23.804688 4.984375 -23.296875 C 4.984375 -22.785156 4.882812 -22.382812 4.6875 -22.09375 C 4.488281 -21.8125 4.21875 -21.671875 3.875 -21.671875 C 3.164062 -21.671875 2.8125 -22.210938 2.8125 -23.296875 Z M 2.8125 -23.296875 "/></g></g></g><g fill="#3a3d41" fill-opacity="1"><g transform="translate(280.479026, 409.151955)"><g><path d="M 18.125 -9.140625 C 18.125 -6.160156 17.398438 -3.835938 15.953125 -2.171875 C 14.515625 -0.503906 12.53125 0.328125 10 0.328125 C 8.394531 0.328125 6.984375 -0.0546875 5.765625 -0.828125 C 4.546875 -1.597656 3.613281 -2.703125 2.96875 -4.140625 C 2.320312 -5.585938 2 -7.253906 2 -9.140625 C 2 -12.109375 2.71875 -14.421875 4.15625 -16.078125 C 5.601562 -17.742188 7.582031 -18.578125 10.09375 -18.578125 C 12.59375 -18.578125 14.554688 -17.734375 15.984375 -16.046875 C 17.410156 -14.367188 18.125 -12.066406 18.125 -9.140625 Z M 3.734375 -9.140625 C 3.734375 -6.640625 4.285156 -4.6875 5.390625 -3.28125 C 6.492188 -1.875 8.050781 -1.171875 10.0625 -1.171875 C 12.070312 -1.171875 13.628906 -1.875 14.734375 -3.28125 C 15.835938 -4.6875 16.390625 -6.640625 16.390625 -9.140625 C 16.390625 -11.648438 15.832031 -13.597656 14.71875 -14.984375 C 13.601562 -16.378906 12.039062 -17.078125 10.03125 -17.078125 C 8.019531 -17.078125 6.46875 -16.382812 5.375 -15 C 4.28125 -13.613281 3.734375 -11.660156 3.734375 -9.140625 Z M 3.734375 -9.140625 "/></g></g></g><g fill="#3a3d41" fill-opacity="1"><g transform="translate(300.5977, 409.151955)"><g><path d="M 15.765625 0 L 15.765625 -11.828125 C 15.765625 -13.660156 15.378906 -14.992188 14.609375 -15.828125 C 13.835938 -16.660156 12.640625 -17.078125 11.015625 -17.078125 C 8.835938 -17.078125 7.242188 -16.523438 6.234375 -15.421875 C 5.222656 -14.316406 4.71875 -12.53125 4.71875 -10.0625 L 4.71875 0 L 3.046875 0 L 3.046875 -18.234375 L 4.453125 -18.234375 L 4.78125 -15.734375 L 4.875 -15.734375 C 6.0625 -17.628906 8.171875 -18.578125 11.203125 -18.578125 C 15.335938 -18.578125 17.40625 -16.359375 17.40625 -11.921875 L 17.40625 0 Z M 15.765625 0 "/></g></g></g><g fill="#3a3d41" fill-opacity="1"><g transform="translate(320.850499, 409.151955)"><g><path d="M 14.125 0 L 13.703125 -2.890625 L 13.5625 -2.890625 C 12.644531 -1.710938 11.703125 -0.878906 10.734375 -0.390625 C 9.773438 0.0859375 8.632812 0.328125 7.3125 0.328125 C 5.519531 0.328125 4.125 -0.128906 3.125 -1.046875 C 2.132812 -1.960938 1.640625 -3.226562 1.640625 -4.84375 C 1.640625 -6.625 2.378906 -8.003906 3.859375 -8.984375 C 5.347656 -9.972656 7.492188 -10.492188 10.296875 -10.546875 L 13.765625 -10.65625 L 13.765625 -11.859375 C 13.765625 -13.585938 13.410156 -14.894531 12.703125 -15.78125 C 12.003906 -16.664062 10.875 -17.109375 9.3125 -17.109375 C 7.625 -17.109375 5.875 -16.640625 4.0625 -15.703125 L 3.4375 -17.140625 C 5.4375 -18.078125 7.414062 -18.546875 9.375 -18.546875 C 11.375 -18.546875 12.867188 -18.023438 13.859375 -16.984375 C 14.847656 -15.941406 15.34375 -14.320312 15.34375 -12.125 L 15.34375 0 Z M 7.40625 -1.171875 C 9.351562 -1.171875 10.890625 -1.726562 12.015625 -2.84375 C 13.140625 -3.957031 13.703125 -5.503906 13.703125 -7.484375 L 13.703125 -9.28125 L 10.515625 -9.140625 C 7.953125 -9.015625 6.125 -8.613281 5.03125 -7.9375 C 3.945312 -7.257812 3.40625 -6.207031 3.40625 -4.78125 C 3.40625 -3.632812 3.753906 -2.742188 4.453125 -2.109375 C 5.148438 -1.484375 6.132812 -1.171875 7.40625 -1.171875 Z M 7.40625 -1.171875 "/></g></g></g><g fill="#3a3d41" fill-opacity="1"><g transform="translate(339.041128, 409.151955)"><g><path d="M 4.71875 0 L 3.046875 0 L 3.046875 -26.09375 L 4.71875 -26.09375 Z M 4.71875 0 "/></g></g></g><g fill="#3a3d41" fill-opacity="1"><g transform="translate(346.803588, 409.151955)"><g/></g></g><g fill="#3a3d41" fill-opacity="1"><g transform="translate(355.722867, 409.151955)"><g><path d="M 14.359375 -4.75 C 14.359375 -3.113281 13.734375 -1.859375 12.484375 -0.984375 C 11.242188 -0.109375 9.484375 0.328125 7.203125 0.328125 C 4.773438 0.328125 2.84375 -0.0390625 1.40625 -0.78125 L 1.40625 -2.578125 C 3.238281 -1.660156 5.171875 -1.203125 7.203125 -1.203125 C 9.003906 -1.203125 10.375 -1.5 11.3125 -2.09375 C 12.25 -2.695312 12.71875 -3.5 12.71875 -4.5 C 12.71875 -5.414062 12.34375 -6.1875 11.59375 -6.8125 C 10.851562 -7.4375 9.632812 -8.050781 7.9375 -8.65625 C 6.113281 -9.3125 4.832031 -9.875 4.09375 -10.34375 C 3.351562 -10.820312 2.796875 -11.359375 2.421875 -11.953125 C 2.046875 -12.554688 1.859375 -13.289062 1.859375 -14.15625 C 1.859375 -15.519531 2.429688 -16.597656 3.578125 -17.390625 C 4.722656 -18.179688 6.328125 -18.578125 8.390625 -18.578125 C 10.359375 -18.578125 12.222656 -18.207031 13.984375 -17.46875 L 13.359375 -15.96875 C 11.578125 -16.707031 9.921875 -17.078125 8.390625 -17.078125 C 6.898438 -17.078125 5.71875 -16.828125 4.84375 -16.328125 C 3.96875 -15.835938 3.53125 -15.15625 3.53125 -14.28125 C 3.53125 -13.332031 3.867188 -12.570312 4.546875 -12 C 5.222656 -11.4375 6.546875 -10.800781 8.515625 -10.09375 C 10.160156 -9.5 11.359375 -8.960938 12.109375 -8.484375 C 12.859375 -8.015625 13.421875 -7.476562 13.796875 -6.875 C 14.171875 -6.269531 14.359375 -5.5625 14.359375 -4.75 Z M 14.359375 -4.75 "/></g></g></g><g fill="#3a3d41" fill-opacity="1"><g transform="translate(371.717224, 409.151955)"><g><path d="M 7.859375 -1.140625 C 8.910156 -1.140625 9.828125 -1.226562 10.609375 -1.40625 L 10.609375 -0.0625 C 9.804688 0.195312 8.878906 0.328125 7.828125 0.328125 C 6.222656 0.328125 5.035156 -0.0976562 4.265625 -0.953125 C 3.503906 -1.816406 3.125 -3.171875 3.125 -5.015625 L 3.125 -16.78125 L 0.421875 -16.78125 L 0.421875 -17.765625 L 3.125 -18.515625 L 3.953125 -22.640625 L 4.8125 -22.640625 L 4.8125 -18.234375 L 10.15625 -18.234375 L 10.15625 -16.78125 L 4.8125 -16.78125 L 4.8125 -5.25 C 4.8125 -3.851562 5.054688 -2.816406 5.546875 -2.140625 C 6.035156 -1.472656 6.804688 -1.140625 7.859375 -1.140625 Z M 7.859375 -1.140625 "/></g></g></g><g fill="#3a3d41" fill-opacity="1"><g transform="translate(383.21841, 409.151955)"><g><path d="M 10.234375 -18.578125 C 11.003906 -18.578125 11.832031 -18.5 12.71875 -18.34375 L 12.390625 -16.75 C 11.628906 -16.9375 10.84375 -17.03125 10.03125 -17.03125 C 8.476562 -17.03125 7.203125 -16.367188 6.203125 -15.046875 C 5.210938 -13.734375 4.71875 -12.070312 4.71875 -10.0625 L 4.71875 0 L 3.046875 0 L 3.046875 -18.234375 L 4.453125 -18.234375 L 4.625 -14.9375 L 4.75 -14.9375 C 5.5 -16.28125 6.296875 -17.222656 7.140625 -17.765625 C 7.992188 -18.304688 9.023438 -18.578125 10.234375 -18.578125 Z M 10.234375 -18.578125 "/></g></g></g><g fill="#3a3d41" fill-opacity="1"><g transform="translate(396.580579, 409.151955)"><g><path d="M 14.125 0 L 13.703125 -2.890625 L 13.5625 -2.890625 C 12.644531 -1.710938 11.703125 -0.878906 10.734375 -0.390625 C 9.773438 0.0859375 8.632812 0.328125 7.3125 0.328125 C 5.519531 0.328125 4.125 -0.128906 3.125 -1.046875 C 2.132812 -1.960938 1.640625 -3.226562 1.640625 -4.84375 C 1.640625 -6.625 2.378906 -8.003906 3.859375 -8.984375 C 5.347656 -9.972656 7.492188 -10.492188 10.296875 -10.546875 L 13.765625 -10.65625 L 13.765625 -11.859375 C 13.765625 -13.585938 13.410156 -14.894531 12.703125 -15.78125 C 12.003906 -16.664062 10.875 -17.109375 9.3125 -17.109375 C 7.625 -17.109375 5.875 -16.640625 4.0625 -15.703125 L 3.4375 -17.140625 C 5.4375 -18.078125 7.414062 -18.546875 9.375 -18.546875 C 11.375 -18.546875 12.867188 -18.023438 13.859375 -16.984375 C 14.847656 -15.941406 15.34375 -14.320312 15.34375 -12.125 L 15.34375 0 Z M 7.40625 -1.171875 C 9.351562 -1.171875 10.890625 -1.726562 12.015625 -2.84375 C 13.140625 -3.957031 13.703125 -5.503906 13.703125 -7.484375 L 13.703125 -9.28125 L 10.515625 -9.140625 C 7.953125 -9.015625 6.125 -8.613281 5.03125 -7.9375 C 3.945312 -7.257812 3.40625 -6.207031 3.40625 -4.78125 C 3.40625 -3.632812 3.753906 -2.742188 4.453125 -2.109375 C 5.148438 -1.484375 6.132812 -1.171875 7.40625 -1.171875 Z M 7.40625 -1.171875 "/></g></g></g><g fill="#3a3d41" fill-opacity="1"><g transform="translate(414.771229, 409.151955)"><g><path d="M 7.859375 -1.140625 C 8.910156 -1.140625 9.828125 -1.226562 10.609375 -1.40625 L 10.609375 -0.0625 C 9.804688 0.195312 8.878906 0.328125 7.828125 0.328125 C 6.222656 0.328125 5.035156 -0.0976562 4.265625 -0.953125 C 3.503906 -1.816406 3.125 -3.171875 3.125 -5.015625 L 3.125 -16.78125 L 0.421875 -16.78125 L 0.421875 -17.765625 L 3.125 -18.515625 L 3.953125 -22.640625 L 4.8125 -22.640625 L 4.8125 -18.234375 L 10.15625 -18.234375 L 10.15625 -16.78125 L 4.8125 -16.78125 L 4.8125 -5.25 C 4.8125 -3.851562 5.054688 -2.816406 5.546875 -2.140625 C 6.035156 -1.472656 6.804688 -1.140625 7.859375 -1.140625 Z M 7.859375 -1.140625 "/></g></g></g><g fill="#3a3d41" fill-opacity="1"><g transform="translate(426.272416, 409.151955)"><g><path d="M 10.40625 0.328125 C 7.757812 0.328125 5.695312 -0.484375 4.21875 -2.109375 C 2.738281 -3.742188 2 -6.03125 2 -8.96875 C 2 -11.875 2.710938 -14.203125 4.140625 -15.953125 C 5.566406 -17.703125 7.492188 -18.578125 9.921875 -18.578125 C 12.066406 -18.578125 13.757812 -17.828125 15 -16.328125 C 16.25 -14.835938 16.875 -12.804688 16.875 -10.234375 L 16.875 -8.890625 L 3.734375 -8.890625 C 3.753906 -6.378906 4.335938 -4.460938 5.484375 -3.140625 C 6.628906 -1.828125 8.269531 -1.171875 10.40625 -1.171875 C 11.445312 -1.171875 12.363281 -1.242188 13.15625 -1.390625 C 13.945312 -1.535156 14.945312 -1.847656 16.15625 -2.328125 L 16.15625 -0.828125 C 15.125 -0.378906 14.171875 -0.078125 13.296875 0.078125 C 12.421875 0.242188 11.457031 0.328125 10.40625 0.328125 Z M 9.921875 -17.109375 C 8.171875 -17.109375 6.765625 -16.53125 5.703125 -15.375 C 4.640625 -14.21875 4.019531 -12.546875 3.84375 -10.359375 L 15.109375 -10.359375 C 15.109375 -12.472656 14.648438 -14.125 13.734375 -15.3125 C 12.816406 -16.507812 11.546875 -17.109375 9.921875 -17.109375 Z M 9.921875 -17.109375 "/></g></g></g><g fill="#3a3d41" fill-opacity="1"><g transform="translate(445.116907, 409.151955)"><g><path d="M 17.265625 -18.234375 L 17.265625 -17.078125 L 13.5 -16.84375 C 14.507812 -15.582031 15.015625 -14.207031 15.015625 -12.71875 C 15.015625 -10.957031 14.425781 -9.53125 13.25 -8.4375 C 12.082031 -7.351562 10.515625 -6.8125 8.546875 -6.8125 C 7.722656 -6.8125 7.144531 -6.84375 6.8125 -6.90625 C 6.144531 -6.5625 5.640625 -6.15625 5.296875 -5.6875 C 4.953125 -5.21875 4.78125 -4.71875 4.78125 -4.1875 C 4.78125 -3.613281 5 -3.191406 5.4375 -2.921875 C 5.882812 -2.648438 6.625 -2.515625 7.65625 -2.515625 L 10.84375 -2.515625 C 12.820312 -2.515625 14.335938 -2.113281 15.390625 -1.3125 C 16.441406 -0.519531 16.96875 0.660156 16.96875 2.234375 C 16.96875 4.148438 16.1875 5.628906 14.625 6.671875 C 13.070312 7.722656 10.851562 8.25 7.96875 8.25 C 5.675781 8.25 3.898438 7.804688 2.640625 6.921875 C 1.378906 6.035156 0.75 4.804688 0.75 3.234375 C 0.75 1.984375 1.132812 0.941406 1.90625 0.109375 C 2.6875 -0.710938 3.742188 -1.273438 5.078125 -1.578125 C 4.535156 -1.804688 4.097656 -2.132812 3.765625 -2.5625 C 3.429688 -3 3.265625 -3.5 3.265625 -4.0625 C 3.265625 -5.28125 4.039062 -6.351562 5.59375 -7.28125 C 4.539062 -7.71875 3.71875 -8.398438 3.125 -9.328125 C 2.53125 -10.265625 2.234375 -11.335938 2.234375 -12.546875 C 2.234375 -14.367188 2.8125 -15.828125 3.96875 -16.921875 C 5.125 -18.023438 6.6875 -18.578125 8.65625 -18.578125 C 9.851562 -18.578125 10.78125 -18.460938 11.4375 -18.234375 Z M 2.515625 3.078125 C 2.515625 5.585938 4.375 6.84375 8.09375 6.84375 C 12.882812 6.84375 15.28125 5.316406 15.28125 2.265625 C 15.28125 1.171875 14.90625 0.378906 14.15625 -0.109375 C 13.40625 -0.609375 12.191406 -0.859375 10.515625 -0.859375 L 7.53125 -0.859375 C 4.1875 -0.859375 2.515625 0.453125 2.515625 3.078125 Z M 3.90625 -12.546875 C 3.90625 -11.140625 4.332031 -10.046875 5.1875 -9.265625 C 6.039062 -8.484375 7.1875 -8.09375 8.625 -8.09375 C 10.144531 -8.09375 11.304688 -8.476562 12.109375 -9.25 C 12.921875 -10.019531 13.328125 -11.140625 13.328125 -12.609375 C 13.328125 -14.160156 12.910156 -15.320312 12.078125 -16.09375 C 11.242188 -16.875 10.082031 -17.265625 8.59375 -17.265625 C 7.132812 -17.265625 5.988281 -16.847656 5.15625 -16.015625 C 4.320312 -15.191406 3.90625 -14.035156 3.90625 -12.546875 Z M 3.90625 -12.546875 "/></g></g></g><g fill="#3a3d41" fill-opacity="1"><g transform="translate(463.072829, 409.151955)"><g><path d="M 4.71875 0 L 3.046875 0 L 3.046875 -18.234375 L 4.71875 -18.234375 Z M 2.8125 -23.296875 C 2.8125 -24.367188 3.164062 -24.90625 3.875 -24.90625 C 4.21875 -24.90625 4.488281 -24.765625 4.6875 -24.484375 C 4.882812 -24.203125 4.984375 -23.804688 4.984375 -23.296875 C 4.984375 -22.785156 4.882812 -22.382812 4.6875 -22.09375 C 4.488281 -21.8125 4.21875 -21.671875 3.875 -21.671875 C 3.164062 -21.671875 2.8125 -22.210938 2.8125 -23.296875 Z M 2.8125 -23.296875 "/></g></g></g><g fill="#3a3d41" fill-opacity="1"><g transform="translate(470.835289, 409.151955)"><g><path d="M 10.328125 0.328125 C 7.722656 0.328125 5.679688 -0.488281 4.203125 -2.125 C 2.734375 -3.769531 2 -6.0625 2 -9 C 2 -12.019531 2.765625 -14.367188 4.296875 -16.046875 C 5.828125 -17.734375 7.921875 -18.578125 10.578125 -18.578125 C 12.160156 -18.578125 13.671875 -18.304688 15.109375 -17.765625 L 14.65625 -16.28125 C 13.082031 -16.8125 11.710938 -17.078125 10.546875 -17.078125 C 8.304688 -17.078125 6.609375 -16.382812 5.453125 -15 C 4.304688 -13.613281 3.734375 -11.625 3.734375 -9.03125 C 3.734375 -6.570312 4.304688 -4.644531 5.453125 -3.25 C 6.609375 -1.863281 8.222656 -1.171875 10.296875 -1.171875 C 11.953125 -1.171875 13.488281 -1.46875 14.90625 -2.0625 L 14.90625 -0.515625 C 13.738281 0.046875 12.210938 0.328125 10.328125 0.328125 Z M 10.328125 0.328125 "/></g></g></g><g fill="#3a3d41" fill-opacity="1"><g transform="translate(487.148176, 409.151955)"><g/></g></g><g fill="#3a3d41" fill-opacity="1"><g transform="translate(496.067455, 409.151955)"><g><path d="M 14.359375 -4.75 C 14.359375 -3.113281 13.734375 -1.859375 12.484375 -0.984375 C 11.242188 -0.109375 9.484375 0.328125 7.203125 0.328125 C 4.773438 0.328125 2.84375 -0.0390625 1.40625 -0.78125 L 1.40625 -2.578125 C 3.238281 -1.660156 5.171875 -1.203125 7.203125 -1.203125 C 9.003906 -1.203125 10.375 -1.5 11.3125 -2.09375 C 12.25 -2.695312 12.71875 -3.5 12.71875 -4.5 C 12.71875 -5.414062 12.34375 -6.1875 11.59375 -6.8125 C 10.851562 -7.4375 9.632812 -8.050781 7.9375 -8.65625 C 6.113281 -9.3125 4.832031 -9.875 4.09375 -10.34375 C 3.351562 -10.820312 2.796875 -11.359375 2.421875 -11.953125 C 2.046875 -12.554688 1.859375 -13.289062 1.859375 -14.15625 C 1.859375 -15.519531 2.429688 -16.597656 3.578125 -17.390625 C 4.722656 -18.179688 6.328125 -18.578125 8.390625 -18.578125 C 10.359375 -18.578125 12.222656 -18.207031 13.984375 -17.46875 L 13.359375 -15.96875 C 11.578125 -16.707031 9.921875 -17.078125 8.390625 -17.078125 C 6.898438 -17.078125 5.71875 -16.828125 4.84375 -16.328125 C 3.96875 -15.835938 3.53125 -15.15625 3.53125 -14.28125 C 3.53125 -13.332031 3.867188 -12.570312 4.546875 -12 C 5.222656 -11.4375 6.546875 -10.800781 8.515625 -10.09375 C 10.160156 -9.5 11.359375 -8.960938 12.109375 -8.484375 C 12.859375 -8.015625 13.421875 -7.476562 13.796875 -6.875 C 14.171875 -6.269531 14.359375 -5.5625 14.359375 -4.75 Z M 14.359375 -4.75 "/></g></g></g><g fill="#3a3d41" fill-opacity="1"><g transform="translate(512.061812, 409.151955)"><g><path d="M 18.125 -9.140625 C 18.125 -6.160156 17.398438 -3.835938 15.953125 -2.171875 C 14.515625 -0.503906 12.53125 0.328125 10 0.328125 C 8.394531 0.328125 6.984375 -0.0546875 5.765625 -0.828125 C 4.546875 -1.597656 3.613281 -2.703125 2.96875 -4.140625 C 2.320312 -5.585938 2 -7.253906 2 -9.140625 C 2 -12.109375 2.71875 -14.421875 4.15625 -16.078125 C 5.601562 -17.742188 7.582031 -18.578125 10.09375 -18.578125 C 12.59375 -18.578125 14.554688 -17.734375 15.984375 -16.046875 C 17.410156 -14.367188 18.125 -12.066406 18.125 -9.140625 Z M 3.734375 -9.140625 C 3.734375 -6.640625 4.285156 -4.6875 5.390625 -3.28125 C 6.492188 -1.875 8.050781 -1.171875 10.0625 -1.171875 C 12.070312 -1.171875 13.628906 -1.875 14.734375 -3.28125 C 15.835938 -4.6875 16.390625 -6.640625 16.390625 -9.140625 C 16.390625 -11.648438 15.832031 -13.597656 14.71875 -14.984375 C 13.601562 -16.378906 12.039062 -17.078125 10.03125 -17.078125 C 8.019531 -17.078125 6.46875 -16.382812 5.375 -15 C 4.28125 -13.613281 3.734375 -11.660156 3.734375 -9.140625 Z M 3.734375 -9.140625 "/></g></g></g><g fill="#3a3d41" fill-opacity="1"><g transform="translate(532.180486, 409.151955)"><g><path d="M 4.5 -18.234375 L 4.5 -6.421875 C 4.5 -4.585938 4.882812 -3.253906 5.65625 -2.421875 C 6.425781 -1.585938 7.617188 -1.171875 9.234375 -1.171875 C 11.410156 -1.171875 13.007812 -1.71875 14.03125 -2.8125 C 15.050781 -3.90625 15.5625 -5.691406 15.5625 -8.171875 L 15.5625 -18.234375 L 17.203125 -18.234375 L 17.203125 0 L 15.796875 0 L 15.5 -2.515625 L 15.390625 -2.515625 C 14.203125 -0.617188 12.097656 0.328125 9.078125 0.328125 C 4.921875 0.328125 2.84375 -1.890625 2.84375 -6.328125 L 2.84375 -18.234375 Z M 4.5 -18.234375 "/></g></g></g><g fill="#3a3d41" fill-opacity="1"><g transform="translate(552.433284, 409.151955)"><g><path d="M 10.234375 -18.578125 C 11.003906 -18.578125 11.832031 -18.5 12.71875 -18.34375 L 12.390625 -16.75 C 11.628906 -16.9375 10.84375 -17.03125 10.03125 -17.03125 C 8.476562 -17.03125 7.203125 -16.367188 6.203125 -15.046875 C 5.210938 -13.734375 4.71875 -12.070312 4.71875 -10.0625 L 4.71875 0 L 3.046875 0 L 3.046875 -18.234375 L 4.453125 -18.234375 L 4.625 -14.9375 L 4.75 -14.9375 C 5.5 -16.28125 6.296875 -17.222656 7.140625 -17.765625 C 7.992188 -18.304688 9.023438 -18.578125 10.234375 -18.578125 Z M 10.234375 -18.578125 "/></g></g></g><g fill="#3a3d41" fill-opacity="1"><g transform="translate(565.795453, 409.151955)"><g><path d="M 10.328125 0.328125 C 7.722656 0.328125 5.679688 -0.488281 4.203125 -2.125 C 2.734375 -3.769531 2 -6.0625 2 -9 C 2 -12.019531 2.765625 -14.367188 4.296875 -16.046875 C 5.828125 -17.734375 7.921875 -18.578125 10.578125 -18.578125 C 12.160156 -18.578125 13.671875 -18.304688 15.109375 -17.765625 L 14.65625 -16.28125 C 13.082031 -16.8125 11.710938 -17.078125 10.546875 -17.078125 C 8.304688 -17.078125 6.609375 -16.382812 5.453125 -15 C 4.304688 -13.613281 3.734375 -11.625 3.734375 -9.03125 C 3.734375 -6.570312 4.304688 -4.644531 5.453125 -3.25 C 6.609375 -1.863281 8.222656 -1.171875 10.296875 -1.171875 C 11.953125 -1.171875 13.488281 -1.46875 14.90625 -2.0625 L 14.90625 -0.515625 C 13.738281 0.046875 12.210938 0.328125 10.328125 0.328125 Z M 10.328125 0.328125 "/></g></g></g><g fill="#3a3d41" fill-opacity="1"><g transform="translate(582.10836, 409.151955)"><g><path d="M 10.40625 0.328125 C 7.757812 0.328125 5.695312 -0.484375 4.21875 -2.109375 C 2.738281 -3.742188 2 -6.03125 2 -8.96875 C 2 -11.875 2.710938 -14.203125 4.140625 -15.953125 C 5.566406 -17.703125 7.492188 -18.578125 9.921875 -18.578125 C 12.066406 -18.578125 13.757812 -17.828125 15 -16.328125 C 16.25 -14.835938 16.875 -12.804688 16.875 -10.234375 L 16.875 -8.890625 L 3.734375 -8.890625 C 3.753906 -6.378906 4.335938 -4.460938 5.484375 -3.140625 C 6.628906 -1.828125 8.269531 -1.171875 10.40625 -1.171875 C 11.445312 -1.171875 12.363281 -1.242188 13.15625 -1.390625 C 13.945312 -1.535156 14.945312 -1.847656 16.15625 -2.328125 L 16.15625 -0.828125 C 15.125 -0.378906 14.171875 -0.078125 13.296875 0.078125 C 12.421875 0.242188 11.457031 0.328125 10.40625 0.328125 Z M 9.921875 -17.109375 C 8.171875 -17.109375 6.765625 -16.53125 5.703125 -15.375 C 4.640625 -14.21875 4.019531 -12.546875 3.84375 -10.359375 L 15.109375 -10.359375 C 15.109375 -12.472656 14.648438 -14.125 13.734375 -15.3125 C 12.816406 -16.507812 11.546875 -17.109375 9.921875 -17.109375 Z M 9.921875 -17.109375 "/></g></g></g><g fill="#3a3d41" fill-opacity="1"><g transform="translate(600.952831, 409.151955)"><g><path d="M 14.359375 -4.75 C 14.359375 -3.113281 13.734375 -1.859375 12.484375 -0.984375 C 11.242188 -0.109375 9.484375 0.328125 7.203125 0.328125 C 4.773438 0.328125 2.84375 -0.0390625 1.40625 -0.78125 L 1.40625 -2.578125 C 3.238281 -1.660156 5.171875 -1.203125 7.203125 -1.203125 C 9.003906 -1.203125 10.375 -1.5 11.3125 -2.09375 C 12.25 -2.695312 12.71875 -3.5 12.71875 -4.5 C 12.71875 -5.414062 12.34375 -6.1875 11.59375 -6.8125 C 10.851562 -7.4375 9.632812 -8.050781 7.9375 -8.65625 C 6.113281 -9.3125 4.832031 -9.875 4.09375 -10.34375 C 3.351562 -10.820312 2.796875 -11.359375 2.421875 -11.953125 C 2.046875 -12.554688 1.859375 -13.289062 1.859375 -14.15625 C 1.859375 -15.519531 2.429688 -16.597656 3.578125 -17.390625 C 4.722656 -18.179688 6.328125 -18.578125 8.390625 -18.578125 C 10.359375 -18.578125 12.222656 -18.207031 13.984375 -17.46875 L 13.359375 -15.96875 C 11.578125 -16.707031 9.921875 -17.078125 8.390625 -17.078125 C 6.898438 -17.078125 5.71875 -16.828125 4.84375 -16.328125 C 3.96875 -15.835938 3.53125 -15.15625 3.53125 -14.28125 C 3.53125 -13.332031 3.867188 -12.570312 4.546875 -12 C 5.222656 -11.4375 6.546875 -10.800781 8.515625 -10.09375 C 10.160156 -9.5 11.359375 -8.960938 12.109375 -8.484375 C 12.859375 -8.015625 13.421875 -7.476562 13.796875 -6.875 C 14.171875 -6.269531 14.359375 -5.5625 14.359375 -4.75 Z M 14.359375 -4.75 "/></g></g></g><g fill="#3a3d41" fill-opacity="1"><g transform="translate(177.521304, 470.917775)"><g><path d="M 21.796875 -3.578125 C 22.242188 -3.578125 22.46875 -2.988281 22.46875 -1.8125 C 22.46875 -0.601562 22.242188 0 21.796875 0 L 21.09375 0 C 18.351562 0 16.46875 -0.789062 15.4375 -2.375 C 14.632812 -2 13.765625 -1.691406 12.828125 -1.453125 C 11.890625 -1.222656 10.984375 -1.109375 10.109375 -1.109375 C 8.523438 -1.109375 7.0625 -1.46875 5.71875 -2.1875 C 4.382812 -2.914062 3.320312 -3.910156 2.53125 -5.171875 C 1.738281 -6.429688 1.34375 -7.8125 1.34375 -9.3125 C 1.34375 -10.820312 1.738281 -12.203125 2.53125 -13.453125 C 3.320312 -14.703125 4.382812 -15.695312 5.71875 -16.4375 C 7.0625 -17.175781 8.515625 -17.546875 10.078125 -17.546875 L 14.390625 -17.546875 L 14.390625 -18.390625 L 18.25 -18.390625 L 18.25 -6.796875 C 18.25 -5.609375 18.472656 -4.773438 18.921875 -4.296875 C 19.367188 -3.816406 20.191406 -3.578125 21.390625 -3.578125 Z M 10.21875 -4.71875 C 11.59375 -4.71875 13 -5.117188 14.4375 -5.921875 C 14.40625 -6.097656 14.390625 -6.378906 14.390625 -6.765625 L 14.390625 -13.96875 L 10.078125 -13.96875 C 9.179688 -13.96875 8.359375 -13.757812 7.609375 -13.34375 C 6.867188 -12.925781 6.28125 -12.359375 5.84375 -11.640625 C 5.40625 -10.929688 5.1875 -10.15625 5.1875 -9.3125 C 5.1875 -8.457031 5.398438 -7.679688 5.828125 -6.984375 C 6.253906 -6.296875 6.847656 -5.742188 7.609375 -5.328125 C 8.378906 -4.921875 9.25 -4.71875 10.21875 -4.71875 Z M 7.078125 -19.96875 C 6.492188 -19.96875 6.003906 -20.164062 5.609375 -20.5625 C 5.222656 -20.96875 5.03125 -21.472656 5.03125 -22.078125 C 5.03125 -22.679688 5.222656 -23.179688 5.609375 -23.578125 C 6.003906 -23.984375 6.492188 -24.1875 7.078125 -24.1875 C 7.660156 -24.1875 8.144531 -23.988281 8.53125 -23.59375 C 8.925781 -23.207031 9.125 -22.703125 9.125 -22.078125 C 9.125 -21.472656 8.925781 -20.96875 8.53125 -20.5625 C 8.144531 -20.164062 7.660156 -19.96875 7.078125 -19.96875 Z M 12.375 -19.96875 C 11.789062 -19.96875 11.300781 -20.164062 10.90625 -20.5625 C 10.519531 -20.96875 10.328125 -21.472656 10.328125 -22.078125 C 10.328125 -22.679688 10.519531 -23.179688 10.90625 -23.578125 C 11.300781 -23.984375 11.789062 -24.1875 12.375 -24.1875 C 12.945312 -24.1875 13.425781 -23.988281 13.8125 -23.59375 C 14.207031 -23.207031 14.40625 -22.703125 14.40625 -22.078125 C 14.40625 -21.472656 14.207031 -20.96875 13.8125 -20.5625 C 13.425781 -20.164062 12.945312 -19.96875 12.375 -19.96875 Z M 12.375 -19.96875 "/></g></g></g><g fill="#3a3d41" fill-opacity="1"><g transform="translate(199.313957, 470.917775)"><g><path d="M 13.09375 -3.578125 C 13.539062 -3.578125 13.765625 -2.988281 13.765625 -1.8125 C 13.765625 -0.601562 13.539062 0 13.09375 0 L 11.25 0 C 9.351562 0 7.789062 -0.476562 6.5625 -1.4375 C 5.507812 -0.476562 3.890625 0 1.703125 0 L 0 0 C -0.445312 0 -0.671875 -0.601562 -0.671875 -1.8125 C -0.671875 -2.988281 -0.445312 -3.578125 0 -3.578125 L 1.40625 -3.578125 C 2.613281 -3.578125 3.4375 -3.816406 3.875 -4.296875 C 4.320312 -4.773438 4.546875 -5.609375 4.546875 -6.796875 L 4.546875 -16.28125 L 8.40625 -16.28125 L 8.40625 -6.765625 C 8.40625 -5.753906 8.304688 -4.859375 8.109375 -4.078125 C 8.679688 -3.742188 9.382812 -3.578125 10.21875 -3.578125 Z M 4.078125 7.03125 C 3.492188 7.03125 3.003906 6.828125 2.609375 6.421875 C 2.222656 6.023438 2.03125 5.523438 2.03125 4.921875 C 2.03125 4.316406 2.222656 3.8125 2.609375 3.40625 C 3.003906 3.007812 3.492188 2.8125 4.078125 2.8125 C 4.660156 2.8125 5.144531 3.003906 5.53125 3.390625 C 5.925781 3.785156 6.125 4.296875 6.125 4.921875 C 6.125 5.523438 5.925781 6.023438 5.53125 6.421875 C 5.144531 6.828125 4.660156 7.03125 4.078125 7.03125 Z M 9.375 7.03125 C 8.789062 7.03125 8.300781 6.828125 7.90625 6.421875 C 7.519531 6.023438 7.328125 5.523438 7.328125 4.921875 C 7.328125 4.316406 7.519531 3.8125 7.90625 3.40625 C 8.300781 3.007812 8.789062 2.8125 9.375 2.8125 C 9.945312 2.8125 10.425781 3.003906 10.8125 3.390625 C 11.207031 3.785156 11.40625 4.296875 11.40625 4.921875 C 11.40625 5.523438 11.207031 6.023438 10.8125 6.421875 C 10.425781 6.828125 9.945312 7.03125 9.375 7.03125 Z M 9.375 7.03125 "/></g></g></g><g fill="#3a3d41" fill-opacity="1"><g transform="translate(212.402934, 470.917775)"><g><path d="M 22.234375 -3.578125 C 22.679688 -3.578125 22.90625 -2.988281 22.90625 -1.8125 C 22.90625 -0.601562 22.679688 0 22.234375 0 L 0 0 C -0.445312 0 -0.671875 -0.601562 -0.671875 -1.8125 C -0.671875 -2.988281 -0.445312 -3.578125 0 -3.578125 L 13.296875 -3.578125 L 13.296875 -8.671875 C 13.296875 -10.367188 12.753906 -11.71875 11.671875 -12.71875 C 10.585938 -13.726562 9.140625 -14.234375 7.328125 -14.234375 C 5.367188 -14.234375 3.484375 -13.695312 1.671875 -12.625 L 0.03125 -15.734375 C 2.21875 -17.117188 4.648438 -17.8125 7.328125 -17.8125 C 9.222656 -17.8125 10.910156 -17.421875 12.390625 -16.640625 C 13.878906 -15.859375 15.039062 -14.773438 15.875 -13.390625 C 16.71875 -12.003906 17.140625 -10.429688 17.140625 -8.671875 L 17.140625 -3.578125 Z M 7.578125 7.40625 C 6.929688 7.40625 6.394531 7.179688 5.96875 6.734375 C 5.550781 6.285156 5.34375 5.726562 5.34375 5.0625 C 5.34375 4.382812 5.550781 3.828125 5.96875 3.390625 C 6.394531 2.960938 6.929688 2.75 7.578125 2.75 C 8.222656 2.75 8.757812 2.960938 9.1875 3.390625 C 9.613281 3.828125 9.828125 4.382812 9.828125 5.0625 C 9.828125 5.726562 9.613281 6.285156 9.1875 6.734375 C 8.757812 7.179688 8.222656 7.40625 7.578125 7.40625 Z M 7.578125 7.40625 "/></g></g></g><g fill="#3a3d41" fill-opacity="1"><g transform="translate(234.630765, 470.917775)"><g><path d="M 13.09375 -3.578125 C 13.539062 -3.578125 13.765625 -2.988281 13.765625 -1.8125 C 13.765625 -0.601562 13.539062 0 13.09375 0 L 11.25 0 C 9.351562 0 7.789062 -0.476562 6.5625 -1.4375 C 5.507812 -0.476562 3.890625 0 1.703125 0 L 0 0 C -0.445312 0 -0.671875 -0.601562 -0.671875 -1.8125 C -0.671875 -2.988281 -0.445312 -3.578125 0 -3.578125 L 1.40625 -3.578125 C 2.613281 -3.578125 3.4375 -3.816406 3.875 -4.296875 C 4.320312 -4.773438 4.546875 -5.609375 4.546875 -6.796875 L 4.546875 -16.28125 L 8.40625 -16.28125 L 8.40625 -6.765625 C 8.40625 -5.753906 8.304688 -4.859375 8.109375 -4.078125 C 8.679688 -3.742188 9.382812 -3.578125 10.21875 -3.578125 Z M 4.078125 7.03125 C 3.492188 7.03125 3.003906 6.828125 2.609375 6.421875 C 2.222656 6.023438 2.03125 5.523438 2.03125 4.921875 C 2.03125 4.316406 2.222656 3.8125 2.609375 3.40625 C 3.003906 3.007812 3.492188 2.8125 4.078125 2.8125 C 4.660156 2.8125 5.144531 3.003906 5.53125 3.390625 C 5.925781 3.785156 6.125 4.296875 6.125 4.921875 C 6.125 5.523438 5.925781 6.023438 5.53125 6.421875 C 5.144531 6.828125 4.660156 7.03125 4.078125 7.03125 Z M 9.375 7.03125 C 8.789062 7.03125 8.300781 6.828125 7.90625 6.421875 C 7.519531 6.023438 7.328125 5.523438 7.328125 4.921875 C 7.328125 4.316406 7.519531 3.8125 7.90625 3.40625 C 8.300781 3.007812 8.789062 2.8125 9.375 2.8125 C 9.945312 2.8125 10.425781 3.003906 10.8125 3.390625 C 11.207031 3.785156 11.40625 4.296875 11.40625 4.921875 C 11.40625 5.523438 11.207031 6.023438 10.8125 6.421875 C 10.425781 6.828125 9.945312 7.03125 9.375 7.03125 Z M 9.375 7.03125 "/></g></g></g><g fill="#3a3d41" fill-opacity="1"><g transform="translate(247.719742, 470.917775)"><g><path d="M 3.546875 -16.28125 L 7.40625 -16.28125 L 7.40625 0 L 0 0 C -0.445312 0 -0.671875 -0.601562 -0.671875 -1.8125 C -0.671875 -2.988281 -0.445312 -3.578125 0 -3.578125 L 3.546875 -3.578125 Z M 3.078125 -18.96875 C 2.492188 -18.96875 2.003906 -19.164062 1.609375 -19.5625 C 1.222656 -19.96875 1.03125 -20.472656 1.03125 -21.078125 C 1.03125 -21.679688 1.222656 -22.179688 1.609375 -22.578125 C 2.003906 -22.984375 2.492188 -23.1875 3.078125 -23.1875 C 3.660156 -23.1875 4.144531 -22.988281 4.53125 -22.59375 C 4.925781 -22.207031 5.125 -21.703125 5.125 -21.078125 C 5.125 -20.472656 4.925781 -19.96875 4.53125 -19.5625 C 4.144531 -19.164062 3.660156 -18.96875 3.078125 -18.96875 Z M 8.375 -18.96875 C 7.789062 -18.96875 7.300781 -19.164062 6.90625 -19.5625 C 6.519531 -19.96875 6.328125 -20.472656 6.328125 -21.078125 C 6.328125 -21.679688 6.519531 -22.179688 6.90625 -22.578125 C 7.300781 -22.984375 7.789062 -23.1875 8.375 -23.1875 C 8.945312 -23.1875 9.425781 -22.988281 9.8125 -22.59375 C 10.207031 -22.207031 10.40625 -21.703125 10.40625 -21.078125 C 10.40625 -20.472656 10.207031 -19.96875 9.8125 -19.5625 C 9.425781 -19.164062 8.945312 -18.96875 8.375 -18.96875 Z M 8.375 -18.96875 "/></g></g></g><g fill="#3a3d41" fill-opacity="1"><g transform="translate(257.46116, 470.917775)"><g><path d="M 6.859375 0 L 3.015625 0 L 3.015625 -24.8125 L 6.859375 -24.8125 Z M 6.859375 0 "/></g></g></g><g fill="#3a3d41" fill-opacity="1"><g transform="translate(267.336478, 470.917775)"><g><path d="M 10.78125 -3.578125 C 11.226562 -3.578125 11.453125 -2.988281 11.453125 -1.8125 C 11.453125 -0.601562 11.226562 0 10.78125 0 L 7.09375 0 L 7.09375 0.0625 C 7.09375 2.40625 6.457031 4.234375 5.1875 5.546875 C 3.914062 6.867188 2.164062 7.550781 -0.0625 7.59375 L -0.671875 3.984375 C 0.710938 4.078125 1.710938 3.816406 2.328125 3.203125 C 2.941406 2.585938 3.25 1.539062 3.25 0.0625 L 3.25 -16.28125 L 7.09375 -16.28125 L 7.09375 -3.578125 Z M 10.78125 -3.578125 "/></g></g></g><g fill="#3a3d41" fill-opacity="1"><g transform="translate(278.115638, 470.917775)"><g><path d="M 13.09375 -3.578125 C 13.539062 -3.578125 13.765625 -2.988281 13.765625 -1.8125 C 13.765625 -0.601562 13.539062 0 13.09375 0 L 11.25 0 C 9.351562 0 7.789062 -0.476562 6.5625 -1.4375 C 5.507812 -0.476562 3.890625 0 1.703125 0 L 0 0 C -0.445312 0 -0.671875 -0.601562 -0.671875 -1.8125 C -0.671875 -2.988281 -0.445312 -3.578125 0 -3.578125 L 1.40625 -3.578125 C 2.613281 -3.578125 3.4375 -3.816406 3.875 -4.296875 C 4.320312 -4.773438 4.546875 -5.609375 4.546875 -6.796875 L 4.546875 -16.28125 L 8.40625 -16.28125 L 8.40625 -6.765625 C 8.40625 -5.753906 8.304688 -4.859375 8.109375 -4.078125 C 8.679688 -3.742188 9.382812 -3.578125 10.21875 -3.578125 Z M 4.078125 -18.96875 C 3.492188 -18.96875 3.003906 -19.164062 2.609375 -19.5625 C 2.222656 -19.96875 2.03125 -20.472656 2.03125 -21.078125 C 2.03125 -21.679688 2.222656 -22.179688 2.609375 -22.578125 C 3.003906 -22.984375 3.492188 -23.1875 4.078125 -23.1875 C 4.660156 -23.1875 5.144531 -22.988281 5.53125 -22.59375 C 5.925781 -22.207031 6.125 -21.703125 6.125 -21.078125 C 6.125 -20.472656 5.925781 -19.96875 5.53125 -19.5625 C 5.144531 -19.164062 4.660156 -18.96875 4.078125 -18.96875 Z M 9.375 -18.96875 C 8.789062 -18.96875 8.300781 -19.164062 7.90625 -19.5625 C 7.519531 -19.96875 7.328125 -20.472656 7.328125 -21.078125 C 7.328125 -21.679688 7.519531 -22.179688 7.90625 -22.578125 C 8.300781 -22.984375 8.789062 -23.1875 9.375 -23.1875 C 9.945312 -23.1875 10.425781 -22.988281 10.8125 -22.59375 C 11.207031 -22.207031 11.40625 -21.703125 11.40625 -21.078125 C 11.40625 -20.472656 11.207031 -19.96875 10.8125 -19.5625 C 10.425781 -19.164062 9.945312 -18.96875 9.375 -18.96875 Z M 9.375 -18.96875 "/></g></g></g><g fill="#3a3d41" fill-opacity="1"><g transform="translate(291.204614, 470.917775)"><g><path d="M 23.609375 -16.3125 L 27.453125 -16.3125 L 27.453125 -6.765625 C 27.453125 -4.484375 26.921875 -2.785156 25.859375 -1.671875 C 24.804688 -0.554688 23.160156 0 20.921875 0 C 18.890625 0 17.273438 -0.476562 16.078125 -1.4375 C 15.023438 -0.476562 13.460938 0 11.390625 0 C 9.359375 0 7.738281 -0.476562 6.53125 -1.4375 C 5.4375 -0.476562 3.816406 0 1.671875 0 L 0 0 C -0.445312 0 -0.671875 -0.601562 -0.671875 -1.8125 C -0.671875 -2.988281 -0.445312 -3.578125 0 -3.578125 L 1.375 -3.578125 C 2.582031 -3.578125 3.40625 -3.816406 3.84375 -4.296875 C 4.289062 -4.773438 4.515625 -5.609375 4.515625 -6.796875 L 4.515625 -12.953125 L 8.375 -12.953125 L 8.375 -6.765625 C 8.375 -5.785156 8.269531 -4.90625 8.0625 -4.125 C 8.71875 -3.757812 9.613281 -3.578125 10.75 -3.578125 C 12.039062 -3.578125 12.914062 -3.8125 13.375 -4.28125 C 13.832031 -4.75 14.0625 -5.585938 14.0625 -6.796875 L 14.0625 -14.625 L 17.921875 -14.625 L 17.921875 -6.765625 C 17.921875 -5.785156 17.816406 -4.90625 17.609375 -4.125 C 18.253906 -3.757812 19.148438 -3.578125 20.296875 -3.578125 C 21.585938 -3.578125 22.460938 -3.8125 22.921875 -4.28125 C 23.378906 -4.75 23.609375 -5.585938 23.609375 -6.796875 Z M 23.609375 -16.3125 "/></g></g></g><g fill="#3a3d41" fill-opacity="1"><g transform="translate(320.663185, 470.917775)"><g><path d="M 15.328125 -3.578125 L 15.328125 -24.8125 L 19.1875 -24.8125 L 19.1875 0 L 1.34375 0 L 1.34375 -3.578125 L 5.59375 -3.578125 L 5.59375 -20.09375 L 9.4375 -20.09375 L 9.4375 -3.578125 Z M 15.328125 -3.578125 "/></g></g></g><g fill="#3a3d41" fill-opacity="1"><g transform="translate(342.188027, 470.917775)"><g><path d="M 6.859375 0 L 3.015625 0 L 3.015625 -24.8125 L 6.859375 -24.8125 Z M 6.859375 0 "/></g></g></g><g fill="#3a3d41" fill-opacity="1"><g transform="translate(352.063346, 470.917775)"><g/></g></g><g fill="#3a3d41" fill-opacity="1"><g transform="translate(361.101766, 470.917775)"><g><path d="M -0.671875 3.984375 C 0.710938 4.078125 1.710938 3.816406 2.328125 3.203125 C 2.941406 2.585938 3.25 1.539062 3.25 0.0625 L 3.25 -16.28125 L 7.09375 -16.28125 L 7.09375 0.0625 C 7.09375 2.40625 6.457031 4.234375 5.1875 5.546875 C 3.914062 6.867188 2.164062 7.550781 -0.0625 7.59375 Z M -0.671875 3.984375 "/></g></g></g><g fill="#3a3d41" fill-opacity="1"><g transform="translate(370.207136, 470.917775)"><g><path d="M 5.859375 -19.59375 C 8.472656 -18.988281 10.75 -17.867188 12.6875 -16.234375 C 14.632812 -14.609375 16.128906 -12.582031 17.171875 -10.15625 C 18.222656 -7.738281 18.757812 -5.046875 18.78125 -2.078125 C 15.570312 -0.691406 11.878906 0 7.703125 0 C 5.515625 0 3.394531 -0.210938 1.34375 -0.640625 L 1.34375 -4.3125 C 3.375 -3.820312 5.503906 -3.578125 7.734375 -3.578125 C 10.253906 -3.578125 12.597656 -3.878906 14.765625 -4.484375 C 14.335938 -7.453125 13.285156 -9.96875 11.609375 -12.03125 C 9.941406 -14.101562 7.734375 -15.460938 4.984375 -16.109375 Z M 5.859375 -19.59375 "/></g></g></g><g fill="#3a3d41" fill-opacity="1"><g transform="translate(390.660772, 470.917775)"><g><path d="M 10.84375 -3.578125 C 11.289062 -3.578125 11.515625 -2.988281 11.515625 -1.8125 C 11.515625 -0.601562 11.289062 0 10.84375 0 L 3.015625 0 L 3.015625 -24.8125 L 6.859375 -24.8125 L 6.859375 -3.578125 Z M 10.84375 -3.578125 "/></g></g></g><g fill="#3a3d41" fill-opacity="1"><g transform="translate(401.506891, 470.917775)"><g><path d="M 39.84375 -3.578125 C 40.289062 -3.578125 40.515625 -2.988281 40.515625 -1.8125 C 40.515625 -0.601562 40.289062 0 39.84375 0 L 11.390625 0 C 9.359375 0 7.738281 -0.476562 6.53125 -1.4375 C 5.4375 -0.476562 3.816406 0 1.671875 0 L 0 0 C -0.445312 0 -0.671875 -0.601562 -0.671875 -1.8125 C -0.671875 -2.988281 -0.445312 -3.578125 0 -3.578125 L 1.375 -3.578125 C 2.582031 -3.578125 3.40625 -3.816406 3.84375 -4.296875 C 4.289062 -4.773438 4.515625 -5.609375 4.515625 -6.796875 L 4.515625 -14.625 L 8.375 -14.625 L 8.375 -6.765625 C 8.375 -5.785156 8.269531 -4.90625 8.0625 -4.125 C 8.71875 -3.757812 9.613281 -3.578125 10.75 -3.578125 L 10.78125 -3.578125 C 11.207031 -5.722656 12 -7.816406 13.15625 -9.859375 C 14.320312 -11.898438 15.890625 -13.597656 17.859375 -14.953125 C 19.835938 -16.304688 22.15625 -16.984375 24.8125 -16.984375 C 27.019531 -16.984375 28.882812 -16.492188 30.40625 -15.515625 C 31.925781 -14.546875 33.050781 -13.234375 33.78125 -11.578125 C 34.519531 -9.929688 34.890625 -8.101562 34.890625 -6.09375 L 34.890625 -3.578125 Z M 24.90625 -13.390625 C 23.300781 -13.390625 21.785156 -12.953125 20.359375 -12.078125 C 18.929688 -11.210938 17.710938 -10.023438 16.703125 -8.515625 C 15.703125 -7.015625 15.007812 -5.367188 14.625 -3.578125 L 31.046875 -3.578125 L 31.046875 -6.09375 C 31.046875 -8.4375 30.5 -10.238281 29.40625 -11.5 C 28.3125 -12.757812 26.8125 -13.390625 24.90625 -13.390625 Z M 24.90625 -13.390625 "/></g></g></g><g fill="#3a3d41" fill-opacity="1"><g transform="translate(441.342917, 470.917775)"><g><path d="M 25.34375 -3.578125 C 25.789062 -3.578125 26.015625 -2.988281 26.015625 -1.8125 C 26.015625 -0.601562 25.789062 0 25.34375 0 L 25.109375 0 C 22.941406 0 21.210938 -0.59375 19.921875 -1.78125 C 18.453125 -1.195312 16.910156 -0.753906 15.296875 -0.453125 C 13.691406 -0.148438 12.253906 0 10.984375 0 C 8.859375 0 6.789062 -0.445312 4.78125 -1.34375 C 3.625 -0.445312 2.1875 0 0.46875 0 L 0 0 C -0.445312 0 -0.671875 -0.601562 -0.671875 -1.8125 C -0.671875 -2.988281 -0.445312 -3.578125 0 -3.578125 L 0.46875 -3.578125 C 1.988281 -3.578125 2.816406 -4.179688 2.953125 -5.390625 C 3.078125 -6.910156 3.285156 -8.351562 3.578125 -9.71875 C 3.867188 -11.09375 4.566406 -12.519531 5.671875 -14 C 6.773438 -15.488281 8.390625 -16.234375 10.515625 -16.234375 C 12.078125 -16.234375 13.5625 -15.785156 14.96875 -14.890625 C 16.375 -14.003906 17.570312 -12.769531 18.5625 -11.1875 C 19.5625 -9.601562 20.226562 -7.816406 20.5625 -5.828125 C 20.800781 -5.109375 21.222656 -4.550781 21.828125 -4.15625 C 22.429688 -3.769531 23.179688 -3.578125 24.078125 -3.578125 Z M 6.703125 -4.453125 C 8.078125 -3.867188 9.515625 -3.578125 11.015625 -3.578125 C 12.890625 -3.578125 14.820312 -3.898438 16.8125 -4.546875 C 16.632812 -6.023438 16.238281 -7.390625 15.625 -8.640625 C 15.007812 -9.890625 14.265625 -10.867188 13.390625 -11.578125 C 12.523438 -12.296875 11.632812 -12.65625 10.71875 -12.65625 C 9.757812 -12.65625 9.003906 -12.28125 8.453125 -11.53125 C 7.910156 -10.78125 7.535156 -9.929688 7.328125 -8.984375 C 7.128906 -8.035156 6.972656 -6.945312 6.859375 -5.71875 L 6.765625 -4.78125 C 6.765625 -4.738281 6.742188 -4.628906 6.703125 -4.453125 Z M 6.703125 -4.453125 "/></g></g></g><g fill="#3a3d41" fill-opacity="1"><g transform="translate(466.683971, 470.917775)"><g><path d="M 2.578125 -24.8125 L 6.421875 -24.8125 L 6.421875 0 L 0 0 C -0.445312 0 -0.671875 -0.601562 -0.671875 -1.8125 C -0.671875 -2.988281 -0.445312 -3.578125 0 -3.578125 L 2.578125 -3.578125 Z M 2.578125 -24.8125 "/></g></g></g><g fill="#3a3d41" fill-opacity="1"><g transform="translate(475.789341, 470.917775)"><g><path d="M 6.859375 0 L 3.015625 0 L 3.015625 -24.8125 L 6.859375 -24.8125 Z M 6.859375 0 "/></g></g></g><g fill="#3a3d41" fill-opacity="1"><g transform="translate(485.66466, 470.917775)"><g/></g></g><g fill="#3a3d41" fill-opacity="1"><g transform="translate(494.70308, 470.917775)"><g><path d="M 25.984375 -3.578125 C 26.429688 -3.578125 26.65625 -2.988281 26.65625 -1.8125 C 26.65625 -0.601562 26.429688 0 25.984375 0 L 25.890625 0 C 24.273438 0 22.890625 -0.359375 21.734375 -1.078125 C 21.148438 1.316406 19.988281 3.242188 18.25 4.703125 C 16.507812 6.160156 14.34375 6.890625 11.75 6.890625 C 9.601562 6.890625 7.742188 6.378906 6.171875 5.359375 C 4.597656 4.347656 3.398438 2.972656 2.578125 1.234375 C 1.753906 -0.503906 1.34375 -2.421875 1.34375 -4.515625 C 1.34375 -5.785156 1.5 -7.113281 1.8125 -8.5 L 5.59375 -7.9375 C 5.320312 -6.550781 5.1875 -5.378906 5.1875 -4.421875 C 5.1875 -2.898438 5.453125 -1.550781 5.984375 -0.375 C 6.523438 0.789062 7.289062 1.695312 8.28125 2.34375 C 9.28125 2.988281 10.4375 3.3125 11.75 3.3125 C 13.070312 3.3125 14.226562 2.988281 15.21875 2.34375 C 16.207031 1.695312 16.96875 0.789062 17.5 -0.375 C 18.039062 -1.550781 18.3125 -2.910156 18.3125 -4.453125 L 18.3125 -24.8125 L 22.171875 -24.8125 L 22.171875 -4.515625 C 22.835938 -3.890625 23.726562 -3.578125 24.84375 -3.578125 Z M 25.984375 -3.578125 "/></g></g></g><g fill="#3a3d41" fill-opacity="1"><g transform="translate(520.680182, 470.917775)"><g><path d="M 39.84375 -3.578125 C 40.289062 -3.578125 40.515625 -2.988281 40.515625 -1.8125 C 40.515625 -0.601562 40.289062 0 39.84375 0 L 11.390625 0 C 9.359375 0 7.738281 -0.476562 6.53125 -1.4375 C 5.4375 -0.476562 3.816406 0 1.671875 0 L 0 0 C -0.445312 0 -0.671875 -0.601562 -0.671875 -1.8125 C -0.671875 -2.988281 -0.445312 -3.578125 0 -3.578125 L 1.375 -3.578125 C 2.582031 -3.578125 3.40625 -3.816406 3.84375 -4.296875 C 4.289062 -4.773438 4.515625 -5.609375 4.515625 -6.796875 L 4.515625 -14.625 L 8.375 -14.625 L 8.375 -6.765625 C 8.375 -5.785156 8.269531 -4.90625 8.0625 -4.125 C 8.71875 -3.757812 9.613281 -3.578125 10.75 -3.578125 L 10.78125 -3.578125 C 11.207031 -5.722656 12 -7.816406 13.15625 -9.859375 C 14.320312 -11.898438 15.890625 -13.597656 17.859375 -14.953125 C 19.835938 -16.304688 22.15625 -16.984375 24.8125 -16.984375 C 27.019531 -16.984375 28.882812 -16.492188 30.40625 -15.515625 C 31.925781 -14.546875 33.050781 -13.234375 33.78125 -11.578125 C 34.519531 -9.929688 34.890625 -8.101562 34.890625 -6.09375 L 34.890625 -3.578125 Z M 24.90625 -13.390625 C 23.300781 -13.390625 21.785156 -12.953125 20.359375 -12.078125 C 18.929688 -11.210938 17.710938 -10.023438 16.703125 -8.515625 C 15.703125 -7.015625 15.007812 -5.367188 14.625 -3.578125 L 31.046875 -3.578125 L 31.046875 -6.09375 C 31.046875 -8.4375 30.5 -10.238281 29.40625 -11.5 C 28.3125 -12.757812 26.8125 -13.390625 24.90625 -13.390625 Z M 24.578125 -19.59375 C 23.929688 -19.59375 23.394531 -19.816406 22.96875 -20.265625 C 22.550781 -20.710938 22.34375 -21.269531 22.34375 -21.9375 C 22.34375 -22.613281 22.550781 -23.164062 22.96875 -23.59375 C 23.394531 -24.03125 23.929688 -24.25 24.578125 -24.25 C 25.222656 -24.25 25.757812 -24.03125 26.1875 -23.59375 C 26.613281 -23.164062 26.828125 -22.613281 26.828125 -21.9375 C 26.828125 -21.269531 26.613281 -20.710938 26.1875 -20.265625 C 25.757812 -19.816406 25.222656 -19.59375 24.578125 -19.59375 Z M 24.578125 -19.59375 "/></g></g></g><g fill="#3a3d41" fill-opacity="1"><g transform="translate(560.516208, 470.917775)"><g><path d="M 11.859375 -17.28125 C 13.992188 -17.28125 16.289062 -16.664062 18.75 -15.4375 L 18.75 0 L 0 0 C -0.445312 0 -0.671875 -0.601562 -0.671875 -1.8125 C -0.671875 -2.988281 -0.445312 -3.578125 0 -3.578125 L 4.046875 -3.578125 C 3.046875 -5.003906 2.546875 -6.613281 2.546875 -8.40625 C 2.546875 -10.082031 2.957031 -11.59375 3.78125 -12.9375 C 4.601562 -14.289062 5.726562 -15.351562 7.15625 -16.125 C 8.59375 -16.894531 10.160156 -17.28125 11.859375 -17.28125 Z M 6.390625 -8.4375 C 6.390625 -7.207031 6.738281 -6.160156 7.4375 -5.296875 C 8.144531 -4.441406 9.101562 -3.867188 10.3125 -3.578125 L 14.90625 -3.578125 L 14.90625 -13.15625 C 13.757812 -13.507812 12.753906 -13.6875 11.890625 -13.6875 C 10.835938 -13.6875 9.890625 -13.457031 9.046875 -13 C 8.210938 -12.550781 7.5625 -11.921875 7.09375 -11.109375 C 6.625 -10.304688 6.390625 -9.414062 6.390625 -8.4375 Z M 11.578125 -20.59375 C 10.929688 -20.59375 10.394531 -20.816406 9.96875 -21.265625 C 9.550781 -21.710938 9.34375 -22.269531 9.34375 -22.9375 C 9.34375 -23.613281 9.550781 -24.164062 9.96875 -24.59375 C 10.394531 -25.03125 10.929688 -25.25 11.578125 -25.25 C 12.222656 -25.25 12.757812 -25.03125 13.1875 -24.59375 C 13.613281 -24.164062 13.828125 -23.613281 13.828125 -22.9375 C 13.828125 -22.269531 13.613281 -21.710938 13.1875 -21.265625 C 12.757812 -20.816406 12.222656 -20.59375 11.578125 -20.59375 Z M 11.578125 -20.59375 "/></g></g></g><g fill="#3a3d41" fill-opacity="1"><g transform="translate(580.601598, 470.917775)"><g><path d="M 6.859375 0 L 3.015625 0 L 3.015625 -24.8125 L 6.859375 -24.8125 Z M 8.859375 -28.65625 L 8.859375 -26.34375 L 2 -26.34375 L 2 -28.65625 L 2.671875 -28.65625 C 2.492188 -29.082031 2.40625 -29.503906 2.40625 -29.921875 C 2.40625 -30.835938 2.738281 -31.582031 3.40625 -32.15625 C 4.070312 -32.726562 4.921875 -33.015625 5.953125 -33.015625 C 6.398438 -33.015625 6.863281 -32.960938 7.34375 -32.859375 C 7.820312 -32.753906 8.226562 -32.625 8.5625 -32.46875 L 7.5625 -30.359375 C 7.382812 -30.453125 7.148438 -30.53125 6.859375 -30.59375 C 6.566406 -30.664062 6.285156 -30.703125 6.015625 -30.703125 C 5.585938 -30.703125 5.242188 -30.601562 4.984375 -30.40625 C 4.734375 -30.21875 4.609375 -29.976562 4.609375 -29.6875 C 4.609375 -29.445312 4.710938 -29.210938 4.921875 -28.984375 C 5.140625 -28.765625 5.414062 -28.65625 5.75 -28.65625 Z M 8.859375 -28.65625 "/></g></g></g><g fill="#3a3d41" fill-opacity="1"><g transform="translate(259.633221, 517.412812)"><g><path d="M 21.796875 -3.578125 C 22.242188 -3.578125 22.46875 -2.988281 22.46875 -1.8125 C 22.46875 -0.601562 22.242188 0 21.796875 0 L 21.09375 0 C 18.351562 0 16.46875 -0.789062 15.4375 -2.375 C 14.632812 -2 13.765625 -1.691406 12.828125 -1.453125 C 11.890625 -1.222656 10.984375 -1.109375 10.109375 -1.109375 C 8.523438 -1.109375 7.0625 -1.46875 5.71875 -2.1875 C 4.382812 -2.914062 3.320312 -3.910156 2.53125 -5.171875 C 1.738281 -6.429688 1.34375 -7.8125 1.34375 -9.3125 C 1.34375 -10.820312 1.738281 -12.203125 2.53125 -13.453125 C 3.320312 -14.703125 4.382812 -15.695312 5.71875 -16.4375 C 7.0625 -17.175781 8.515625 -17.546875 10.078125 -17.546875 L 14.390625 -17.546875 L 14.390625 -18.390625 L 18.25 -18.390625 L 18.25 -6.796875 C 18.25 -5.609375 18.472656 -4.773438 18.921875 -4.296875 C 19.367188 -3.816406 20.191406 -3.578125 21.390625 -3.578125 Z M 10.21875 -4.71875 C 11.59375 -4.71875 13 -5.117188 14.4375 -5.921875 C 14.40625 -6.097656 14.390625 -6.378906 14.390625 -6.765625 L 14.390625 -13.96875 L 10.078125 -13.96875 C 9.179688 -13.96875 8.359375 -13.757812 7.609375 -13.34375 C 6.867188 -12.925781 6.28125 -12.359375 5.84375 -11.640625 C 5.40625 -10.929688 5.1875 -10.15625 5.1875 -9.3125 C 5.1875 -8.457031 5.398438 -7.679688 5.828125 -6.984375 C 6.253906 -6.296875 6.847656 -5.742188 7.609375 -5.328125 C 8.378906 -4.921875 9.25 -4.71875 10.21875 -4.71875 Z M 7.078125 -19.96875 C 6.492188 -19.96875 6.003906 -20.164062 5.609375 -20.5625 C 5.222656 -20.96875 5.03125 -21.472656 5.03125 -22.078125 C 5.03125 -22.679688 5.222656 -23.179688 5.609375 -23.578125 C 6.003906 -23.984375 6.492188 -24.1875 7.078125 -24.1875 C 7.660156 -24.1875 8.144531 -23.988281 8.53125 -23.59375 C 8.925781 -23.207031 9.125 -22.703125 9.125 -22.078125 C 9.125 -21.472656 8.925781 -20.96875 8.53125 -20.5625 C 8.144531 -20.164062 7.660156 -19.96875 7.078125 -19.96875 Z M 12.375 -19.96875 C 11.789062 -19.96875 11.300781 -20.164062 10.90625 -20.5625 C 10.519531 -20.96875 10.328125 -21.472656 10.328125 -22.078125 C 10.328125 -22.679688 10.519531 -23.179688 10.90625 -23.578125 C 11.300781 -23.984375 11.789062 -24.1875 12.375 -24.1875 C 12.945312 -24.1875 13.425781 -23.988281 13.8125 -23.59375 C 14.207031 -23.207031 14.40625 -22.703125 14.40625 -22.078125 C 14.40625 -21.472656 14.207031 -20.96875 13.8125 -20.5625 C 13.425781 -20.164062 12.945312 -19.96875 12.375 -19.96875 Z M 12.375 -19.96875 "/></g></g></g><g fill="#3a3d41" fill-opacity="1"><g transform="translate(281.425874, 517.412812)"><g><path d="M 13.09375 -3.578125 C 13.539062 -3.578125 13.765625 -2.988281 13.765625 -1.8125 C 13.765625 -0.601562 13.539062 0 13.09375 0 L 11.25 0 C 9.351562 0 7.789062 -0.476562 6.5625 -1.4375 C 5.507812 -0.476562 3.890625 0 1.703125 0 L 0 0 C -0.445312 0 -0.671875 -0.601562 -0.671875 -1.8125 C -0.671875 -2.988281 -0.445312 -3.578125 0 -3.578125 L 1.40625 -3.578125 C 2.613281 -3.578125 3.4375 -3.816406 3.875 -4.296875 C 4.320312 -4.773438 4.546875 -5.609375 4.546875 -6.796875 L 4.546875 -16.28125 L 8.40625 -16.28125 L 8.40625 -6.765625 C 8.40625 -5.753906 8.304688 -4.859375 8.109375 -4.078125 C 8.679688 -3.742188 9.382812 -3.578125 10.21875 -3.578125 Z M 4.078125 7.03125 C 3.492188 7.03125 3.003906 6.828125 2.609375 6.421875 C 2.222656 6.023438 2.03125 5.523438 2.03125 4.921875 C 2.03125 4.316406 2.222656 3.8125 2.609375 3.40625 C 3.003906 3.007812 3.492188 2.8125 4.078125 2.8125 C 4.660156 2.8125 5.144531 3.003906 5.53125 3.390625 C 5.925781 3.785156 6.125 4.296875 6.125 4.921875 C 6.125 5.523438 5.925781 6.023438 5.53125 6.421875 C 5.144531 6.828125 4.660156 7.03125 4.078125 7.03125 Z M 9.375 7.03125 C 8.789062 7.03125 8.300781 6.828125 7.90625 6.421875 C 7.519531 6.023438 7.328125 5.523438 7.328125 4.921875 C 7.328125 4.316406 7.519531 3.8125 7.90625 3.40625 C 8.300781 3.007812 8.789062 2.8125 9.375 2.8125 C 9.945312 2.8125 10.425781 3.003906 10.8125 3.390625 C 11.207031 3.785156 11.40625 4.296875 11.40625 4.921875 C 11.40625 5.523438 11.207031 6.023438 10.8125 6.421875 C 10.425781 6.828125 9.945312 7.03125 9.375 7.03125 Z M 9.375 7.03125 "/></g></g></g><g fill="#3a3d41" fill-opacity="1"><g transform="translate(294.514851, 517.412812)"><g><path d="M 2.578125 -24.8125 L 6.421875 -24.8125 L 6.421875 0 L 0 0 C -0.445312 0 -0.671875 -0.601562 -0.671875 -1.8125 C -0.671875 -2.988281 -0.445312 -3.578125 0 -3.578125 L 2.578125 -3.578125 Z M 2.578125 -24.8125 "/></g></g></g><g fill="#3a3d41" fill-opacity="1"><g transform="translate(303.62023, 517.412812)"><g><path d="M 10.578125 -17.25 C 11.804688 -17.25 13.109375 -17.078125 14.484375 -16.734375 C 15.859375 -16.398438 17.09375 -15.945312 18.1875 -15.375 L 18.1875 0.0625 C 18.1875 2.457031 17.535156 4.3125 16.234375 5.625 C 14.941406 6.9375 13.171875 7.59375 10.921875 7.59375 L 4.390625 7.59375 L 4.390625 4.015625 L 10.875 4.015625 C 12.082031 4.015625 12.957031 3.703125 13.5 3.078125 C 14.050781 2.453125 14.328125 1.445312 14.328125 0.0625 L 14.328125 0 L 10.078125 0 C 8.359375 0 6.832031 -0.382812 5.5 -1.15625 C 4.175781 -1.925781 3.148438 -2.957031 2.421875 -4.25 C 1.703125 -5.539062 1.34375 -6.96875 1.34375 -8.53125 C 1.34375 -10.125 1.71875 -11.582031 2.46875 -12.90625 C 3.226562 -14.238281 4.304688 -15.296875 5.703125 -16.078125 C 7.097656 -16.859375 8.722656 -17.25 10.578125 -17.25 Z M 14.328125 -3.578125 L 14.328125 -13.03125 C 13.054688 -13.445312 11.816406 -13.65625 10.609375 -13.65625 C 8.941406 -13.65625 7.617188 -13.1875 6.640625 -12.25 C 5.671875 -11.3125 5.1875 -10.070312 5.1875 -8.53125 C 5.1875 -7.0625 5.640625 -5.867188 6.546875 -4.953125 C 7.453125 -4.035156 8.628906 -3.578125 10.078125 -3.578125 Z M 14.328125 -3.578125 "/></g></g></g><g fill="#3a3d41" fill-opacity="1"><g transform="translate(323.806046, 517.412812)"><g><path d="M 24.75 -3.578125 C 25.195312 -3.578125 25.421875 -2.988281 25.421875 -1.8125 C 25.421875 -0.601562 25.195312 0 24.75 0 L 22.140625 0 C 20.015625 0 18.359375 -0.476562 17.171875 -1.4375 C 14.335938 -0.476562 11.179688 0 7.703125 0 C 5.515625 0 3.394531 -0.210938 1.34375 -0.640625 L 1.34375 -4.3125 C 3.375 -3.820312 5.503906 -3.578125 7.734375 -3.578125 C 10.429688 -3.578125 12.898438 -3.925781 15.140625 -4.625 C 15.046875 -4.800781 14.84375 -5.347656 14.53125 -6.265625 L 10.3125 -18.484375 L 13.921875 -19.625 L 18.15625 -7.40625 C 18.570312 -6.125 18.914062 -5.242188 19.1875 -4.765625 C 19.457031 -4.285156 19.785156 -3.972656 20.171875 -3.828125 C 20.566406 -3.679688 21.222656 -3.609375 22.140625 -3.609375 L 24.75 -3.609375 Z M 24.75 -3.578125 "/></g></g></g><g fill="#3a3d41" fill-opacity="1"><g transform="translate(348.544555, 517.412812)"><g><path d="M 2.578125 -24.8125 L 6.421875 -24.8125 L 6.421875 0 L 0 0 C -0.445312 0 -0.671875 -0.601562 -0.671875 -1.8125 C -0.671875 -2.988281 -0.445312 -3.578125 0 -3.578125 L 2.578125 -3.578125 Z M 2.578125 -24.8125 "/></g></g></g><g fill="#3a3d41" fill-opacity="1"><g transform="translate(357.649935, 517.412812)"><g><path d="M 6.859375 0 L 3.015625 0 L 3.015625 -24.8125 L 6.859375 -24.8125 Z M 6.859375 0 "/></g></g></g><g fill="#3a3d41" fill-opacity="1"><g transform="translate(367.525253, 517.412812)"><g><path d="M 10.578125 -17.25 C 11.804688 -17.25 13.109375 -17.078125 14.484375 -16.734375 C 15.859375 -16.398438 17.09375 -15.945312 18.1875 -15.375 L 18.1875 0.0625 C 18.1875 2.457031 17.535156 4.3125 16.234375 5.625 C 14.941406 6.9375 13.171875 7.59375 10.921875 7.59375 L 4.390625 7.59375 L 4.390625 4.015625 L 10.875 4.015625 C 12.082031 4.015625 12.957031 3.703125 13.5 3.078125 C 14.050781 2.453125 14.328125 1.445312 14.328125 0.0625 L 14.328125 0 L 10.078125 0 C 8.359375 0 6.832031 -0.382812 5.5 -1.15625 C 4.175781 -1.925781 3.148438 -2.957031 2.421875 -4.25 C 1.703125 -5.539062 1.34375 -6.96875 1.34375 -8.53125 C 1.34375 -10.125 1.71875 -11.582031 2.46875 -12.90625 C 3.226562 -14.238281 4.304688 -15.296875 5.703125 -16.078125 C 7.097656 -16.859375 8.722656 -17.25 10.578125 -17.25 Z M 14.328125 -3.578125 L 14.328125 -13.03125 C 13.054688 -13.445312 11.816406 -13.65625 10.609375 -13.65625 C 8.941406 -13.65625 7.617188 -13.1875 6.640625 -12.25 C 5.671875 -11.3125 5.1875 -10.070312 5.1875 -8.53125 C 5.1875 -7.0625 5.640625 -5.867188 6.546875 -4.953125 C 7.453125 -4.035156 8.628906 -3.578125 10.078125 -3.578125 Z M 14.328125 -3.578125 "/></g></g></g><g fill="#3a3d41" fill-opacity="1"><g transform="translate(387.711069, 517.412812)"><g/></g></g><g fill="#3a3d41" fill-opacity="1"><g transform="translate(396.749498, 517.412812)"><g><path d="M 21.796875 -3.578125 C 22.242188 -3.578125 22.46875 -2.988281 22.46875 -1.8125 C 22.46875 -0.601562 22.242188 0 21.796875 0 L 21.09375 0 C 18.351562 0 16.46875 -0.789062 15.4375 -2.375 C 14.632812 -2 13.765625 -1.691406 12.828125 -1.453125 C 11.890625 -1.222656 10.984375 -1.109375 10.109375 -1.109375 C 8.523438 -1.109375 7.0625 -1.46875 5.71875 -2.1875 C 4.382812 -2.914062 3.320312 -3.910156 2.53125 -5.171875 C 1.738281 -6.429688 1.34375 -7.8125 1.34375 -9.3125 C 1.34375 -10.820312 1.738281 -12.203125 2.53125 -13.453125 C 3.320312 -14.703125 4.382812 -15.695312 5.71875 -16.4375 C 7.0625 -17.175781 8.515625 -17.546875 10.078125 -17.546875 L 14.390625 -17.546875 L 14.390625 -18.390625 L 18.25 -18.390625 L 18.25 -6.796875 C 18.25 -5.609375 18.472656 -4.773438 18.921875 -4.296875 C 19.367188 -3.816406 20.191406 -3.578125 21.390625 -3.578125 Z M 10.21875 -4.71875 C 11.59375 -4.71875 13 -5.117188 14.4375 -5.921875 C 14.40625 -6.097656 14.390625 -6.378906 14.390625 -6.765625 L 14.390625 -13.96875 L 10.078125 -13.96875 C 9.179688 -13.96875 8.359375 -13.757812 7.609375 -13.34375 C 6.867188 -12.925781 6.28125 -12.359375 5.84375 -11.640625 C 5.40625 -10.929688 5.1875 -10.15625 5.1875 -9.3125 C 5.1875 -8.457031 5.398438 -7.679688 5.828125 -6.984375 C 6.253906 -6.296875 6.847656 -5.742188 7.609375 -5.328125 C 8.378906 -4.921875 9.25 -4.71875 10.21875 -4.71875 Z M 7.078125 -19.96875 C 6.492188 -19.96875 6.003906 -20.164062 5.609375 -20.5625 C 5.222656 -20.96875 5.03125 -21.472656 5.03125 -22.078125 C 5.03125 -22.679688 5.222656 -23.179688 5.609375 -23.578125 C 6.003906 -23.984375 6.492188 -24.1875 7.078125 -24.1875 C 7.660156 -24.1875 8.144531 -23.988281 8.53125 -23.59375 C 8.925781 -23.207031 9.125 -22.703125 9.125 -22.078125 C 9.125 -21.472656 8.925781 -20.96875 8.53125 -20.5625 C 8.144531 -20.164062 7.660156 -19.96875 7.078125 -19.96875 Z M 12.375 -19.96875 C 11.789062 -19.96875 11.300781 -20.164062 10.90625 -20.5625 C 10.519531 -20.96875 10.328125 -21.472656 10.328125 -22.078125 C 10.328125 -22.679688 10.519531 -23.179688 10.90625 -23.578125 C 11.300781 -23.984375 11.789062 -24.1875 12.375 -24.1875 C 12.945312 -24.1875 13.425781 -23.988281 13.8125 -23.59375 C 14.207031 -23.207031 14.40625 -22.703125 14.40625 -22.078125 C 14.40625 -21.472656 14.207031 -20.96875 13.8125 -20.5625 C 13.425781 -20.164062 12.945312 -19.96875 12.375 -19.96875 Z M 12.375 -19.96875 "/></g></g></g><g fill="#3a3d41" fill-opacity="1"><g transform="translate(418.542151, 517.412812)"><g><path d="M 13.09375 -3.578125 C 13.539062 -3.578125 13.765625 -2.988281 13.765625 -1.8125 C 13.765625 -0.601562 13.539062 0 13.09375 0 L 11.25 0 C 9.351562 0 7.789062 -0.476562 6.5625 -1.4375 C 5.507812 -0.476562 3.890625 0 1.703125 0 L 0 0 C -0.445312 0 -0.671875 -0.601562 -0.671875 -1.8125 C -0.671875 -2.988281 -0.445312 -3.578125 0 -3.578125 L 1.40625 -3.578125 C 2.613281 -3.578125 3.4375 -3.816406 3.875 -4.296875 C 4.320312 -4.773438 4.546875 -5.609375 4.546875 -6.796875 L 4.546875 -16.28125 L 8.40625 -16.28125 L 8.40625 -6.765625 C 8.40625 -5.753906 8.304688 -4.859375 8.109375 -4.078125 C 8.679688 -3.742188 9.382812 -3.578125 10.21875 -3.578125 Z M 4.078125 7.03125 C 3.492188 7.03125 3.003906 6.828125 2.609375 6.421875 C 2.222656 6.023438 2.03125 5.523438 2.03125 4.921875 C 2.03125 4.316406 2.222656 3.8125 2.609375 3.40625 C 3.003906 3.007812 3.492188 2.8125 4.078125 2.8125 C 4.660156 2.8125 5.144531 3.003906 5.53125 3.390625 C 5.925781 3.785156 6.125 4.296875 6.125 4.921875 C 6.125 5.523438 5.925781 6.023438 5.53125 6.421875 C 5.144531 6.828125 4.660156 7.03125 4.078125 7.03125 Z M 9.375 7.03125 C 8.789062 7.03125 8.300781 6.828125 7.90625 6.421875 C 7.519531 6.023438 7.328125 5.523438 7.328125 4.921875 C 7.328125 4.316406 7.519531 3.8125 7.90625 3.40625 C 8.300781 3.007812 8.789062 2.8125 9.375 2.8125 C 9.945312 2.8125 10.425781 3.003906 10.8125 3.390625 C 11.207031 3.785156 11.40625 4.296875 11.40625 4.921875 C 11.40625 5.523438 11.207031 6.023438 10.8125 6.421875 C 10.425781 6.828125 9.945312 7.03125 9.375 7.03125 Z M 9.375 7.03125 "/></g></g></g><g fill="#3a3d41" fill-opacity="1"><g transform="translate(431.631128, 517.412812)"><g><path d="M 10.171875 -3.578125 C 10.617188 -3.578125 10.84375 -2.988281 10.84375 -1.8125 C 10.84375 -0.601562 10.617188 0 10.171875 0 L 0 0 C -0.445312 0 -0.671875 -0.601562 -0.671875 -1.8125 C -0.671875 -2.988281 -0.445312 -3.578125 0 -3.578125 L 2.578125 -3.578125 L 2.578125 -24.8125 L 6.421875 -24.8125 L 6.421875 -3.578125 Z M 10.171875 -3.578125 "/></g></g></g><g fill="#3a3d41" fill-opacity="1"><g transform="translate(441.807723, 517.412812)"><g><path d="M 22.234375 -3.578125 C 22.679688 -3.578125 22.90625 -2.988281 22.90625 -1.8125 C 22.90625 -0.601562 22.679688 0 22.234375 0 L 0 0 C -0.445312 0 -0.671875 -0.601562 -0.671875 -1.8125 C -0.671875 -2.988281 -0.445312 -3.578125 0 -3.578125 L 13.296875 -3.578125 L 13.296875 -8.671875 C 13.296875 -10.367188 12.753906 -11.71875 11.671875 -12.71875 C 10.585938 -13.726562 9.140625 -14.234375 7.328125 -14.234375 C 5.367188 -14.234375 3.484375 -13.695312 1.671875 -12.625 L 0.03125 -15.734375 C 2.21875 -17.117188 4.648438 -17.8125 7.328125 -17.8125 C 9.222656 -17.8125 10.910156 -17.421875 12.390625 -16.640625 C 13.878906 -15.859375 15.039062 -14.773438 15.875 -13.390625 C 16.71875 -12.003906 17.140625 -10.429688 17.140625 -8.671875 L 17.140625 -3.578125 Z M 22.234375 -3.578125 "/></g></g></g><g fill="#3a3d41" fill-opacity="1"><g transform="translate(464.035564, 517.412812)"><g><path d="M 25.34375 -3.578125 C 25.789062 -3.578125 26.015625 -2.988281 26.015625 -1.8125 C 26.015625 -0.601562 25.789062 0 25.34375 0 L 25.109375 0 C 22.941406 0 21.210938 -0.59375 19.921875 -1.78125 C 18.453125 -1.195312 16.910156 -0.753906 15.296875 -0.453125 C 13.691406 -0.148438 12.253906 0 10.984375 0 C 8.859375 0 6.789062 -0.445312 4.78125 -1.34375 C 3.625 -0.445312 2.1875 0 0.46875 0 L 0 0 C -0.445312 0 -0.671875 -0.601562 -0.671875 -1.8125 C -0.671875 -2.988281 -0.445312 -3.578125 0 -3.578125 L 0.46875 -3.578125 C 1.988281 -3.578125 2.816406 -4.179688 2.953125 -5.390625 C 3.078125 -6.910156 3.285156 -8.351562 3.578125 -9.71875 C 3.867188 -11.09375 4.566406 -12.519531 5.671875 -14 C 6.773438 -15.488281 8.390625 -16.234375 10.515625 -16.234375 C 12.078125 -16.234375 13.5625 -15.785156 14.96875 -14.890625 C 16.375 -14.003906 17.570312 -12.769531 18.5625 -11.1875 C 19.5625 -9.601562 20.226562 -7.816406 20.5625 -5.828125 C 20.800781 -5.109375 21.222656 -4.550781 21.828125 -4.15625 C 22.429688 -3.769531 23.179688 -3.578125 24.078125 -3.578125 Z M 6.703125 -4.453125 C 8.078125 -3.867188 9.515625 -3.578125 11.015625 -3.578125 C 12.890625 -3.578125 14.820312 -3.898438 16.8125 -4.546875 C 16.632812 -6.023438 16.238281 -7.390625 15.625 -8.640625 C 15.007812 -9.890625 14.265625 -10.867188 13.390625 -11.578125 C 12.523438 -12.296875 11.632812 -12.65625 10.71875 -12.65625 C 9.757812 -12.65625 9.003906 -12.28125 8.453125 -11.53125 C 7.910156 -10.78125 7.535156 -9.929688 7.328125 -8.984375 C 7.128906 -8.035156 6.972656 -6.945312 6.859375 -5.71875 L 6.765625 -4.78125 C 6.765625 -4.738281 6.742188 -4.628906 6.703125 -4.453125 Z M 6.703125 -4.453125 "/></g></g></g><g fill="#3a3d41" fill-opacity="1"><g transform="translate(489.376618, 517.412812)"><g><path d="M 2.578125 -24.8125 L 6.421875 -24.8125 L 6.421875 0 L 0 0 C -0.445312 0 -0.671875 -0.601562 -0.671875 -1.8125 C -0.671875 -2.988281 -0.445312 -3.578125 0 -3.578125 L 2.578125 -3.578125 Z M 2.578125 -24.8125 "/></g></g></g><g fill="#3a3d41" fill-opacity="1"><g transform="translate(498.481988, 517.412812)"><g><path d="M 6.859375 0 L 3.015625 0 L 3.015625 -24.8125 L 6.859375 -24.8125 Z M 6.859375 0 "/></g></g></g></svg>