<svg xmlns="http://www.w3.org/2000/svg" xmlns:xlink="http://www.w3.org/1999/xlink" width="500" zoomAndPan="magnify" viewBox="0 0 375 374.999991" height="500" preserveAspectRatio="xMidYMid meet" version="1.0"><defs><clipPath id="id1"><path d="M 92.988281 107.757812 L 281.988281 107.757812 L 281.988281 185 L 92.988281 185 Z M 92.988281 107.757812 " clip-rule="nonzero"/></clipPath><clipPath id="id2"><path d="M 225 237 L 256 237 L 256 267.507812 L 225 267.507812 Z M 225 237 " clip-rule="nonzero"/></clipPath><clipPath id="id3"><path d="M 128 192 L 281.988281 192 L 281.988281 258 L 128 258 Z M 128 192 " clip-rule="nonzero"/></clipPath></defs><path fill="#ffffff" d="M 351.675781 58.050781 L 351.675781 316.949219 C 351.675781 336.148438 336.148438 351.675781 316.949219 351.675781 L 58.050781 351.675781 C 38.851562 351.675781 23.324219 336.148438 23.324219 316.949219 L 23.324219 58.050781 C 23.324219 38.851562 38.851562 23.324219 58.050781 23.324219 L 316.949219 23.324219 C 336.148438 23.324219 351.675781 38.851562 351.675781 58.050781 " fill-opacity="1" fill-rule="nonzero"/><path fill="#3a3d41" d="M 53.476562 312.523438 C 48.503906 312.523438 44.476562 316.554688 44.476562 321.523438 C 44.476562 326.496094 48.503906 330.523438 53.476562 330.523438 C 58.445312 330.523438 62.476562 326.496094 62.476562 321.523438 C 62.476562 316.554688 58.445312 312.523438 53.476562 312.523438 M 53.476562 44.476562 C 48.503906 44.476562 44.476562 48.503906 44.476562 53.476562 C 44.476562 58.445312 48.503906 62.476562 53.476562 62.476562 C 58.445312 62.476562 62.476562 58.445312 62.476562 53.476562 C 62.476562 48.503906 58.445312 44.476562 53.476562 44.476562 M 321.523438 44.476562 C 316.554688 44.476562 312.523438 48.503906 312.523438 53.476562 C 312.523438 58.445312 316.554688 62.476562 321.523438 62.476562 C 326.496094 62.476562 330.523438 58.445312 330.523438 53.476562 C 330.523438 48.503906 326.496094 44.476562 321.523438 44.476562 M 321.523438 312.523438 C 316.554688 312.523438 312.523438 316.554688 312.523438 321.523438 C 312.523438 326.496094 316.554688 330.523438 321.523438 330.523438 C 326.496094 330.523438 330.523438 326.496094 330.523438 321.523438 C 330.523438 316.554688 326.496094 312.523438 321.523438 312.523438 " fill-opacity="1" fill-rule="nonzero"/><path fill="#d3c2bb" d="M 375 62.476562 L 375 33.375 C 368.101562 30.75 361.125 26.25 354.898438 20.101562 C 348.75 13.875 344.25 6.898438 341.625 0 L 33.375 0 C 30.75 6.898438 26.25 13.875 20.101562 20.101562 C 13.875 26.25 6.898438 30.75 0 33.375 L 0 341.625 C 1.726562 342.300781 3.449219 343.050781 5.175781 343.949219 C 5.625 344.175781 6 344.398438 6.449219 344.625 C 6.75 344.773438 7.050781 344.925781 7.351562 345.148438 C 7.425781 345.148438 7.5 345.226562 7.574219 345.300781 C 7.800781 345.375 7.949219 345.523438 8.175781 345.675781 C 10.351562 347.023438 12.523438 348.523438 14.699219 350.175781 C 15.074219 350.476562 15.449219 350.773438 15.824219 351.148438 C 16.125 351.375 16.351562 351.601562 16.574219 351.824219 C 17.324219 352.5 18.074219 353.175781 18.824219 353.925781 C 19.199219 354.300781 19.574219 354.675781 20.023438 355.050781 C 20.398438 355.425781 20.773438 355.800781 21.148438 356.25 C 21.824219 357 22.574219 357.75 23.25 358.5 C 23.476562 358.800781 23.699219 359.023438 23.925781 359.324219 L 24.824219 360.449219 C 25.050781 360.675781 25.199219 360.976562 25.425781 361.199219 C 25.800781 361.648438 26.175781 362.175781 26.550781 362.625 C 27 363.226562 27.375 363.824219 27.75 364.351562 C 28.875 366.074219 29.925781 367.800781 30.898438 369.601562 C 31.050781 369.898438 31.199219 370.125 31.273438 370.425781 L 31.5 370.875 C 31.648438 371.175781 31.800781 371.476562 31.875 371.699219 C 32.398438 372.824219 32.925781 373.949219 33.300781 375.148438 L 341.550781 375.148438 C 344.175781 368.25 348.675781 361.273438 354.824219 355.050781 C 357.148438 352.726562 359.550781 350.625 362.101562 348.824219 C 363.375 347.925781 364.648438 347.023438 365.925781 346.273438 C 366.75 345.75 367.648438 345.226562 368.476562 344.773438 C 369.300781 344.324219 370.199219 343.875 371.023438 343.425781 C 372.300781 342.824219 373.648438 342.226562 374.925781 341.773438 L 375 62.476562 M 351.675781 316.949219 C 351.675781 336.148438 336.148438 351.675781 316.949219 351.675781 L 58.050781 351.675781 C 38.851562 351.675781 23.324219 336.148438 23.324219 316.949219 L 23.324219 58.050781 C 23.324219 38.851562 38.851562 23.324219 58.050781 23.324219 L 316.949219 23.324219 C 336.148438 23.324219 351.675781 38.851562 351.675781 58.050781 L 351.675781 316.949219 " fill-opacity="1" fill-rule="nonzero"/><g clip-path="url(#id1)"><path fill="#1d918a" d="M 278.890625 131.46875 L 264.136719 131.46875 L 264.136719 122.601562 C 264.136719 120.972656 262.808594 119.644531 261.1875 119.644531 L 246.433594 119.644531 L 246.433594 110.777344 C 246.433594 109.148438 245.105469 107.820312 243.480469 107.820312 L 137.25 107.820312 C 135.628906 107.820312 134.300781 109.148438 134.300781 110.777344 L 134.300781 119.644531 L 119.546875 119.644531 C 117.921875 119.644531 116.59375 120.972656 116.59375 122.601562 L 116.59375 134.421875 C 116.59375 136.050781 117.921875 137.378906 119.546875 137.378906 L 134.300781 137.378906 L 134.300781 143.292969 L 113.644531 143.292969 C 112.023438 143.292969 110.695312 144.621094 110.695312 146.246094 L 110.695312 155.117188 L 95.941406 155.117188 C 94.316406 155.117188 92.988281 156.445312 92.988281 158.070312 L 92.988281 169.894531 C 92.988281 171.519531 94.316406 172.851562 95.941406 172.851562 L 110.695312 172.851562 L 110.695312 181.71875 C 110.695312 183.34375 112.023438 184.675781 113.644531 184.675781 L 170.152344 184.675781 C 172.070312 182.3125 174.433594 180.242188 177.234375 178.761719 L 152.003906 178.761719 L 152.003906 172.851562 L 181.515625 172.851562 L 181.515625 175.808594 C 183.136719 172.261719 185.644531 169.15625 188.742188 166.941406 L 169.710938 166.941406 L 169.710938 161.027344 L 199.21875 161.027344 L 199.21875 162.652344 C 200.398438 162.503906 201.578125 162.359375 202.757812 162.359375 C 203.351562 162.359375 203.941406 162.359375 204.53125 162.359375 C 204.675781 162.0625 204.972656 161.914062 205.121094 161.617188 L 205.121094 161.027344 L 205.710938 161.027344 C 207.777344 158.8125 210.136719 156.742188 212.351562 155.117188 L 187.414062 155.117188 L 187.414062 149.203125 L 216.921875 149.203125 L 216.921875 152.011719 C 217.367188 151.714844 217.957031 151.421875 218.25 151.125 C 219.726562 150.238281 221.203125 149.792969 222.824219 149.792969 L 222.824219 149.203125 L 252.332031 149.203125 L 252.332031 155.117188 L 233.300781 155.117188 C 235.515625 156.742188 237.875 158.8125 239.941406 161.027344 L 255.285156 161.027344 C 256.90625 161.027344 258.234375 159.699219 258.234375 158.070312 L 258.234375 149.203125 L 278.890625 149.203125 C 280.515625 149.203125 281.839844 147.875 281.839844 146.246094 L 281.839844 134.421875 C 281.839844 132.796875 280.515625 131.46875 278.890625 131.46875 Z M 211.023438 113.730469 L 240.53125 113.730469 L 240.53125 119.644531 L 211.023438 119.644531 Z M 175.613281 113.730469 L 205.121094 113.730469 L 205.121094 119.644531 L 175.613281 119.644531 Z M 187.414062 125.554688 L 187.414062 131.46875 L 157.90625 131.46875 L 157.90625 125.554688 Z M 169.710938 137.378906 L 169.710938 143.292969 L 140.203125 143.292969 L 140.203125 137.378906 Z M 140.203125 113.730469 L 169.710938 113.730469 L 169.710938 119.644531 L 140.203125 119.644531 Z M 122.496094 131.46875 L 122.496094 125.554688 L 152.003906 125.554688 L 152.003906 131.46875 Z M 116.59375 149.203125 L 146.105469 149.203125 L 146.105469 155.117188 L 116.59375 155.117188 Z M 98.890625 166.941406 L 98.890625 161.027344 L 128.398438 161.027344 L 128.398438 166.941406 Z M 146.105469 178.761719 L 116.59375 178.761719 L 116.59375 172.851562 L 146.105469 172.851562 Z M 163.808594 166.941406 L 134.300781 166.941406 L 134.300781 161.027344 L 163.808594 161.027344 Z M 181.515625 155.117188 L 152.003906 155.117188 L 152.003906 149.203125 L 181.515625 149.203125 Z M 205.121094 143.292969 L 175.613281 143.292969 L 175.613281 137.378906 L 205.121094 137.378906 Z M 193.316406 131.46875 L 193.316406 125.554688 L 222.824219 125.554688 L 222.824219 131.46875 Z M 240.53125 143.292969 L 211.023438 143.292969 L 211.023438 137.378906 L 240.53125 137.378906 Z M 228.726562 131.46875 L 228.726562 125.554688 L 258.234375 125.554688 L 258.234375 131.46875 Z M 275.941406 143.292969 L 246.433594 143.292969 L 246.433594 137.378906 L 275.941406 137.378906 Z M 275.941406 143.292969 " fill-opacity="1" fill-rule="nonzero"/></g><g clip-path="url(#id2)"><path fill="#1d918a" d="M 240.53125 237.882812 C 232.414062 237.882812 225.777344 244.535156 225.777344 252.664062 C 225.777344 260.792969 232.414062 267.441406 240.53125 267.441406 C 248.644531 267.441406 255.285156 260.792969 255.285156 252.664062 C 255.285156 244.535156 248.644531 237.882812 240.53125 237.882812 Z M 240.53125 237.882812 " fill-opacity="1" fill-rule="nonzero"/></g><path fill="#1d918a" d="M 242.890625 168.269531 C 241.414062 168.269531 239.941406 168.417969 238.464844 168.859375 C 235.070312 162.949219 226.21875 157.480469 224.300781 156.296875 C 223.414062 155.707031 222.234375 155.707031 221.203125 156.296875 C 219.285156 157.480469 210.578125 162.949219 207.039062 168.859375 C 205.5625 168.566406 204.085938 168.269531 202.613281 168.269531 C 194.054688 168.269531 186.972656 174.183594 185.644531 182.015625 C 182.25 182.457031 179.152344 184.085938 176.792969 186.152344 L 268.710938 186.152344 C 266.351562 184.085938 263.25 182.457031 259.859375 182.015625 C 258.53125 174.183594 251.449219 168.269531 242.890625 168.269531 Z M 242.890625 168.269531 " fill-opacity="1" fill-rule="nonzero"/><g clip-path="url(#id3)"><path fill="#1d918a" d="M 278.890625 192.066406 L 163.367188 192.066406 C 162.332031 192.066406 161.449219 192.507812 160.859375 193.394531 C 160.269531 194.28125 160.269531 195.316406 160.5625 196.203125 L 166.90625 210.394531 L 150.53125 201.375 C 150.085938 201.082031 149.644531 200.933594 149.054688 200.933594 L 131.351562 200.933594 C 129.726562 200.933594 128.398438 202.261719 128.398438 203.890625 C 128.398438 205.515625 129.726562 206.84375 131.351562 206.84375 L 148.316406 206.84375 L 185.941406 227.683594 L 185.941406 254.140625 C 185.941406 255.765625 187.269531 257.097656 188.890625 257.097656 C 190.515625 257.097656 191.839844 255.765625 191.839844 254.140625 L 191.839844 231.085938 L 220.613281 247.046875 C 220.757812 246.601562 220.90625 246.160156 221.054688 245.714844 C 221.054688 245.570312 221.054688 245.570312 221.203125 245.421875 C 221.644531 244.089844 222.382812 242.761719 223.121094 241.578125 C 226.808594 235.8125 233.152344 231.972656 240.53125 231.972656 C 245.839844 231.972656 250.710938 234.039062 254.25 237.292969 L 269.59375 214.234375 L 233.152344 214.234375 C 231.53125 214.234375 230.203125 212.90625 230.203125 211.28125 C 230.203125 209.652344 231.53125 208.324219 233.152344 208.324219 L 273.578125 208.324219 L 281.398438 196.648438 C 281.988281 195.761719 281.988281 194.578125 281.546875 193.542969 C 280.957031 192.65625 279.921875 192.066406 278.890625 192.066406 Z M 278.890625 192.066406 " fill-opacity="1" fill-rule="nonzero"/></g></svg>