<svg xmlns="http://www.w3.org/2000/svg" xmlns:xlink="http://www.w3.org/1999/xlink" width="1024" zoomAndPan="magnify" viewBox="0 0 768 576" height="768" preserveAspectRatio="xMidYMid meet" version="1.0"><defs><g/><clipPath id="id1"><path d="M 281.578125 57.601562 L 357 57.601562 L 357 133 L 281.578125 133 Z M 281.578125 57.601562 " clip-rule="nonzero"/></clipPath><clipPath id="id2"><path d="M 421 192 L 486.328125 192 L 486.328125 258 L 421 258 Z M 421 192 " clip-rule="nonzero"/></clipPath><clipPath id="id3"><path d="M 301 252 L 337 252 L 337 287.851562 L 301 287.851562 Z M 301 252 " clip-rule="nonzero"/></clipPath></defs><g clip-path="url(#id1)"><path fill="#1d918a" d="M 318.875 132.707031 C 339.511719 132.707031 356.304688 115.921875 356.304688 95.285156 C 356.304688 74.652344 339.511719 57.863281 318.875 57.863281 C 298.238281 57.863281 281.449219 74.652344 281.449219 95.285156 C 281.449219 115.921875 298.238281 132.707031 318.875 132.707031 Z M 318.875 68.1875 C 333.816406 68.1875 345.976562 80.34375 345.976562 95.285156 C 345.976562 110.226562 333.820312 122.382812 318.875 122.382812 C 303.929688 122.382812 291.777344 110.226562 291.777344 95.285156 C 291.777344 80.347656 303.933594 68.1875 318.875 68.1875 Z M 318.875 68.1875 " fill-opacity="1" fill-rule="nonzero"/></g><g clip-path="url(#id2)"><path fill="#1d918a" d="M 454.078125 192.960938 C 436.367188 192.960938 421.957031 207.367188 421.957031 225.074219 C 421.957031 242.78125 436.367188 257.1875 454.078125 257.1875 C 471.789062 257.1875 486.199219 242.78125 486.199219 225.074219 C 486.199219 207.367188 471.789062 192.960938 454.078125 192.960938 Z M 454.078125 246.863281 C 442.0625 246.863281 432.285156 237.089844 432.285156 225.078125 C 432.285156 213.0625 442.0625 203.289062 454.078125 203.289062 C 466.09375 203.289062 475.871094 213.0625 475.871094 225.078125 C 475.871094 237.085938 466.09375 246.863281 454.078125 246.863281 Z M 454.078125 246.863281 " fill-opacity="1" fill-rule="nonzero"/></g><path fill="#1d918a" d="M 417.203125 110.894531 C 426.753906 110.894531 434.527344 103.125 434.527344 93.578125 C 434.527344 84.027344 426.753906 76.257812 417.203125 76.257812 C 407.652344 76.257812 399.882812 84.027344 399.882812 93.578125 C 399.882812 103.125 407.652344 110.894531 417.203125 110.894531 Z M 417.203125 86.582031 C 421.0625 86.582031 424.199219 89.71875 424.199219 93.578125 C 424.199219 97.433594 421.0625 100.570312 417.203125 100.570312 C 413.347656 100.570312 410.210938 97.433594 410.210938 93.578125 C 410.210938 89.71875 413.347656 86.582031 417.203125 86.582031 Z M 417.203125 86.582031 " fill-opacity="1" fill-rule="nonzero"/><path fill="#1d918a" d="M 326.75 185.96875 C 326.75 176.417969 318.976562 168.652344 309.425781 168.652344 C 299.875 168.652344 292.101562 176.417969 292.101562 185.96875 C 292.101562 195.519531 299.875 203.289062 309.425781 203.289062 C 318.976562 203.289062 326.75 195.519531 326.75 185.96875 Z M 302.429688 185.96875 C 302.429688 182.113281 305.566406 178.976562 309.425781 178.976562 C 313.285156 178.976562 316.421875 182.113281 316.421875 185.96875 C 316.421875 189.824219 313.285156 192.960938 309.425781 192.960938 C 305.566406 192.960938 302.429688 189.824219 302.429688 185.96875 Z M 302.429688 185.96875 " fill-opacity="1" fill-rule="nonzero"/><g clip-path="url(#id3)"><path fill="#1d918a" d="M 318.875 252.6875 C 309.324219 252.6875 301.554688 260.460938 301.554688 270.007812 C 301.554688 279.558594 309.324219 287.328125 318.875 287.328125 C 328.425781 287.328125 336.199219 279.558594 336.199219 270.007812 C 336.199219 260.460938 328.425781 252.6875 318.875 252.6875 Z M 318.875 277.003906 C 315.019531 277.003906 311.882812 273.867188 311.882812 270.007812 C 311.882812 266.152344 315.019531 263.015625 318.875 263.015625 C 322.734375 263.015625 325.871094 266.152344 325.871094 270.007812 C 325.871094 273.867188 322.734375 277.003906 318.875 277.003906 Z M 318.875 277.003906 " fill-opacity="1" fill-rule="nonzero"/></g><path fill="#3a3d41" d="M 426.851562 201.417969 C 428.671875 199.21875 428.363281 195.96875 426.167969 194.148438 L 410.484375 181.164062 C 412.011719 178.058594 412.890625 174.582031 412.890625 170.894531 C 412.890625 162.539062 408.472656 155.214844 401.867188 151.074219 L 412.617188 119.238281 C 413.53125 116.539062 412.078125 113.609375 409.375 112.695312 C 406.671875 111.785156 403.742188 113.234375 402.832031 115.9375 L 392.121094 147.65625 C 391.257812 147.558594 390.378906 147.496094 389.488281 147.496094 C 385.082031 147.496094 380.96875 148.746094 377.445312 150.871094 L 357.777344 126.742188 C 355.972656 124.53125 352.71875 124.199219 350.511719 126 C 348.300781 127.804688 347.96875 131.054688 349.769531 133.265625 L 369.957031 158.035156 C 367.722656 161.417969 366.363281 165.410156 366.144531 169.707031 L 333.828125 176.835938 C 331.042969 177.449219 329.285156 180.207031 329.898438 182.988281 C 330.429688 185.402344 332.566406 187.039062 334.9375 187.039062 C 335.304688 187.039062 335.679688 187 336.054688 186.917969 L 367.894531 179.898438 C 369.316406 183.292969 371.523438 186.277344 374.28125 188.644531 L 330.828125 245.921875 C 329.101562 248.195312 329.546875 251.433594 331.820312 253.160156 C 332.753906 253.863281 333.851562 254.207031 334.9375 254.207031 C 336.496094 254.207031 338.042969 253.503906 339.054688 252.164062 L 383.558594 193.503906 C 385.457031 194.003906 387.4375 194.292969 389.488281 194.292969 C 394.976562 194.292969 400.015625 192.382812 404.011719 189.210938 L 419.582031 202.101562 C 420.546875 202.902344 421.714844 203.289062 422.871094 203.289062 C 424.355469 203.289062 425.832031 202.652344 426.851562 201.417969 Z M 389.488281 183.964844 C 382.28125 183.964844 376.417969 178.101562 376.417969 170.894531 C 376.417969 163.6875 382.28125 157.824219 389.488281 157.824219 C 396.695312 157.824219 402.5625 163.6875 402.5625 170.894531 C 402.5625 178.101562 396.695312 183.964844 389.488281 183.964844 Z M 389.488281 183.964844 " fill-opacity="1" fill-rule="nonzero"/><g fill="#3a3d41" fill-opacity="1"><g transform="translate(171.649301, 361.183902)"><g><path d="M 23 0 L 21.59375 0 L 16.21875 -18.921875 C 15.769531 -20.472656 15.429688 -21.742188 15.203125 -22.734375 C 15.023438 -21.765625 14.769531 -20.644531 14.4375 -19.375 C 14.113281 -18.113281 12.3125 -11.65625 9.03125 0 L 7.59375 0 L 0.859375 -24.515625 L 2.65625 -24.515625 L 6.9375 -8.71875 C 7.101562 -8.082031 7.257812 -7.492188 7.40625 -6.953125 C 7.550781 -6.410156 7.679688 -5.898438 7.796875 -5.421875 C 7.921875 -4.953125 8.03125 -4.492188 8.125 -4.046875 C 8.21875 -3.609375 8.304688 -3.164062 8.390625 -2.71875 C 8.648438 -4.238281 9.21875 -6.546875 10.09375 -9.640625 L 14.28125 -24.515625 L 16.1875 -24.515625 L 21.09375 -7.453125 C 21.664062 -5.484375 22.070312 -3.894531 22.3125 -2.6875 C 22.457031 -3.488281 22.644531 -4.34375 22.875 -5.25 C 23.101562 -6.15625 24.832031 -12.578125 28.0625 -24.515625 L 29.78125 -24.515625 Z M 23 0 "/></g></g></g><g fill="#3a3d41" fill-opacity="1"><g transform="translate(202.279988, 361.183902)"><g><path d="M 10.40625 0.328125 C 7.757812 0.328125 5.695312 -0.484375 4.21875 -2.109375 C 2.738281 -3.742188 2 -6.03125 2 -8.96875 C 2 -11.875 2.710938 -14.203125 4.140625 -15.953125 C 5.566406 -17.703125 7.492188 -18.578125 9.921875 -18.578125 C 12.066406 -18.578125 13.757812 -17.828125 15 -16.328125 C 16.25 -14.835938 16.875 -12.804688 16.875 -10.234375 L 16.875 -8.890625 L 3.734375 -8.890625 C 3.753906 -6.378906 4.335938 -4.460938 5.484375 -3.140625 C 6.628906 -1.828125 8.269531 -1.171875 10.40625 -1.171875 C 11.445312 -1.171875 12.363281 -1.242188 13.15625 -1.390625 C 13.945312 -1.535156 14.945312 -1.847656 16.15625 -2.328125 L 16.15625 -0.828125 C 15.125 -0.378906 14.171875 -0.078125 13.296875 0.078125 C 12.421875 0.242188 11.457031 0.328125 10.40625 0.328125 Z M 9.921875 -17.109375 C 8.171875 -17.109375 6.765625 -16.53125 5.703125 -15.375 C 4.640625 -14.21875 4.019531 -12.546875 3.84375 -10.359375 L 15.109375 -10.359375 C 15.109375 -12.472656 14.648438 -14.125 13.734375 -15.3125 C 12.816406 -16.507812 11.546875 -17.109375 9.921875 -17.109375 Z M 9.921875 -17.109375 "/></g></g></g><g fill="#3a3d41" fill-opacity="1"><g transform="translate(221.124479, 361.183902)"><g><path d="M 4.71875 0 L 3.046875 0 L 3.046875 -26.09375 L 4.71875 -26.09375 Z M 4.71875 0 "/></g></g></g><g fill="#3a3d41" fill-opacity="1"><g transform="translate(228.88694, 361.183902)"><g><path d="M 4.71875 0 L 3.046875 0 L 3.046875 -26.09375 L 4.71875 -26.09375 Z M 4.71875 0 "/></g></g></g><g fill="#3a3d41" fill-opacity="1"><g transform="translate(236.6494, 361.183902)"><g><path d="M 1.546875 -8.59375 L 1.546875 -9.96875 L 9.515625 -9.96875 L 9.515625 -8.59375 Z M 1.546875 -8.59375 "/></g></g></g><g fill="#3a3d41" fill-opacity="1"><g transform="translate(247.697911, 361.183902)"><g><path d="M 10.40625 0.328125 C 7.757812 0.328125 5.695312 -0.484375 4.21875 -2.109375 C 2.738281 -3.742188 2 -6.03125 2 -8.96875 C 2 -11.875 2.710938 -14.203125 4.140625 -15.953125 C 5.566406 -17.703125 7.492188 -18.578125 9.921875 -18.578125 C 12.066406 -18.578125 13.757812 -17.828125 15 -16.328125 C 16.25 -14.835938 16.875 -12.804688 16.875 -10.234375 L 16.875 -8.890625 L 3.734375 -8.890625 C 3.753906 -6.378906 4.335938 -4.460938 5.484375 -3.140625 C 6.628906 -1.828125 8.269531 -1.171875 10.40625 -1.171875 C 11.445312 -1.171875 12.363281 -1.242188 13.15625 -1.390625 C 13.945312 -1.535156 14.945312 -1.847656 16.15625 -2.328125 L 16.15625 -0.828125 C 15.125 -0.378906 14.171875 -0.078125 13.296875 0.078125 C 12.421875 0.242188 11.457031 0.328125 10.40625 0.328125 Z M 9.921875 -17.109375 C 8.171875 -17.109375 6.765625 -16.53125 5.703125 -15.375 C 4.640625 -14.21875 4.019531 -12.546875 3.84375 -10.359375 L 15.109375 -10.359375 C 15.109375 -12.472656 14.648438 -14.125 13.734375 -15.3125 C 12.816406 -16.507812 11.546875 -17.109375 9.921875 -17.109375 Z M 9.921875 -17.109375 "/></g></g></g><g fill="#3a3d41" fill-opacity="1"><g transform="translate(266.542402, 361.183902)"><g><path d="M 14.359375 -4.75 C 14.359375 -3.113281 13.734375 -1.859375 12.484375 -0.984375 C 11.242188 -0.109375 9.484375 0.328125 7.203125 0.328125 C 4.773438 0.328125 2.84375 -0.0390625 1.40625 -0.78125 L 1.40625 -2.578125 C 3.238281 -1.660156 5.171875 -1.203125 7.203125 -1.203125 C 9.003906 -1.203125 10.375 -1.5 11.3125 -2.09375 C 12.25 -2.695312 12.71875 -3.5 12.71875 -4.5 C 12.71875 -5.414062 12.34375 -6.1875 11.59375 -6.8125 C 10.851562 -7.4375 9.632812 -8.050781 7.9375 -8.65625 C 6.113281 -9.3125 4.832031 -9.875 4.09375 -10.34375 C 3.351562 -10.820312 2.796875 -11.359375 2.421875 -11.953125 C 2.046875 -12.554688 1.859375 -13.289062 1.859375 -14.15625 C 1.859375 -15.519531 2.429688 -16.597656 3.578125 -17.390625 C 4.722656 -18.179688 6.328125 -18.578125 8.390625 -18.578125 C 10.359375 -18.578125 12.222656 -18.207031 13.984375 -17.46875 L 13.359375 -15.96875 C 11.578125 -16.707031 9.921875 -17.078125 8.390625 -17.078125 C 6.898438 -17.078125 5.71875 -16.828125 4.84375 -16.328125 C 3.96875 -15.835938 3.53125 -15.15625 3.53125 -14.28125 C 3.53125 -13.332031 3.867188 -12.570312 4.546875 -12 C 5.222656 -11.4375 6.546875 -10.800781 8.515625 -10.09375 C 10.160156 -9.5 11.359375 -8.960938 12.109375 -8.484375 C 12.859375 -8.015625 13.421875 -7.476562 13.796875 -6.875 C 14.171875 -6.269531 14.359375 -5.5625 14.359375 -4.75 Z M 14.359375 -4.75 "/></g></g></g><g fill="#3a3d41" fill-opacity="1"><g transform="translate(282.536748, 361.183902)"><g><path d="M 7.859375 -1.140625 C 8.910156 -1.140625 9.828125 -1.226562 10.609375 -1.40625 L 10.609375 -0.0625 C 9.804688 0.195312 8.878906 0.328125 7.828125 0.328125 C 6.222656 0.328125 5.035156 -0.0976562 4.265625 -0.953125 C 3.503906 -1.816406 3.125 -3.171875 3.125 -5.015625 L 3.125 -16.78125 L 0.421875 -16.78125 L 0.421875 -17.765625 L 3.125 -18.515625 L 3.953125 -22.640625 L 4.8125 -22.640625 L 4.8125 -18.234375 L 10.15625 -18.234375 L 10.15625 -16.78125 L 4.8125 -16.78125 L 4.8125 -5.25 C 4.8125 -3.851562 5.054688 -2.816406 5.546875 -2.140625 C 6.035156 -1.472656 6.804688 -1.140625 7.859375 -1.140625 Z M 7.859375 -1.140625 "/></g></g></g><g fill="#3a3d41" fill-opacity="1"><g transform="translate(294.037923, 361.183902)"><g><path d="M 14.125 0 L 13.703125 -2.890625 L 13.5625 -2.890625 C 12.644531 -1.710938 11.703125 -0.878906 10.734375 -0.390625 C 9.773438 0.0859375 8.632812 0.328125 7.3125 0.328125 C 5.519531 0.328125 4.125 -0.128906 3.125 -1.046875 C 2.132812 -1.960938 1.640625 -3.226562 1.640625 -4.84375 C 1.640625 -6.625 2.378906 -8.003906 3.859375 -8.984375 C 5.347656 -9.972656 7.492188 -10.492188 10.296875 -10.546875 L 13.765625 -10.65625 L 13.765625 -11.859375 C 13.765625 -13.585938 13.410156 -14.894531 12.703125 -15.78125 C 12.003906 -16.664062 10.875 -17.109375 9.3125 -17.109375 C 7.625 -17.109375 5.875 -16.640625 4.0625 -15.703125 L 3.4375 -17.140625 C 5.4375 -18.078125 7.414062 -18.546875 9.375 -18.546875 C 11.375 -18.546875 12.867188 -18.023438 13.859375 -16.984375 C 14.847656 -15.941406 15.34375 -14.320312 15.34375 -12.125 L 15.34375 0 Z M 7.40625 -1.171875 C 9.351562 -1.171875 10.890625 -1.726562 12.015625 -2.84375 C 13.140625 -3.957031 13.703125 -5.503906 13.703125 -7.484375 L 13.703125 -9.28125 L 10.515625 -9.140625 C 7.953125 -9.015625 6.125 -8.613281 5.03125 -7.9375 C 3.945312 -7.257812 3.40625 -6.207031 3.40625 -4.78125 C 3.40625 -3.632812 3.753906 -2.742188 4.453125 -2.109375 C 5.148438 -1.484375 6.132812 -1.171875 7.40625 -1.171875 Z M 7.40625 -1.171875 "/></g></g></g><g fill="#3a3d41" fill-opacity="1"><g transform="translate(312.228564, 361.183902)"><g><path d="M 10.75 -18.578125 C 13.300781 -18.578125 15.222656 -17.773438 16.515625 -16.171875 C 17.804688 -14.566406 18.453125 -12.222656 18.453125 -9.140625 C 18.453125 -6.109375 17.769531 -3.769531 16.40625 -2.125 C 15.050781 -0.488281 13.144531 0.328125 10.6875 0.328125 C 9.382812 0.328125 8.210938 0.0625 7.171875 -0.46875 C 6.140625 -1.007812 5.320312 -1.769531 4.71875 -2.75 L 4.5625 -2.75 L 4.09375 0 L 3.046875 0 L 3.046875 -26.09375 L 4.71875 -26.09375 L 4.71875 -19.53125 C 4.71875 -18.550781 4.691406 -17.644531 4.640625 -16.8125 L 4.59375 -15.390625 L 4.71875 -15.390625 C 5.40625 -16.484375 6.238281 -17.285156 7.21875 -17.796875 C 8.195312 -18.316406 9.375 -18.578125 10.75 -18.578125 Z M 10.71875 -17.078125 C 8.570312 -17.078125 7.035156 -16.457031 6.109375 -15.21875 C 5.179688 -13.988281 4.71875 -11.960938 4.71875 -9.140625 L 4.71875 -8.859375 C 4.71875 -6.109375 5.195312 -4.132812 6.15625 -2.9375 C 7.125 -1.738281 8.632812 -1.140625 10.6875 -1.140625 C 12.675781 -1.140625 14.171875 -1.832031 15.171875 -3.21875 C 16.179688 -4.613281 16.6875 -6.597656 16.6875 -9.171875 C 16.6875 -14.441406 14.695312 -17.078125 10.71875 -17.078125 Z M 10.71875 -17.078125 "/></g></g></g><g fill="#3a3d41" fill-opacity="1"><g transform="translate(332.665789, 361.183902)"><g><path d="M 4.71875 0 L 3.046875 0 L 3.046875 -26.09375 L 4.71875 -26.09375 Z M 4.71875 0 "/></g></g></g><g fill="#3a3d41" fill-opacity="1"><g transform="translate(340.428249, 361.183902)"><g><path d="M 4.71875 0 L 3.046875 0 L 3.046875 -18.234375 L 4.71875 -18.234375 Z M 2.8125 -23.296875 C 2.8125 -24.367188 3.164062 -24.90625 3.875 -24.90625 C 4.21875 -24.90625 4.488281 -24.765625 4.6875 -24.484375 C 4.882812 -24.203125 4.984375 -23.804688 4.984375 -23.296875 C 4.984375 -22.785156 4.882812 -22.382812 4.6875 -22.09375 C 4.488281 -21.8125 4.21875 -21.671875 3.875 -21.671875 C 3.164062 -21.671875 2.8125 -22.210938 2.8125 -23.296875 Z M 2.8125 -23.296875 "/></g></g></g><g fill="#3a3d41" fill-opacity="1"><g transform="translate(348.19071, 361.183902)"><g><path d="M 14.359375 -4.75 C 14.359375 -3.113281 13.734375 -1.859375 12.484375 -0.984375 C 11.242188 -0.109375 9.484375 0.328125 7.203125 0.328125 C 4.773438 0.328125 2.84375 -0.0390625 1.40625 -0.78125 L 1.40625 -2.578125 C 3.238281 -1.660156 5.171875 -1.203125 7.203125 -1.203125 C 9.003906 -1.203125 10.375 -1.5 11.3125 -2.09375 C 12.25 -2.695312 12.71875 -3.5 12.71875 -4.5 C 12.71875 -5.414062 12.34375 -6.1875 11.59375 -6.8125 C 10.851562 -7.4375 9.632812 -8.050781 7.9375 -8.65625 C 6.113281 -9.3125 4.832031 -9.875 4.09375 -10.34375 C 3.351562 -10.820312 2.796875 -11.359375 2.421875 -11.953125 C 2.046875 -12.554688 1.859375 -13.289062 1.859375 -14.15625 C 1.859375 -15.519531 2.429688 -16.597656 3.578125 -17.390625 C 4.722656 -18.179688 6.328125 -18.578125 8.390625 -18.578125 C 10.359375 -18.578125 12.222656 -18.207031 13.984375 -17.46875 L 13.359375 -15.96875 C 11.578125 -16.707031 9.921875 -17.078125 8.390625 -17.078125 C 6.898438 -17.078125 5.71875 -16.828125 4.84375 -16.328125 C 3.96875 -15.835938 3.53125 -15.15625 3.53125 -14.28125 C 3.53125 -13.332031 3.867188 -12.570312 4.546875 -12 C 5.222656 -11.4375 6.546875 -10.800781 8.515625 -10.09375 C 10.160156 -9.5 11.359375 -8.960938 12.109375 -8.484375 C 12.859375 -8.015625 13.421875 -7.476562 13.796875 -6.875 C 14.171875 -6.269531 14.359375 -5.5625 14.359375 -4.75 Z M 14.359375 -4.75 "/></g></g></g><g fill="#3a3d41" fill-opacity="1"><g transform="translate(364.185056, 361.183902)"><g><path d="M 15.765625 0 L 15.765625 -11.828125 C 15.765625 -13.660156 15.378906 -14.992188 14.609375 -15.828125 C 13.835938 -16.660156 12.640625 -17.078125 11.015625 -17.078125 C 8.835938 -17.078125 7.242188 -16.523438 6.234375 -15.421875 C 5.222656 -14.316406 4.71875 -12.53125 4.71875 -10.0625 L 4.71875 0 L 3.046875 0 L 3.046875 -26.09375 L 4.71875 -26.09375 L 4.71875 -17.796875 L 4.625 -15.46875 L 4.75 -15.46875 C 5.425781 -16.5625 6.285156 -17.351562 7.328125 -17.84375 C 8.367188 -18.332031 9.660156 -18.578125 11.203125 -18.578125 C 15.335938 -18.578125 17.40625 -16.359375 17.40625 -11.921875 L 17.40625 0 Z M 15.765625 0 "/></g></g></g><g fill="#3a3d41" fill-opacity="1"><g transform="translate(384.437854, 361.183902)"><g><path d="M 10.40625 0.328125 C 7.757812 0.328125 5.695312 -0.484375 4.21875 -2.109375 C 2.738281 -3.742188 2 -6.03125 2 -8.96875 C 2 -11.875 2.710938 -14.203125 4.140625 -15.953125 C 5.566406 -17.703125 7.492188 -18.578125 9.921875 -18.578125 C 12.066406 -18.578125 13.757812 -17.828125 15 -16.328125 C 16.25 -14.835938 16.875 -12.804688 16.875 -10.234375 L 16.875 -8.890625 L 3.734375 -8.890625 C 3.753906 -6.378906 4.335938 -4.460938 5.484375 -3.140625 C 6.628906 -1.828125 8.269531 -1.171875 10.40625 -1.171875 C 11.445312 -1.171875 12.363281 -1.242188 13.15625 -1.390625 C 13.945312 -1.535156 14.945312 -1.847656 16.15625 -2.328125 L 16.15625 -0.828125 C 15.125 -0.378906 14.171875 -0.078125 13.296875 0.078125 C 12.421875 0.242188 11.457031 0.328125 10.40625 0.328125 Z M 9.921875 -17.109375 C 8.171875 -17.109375 6.765625 -16.53125 5.703125 -15.375 C 4.640625 -14.21875 4.019531 -12.546875 3.84375 -10.359375 L 15.109375 -10.359375 C 15.109375 -12.472656 14.648438 -14.125 13.734375 -15.3125 C 12.816406 -16.507812 11.546875 -17.109375 9.921875 -17.109375 Z M 9.921875 -17.109375 "/></g></g></g><g fill="#3a3d41" fill-opacity="1"><g transform="translate(403.282346, 361.183902)"><g><path d="M 9.71875 -18.578125 C 11.039062 -18.578125 12.179688 -18.335938 13.140625 -17.859375 C 14.109375 -17.378906 14.972656 -16.554688 15.734375 -15.390625 L 15.828125 -15.390625 C 15.765625 -16.796875 15.734375 -18.175781 15.734375 -19.53125 L 15.734375 -26.09375 L 17.375 -26.09375 L 17.375 0 L 16.28125 0 L 15.859375 -2.78125 L 15.734375 -2.78125 C 14.347656 -0.707031 12.359375 0.328125 9.765625 0.328125 C 7.242188 0.328125 5.316406 -0.453125 3.984375 -2.015625 C 2.660156 -3.578125 2 -5.859375 2 -8.859375 C 2 -12.003906 2.65625 -14.410156 3.96875 -16.078125 C 5.289062 -17.742188 7.207031 -18.578125 9.71875 -18.578125 Z M 9.71875 -17.078125 C 7.726562 -17.078125 6.234375 -16.375 5.234375 -14.96875 C 4.234375 -13.570312 3.734375 -11.546875 3.734375 -8.890625 C 3.734375 -3.722656 5.742188 -1.140625 9.765625 -1.140625 C 11.816406 -1.140625 13.320312 -1.738281 14.28125 -2.9375 C 15.25 -4.132812 15.734375 -6.109375 15.734375 -8.859375 L 15.734375 -9.140625 C 15.734375 -11.953125 15.257812 -13.976562 14.3125 -15.21875 C 13.363281 -16.457031 11.832031 -17.078125 9.71875 -17.078125 Z M 9.71875 -17.078125 "/></g></g></g><g fill="#3a3d41" fill-opacity="1"><g transform="translate(423.719571, 361.183902)"><g/></g></g><g fill="#3a3d41" fill-opacity="1"><g transform="translate(432.63885, 361.183902)"><g><path d="M 25.828125 0 L 25.828125 -11.953125 C 25.828125 -13.734375 25.476562 -15.03125 24.78125 -15.84375 C 24.09375 -16.664062 23.03125 -17.078125 21.59375 -17.078125 C 19.726562 -17.078125 18.347656 -16.5625 17.453125 -15.53125 C 16.554688 -14.5 16.109375 -12.882812 16.109375 -10.6875 L 16.109375 0 L 14.421875 0 L 14.421875 -12.453125 C 14.421875 -15.535156 13.015625 -17.078125 10.203125 -17.078125 C 8.285156 -17.078125 6.890625 -16.519531 6.015625 -15.40625 C 5.148438 -14.289062 4.71875 -12.507812 4.71875 -10.0625 L 4.71875 0 L 3.046875 0 L 3.046875 -18.234375 L 4.421875 -18.234375 L 4.78125 -15.734375 L 4.875 -15.734375 C 5.382812 -16.640625 6.101562 -17.335938 7.03125 -17.828125 C 7.957031 -18.328125 8.976562 -18.578125 10.09375 -18.578125 C 12.96875 -18.578125 14.8125 -17.5 15.625 -15.34375 L 15.703125 -15.34375 C 16.285156 -16.382812 17.078125 -17.179688 18.078125 -17.734375 C 19.085938 -18.296875 20.226562 -18.578125 21.5 -18.578125 C 23.488281 -18.578125 24.976562 -18.046875 25.96875 -16.984375 C 26.96875 -15.921875 27.46875 -14.234375 27.46875 -11.921875 L 27.46875 0 Z M 25.828125 0 "/></g></g></g><g fill="#3a3d41" fill-opacity="1"><g transform="translate(462.950986, 361.183902)"><g><path d="M 14.125 0 L 13.703125 -2.890625 L 13.5625 -2.890625 C 12.644531 -1.710938 11.703125 -0.878906 10.734375 -0.390625 C 9.773438 0.0859375 8.632812 0.328125 7.3125 0.328125 C 5.519531 0.328125 4.125 -0.128906 3.125 -1.046875 C 2.132812 -1.960938 1.640625 -3.226562 1.640625 -4.84375 C 1.640625 -6.625 2.378906 -8.003906 3.859375 -8.984375 C 5.347656 -9.972656 7.492188 -10.492188 10.296875 -10.546875 L 13.765625 -10.65625 L 13.765625 -11.859375 C 13.765625 -13.585938 13.410156 -14.894531 12.703125 -15.78125 C 12.003906 -16.664062 10.875 -17.109375 9.3125 -17.109375 C 7.625 -17.109375 5.875 -16.640625 4.0625 -15.703125 L 3.4375 -17.140625 C 5.4375 -18.078125 7.414062 -18.546875 9.375 -18.546875 C 11.375 -18.546875 12.867188 -18.023438 13.859375 -16.984375 C 14.847656 -15.941406 15.34375 -14.320312 15.34375 -12.125 L 15.34375 0 Z M 7.40625 -1.171875 C 9.351562 -1.171875 10.890625 -1.726562 12.015625 -2.84375 C 13.140625 -3.957031 13.703125 -5.503906 13.703125 -7.484375 L 13.703125 -9.28125 L 10.515625 -9.140625 C 7.953125 -9.015625 6.125 -8.613281 5.03125 -7.9375 C 3.945312 -7.257812 3.40625 -6.207031 3.40625 -4.78125 C 3.40625 -3.632812 3.753906 -2.742188 4.453125 -2.109375 C 5.148438 -1.484375 6.132812 -1.171875 7.40625 -1.171875 Z M 7.40625 -1.171875 "/></g></g></g><g fill="#3a3d41" fill-opacity="1"><g transform="translate(481.141636, 361.183902)"><g><path d="M 10.234375 -18.578125 C 11.003906 -18.578125 11.832031 -18.5 12.71875 -18.34375 L 12.390625 -16.75 C 11.628906 -16.9375 10.84375 -17.03125 10.03125 -17.03125 C 8.476562 -17.03125 7.203125 -16.367188 6.203125 -15.046875 C 5.210938 -13.734375 4.71875 -12.070312 4.71875 -10.0625 L 4.71875 0 L 3.046875 0 L 3.046875 -18.234375 L 4.453125 -18.234375 L 4.625 -14.9375 L 4.75 -14.9375 C 5.5 -16.28125 6.296875 -17.222656 7.140625 -17.765625 C 7.992188 -18.304688 9.023438 -18.578125 10.234375 -18.578125 Z M 10.234375 -18.578125 "/></g></g></g><g fill="#3a3d41" fill-opacity="1"><g transform="translate(494.503805, 361.183902)"><g><path d="M 4.671875 -8 L 13.984375 -18.234375 L 16 -18.234375 L 8.828125 -10.453125 L 16.625 0 L 14.625 0 L 7.703125 -9.203125 L 4.71875 -6.484375 L 4.71875 0 L 3.046875 0 L 3.046875 -26.09375 L 4.71875 -26.09375 L 4.71875 -13.015625 L 4.59375 -8 Z M 4.671875 -8 "/></g></g></g><g fill="#3a3d41" fill-opacity="1"><g transform="translate(511.118482, 361.183902)"><g><path d="M 10.40625 0.328125 C 7.757812 0.328125 5.695312 -0.484375 4.21875 -2.109375 C 2.738281 -3.742188 2 -6.03125 2 -8.96875 C 2 -11.875 2.710938 -14.203125 4.140625 -15.953125 C 5.566406 -17.703125 7.492188 -18.578125 9.921875 -18.578125 C 12.066406 -18.578125 13.757812 -17.828125 15 -16.328125 C 16.25 -14.835938 16.875 -12.804688 16.875 -10.234375 L 16.875 -8.890625 L 3.734375 -8.890625 C 3.753906 -6.378906 4.335938 -4.460938 5.484375 -3.140625 C 6.628906 -1.828125 8.269531 -1.171875 10.40625 -1.171875 C 11.445312 -1.171875 12.363281 -1.242188 13.15625 -1.390625 C 13.945312 -1.535156 14.945312 -1.847656 16.15625 -2.328125 L 16.15625 -0.828125 C 15.125 -0.378906 14.171875 -0.078125 13.296875 0.078125 C 12.421875 0.242188 11.457031 0.328125 10.40625 0.328125 Z M 9.921875 -17.109375 C 8.171875 -17.109375 6.765625 -16.53125 5.703125 -15.375 C 4.640625 -14.21875 4.019531 -12.546875 3.84375 -10.359375 L 15.109375 -10.359375 C 15.109375 -12.472656 14.648438 -14.125 13.734375 -15.3125 C 12.816406 -16.507812 11.546875 -17.109375 9.921875 -17.109375 Z M 9.921875 -17.109375 "/></g></g></g><g fill="#3a3d41" fill-opacity="1"><g transform="translate(529.962995, 361.183902)"><g><path d="M 7.859375 -1.140625 C 8.910156 -1.140625 9.828125 -1.226562 10.609375 -1.40625 L 10.609375 -0.0625 C 9.804688 0.195312 8.878906 0.328125 7.828125 0.328125 C 6.222656 0.328125 5.035156 -0.0976562 4.265625 -0.953125 C 3.503906 -1.816406 3.125 -3.171875 3.125 -5.015625 L 3.125 -16.78125 L 0.421875 -16.78125 L 0.421875 -17.765625 L 3.125 -18.515625 L 3.953125 -22.640625 L 4.8125 -22.640625 L 4.8125 -18.234375 L 10.15625 -18.234375 L 10.15625 -16.78125 L 4.8125 -16.78125 L 4.8125 -5.25 C 4.8125 -3.851562 5.054688 -2.816406 5.546875 -2.140625 C 6.035156 -1.472656 6.804688 -1.140625 7.859375 -1.140625 Z M 7.859375 -1.140625 "/></g></g></g><g fill="#3a3d41" fill-opacity="1"><g transform="translate(541.464181, 361.183902)"><g><path d="M 4.71875 0 L 3.046875 0 L 3.046875 -18.234375 L 4.71875 -18.234375 Z M 2.8125 -23.296875 C 2.8125 -24.367188 3.164062 -24.90625 3.875 -24.90625 C 4.21875 -24.90625 4.488281 -24.765625 4.6875 -24.484375 C 4.882812 -24.203125 4.984375 -23.804688 4.984375 -23.296875 C 4.984375 -22.785156 4.882812 -22.382812 4.6875 -22.09375 C 4.488281 -21.8125 4.21875 -21.671875 3.875 -21.671875 C 3.164062 -21.671875 2.8125 -22.210938 2.8125 -23.296875 Z M 2.8125 -23.296875 "/></g></g></g><g fill="#3a3d41" fill-opacity="1"><g transform="translate(549.226641, 361.183902)"><g><path d="M 15.765625 0 L 15.765625 -11.828125 C 15.765625 -13.660156 15.378906 -14.992188 14.609375 -15.828125 C 13.835938 -16.660156 12.640625 -17.078125 11.015625 -17.078125 C 8.835938 -17.078125 7.242188 -16.523438 6.234375 -15.421875 C 5.222656 -14.316406 4.71875 -12.53125 4.71875 -10.0625 L 4.71875 0 L 3.046875 0 L 3.046875 -18.234375 L 4.453125 -18.234375 L 4.78125 -15.734375 L 4.875 -15.734375 C 6.0625 -17.628906 8.171875 -18.578125 11.203125 -18.578125 C 15.335938 -18.578125 17.40625 -16.359375 17.40625 -11.921875 L 17.40625 0 Z M 15.765625 0 "/></g></g></g><g fill="#3a3d41" fill-opacity="1"><g transform="translate(569.47944, 361.183902)"><g><path d="M 17.265625 -18.234375 L 17.265625 -17.078125 L 13.5 -16.84375 C 14.507812 -15.582031 15.015625 -14.207031 15.015625 -12.71875 C 15.015625 -10.957031 14.425781 -9.53125 13.25 -8.4375 C 12.082031 -7.351562 10.515625 -6.8125 8.546875 -6.8125 C 7.722656 -6.8125 7.144531 -6.84375 6.8125 -6.90625 C 6.144531 -6.5625 5.640625 -6.15625 5.296875 -5.6875 C 4.953125 -5.21875 4.78125 -4.71875 4.78125 -4.1875 C 4.78125 -3.613281 5 -3.191406 5.4375 -2.921875 C 5.882812 -2.648438 6.625 -2.515625 7.65625 -2.515625 L 10.84375 -2.515625 C 12.820312 -2.515625 14.335938 -2.113281 15.390625 -1.3125 C 16.441406 -0.519531 16.96875 0.660156 16.96875 2.234375 C 16.96875 4.148438 16.1875 5.628906 14.625 6.671875 C 13.070312 7.722656 10.851562 8.25 7.96875 8.25 C 5.675781 8.25 3.898438 7.804688 2.640625 6.921875 C 1.378906 6.035156 0.75 4.804688 0.75 3.234375 C 0.75 1.984375 1.132812 0.941406 1.90625 0.109375 C 2.6875 -0.710938 3.742188 -1.273438 5.078125 -1.578125 C 4.535156 -1.804688 4.097656 -2.132812 3.765625 -2.5625 C 3.429688 -3 3.265625 -3.5 3.265625 -4.0625 C 3.265625 -5.28125 4.039062 -6.351562 5.59375 -7.28125 C 4.539062 -7.71875 3.71875 -8.398438 3.125 -9.328125 C 2.53125 -10.265625 2.234375 -11.335938 2.234375 -12.546875 C 2.234375 -14.367188 2.8125 -15.828125 3.96875 -16.921875 C 5.125 -18.023438 6.6875 -18.578125 8.65625 -18.578125 C 9.851562 -18.578125 10.78125 -18.460938 11.4375 -18.234375 Z M 2.515625 3.078125 C 2.515625 5.585938 4.375 6.84375 8.09375 6.84375 C 12.882812 6.84375 15.28125 5.316406 15.28125 2.265625 C 15.28125 1.171875 14.90625 0.378906 14.15625 -0.109375 C 13.40625 -0.609375 12.191406 -0.859375 10.515625 -0.859375 L 7.53125 -0.859375 C 4.1875 -0.859375 2.515625 0.453125 2.515625 3.078125 Z M 3.90625 -12.546875 C 3.90625 -11.140625 4.332031 -10.046875 5.1875 -9.265625 C 6.039062 -8.484375 7.1875 -8.09375 8.625 -8.09375 C 10.144531 -8.09375 11.304688 -8.476562 12.109375 -9.25 C 12.921875 -10.019531 13.328125 -11.140625 13.328125 -12.609375 C 13.328125 -14.160156 12.910156 -15.320312 12.078125 -16.09375 C 11.242188 -16.875 10.082031 -17.265625 8.59375 -17.265625 C 7.132812 -17.265625 5.988281 -16.847656 5.15625 -16.015625 C 4.320312 -15.191406 3.90625 -14.035156 3.90625 -12.546875 Z M 3.90625 -12.546875 "/></g></g></g><g fill="#3a3d41" fill-opacity="1"><g transform="translate(587.427262, 361.183902)"><g/></g></g><g fill="#3a3d41" fill-opacity="1"><g transform="translate(194.308151, 409.152015)"><g><path d="M 14.125 0 L 13.703125 -2.890625 L 13.5625 -2.890625 C 12.644531 -1.710938 11.703125 -0.878906 10.734375 -0.390625 C 9.773438 0.0859375 8.632812 0.328125 7.3125 0.328125 C 5.519531 0.328125 4.125 -0.128906 3.125 -1.046875 C 2.132812 -1.960938 1.640625 -3.226562 1.640625 -4.84375 C 1.640625 -6.625 2.378906 -8.003906 3.859375 -8.984375 C 5.347656 -9.972656 7.492188 -10.492188 10.296875 -10.546875 L 13.765625 -10.65625 L 13.765625 -11.859375 C 13.765625 -13.585938 13.410156 -14.894531 12.703125 -15.78125 C 12.003906 -16.664062 10.875 -17.109375 9.3125 -17.109375 C 7.625 -17.109375 5.875 -16.640625 4.0625 -15.703125 L 3.4375 -17.140625 C 5.4375 -18.078125 7.414062 -18.546875 9.375 -18.546875 C 11.375 -18.546875 12.867188 -18.023438 13.859375 -16.984375 C 14.847656 -15.941406 15.34375 -14.320312 15.34375 -12.125 L 15.34375 0 Z M 7.40625 -1.171875 C 9.351562 -1.171875 10.890625 -1.726562 12.015625 -2.84375 C 13.140625 -3.957031 13.703125 -5.503906 13.703125 -7.484375 L 13.703125 -9.28125 L 10.515625 -9.140625 C 7.953125 -9.015625 6.125 -8.613281 5.03125 -7.9375 C 3.945312 -7.257812 3.40625 -6.207031 3.40625 -4.78125 C 3.40625 -3.632812 3.753906 -2.742188 4.453125 -2.109375 C 5.148438 -1.484375 6.132812 -1.171875 7.40625 -1.171875 Z M 7.40625 -1.171875 "/></g></g></g><g fill="#3a3d41" fill-opacity="1"><g transform="translate(212.498791, 409.152015)"><g><path d="M 15.765625 0 L 15.765625 -11.828125 C 15.765625 -13.660156 15.378906 -14.992188 14.609375 -15.828125 C 13.835938 -16.660156 12.640625 -17.078125 11.015625 -17.078125 C 8.835938 -17.078125 7.242188 -16.523438 6.234375 -15.421875 C 5.222656 -14.316406 4.71875 -12.53125 4.71875 -10.0625 L 4.71875 0 L 3.046875 0 L 3.046875 -18.234375 L 4.453125 -18.234375 L 4.78125 -15.734375 L 4.875 -15.734375 C 6.0625 -17.628906 8.171875 -18.578125 11.203125 -18.578125 C 15.335938 -18.578125 17.40625 -16.359375 17.40625 -11.921875 L 17.40625 0 Z M 15.765625 0 "/></g></g></g><g fill="#3a3d41" fill-opacity="1"><g transform="translate(232.75159, 409.152015)"><g><path d="M 9.71875 -18.578125 C 11.039062 -18.578125 12.179688 -18.335938 13.140625 -17.859375 C 14.109375 -17.378906 14.972656 -16.554688 15.734375 -15.390625 L 15.828125 -15.390625 C 15.765625 -16.796875 15.734375 -18.175781 15.734375 -19.53125 L 15.734375 -26.09375 L 17.375 -26.09375 L 17.375 0 L 16.28125 0 L 15.859375 -2.78125 L 15.734375 -2.78125 C 14.347656 -0.707031 12.359375 0.328125 9.765625 0.328125 C 7.242188 0.328125 5.316406 -0.453125 3.984375 -2.015625 C 2.660156 -3.578125 2 -5.859375 2 -8.859375 C 2 -12.003906 2.65625 -14.410156 3.96875 -16.078125 C 5.289062 -17.742188 7.207031 -18.578125 9.71875 -18.578125 Z M 9.71875 -17.078125 C 7.726562 -17.078125 6.234375 -16.375 5.234375 -14.96875 C 4.234375 -13.570312 3.734375 -11.546875 3.734375 -8.890625 C 3.734375 -3.722656 5.742188 -1.140625 9.765625 -1.140625 C 11.816406 -1.140625 13.320312 -1.738281 14.28125 -2.9375 C 15.25 -4.132812 15.734375 -6.109375 15.734375 -8.859375 L 15.734375 -9.140625 C 15.734375 -11.953125 15.257812 -13.976562 14.3125 -15.21875 C 13.363281 -16.457031 11.832031 -17.078125 9.71875 -17.078125 Z M 9.71875 -17.078125 "/></g></g></g><g fill="#3a3d41" fill-opacity="1"><g transform="translate(253.188815, 409.152015)"><g/></g></g><g fill="#3a3d41" fill-opacity="1"><g transform="translate(262.108094, 409.152015)"><g><path d="M 9.71875 -18.578125 C 11.039062 -18.578125 12.179688 -18.335938 13.140625 -17.859375 C 14.109375 -17.378906 14.972656 -16.554688 15.734375 -15.390625 L 15.828125 -15.390625 C 15.765625 -16.796875 15.734375 -18.175781 15.734375 -19.53125 L 15.734375 -26.09375 L 17.375 -26.09375 L 17.375 0 L 16.28125 0 L 15.859375 -2.78125 L 15.734375 -2.78125 C 14.347656 -0.707031 12.359375 0.328125 9.765625 0.328125 C 7.242188 0.328125 5.316406 -0.453125 3.984375 -2.015625 C 2.660156 -3.578125 2 -5.859375 2 -8.859375 C 2 -12.003906 2.65625 -14.410156 3.96875 -16.078125 C 5.289062 -17.742188 7.207031 -18.578125 9.71875 -18.578125 Z M 9.71875 -17.078125 C 7.726562 -17.078125 6.234375 -16.375 5.234375 -14.96875 C 4.234375 -13.570312 3.734375 -11.546875 3.734375 -8.890625 C 3.734375 -3.722656 5.742188 -1.140625 9.765625 -1.140625 C 11.816406 -1.140625 13.320312 -1.738281 14.28125 -2.9375 C 15.25 -4.132812 15.734375 -6.109375 15.734375 -8.859375 L 15.734375 -9.140625 C 15.734375 -11.953125 15.257812 -13.976562 14.3125 -15.21875 C 13.363281 -16.457031 11.832031 -17.078125 9.71875 -17.078125 Z M 9.71875 -17.078125 "/></g></g></g><g fill="#3a3d41" fill-opacity="1"><g transform="translate(282.545319, 409.152015)"><g><path d="M 4.71875 0 L 3.046875 0 L 3.046875 -18.234375 L 4.71875 -18.234375 Z M 2.8125 -23.296875 C 2.8125 -24.367188 3.164062 -24.90625 3.875 -24.90625 C 4.21875 -24.90625 4.488281 -24.765625 4.6875 -24.484375 C 4.882812 -24.203125 4.984375 -23.804688 4.984375 -23.296875 C 4.984375 -22.785156 4.882812 -22.382812 4.6875 -22.09375 C 4.488281 -21.8125 4.21875 -21.671875 3.875 -21.671875 C 3.164062 -21.671875 2.8125 -22.210938 2.8125 -23.296875 Z M 2.8125 -23.296875 "/></g></g></g><g fill="#3a3d41" fill-opacity="1"><g transform="translate(290.30778, 409.152015)"><g><path d="M 14.359375 -4.75 C 14.359375 -3.113281 13.734375 -1.859375 12.484375 -0.984375 C 11.242188 -0.109375 9.484375 0.328125 7.203125 0.328125 C 4.773438 0.328125 2.84375 -0.0390625 1.40625 -0.78125 L 1.40625 -2.578125 C 3.238281 -1.660156 5.171875 -1.203125 7.203125 -1.203125 C 9.003906 -1.203125 10.375 -1.5 11.3125 -2.09375 C 12.25 -2.695312 12.71875 -3.5 12.71875 -4.5 C 12.71875 -5.414062 12.34375 -6.1875 11.59375 -6.8125 C 10.851562 -7.4375 9.632812 -8.050781 7.9375 -8.65625 C 6.113281 -9.3125 4.832031 -9.875 4.09375 -10.34375 C 3.351562 -10.820312 2.796875 -11.359375 2.421875 -11.953125 C 2.046875 -12.554688 1.859375 -13.289062 1.859375 -14.15625 C 1.859375 -15.519531 2.429688 -16.597656 3.578125 -17.390625 C 4.722656 -18.179688 6.328125 -18.578125 8.390625 -18.578125 C 10.359375 -18.578125 12.222656 -18.207031 13.984375 -17.46875 L 13.359375 -15.96875 C 11.578125 -16.707031 9.921875 -17.078125 8.390625 -17.078125 C 6.898438 -17.078125 5.71875 -16.828125 4.84375 -16.328125 C 3.96875 -15.835938 3.53125 -15.15625 3.53125 -14.28125 C 3.53125 -13.332031 3.867188 -12.570312 4.546875 -12 C 5.222656 -11.4375 6.546875 -10.800781 8.515625 -10.09375 C 10.160156 -9.5 11.359375 -8.960938 12.109375 -8.484375 C 12.859375 -8.015625 13.421875 -7.476562 13.796875 -6.875 C 14.171875 -6.269531 14.359375 -5.5625 14.359375 -4.75 Z M 14.359375 -4.75 "/></g></g></g><g fill="#3a3d41" fill-opacity="1"><g transform="translate(306.302126, 409.152015)"><g><path d="M 7.859375 -1.140625 C 8.910156 -1.140625 9.828125 -1.226562 10.609375 -1.40625 L 10.609375 -0.0625 C 9.804688 0.195312 8.878906 0.328125 7.828125 0.328125 C 6.222656 0.328125 5.035156 -0.0976562 4.265625 -0.953125 C 3.503906 -1.816406 3.125 -3.171875 3.125 -5.015625 L 3.125 -16.78125 L 0.421875 -16.78125 L 0.421875 -17.765625 L 3.125 -18.515625 L 3.953125 -22.640625 L 4.8125 -22.640625 L 4.8125 -18.234375 L 10.15625 -18.234375 L 10.15625 -16.78125 L 4.8125 -16.78125 L 4.8125 -5.25 C 4.8125 -3.851562 5.054688 -2.816406 5.546875 -2.140625 C 6.035156 -1.472656 6.804688 -1.140625 7.859375 -1.140625 Z M 7.859375 -1.140625 "/></g></g></g><g fill="#3a3d41" fill-opacity="1"><g transform="translate(317.803301, 409.152015)"><g><path d="M 10.234375 -18.578125 C 11.003906 -18.578125 11.832031 -18.5 12.71875 -18.34375 L 12.390625 -16.75 C 11.628906 -16.9375 10.84375 -17.03125 10.03125 -17.03125 C 8.476562 -17.03125 7.203125 -16.367188 6.203125 -15.046875 C 5.210938 -13.734375 4.71875 -12.070312 4.71875 -10.0625 L 4.71875 0 L 3.046875 0 L 3.046875 -18.234375 L 4.453125 -18.234375 L 4.625 -14.9375 L 4.75 -14.9375 C 5.5 -16.28125 6.296875 -17.222656 7.140625 -17.765625 C 7.992188 -18.304688 9.023438 -18.578125 10.234375 -18.578125 Z M 10.234375 -18.578125 "/></g></g></g><g fill="#3a3d41" fill-opacity="1"><g transform="translate(331.165459, 409.152015)"><g><path d="M 4.71875 0 L 3.046875 0 L 3.046875 -18.234375 L 4.71875 -18.234375 Z M 2.8125 -23.296875 C 2.8125 -24.367188 3.164062 -24.90625 3.875 -24.90625 C 4.21875 -24.90625 4.488281 -24.765625 4.6875 -24.484375 C 4.882812 -24.203125 4.984375 -23.804688 4.984375 -23.296875 C 4.984375 -22.785156 4.882812 -22.382812 4.6875 -22.09375 C 4.488281 -21.8125 4.21875 -21.671875 3.875 -21.671875 C 3.164062 -21.671875 2.8125 -22.210938 2.8125 -23.296875 Z M 2.8125 -23.296875 "/></g></g></g><g fill="#3a3d41" fill-opacity="1"><g transform="translate(338.92792, 409.152015)"><g><path d="M 10.75 -18.578125 C 13.300781 -18.578125 15.222656 -17.773438 16.515625 -16.171875 C 17.804688 -14.566406 18.453125 -12.222656 18.453125 -9.140625 C 18.453125 -6.109375 17.769531 -3.769531 16.40625 -2.125 C 15.050781 -0.488281 13.144531 0.328125 10.6875 0.328125 C 9.382812 0.328125 8.210938 0.0625 7.171875 -0.46875 C 6.140625 -1.007812 5.320312 -1.769531 4.71875 -2.75 L 4.5625 -2.75 L 4.09375 0 L 3.046875 0 L 3.046875 -26.09375 L 4.71875 -26.09375 L 4.71875 -19.53125 C 4.71875 -18.550781 4.691406 -17.644531 4.640625 -16.8125 L 4.59375 -15.390625 L 4.71875 -15.390625 C 5.40625 -16.484375 6.238281 -17.285156 7.21875 -17.796875 C 8.195312 -18.316406 9.375 -18.578125 10.75 -18.578125 Z M 10.71875 -17.078125 C 8.570312 -17.078125 7.035156 -16.457031 6.109375 -15.21875 C 5.179688 -13.988281 4.71875 -11.960938 4.71875 -9.140625 L 4.71875 -8.859375 C 4.71875 -6.109375 5.195312 -4.132812 6.15625 -2.9375 C 7.125 -1.738281 8.632812 -1.140625 10.6875 -1.140625 C 12.675781 -1.140625 14.171875 -1.832031 15.171875 -3.21875 C 16.179688 -4.613281 16.6875 -6.597656 16.6875 -9.171875 C 16.6875 -14.441406 14.695312 -17.078125 10.71875 -17.078125 Z M 10.71875 -17.078125 "/></g></g></g><g fill="#3a3d41" fill-opacity="1"><g transform="translate(359.365145, 409.152015)"><g><path d="M 4.5 -18.234375 L 4.5 -6.421875 C 4.5 -4.585938 4.882812 -3.253906 5.65625 -2.421875 C 6.425781 -1.585938 7.617188 -1.171875 9.234375 -1.171875 C 11.410156 -1.171875 13.007812 -1.71875 14.03125 -2.8125 C 15.050781 -3.90625 15.5625 -5.691406 15.5625 -8.171875 L 15.5625 -18.234375 L 17.203125 -18.234375 L 17.203125 0 L 15.796875 0 L 15.5 -2.515625 L 15.390625 -2.515625 C 14.203125 -0.617188 12.097656 0.328125 9.078125 0.328125 C 4.921875 0.328125 2.84375 -1.890625 2.84375 -6.328125 L 2.84375 -18.234375 Z M 4.5 -18.234375 "/></g></g></g><g fill="#3a3d41" fill-opacity="1"><g transform="translate(379.617944, 409.152015)"><g><path d="M 7.859375 -1.140625 C 8.910156 -1.140625 9.828125 -1.226562 10.609375 -1.40625 L 10.609375 -0.0625 C 9.804688 0.195312 8.878906 0.328125 7.828125 0.328125 C 6.222656 0.328125 5.035156 -0.0976562 4.265625 -0.953125 C 3.503906 -1.816406 3.125 -3.171875 3.125 -5.015625 L 3.125 -16.78125 L 0.421875 -16.78125 L 0.421875 -17.765625 L 3.125 -18.515625 L 3.953125 -22.640625 L 4.8125 -22.640625 L 4.8125 -18.234375 L 10.15625 -18.234375 L 10.15625 -16.78125 L 4.8125 -16.78125 L 4.8125 -5.25 C 4.8125 -3.851562 5.054688 -2.816406 5.546875 -2.140625 C 6.035156 -1.472656 6.804688 -1.140625 7.859375 -1.140625 Z M 7.859375 -1.140625 "/></g></g></g><g fill="#3a3d41" fill-opacity="1"><g transform="translate(391.119108, 409.152015)"><g><path d="M 4.71875 0 L 3.046875 0 L 3.046875 -18.234375 L 4.71875 -18.234375 Z M 2.8125 -23.296875 C 2.8125 -24.367188 3.164062 -24.90625 3.875 -24.90625 C 4.21875 -24.90625 4.488281 -24.765625 4.6875 -24.484375 C 4.882812 -24.203125 4.984375 -23.804688 4.984375 -23.296875 C 4.984375 -22.785156 4.882812 -22.382812 4.6875 -22.09375 C 4.488281 -21.8125 4.21875 -21.671875 3.875 -21.671875 C 3.164062 -21.671875 2.8125 -22.210938 2.8125 -23.296875 Z M 2.8125 -23.296875 "/></g></g></g><g fill="#3a3d41" fill-opacity="1"><g transform="translate(398.881569, 409.152015)"><g><path d="M 18.125 -9.140625 C 18.125 -6.160156 17.398438 -3.835938 15.953125 -2.171875 C 14.515625 -0.503906 12.53125 0.328125 10 0.328125 C 8.394531 0.328125 6.984375 -0.0546875 5.765625 -0.828125 C 4.546875 -1.597656 3.613281 -2.703125 2.96875 -4.140625 C 2.320312 -5.585938 2 -7.253906 2 -9.140625 C 2 -12.109375 2.71875 -14.421875 4.15625 -16.078125 C 5.601562 -17.742188 7.582031 -18.578125 10.09375 -18.578125 C 12.59375 -18.578125 14.554688 -17.734375 15.984375 -16.046875 C 17.410156 -14.367188 18.125 -12.066406 18.125 -9.140625 Z M 3.734375 -9.140625 C 3.734375 -6.640625 4.285156 -4.6875 5.390625 -3.28125 C 6.492188 -1.875 8.050781 -1.171875 10.0625 -1.171875 C 12.070312 -1.171875 13.628906 -1.875 14.734375 -3.28125 C 15.835938 -4.6875 16.390625 -6.640625 16.390625 -9.140625 C 16.390625 -11.648438 15.832031 -13.597656 14.71875 -14.984375 C 13.601562 -16.378906 12.039062 -17.078125 10.03125 -17.078125 C 8.019531 -17.078125 6.46875 -16.382812 5.375 -15 C 4.28125 -13.613281 3.734375 -11.660156 3.734375 -9.140625 Z M 3.734375 -9.140625 "/></g></g></g><g fill="#3a3d41" fill-opacity="1"><g transform="translate(419.000243, 409.152015)"><g><path d="M 15.765625 0 L 15.765625 -11.828125 C 15.765625 -13.660156 15.378906 -14.992188 14.609375 -15.828125 C 13.835938 -16.660156 12.640625 -17.078125 11.015625 -17.078125 C 8.835938 -17.078125 7.242188 -16.523438 6.234375 -15.421875 C 5.222656 -14.316406 4.71875 -12.53125 4.71875 -10.0625 L 4.71875 0 L 3.046875 0 L 3.046875 -18.234375 L 4.453125 -18.234375 L 4.78125 -15.734375 L 4.875 -15.734375 C 6.0625 -17.628906 8.171875 -18.578125 11.203125 -18.578125 C 15.335938 -18.578125 17.40625 -16.359375 17.40625 -11.921875 L 17.40625 0 Z M 15.765625 0 "/></g></g></g><g fill="#3a3d41" fill-opacity="1"><g transform="translate(439.253041, 409.152015)"><g/></g></g><g fill="#3a3d41" fill-opacity="1"><g transform="translate(448.17232, 409.152015)"><g><path d="M 15.765625 0 L 15.765625 -11.828125 C 15.765625 -13.660156 15.378906 -14.992188 14.609375 -15.828125 C 13.835938 -16.660156 12.640625 -17.078125 11.015625 -17.078125 C 8.835938 -17.078125 7.242188 -16.523438 6.234375 -15.421875 C 5.222656 -14.316406 4.71875 -12.53125 4.71875 -10.0625 L 4.71875 0 L 3.046875 0 L 3.046875 -18.234375 L 4.453125 -18.234375 L 4.78125 -15.734375 L 4.875 -15.734375 C 6.0625 -17.628906 8.171875 -18.578125 11.203125 -18.578125 C 15.335938 -18.578125 17.40625 -16.359375 17.40625 -11.921875 L 17.40625 0 Z M 15.765625 0 "/></g></g></g><g fill="#3a3d41" fill-opacity="1"><g transform="translate(468.425119, 409.152015)"><g><path d="M 10.40625 0.328125 C 7.757812 0.328125 5.695312 -0.484375 4.21875 -2.109375 C 2.738281 -3.742188 2 -6.03125 2 -8.96875 C 2 -11.875 2.710938 -14.203125 4.140625 -15.953125 C 5.566406 -17.703125 7.492188 -18.578125 9.921875 -18.578125 C 12.066406 -18.578125 13.757812 -17.828125 15 -16.328125 C 16.25 -14.835938 16.875 -12.804688 16.875 -10.234375 L 16.875 -8.890625 L 3.734375 -8.890625 C 3.753906 -6.378906 4.335938 -4.460938 5.484375 -3.140625 C 6.628906 -1.828125 8.269531 -1.171875 10.40625 -1.171875 C 11.445312 -1.171875 12.363281 -1.242188 13.15625 -1.390625 C 13.945312 -1.535156 14.945312 -1.847656 16.15625 -2.328125 L 16.15625 -0.828125 C 15.125 -0.378906 14.171875 -0.078125 13.296875 0.078125 C 12.421875 0.242188 11.457031 0.328125 10.40625 0.328125 Z M 9.921875 -17.109375 C 8.171875 -17.109375 6.765625 -16.53125 5.703125 -15.375 C 4.640625 -14.21875 4.019531 -12.546875 3.84375 -10.359375 L 15.109375 -10.359375 C 15.109375 -12.472656 14.648438 -14.125 13.734375 -15.3125 C 12.816406 -16.507812 11.546875 -17.109375 9.921875 -17.109375 Z M 9.921875 -17.109375 "/></g></g></g><g fill="#3a3d41" fill-opacity="1"><g transform="translate(487.26961, 409.152015)"><g><path d="M 7.859375 -1.140625 C 8.910156 -1.140625 9.828125 -1.226562 10.609375 -1.40625 L 10.609375 -0.0625 C 9.804688 0.195312 8.878906 0.328125 7.828125 0.328125 C 6.222656 0.328125 5.035156 -0.0976562 4.265625 -0.953125 C 3.503906 -1.816406 3.125 -3.171875 3.125 -5.015625 L 3.125 -16.78125 L 0.421875 -16.78125 L 0.421875 -17.765625 L 3.125 -18.515625 L 3.953125 -22.640625 L 4.8125 -22.640625 L 4.8125 -18.234375 L 10.15625 -18.234375 L 10.15625 -16.78125 L 4.8125 -16.78125 L 4.8125 -5.25 C 4.8125 -3.851562 5.054688 -2.816406 5.546875 -2.140625 C 6.035156 -1.472656 6.804688 -1.140625 7.859375 -1.140625 Z M 7.859375 -1.140625 "/></g></g></g><g fill="#3a3d41" fill-opacity="1"><g transform="translate(498.770796, 409.152015)"><g><path d="M 17.625 0 L 13.640625 -12.1875 C 13.378906 -13.019531 13.046875 -14.234375 12.640625 -15.828125 L 12.546875 -15.828125 L 12.1875 -14.59375 L 11.4375 -12.15625 L 7.375 0 L 5.734375 0 L 0.515625 -18.234375 L 2.296875 -18.234375 L 5.21875 -7.65625 C 5.894531 -5.039062 6.34375 -3.117188 6.5625 -1.890625 L 6.65625 -1.890625 C 7.3125 -4.503906 7.789062 -6.242188 8.09375 -7.109375 L 11.859375 -18.234375 L 13.359375 -18.234375 L 16.9375 -7.140625 C 17.738281 -4.515625 18.226562 -2.773438 18.40625 -1.921875 L 18.515625 -1.921875 C 18.597656 -2.648438 19.046875 -4.597656 19.859375 -7.765625 L 22.640625 -18.234375 L 24.3125 -18.234375 L 19.375 0 Z M 17.625 0 "/></g></g></g><g fill="#3a3d41" fill-opacity="1"><g transform="translate(523.600588, 409.152015)"><g><path d="M 18.125 -9.140625 C 18.125 -6.160156 17.398438 -3.835938 15.953125 -2.171875 C 14.515625 -0.503906 12.53125 0.328125 10 0.328125 C 8.394531 0.328125 6.984375 -0.0546875 5.765625 -0.828125 C 4.546875 -1.597656 3.613281 -2.703125 2.96875 -4.140625 C 2.320312 -5.585938 2 -7.253906 2 -9.140625 C 2 -12.109375 2.71875 -14.421875 4.15625 -16.078125 C 5.601562 -17.742188 7.582031 -18.578125 10.09375 -18.578125 C 12.59375 -18.578125 14.554688 -17.734375 15.984375 -16.046875 C 17.410156 -14.367188 18.125 -12.066406 18.125 -9.140625 Z M 3.734375 -9.140625 C 3.734375 -6.640625 4.285156 -4.6875 5.390625 -3.28125 C 6.492188 -1.875 8.050781 -1.171875 10.0625 -1.171875 C 12.070312 -1.171875 13.628906 -1.875 14.734375 -3.28125 C 15.835938 -4.6875 16.390625 -6.640625 16.390625 -9.140625 C 16.390625 -11.648438 15.832031 -13.597656 14.71875 -14.984375 C 13.601562 -16.378906 12.039062 -17.078125 10.03125 -17.078125 C 8.019531 -17.078125 6.46875 -16.382812 5.375 -15 C 4.28125 -13.613281 3.734375 -11.660156 3.734375 -9.140625 Z M 3.734375 -9.140625 "/></g></g></g><g fill="#3a3d41" fill-opacity="1"><g transform="translate(543.719262, 409.152015)"><g><path d="M 10.234375 -18.578125 C 11.003906 -18.578125 11.832031 -18.5 12.71875 -18.34375 L 12.390625 -16.75 C 11.628906 -16.9375 10.84375 -17.03125 10.03125 -17.03125 C 8.476562 -17.03125 7.203125 -16.367188 6.203125 -15.046875 C 5.210938 -13.734375 4.71875 -12.070312 4.71875 -10.0625 L 4.71875 0 L 3.046875 0 L 3.046875 -18.234375 L 4.453125 -18.234375 L 4.625 -14.9375 L 4.75 -14.9375 C 5.5 -16.28125 6.296875 -17.222656 7.140625 -17.765625 C 7.992188 -18.304688 9.023438 -18.578125 10.234375 -18.578125 Z M 10.234375 -18.578125 "/></g></g></g><g fill="#3a3d41" fill-opacity="1"><g transform="translate(557.081431, 409.152015)"><g><path d="M 4.671875 -8 L 13.984375 -18.234375 L 16 -18.234375 L 8.828125 -10.453125 L 16.625 0 L 14.625 0 L 7.703125 -9.203125 L 4.71875 -6.484375 L 4.71875 0 L 3.046875 0 L 3.046875 -26.09375 L 4.71875 -26.09375 L 4.71875 -13.015625 L 4.59375 -8 Z M 4.671875 -8 "/></g></g></g><g fill="#3a3d41" fill-opacity="1"><g transform="translate(181.71771, 470.917775)"><g><path d="M 21.796875 -3.578125 C 22.242188 -3.578125 22.46875 -2.988281 22.46875 -1.8125 C 22.46875 -0.601562 22.242188 0 21.796875 0 L 21.09375 0 C 18.351562 0 16.46875 -0.789062 15.4375 -2.375 C 14.632812 -2 13.765625 -1.691406 12.828125 -1.453125 C 11.890625 -1.222656 10.984375 -1.109375 10.109375 -1.109375 C 8.523438 -1.109375 7.0625 -1.46875 5.71875 -2.1875 C 4.382812 -2.914062 3.320312 -3.910156 2.53125 -5.171875 C 1.738281 -6.429688 1.34375 -7.8125 1.34375 -9.3125 C 1.34375 -10.820312 1.738281 -12.203125 2.53125 -13.453125 C 3.320312 -14.703125 4.382812 -15.695312 5.71875 -16.4375 C 7.0625 -17.175781 8.515625 -17.546875 10.078125 -17.546875 L 14.390625 -17.546875 L 14.390625 -18.390625 L 18.25 -18.390625 L 18.25 -6.796875 C 18.25 -5.609375 18.472656 -4.773438 18.921875 -4.296875 C 19.367188 -3.816406 20.191406 -3.578125 21.390625 -3.578125 Z M 10.21875 -4.71875 C 11.59375 -4.71875 13 -5.117188 14.4375 -5.921875 C 14.40625 -6.097656 14.390625 -6.378906 14.390625 -6.765625 L 14.390625 -13.96875 L 10.078125 -13.96875 C 9.179688 -13.96875 8.359375 -13.757812 7.609375 -13.34375 C 6.867188 -12.925781 6.28125 -12.359375 5.84375 -11.640625 C 5.40625 -10.929688 5.1875 -10.15625 5.1875 -9.3125 C 5.1875 -8.457031 5.398438 -7.679688 5.828125 -6.984375 C 6.253906 -6.296875 6.847656 -5.742188 7.609375 -5.328125 C 8.378906 -4.921875 9.25 -4.71875 10.21875 -4.71875 Z M 7.078125 -19.96875 C 6.492188 -19.96875 6.003906 -20.164062 5.609375 -20.5625 C 5.222656 -20.96875 5.03125 -21.472656 5.03125 -22.078125 C 5.03125 -22.679688 5.222656 -23.179688 5.609375 -23.578125 C 6.003906 -23.984375 6.492188 -24.1875 7.078125 -24.1875 C 7.660156 -24.1875 8.144531 -23.988281 8.53125 -23.59375 C 8.925781 -23.207031 9.125 -22.703125 9.125 -22.078125 C 9.125 -21.472656 8.925781 -20.96875 8.53125 -20.5625 C 8.144531 -20.164062 7.660156 -19.96875 7.078125 -19.96875 Z M 12.375 -19.96875 C 11.789062 -19.96875 11.300781 -20.164062 10.90625 -20.5625 C 10.519531 -20.96875 10.328125 -21.472656 10.328125 -22.078125 C 10.328125 -22.679688 10.519531 -23.179688 10.90625 -23.578125 C 11.300781 -23.984375 11.789062 -24.1875 12.375 -24.1875 C 12.945312 -24.1875 13.425781 -23.988281 13.8125 -23.59375 C 14.207031 -23.207031 14.40625 -22.703125 14.40625 -22.078125 C 14.40625 -21.472656 14.207031 -20.96875 13.8125 -20.5625 C 13.425781 -20.164062 12.945312 -19.96875 12.375 -19.96875 Z M 12.375 -19.96875 "/></g></g></g><g fill="#3a3d41" fill-opacity="1"><g transform="translate(203.510363, 470.917775)"><g><path d="M 22.234375 -3.578125 C 22.679688 -3.578125 22.90625 -2.988281 22.90625 -1.8125 C 22.90625 -0.601562 22.679688 0 22.234375 0 L 0 0 C -0.445312 0 -0.671875 -0.601562 -0.671875 -1.8125 C -0.671875 -2.988281 -0.445312 -3.578125 0 -3.578125 L 13.296875 -3.578125 L 13.296875 -8.671875 C 13.296875 -10.367188 12.753906 -11.71875 11.671875 -12.71875 C 10.585938 -13.726562 9.140625 -14.234375 7.328125 -14.234375 C 5.367188 -14.234375 3.484375 -13.695312 1.671875 -12.625 L 0.03125 -15.734375 C 2.21875 -17.117188 4.648438 -17.8125 7.328125 -17.8125 C 9.222656 -17.8125 10.910156 -17.421875 12.390625 -16.640625 C 13.878906 -15.859375 15.039062 -14.773438 15.875 -13.390625 C 16.71875 -12.003906 17.140625 -10.429688 17.140625 -8.671875 L 17.140625 -3.578125 Z M 7.578125 -20.59375 C 6.929688 -20.59375 6.394531 -20.816406 5.96875 -21.265625 C 5.550781 -21.710938 5.34375 -22.269531 5.34375 -22.9375 C 5.34375 -23.613281 5.550781 -24.164062 5.96875 -24.59375 C 6.394531 -25.03125 6.929688 -25.25 7.578125 -25.25 C 8.222656 -25.25 8.757812 -25.03125 9.1875 -24.59375 C 9.613281 -24.164062 9.828125 -23.613281 9.828125 -22.9375 C 9.828125 -22.269531 9.613281 -21.710938 9.1875 -21.265625 C 8.757812 -20.816406 8.222656 -20.59375 7.578125 -20.59375 Z M 7.578125 -20.59375 "/></g></g></g><g fill="#3a3d41" fill-opacity="1"><g transform="translate(225.738195, 470.917775)"><g><path d="M 23.609375 -16.3125 L 27.453125 -16.3125 L 27.453125 -6.765625 C 27.453125 -4.484375 26.921875 -2.785156 25.859375 -1.671875 C 24.804688 -0.554688 23.160156 0 20.921875 0 C 18.890625 0 17.273438 -0.476562 16.078125 -1.4375 C 15.023438 -0.476562 13.460938 0 11.390625 0 C 9.359375 0 7.738281 -0.476562 6.53125 -1.4375 C 5.4375 -0.476562 3.816406 0 1.671875 0 L 0 0 C -0.445312 0 -0.671875 -0.601562 -0.671875 -1.8125 C -0.671875 -2.988281 -0.445312 -3.578125 0 -3.578125 L 1.375 -3.578125 C 2.582031 -3.578125 3.40625 -3.816406 3.84375 -4.296875 C 4.289062 -4.773438 4.515625 -5.609375 4.515625 -6.796875 L 4.515625 -12.953125 L 8.375 -12.953125 L 8.375 -6.765625 C 8.375 -5.785156 8.269531 -4.90625 8.0625 -4.125 C 8.71875 -3.757812 9.613281 -3.578125 10.75 -3.578125 C 12.039062 -3.578125 12.914062 -3.8125 13.375 -4.28125 C 13.832031 -4.75 14.0625 -5.585938 14.0625 -6.796875 L 14.0625 -14.625 L 17.921875 -14.625 L 17.921875 -6.765625 C 17.921875 -5.785156 17.816406 -4.90625 17.609375 -4.125 C 18.253906 -3.757812 19.148438 -3.578125 20.296875 -3.578125 C 21.585938 -3.578125 22.460938 -3.8125 22.921875 -4.28125 C 23.378906 -4.75 23.609375 -5.585938 23.609375 -6.796875 Z M 23.609375 -16.3125 "/></g></g></g><g fill="#3a3d41" fill-opacity="1"><g transform="translate(255.196765, 470.917775)"><g><path d="M 6.859375 0 L 3.015625 0 L 3.015625 -24.8125 L 6.859375 -24.8125 Z M 6.859375 0 "/></g></g></g><g fill="#3a3d41" fill-opacity="1"><g transform="translate(265.072084, 470.917775)"><g><path d="M -0.671875 3.984375 C 0.710938 4.078125 1.710938 3.816406 2.328125 3.203125 C 2.941406 2.585938 3.25 1.539062 3.25 0.0625 L 3.25 -16.28125 L 7.09375 -16.28125 L 7.09375 0.0625 C 7.09375 2.40625 6.457031 4.234375 5.1875 5.546875 C 3.914062 6.867188 2.164062 7.550781 -0.0625 7.59375 Z M -0.671875 3.984375 "/></g></g></g><g fill="#3a3d41" fill-opacity="1"><g transform="translate(274.177464, 470.917775)"><g/></g></g><g fill="#3a3d41" fill-opacity="1"><g transform="translate(283.215893, 470.917775)"><g><path d="M 25.421875 -3.578125 C 25.859375 -3.578125 26.078125 -2.988281 26.078125 -1.8125 C 26.078125 -0.601562 25.859375 0 25.421875 0 L 19.5625 0 C 17.550781 0 15.648438 -0.289062 13.859375 -0.875 C 12.960938 -0.582031 12.070312 -0.359375 11.1875 -0.203125 C 9.84375 0.0664062 8.757812 0.335938 7.9375 0.609375 C 7.113281 0.890625 6.445312 1.296875 5.9375 1.828125 C 5.4375 2.367188 5.1875 3.109375 5.1875 4.046875 C 5.1875 5.429688 5.753906 6.546875 6.890625 7.390625 C 8.035156 8.242188 9.519531 8.671875 11.34375 8.671875 C 12.28125 8.671875 13.269531 8.550781 14.3125 8.3125 C 15.351562 8.082031 16.226562 7.78125 16.9375 7.40625 L 18.8125 10.578125 C 17.90625 11.066406 16.742188 11.46875 15.328125 11.78125 C 13.921875 12.09375 12.59375 12.25 11.34375 12.25 C 9.445312 12.25 7.738281 11.894531 6.21875 11.1875 C 4.707031 10.488281 3.515625 9.515625 2.640625 8.265625 C 1.773438 7.015625 1.34375 5.609375 1.34375 4.046875 C 1.34375 1.835938 2.085938 0.164062 3.578125 -0.96875 C 5.078125 -2.101562 6.929688 -2.929688 9.140625 -3.453125 C 6.773438 -5.367188 5.164062 -7.859375 4.3125 -10.921875 L 7.5625 -16.515625 C 9.4375 -17.066406 11.390625 -17.34375 13.421875 -17.34375 C 16.421875 -17.34375 18.734375 -16.75 20.359375 -15.5625 C 21.984375 -14.382812 22.796875 -12.710938 22.796875 -10.546875 C 22.796875 -9.253906 22.476562 -8.007812 21.84375 -6.8125 C 21.207031 -5.613281 20.300781 -4.535156 19.125 -3.578125 Z M 7.90625 -12.6875 C 8.300781 -10.851562 9.019531 -9.253906 10.0625 -7.890625 C 11.101562 -6.535156 12.40625 -5.488281 13.96875 -4.75 C 15.570312 -5.425781 16.800781 -6.265625 17.65625 -7.265625 C 18.519531 -8.265625 18.953125 -9.359375 18.953125 -10.546875 C 18.953125 -11.640625 18.523438 -12.445312 17.671875 -12.96875 C 16.828125 -13.5 15.410156 -13.765625 13.421875 -13.765625 C 12.378906 -13.765625 11.429688 -13.679688 10.578125 -13.515625 C 9.734375 -13.347656 8.84375 -13.070312 7.90625 -12.6875 Z M 7.90625 -12.6875 "/></g></g></g><g fill="#3a3d41" fill-opacity="1"><g transform="translate(308.623916, 470.917775)"><g><path d="M 3.546875 -16.28125 L 7.40625 -16.28125 L 7.40625 0 L 0 0 C -0.445312 0 -0.671875 -0.601562 -0.671875 -1.8125 C -0.671875 -2.988281 -0.445312 -3.578125 0 -3.578125 L 3.546875 -3.578125 Z M 3.078125 7.03125 C 2.492188 7.03125 2.003906 6.828125 1.609375 6.421875 C 1.222656 6.023438 1.03125 5.523438 1.03125 4.921875 C 1.03125 4.316406 1.222656 3.8125 1.609375 3.40625 C 2.003906 3.007812 2.492188 2.8125 3.078125 2.8125 C 3.660156 2.8125 4.144531 3.003906 4.53125 3.390625 C 4.925781 3.785156 5.125 4.296875 5.125 4.921875 C 5.125 5.523438 4.925781 6.023438 4.53125 6.421875 C 4.144531 6.828125 3.660156 7.03125 3.078125 7.03125 Z M 8.375 7.03125 C 7.789062 7.03125 7.300781 6.828125 6.90625 6.421875 C 6.519531 6.023438 6.328125 5.523438 6.328125 4.921875 C 6.328125 4.316406 6.519531 3.8125 6.90625 3.40625 C 7.300781 3.007812 7.789062 2.8125 8.375 2.8125 C 8.945312 2.8125 9.425781 3.003906 9.8125 3.390625 C 10.207031 3.785156 10.40625 4.296875 10.40625 4.921875 C 10.40625 5.523438 10.207031 6.023438 9.8125 6.421875 C 9.425781 6.828125 8.945312 7.03125 8.375 7.03125 Z M 8.375 7.03125 "/></g></g></g><g fill="#3a3d41" fill-opacity="1"><g transform="translate(318.365334, 470.917775)"><g><path d="M -0.671875 3.984375 C 0.710938 4.078125 1.710938 3.816406 2.328125 3.203125 C 2.941406 2.585938 3.25 1.539062 3.25 0.0625 L 3.25 -16.28125 L 7.09375 -16.28125 L 7.09375 0.0625 C 7.09375 2.40625 6.457031 4.234375 5.1875 5.546875 C 3.914062 6.867188 2.164062 7.550781 -0.0625 7.59375 Z M 5.578125 -18.59375 C 4.929688 -18.59375 4.394531 -18.816406 3.96875 -19.265625 C 3.550781 -19.710938 3.34375 -20.269531 3.34375 -20.9375 C 3.34375 -21.613281 3.550781 -22.164062 3.96875 -22.59375 C 4.394531 -23.03125 4.929688 -23.25 5.578125 -23.25 C 6.222656 -23.25 6.757812 -23.03125 7.1875 -22.59375 C 7.613281 -22.164062 7.828125 -21.613281 7.828125 -20.9375 C 7.828125 -20.269531 7.613281 -19.710938 7.1875 -19.265625 C 6.757812 -18.816406 6.222656 -18.59375 5.578125 -18.59375 Z M 5.578125 -18.59375 "/></g></g></g><g fill="#3a3d41" fill-opacity="1"><g transform="translate(327.470713, 470.917775)"><g><path d="M 22.0625 -3.578125 C 22.507812 -3.578125 22.734375 -2.988281 22.734375 -1.8125 C 22.734375 -0.601562 22.507812 0 22.0625 0 L 18.1875 0 L 18.1875 0.0625 C 18.1875 2.457031 17.535156 4.3125 16.234375 5.625 C 14.941406 6.9375 13.171875 7.59375 10.921875 7.59375 L 4.390625 7.59375 L 4.390625 4.015625 L 10.875 4.015625 C 12.082031 4.015625 12.957031 3.703125 13.5 3.078125 C 14.050781 2.453125 14.328125 1.445312 14.328125 0.0625 L 14.328125 0 L 10.078125 0 C 8.359375 0 6.832031 -0.382812 5.5 -1.15625 C 4.175781 -1.925781 3.148438 -2.957031 2.421875 -4.25 C 1.703125 -5.539062 1.34375 -6.96875 1.34375 -8.53125 C 1.34375 -10.125 1.71875 -11.582031 2.46875 -12.90625 C 3.226562 -14.238281 4.304688 -15.296875 5.703125 -16.078125 C 7.097656 -16.859375 8.722656 -17.25 10.578125 -17.25 C 11.804688 -17.25 13.109375 -17.078125 14.484375 -16.734375 C 15.859375 -16.398438 17.09375 -15.945312 18.1875 -15.375 L 18.1875 -3.578125 Z M 14.328125 -3.578125 L 14.328125 -13.03125 C 13.054688 -13.445312 11.816406 -13.65625 10.609375 -13.65625 C 8.941406 -13.65625 7.617188 -13.1875 6.640625 -12.25 C 5.671875 -11.3125 5.1875 -10.070312 5.1875 -8.53125 C 5.1875 -7.0625 5.640625 -5.867188 6.546875 -4.953125 C 7.453125 -4.035156 8.628906 -3.578125 10.078125 -3.578125 Z M 14.328125 -3.578125 "/></g></g></g><g fill="#3a3d41" fill-opacity="1"><g transform="translate(349.531178, 470.917775)"><g><path d="M 3.546875 -16.28125 L 7.40625 -16.28125 L 7.40625 0 L 0 0 C -0.445312 0 -0.671875 -0.601562 -0.671875 -1.8125 C -0.671875 -2.988281 -0.445312 -3.578125 0 -3.578125 L 3.546875 -3.578125 Z M 3.078125 -18.96875 C 2.492188 -18.96875 2.003906 -19.164062 1.609375 -19.5625 C 1.222656 -19.96875 1.03125 -20.472656 1.03125 -21.078125 C 1.03125 -21.679688 1.222656 -22.179688 1.609375 -22.578125 C 2.003906 -22.984375 2.492188 -23.1875 3.078125 -23.1875 C 3.660156 -23.1875 4.144531 -22.988281 4.53125 -22.59375 C 4.925781 -22.207031 5.125 -21.703125 5.125 -21.078125 C 5.125 -20.472656 4.925781 -19.96875 4.53125 -19.5625 C 4.144531 -19.164062 3.660156 -18.96875 3.078125 -18.96875 Z M 8.375 -18.96875 C 7.789062 -18.96875 7.300781 -19.164062 6.90625 -19.5625 C 6.519531 -19.96875 6.328125 -20.472656 6.328125 -21.078125 C 6.328125 -21.679688 6.519531 -22.179688 6.90625 -22.578125 C 7.300781 -22.984375 7.789062 -23.1875 8.375 -23.1875 C 8.945312 -23.1875 9.425781 -22.988281 9.8125 -22.59375 C 10.207031 -22.207031 10.40625 -21.703125 10.40625 -21.078125 C 10.40625 -20.472656 10.207031 -19.96875 9.8125 -19.5625 C 9.425781 -19.164062 8.945312 -18.96875 8.375 -18.96875 Z M 8.375 -18.96875 "/></g></g></g><g fill="#3a3d41" fill-opacity="1"><g transform="translate(359.272596, 470.917775)"><g><path d="M 10.578125 -17.25 C 11.804688 -17.25 13.109375 -17.078125 14.484375 -16.734375 C 15.859375 -16.398438 17.09375 -15.945312 18.1875 -15.375 L 18.1875 0.0625 C 18.1875 2.457031 17.535156 4.3125 16.234375 5.625 C 14.941406 6.9375 13.171875 7.59375 10.921875 7.59375 L 4.390625 7.59375 L 4.390625 4.015625 L 10.875 4.015625 C 12.082031 4.015625 12.957031 3.703125 13.5 3.078125 C 14.050781 2.453125 14.328125 1.445312 14.328125 0.0625 L 14.328125 0 L 10.078125 0 C 8.359375 0 6.832031 -0.382812 5.5 -1.15625 C 4.175781 -1.925781 3.148438 -2.957031 2.421875 -4.25 C 1.703125 -5.539062 1.34375 -6.96875 1.34375 -8.53125 C 1.34375 -10.125 1.71875 -11.582031 2.46875 -12.90625 C 3.226562 -14.238281 4.304688 -15.296875 5.703125 -16.078125 C 7.097656 -16.859375 8.722656 -17.25 10.578125 -17.25 Z M 14.328125 -3.578125 L 14.328125 -13.03125 C 13.054688 -13.445312 11.816406 -13.65625 10.609375 -13.65625 C 8.941406 -13.65625 7.617188 -13.1875 6.640625 -12.25 C 5.671875 -11.3125 5.1875 -10.070312 5.1875 -8.53125 C 5.1875 -7.0625 5.640625 -5.867188 6.546875 -4.953125 C 7.453125 -4.035156 8.628906 -3.578125 10.078125 -3.578125 Z M 14.328125 -3.578125 "/></g></g></g><g fill="#3a3d41" fill-opacity="1"><g transform="translate(379.458411, 470.917775)"><g/></g></g><g fill="#3a3d41" fill-opacity="1"><g transform="translate(388.496849, 470.917775)"><g><path d="M 32.75 -3.578125 C 33.195312 -3.578125 33.421875 -2.988281 33.421875 -1.8125 C 33.421875 -0.601562 33.195312 0 32.75 0 L 28.734375 0 C 28.328125 2.988281 27.007812 5.363281 24.78125 7.125 C 22.550781 8.894531 19.320312 9.78125 15.09375 9.78125 C 10.382812 9.78125 6.914062 8.691406 4.6875 6.515625 C 2.457031 4.335938 1.34375 1.453125 1.34375 -2.140625 C 1.34375 -3.992188 1.644531 -5.9375 2.25 -7.96875 L 5.765625 -6.265625 C 5.378906 -4.804688 5.1875 -3.398438 5.1875 -2.046875 C 5.1875 0.609375 5.957031 2.644531 7.5 4.0625 C 9.039062 5.476562 11.570312 6.1875 15.09375 6.1875 C 18.132812 6.1875 20.429688 5.65625 21.984375 4.59375 C 23.535156 3.539062 24.488281 2.007812 24.84375 0 L 21.296875 0 C 19.617188 0 18.070312 -0.382812 16.65625 -1.15625 C 15.238281 -1.925781 14.109375 -2.96875 13.265625 -4.28125 C 12.429688 -5.601562 12.015625 -7.054688 12.015625 -8.640625 C 12.015625 -10.222656 12.429688 -11.671875 13.265625 -12.984375 C 14.109375 -14.304688 15.238281 -15.351562 16.65625 -16.125 C 18.070312 -16.894531 19.617188 -17.28125 21.296875 -17.28125 C 22.503906 -17.28125 23.773438 -17.066406 25.109375 -16.640625 C 26.453125 -16.210938 27.679688 -15.632812 28.796875 -14.90625 L 28.859375 -14.90625 L 28.859375 -3.578125 Z M 15.875 -8.640625 C 15.875 -7.722656 16.109375 -6.878906 16.578125 -6.109375 C 17.046875 -5.335938 17.703125 -4.722656 18.546875 -4.265625 C 19.398438 -3.804688 20.347656 -3.578125 21.390625 -3.578125 L 25.015625 -3.578125 L 25.015625 -12.828125 C 23.742188 -13.398438 22.535156 -13.6875 21.390625 -13.6875 C 20.347656 -13.6875 19.398438 -13.457031 18.546875 -13 C 17.703125 -12.550781 17.046875 -11.941406 16.578125 -11.171875 C 16.109375 -10.398438 15.875 -9.554688 15.875 -8.640625 Z M 19.078125 -19.96875 C 18.492188 -19.96875 18.003906 -20.164062 17.609375 -20.5625 C 17.222656 -20.96875 17.03125 -21.472656 17.03125 -22.078125 C 17.03125 -22.679688 17.222656 -23.179688 17.609375 -23.578125 C 18.003906 -23.984375 18.492188 -24.1875 19.078125 -24.1875 C 19.660156 -24.1875 20.144531 -23.988281 20.53125 -23.59375 C 20.925781 -23.207031 21.125 -22.703125 21.125 -22.078125 C 21.125 -21.472656 20.925781 -20.96875 20.53125 -20.5625 C 20.144531 -20.164062 19.660156 -19.96875 19.078125 -19.96875 Z M 24.375 -19.96875 C 23.789062 -19.96875 23.300781 -20.164062 22.90625 -20.5625 C 22.519531 -20.96875 22.328125 -21.472656 22.328125 -22.078125 C 22.328125 -22.679688 22.519531 -23.179688 22.90625 -23.578125 C 23.300781 -23.984375 23.789062 -24.1875 24.375 -24.1875 C 24.945312 -24.1875 25.425781 -23.988281 25.8125 -23.59375 C 26.207031 -23.207031 26.40625 -22.703125 26.40625 -22.078125 C 26.40625 -21.472656 26.207031 -20.96875 25.8125 -20.5625 C 25.425781 -20.164062 24.945312 -19.96875 24.375 -19.96875 Z M 24.375 -19.96875 "/></g></g></g><g fill="#3a3d41" fill-opacity="1"><g transform="translate(421.236038, 470.917775)"><g><path d="M 3.546875 -16.28125 L 7.40625 -16.28125 L 7.40625 0 L 0 0 C -0.445312 0 -0.671875 -0.601562 -0.671875 -1.8125 C -0.671875 -2.988281 -0.445312 -3.578125 0 -3.578125 L 3.546875 -3.578125 Z M 3.078125 7.03125 C 2.492188 7.03125 2.003906 6.828125 1.609375 6.421875 C 1.222656 6.023438 1.03125 5.523438 1.03125 4.921875 C 1.03125 4.316406 1.222656 3.8125 1.609375 3.40625 C 2.003906 3.007812 2.492188 2.8125 3.078125 2.8125 C 3.660156 2.8125 4.144531 3.003906 4.53125 3.390625 C 4.925781 3.785156 5.125 4.296875 5.125 4.921875 C 5.125 5.523438 4.925781 6.023438 4.53125 6.421875 C 4.144531 6.828125 3.660156 7.03125 3.078125 7.03125 Z M 8.375 7.03125 C 7.789062 7.03125 7.300781 6.828125 6.90625 6.421875 C 6.519531 6.023438 6.328125 5.523438 6.328125 4.921875 C 6.328125 4.316406 6.519531 3.8125 6.90625 3.40625 C 7.300781 3.007812 7.789062 2.8125 8.375 2.8125 C 8.945312 2.8125 9.425781 3.003906 9.8125 3.390625 C 10.207031 3.785156 10.40625 4.296875 10.40625 4.921875 C 10.40625 5.523438 10.207031 6.023438 9.8125 6.421875 C 9.425781 6.828125 8.945312 7.03125 8.375 7.03125 Z M 8.375 7.03125 "/></g></g></g><g fill="#3a3d41" fill-opacity="1"><g transform="translate(430.977455, 470.917775)"><g><path d="M 22.0625 -3.578125 C 22.507812 -3.578125 22.734375 -2.988281 22.734375 -1.8125 C 22.734375 -0.601562 22.507812 0 22.0625 0 L 18.1875 0 L 18.1875 0.0625 C 18.1875 2.457031 17.535156 4.3125 16.234375 5.625 C 14.941406 6.9375 13.171875 7.59375 10.921875 7.59375 L 4.390625 7.59375 L 4.390625 4.015625 L 10.875 4.015625 C 12.082031 4.015625 12.957031 3.703125 13.5 3.078125 C 14.050781 2.453125 14.328125 1.445312 14.328125 0.0625 L 14.328125 0 L 10.078125 0 C 8.359375 0 6.832031 -0.382812 5.5 -1.15625 C 4.175781 -1.925781 3.148438 -2.957031 2.421875 -4.25 C 1.703125 -5.539062 1.34375 -6.96875 1.34375 -8.53125 C 1.34375 -10.125 1.71875 -11.582031 2.46875 -12.90625 C 3.226562 -14.238281 4.304688 -15.296875 5.703125 -16.078125 C 7.097656 -16.859375 8.722656 -17.25 10.578125 -17.25 C 11.804688 -17.25 13.109375 -17.078125 14.484375 -16.734375 C 15.859375 -16.398438 17.09375 -15.945312 18.1875 -15.375 L 18.1875 -3.578125 Z M 14.328125 -3.578125 L 14.328125 -13.03125 C 13.054688 -13.445312 11.816406 -13.65625 10.609375 -13.65625 C 8.941406 -13.65625 7.617188 -13.1875 6.640625 -12.25 C 5.671875 -11.3125 5.1875 -10.070312 5.1875 -8.53125 C 5.1875 -7.0625 5.640625 -5.867188 6.546875 -4.953125 C 7.453125 -4.035156 8.628906 -3.578125 10.078125 -3.578125 Z M 14.328125 -3.578125 "/></g></g></g><g fill="#3a3d41" fill-opacity="1"><g transform="translate(453.03792, 470.917775)"><g><path d="M 32.140625 -3.578125 C 32.585938 -3.578125 32.8125 -2.988281 32.8125 -1.8125 C 32.8125 -0.601562 32.585938 0 32.140625 0 L 30.296875 0 C 28.398438 0 26.835938 -0.476562 25.609375 -1.4375 C 24.566406 -0.476562 23.003906 0 20.921875 0 C 18.890625 0 17.273438 -0.476562 16.078125 -1.4375 C 15.023438 -0.476562 13.460938 0 11.390625 0 C 9.359375 0 7.738281 -0.476562 6.53125 -1.4375 C 5.4375 -0.476562 3.816406 0 1.671875 0 L 0 0 C -0.445312 0 -0.671875 -0.601562 -0.671875 -1.8125 C -0.671875 -2.988281 -0.445312 -3.578125 0 -3.578125 L 1.375 -3.578125 C 2.582031 -3.578125 3.40625 -3.816406 3.84375 -4.296875 C 4.289062 -4.773438 4.515625 -5.609375 4.515625 -6.796875 L 4.515625 -12.953125 L 8.375 -12.953125 L 8.375 -6.765625 C 8.375 -5.785156 8.269531 -4.90625 8.0625 -4.125 C 8.71875 -3.757812 9.613281 -3.578125 10.75 -3.578125 C 12.039062 -3.578125 12.914062 -3.8125 13.375 -4.28125 C 13.832031 -4.75 14.0625 -5.585938 14.0625 -6.796875 L 14.0625 -14.625 L 17.921875 -14.625 L 17.921875 -6.765625 C 17.921875 -5.785156 17.816406 -4.90625 17.609375 -4.125 C 18.253906 -3.757812 19.148438 -3.578125 20.296875 -3.578125 C 21.585938 -3.578125 22.460938 -3.8125 22.921875 -4.28125 C 23.378906 -4.75 23.609375 -5.585938 23.609375 -6.796875 L 23.609375 -16.3125 L 27.453125 -16.3125 L 27.453125 -6.765625 C 27.453125 -5.785156 27.351562 -4.890625 27.15625 -4.078125 C 27.71875 -3.742188 28.421875 -3.578125 29.265625 -3.578125 Z M 32.140625 -3.578125 "/></g></g></g><g fill="#3a3d41" fill-opacity="1"><g transform="translate(485.174536, 470.917775)"><g><path d="M 3.546875 -16.28125 L 7.40625 -16.28125 L 7.40625 0 L 0 0 C -0.445312 0 -0.671875 -0.601562 -0.671875 -1.8125 C -0.671875 -2.988281 -0.445312 -3.578125 0 -3.578125 L 3.546875 -3.578125 Z M 3.078125 -18.96875 C 2.492188 -18.96875 2.003906 -19.164062 1.609375 -19.5625 C 1.222656 -19.96875 1.03125 -20.472656 1.03125 -21.078125 C 1.03125 -21.679688 1.222656 -22.179688 1.609375 -22.578125 C 2.003906 -22.984375 2.492188 -23.1875 3.078125 -23.1875 C 3.660156 -23.1875 4.144531 -22.988281 4.53125 -22.59375 C 4.925781 -22.207031 5.125 -21.703125 5.125 -21.078125 C 5.125 -20.472656 4.925781 -19.96875 4.53125 -19.5625 C 4.144531 -19.164062 3.660156 -18.96875 3.078125 -18.96875 Z M 8.375 -18.96875 C 7.789062 -18.96875 7.300781 -19.164062 6.90625 -19.5625 C 6.519531 -19.96875 6.328125 -20.472656 6.328125 -21.078125 C 6.328125 -21.679688 6.519531 -22.179688 6.90625 -22.578125 C 7.300781 -22.984375 7.789062 -23.1875 8.375 -23.1875 C 8.945312 -23.1875 9.425781 -22.988281 9.8125 -22.59375 C 10.207031 -22.207031 10.40625 -21.703125 10.40625 -21.078125 C 10.40625 -20.472656 10.207031 -19.96875 9.8125 -19.5625 C 9.425781 -19.164062 8.945312 -18.96875 8.375 -18.96875 Z M 8.375 -18.96875 "/></g></g></g><g fill="#3a3d41" fill-opacity="1"><g transform="translate(494.915953, 470.917775)"><g/></g></g><g fill="#3a3d41" fill-opacity="1"><g transform="translate(503.954373, 470.917775)"><g><path d="M 21.796875 -3.578125 C 22.242188 -3.578125 22.46875 -2.988281 22.46875 -1.8125 C 22.46875 -0.601562 22.242188 0 21.796875 0 L 21.09375 0 C 18.351562 0 16.46875 -0.789062 15.4375 -2.375 C 14.632812 -2 13.765625 -1.691406 12.828125 -1.453125 C 11.890625 -1.222656 10.984375 -1.109375 10.109375 -1.109375 C 8.523438 -1.109375 7.0625 -1.46875 5.71875 -2.1875 C 4.382812 -2.914062 3.320312 -3.910156 2.53125 -5.171875 C 1.738281 -6.429688 1.34375 -7.8125 1.34375 -9.3125 C 1.34375 -10.820312 1.738281 -12.203125 2.53125 -13.453125 C 3.320312 -14.703125 4.382812 -15.695312 5.71875 -16.4375 C 7.0625 -17.175781 8.515625 -17.546875 10.078125 -17.546875 L 14.390625 -17.546875 L 14.390625 -18.390625 L 18.25 -18.390625 L 18.25 -6.796875 C 18.25 -5.609375 18.472656 -4.773438 18.921875 -4.296875 C 19.367188 -3.816406 20.191406 -3.578125 21.390625 -3.578125 Z M 10.21875 -4.71875 C 11.59375 -4.71875 13 -5.117188 14.4375 -5.921875 C 14.40625 -6.097656 14.390625 -6.378906 14.390625 -6.765625 L 14.390625 -13.96875 L 10.078125 -13.96875 C 9.179688 -13.96875 8.359375 -13.757812 7.609375 -13.34375 C 6.867188 -12.925781 6.28125 -12.359375 5.84375 -11.640625 C 5.40625 -10.929688 5.1875 -10.15625 5.1875 -9.3125 C 5.1875 -8.457031 5.398438 -7.679688 5.828125 -6.984375 C 6.253906 -6.296875 6.847656 -5.742188 7.609375 -5.328125 C 8.378906 -4.921875 9.25 -4.71875 10.21875 -4.71875 Z M 7.078125 -19.96875 C 6.492188 -19.96875 6.003906 -20.164062 5.609375 -20.5625 C 5.222656 -20.96875 5.03125 -21.472656 5.03125 -22.078125 C 5.03125 -22.679688 5.222656 -23.179688 5.609375 -23.578125 C 6.003906 -23.984375 6.492188 -24.1875 7.078125 -24.1875 C 7.660156 -24.1875 8.144531 -23.988281 8.53125 -23.59375 C 8.925781 -23.207031 9.125 -22.703125 9.125 -22.078125 C 9.125 -21.472656 8.925781 -20.96875 8.53125 -20.5625 C 8.144531 -20.164062 7.660156 -19.96875 7.078125 -19.96875 Z M 12.375 -19.96875 C 11.789062 -19.96875 11.300781 -20.164062 10.90625 -20.5625 C 10.519531 -20.96875 10.328125 -21.472656 10.328125 -22.078125 C 10.328125 -22.679688 10.519531 -23.179688 10.90625 -23.578125 C 11.300781 -23.984375 11.789062 -24.1875 12.375 -24.1875 C 12.945312 -24.1875 13.425781 -23.988281 13.8125 -23.59375 C 14.207031 -23.207031 14.40625 -22.703125 14.40625 -22.078125 C 14.40625 -21.472656 14.207031 -20.96875 13.8125 -20.5625 C 13.425781 -20.164062 12.945312 -19.96875 12.375 -19.96875 Z M 12.375 -19.96875 "/></g></g></g><g fill="#3a3d41" fill-opacity="1"><g transform="translate(525.747017, 470.917775)"><g><path d="M 17.984375 -3.578125 C 18.429688 -3.578125 18.65625 -2.988281 18.65625 -1.8125 C 18.65625 -0.601562 18.429688 0 17.984375 0 L 0 0 C -0.445312 0 -0.671875 -0.601562 -0.671875 -1.8125 C -0.671875 -2.988281 -0.445312 -3.578125 0 -3.578125 L 9.984375 -3.578125 L 9.984375 -3.84375 C 9.984375 -6.414062 9.425781 -8.410156 8.3125 -9.828125 C 7.207031 -11.242188 5.640625 -11.953125 3.609375 -11.953125 L 1.203125 -14.5 L 9.90625 -23.3125 L 12.328125 -20.765625 L 6.828125 -15.203125 C 8.972656 -14.535156 10.675781 -13.175781 11.9375 -11.125 C 13.195312 -9.082031 13.828125 -6.566406 13.828125 -3.578125 Z M 17.984375 -3.578125 "/></g></g></g><g fill="#3a3d41" fill-opacity="1"><g transform="translate(543.723449, 470.917775)"><g><path d="M 13.09375 -3.578125 C 13.539062 -3.578125 13.765625 -2.988281 13.765625 -1.8125 C 13.765625 -0.601562 13.539062 0 13.09375 0 L 11.25 0 C 9.351562 0 7.789062 -0.476562 6.5625 -1.4375 C 5.507812 -0.476562 3.890625 0 1.703125 0 L 0 0 C -0.445312 0 -0.671875 -0.601562 -0.671875 -1.8125 C -0.671875 -2.988281 -0.445312 -3.578125 0 -3.578125 L 1.40625 -3.578125 C 2.613281 -3.578125 3.4375 -3.816406 3.875 -4.296875 C 4.320312 -4.773438 4.546875 -5.609375 4.546875 -6.796875 L 4.546875 -16.28125 L 8.40625 -16.28125 L 8.40625 -6.765625 C 8.40625 -5.753906 8.304688 -4.859375 8.109375 -4.078125 C 8.679688 -3.742188 9.382812 -3.578125 10.21875 -3.578125 Z M 6.578125 7.40625 C 5.929688 7.40625 5.394531 7.179688 4.96875 6.734375 C 4.550781 6.285156 4.34375 5.726562 4.34375 5.0625 C 4.34375 4.382812 4.550781 3.828125 4.96875 3.390625 C 5.394531 2.960938 5.929688 2.75 6.578125 2.75 C 7.222656 2.75 7.757812 2.960938 8.1875 3.390625 C 8.613281 3.828125 8.828125 4.382812 8.828125 5.0625 C 8.828125 5.726562 8.613281 6.285156 8.1875 6.734375 C 7.757812 7.179688 7.222656 7.40625 6.578125 7.40625 Z M 6.578125 7.40625 "/></g></g></g><g fill="#3a3d41" fill-opacity="1"><g transform="translate(556.812426, 470.917775)"><g><path d="M 23.609375 -16.3125 L 27.453125 -16.3125 L 27.453125 -6.765625 C 27.453125 -4.484375 26.921875 -2.785156 25.859375 -1.671875 C 24.804688 -0.554688 23.160156 0 20.921875 0 C 18.890625 0 17.273438 -0.476562 16.078125 -1.4375 C 15.023438 -0.476562 13.460938 0 11.390625 0 C 9.359375 0 7.738281 -0.476562 6.53125 -1.4375 C 5.4375 -0.476562 3.816406 0 1.671875 0 L 0 0 C -0.445312 0 -0.671875 -0.601562 -0.671875 -1.8125 C -0.671875 -2.988281 -0.445312 -3.578125 0 -3.578125 L 1.375 -3.578125 C 2.582031 -3.578125 3.40625 -3.816406 3.84375 -4.296875 C 4.289062 -4.773438 4.515625 -5.609375 4.515625 -6.796875 L 4.515625 -12.953125 L 8.375 -12.953125 L 8.375 -6.765625 C 8.375 -5.785156 8.269531 -4.90625 8.0625 -4.125 C 8.71875 -3.757812 9.613281 -3.578125 10.75 -3.578125 C 12.039062 -3.578125 12.914062 -3.8125 13.375 -4.28125 C 13.832031 -4.75 14.0625 -5.585938 14.0625 -6.796875 L 14.0625 -14.625 L 17.921875 -14.625 L 17.921875 -6.765625 C 17.921875 -5.785156 17.816406 -4.90625 17.609375 -4.125 C 18.253906 -3.757812 19.148438 -3.578125 20.296875 -3.578125 C 21.585938 -3.578125 22.460938 -3.8125 22.921875 -4.28125 C 23.378906 -4.75 23.609375 -5.585938 23.609375 -6.796875 Z M 15.796875 -27.34375 C 16.328125 -27.34375 16.769531 -27.148438 17.125 -26.765625 C 17.488281 -26.390625 17.671875 -25.925781 17.671875 -25.375 C 17.671875 -24.789062 17.492188 -24.316406 17.140625 -23.953125 C 16.796875 -23.597656 16.347656 -23.421875 15.796875 -23.421875 C 15.234375 -23.421875 14.78125 -23.597656 14.4375 -23.953125 C 14.09375 -24.316406 13.921875 -24.789062 13.921875 -25.375 C 13.921875 -25.925781 14.097656 -26.390625 14.453125 -26.765625 C 14.804688 -27.148438 15.253906 -27.34375 15.796875 -27.34375 Z M 13.140625 -23.03125 C 13.722656 -23.03125 14.207031 -22.828125 14.59375 -22.421875 C 14.988281 -22.015625 15.1875 -21.515625 15.1875 -20.921875 C 15.1875 -20.296875 14.988281 -19.785156 14.59375 -19.390625 C 14.207031 -18.992188 13.722656 -18.796875 13.140625 -18.796875 C 12.566406 -18.796875 12.082031 -19 11.6875 -19.40625 C 11.300781 -19.8125 11.109375 -20.316406 11.109375 -20.921875 C 11.109375 -21.515625 11.300781 -22.015625 11.6875 -22.421875 C 12.082031 -22.828125 12.566406 -23.03125 13.140625 -23.03125 Z M 18.4375 -23.03125 C 19.019531 -23.03125 19.503906 -22.828125 19.890625 -22.421875 C 20.285156 -22.015625 20.484375 -21.515625 20.484375 -20.921875 C 20.484375 -20.296875 20.285156 -19.785156 19.890625 -19.390625 C 19.503906 -18.992188 19.019531 -18.796875 18.4375 -18.796875 C 17.851562 -18.796875 17.363281 -19 16.96875 -19.40625 C 16.582031 -19.8125 16.390625 -20.316406 16.390625 -20.921875 C 16.390625 -21.515625 16.582031 -22.015625 16.96875 -22.421875 C 17.363281 -22.828125 17.851562 -23.03125 18.4375 -23.03125 Z M 18.4375 -23.03125 "/></g></g></g></svg>