<svg xmlns="http://www.w3.org/2000/svg" xmlns:xlink="http://www.w3.org/1999/xlink" width="500" zoomAndPan="magnify" viewBox="0 0 375 374.999991" height="500" preserveAspectRatio="xMidYMid meet" version="1.0"><defs><clipPath id="id1"><path d="M 92.007812 113.730469 L 283.257812 113.730469 L 283.257812 261.480469 L 92.007812 261.480469 Z M 92.007812 113.730469 " clip-rule="nonzero"/></clipPath></defs><path fill="#ffffff" d="M 351.675781 58.050781 L 351.675781 316.949219 C 351.675781 336.148438 336.148438 351.675781 316.949219 351.675781 L 58.050781 351.675781 C 38.851562 351.675781 23.324219 336.148438 23.324219 316.949219 L 23.324219 58.050781 C 23.324219 38.851562 38.851562 23.324219 58.050781 23.324219 L 316.949219 23.324219 C 336.148438 23.324219 351.675781 38.851562 351.675781 58.050781 " fill-opacity="1" fill-rule="nonzero"/><path fill="#3a3d41" d="M 53.476562 312.523438 C 48.503906 312.523438 44.476562 316.554688 44.476562 321.523438 C 44.476562 326.496094 48.503906 330.523438 53.476562 330.523438 C 58.445312 330.523438 62.476562 326.496094 62.476562 321.523438 C 62.476562 316.554688 58.445312 312.523438 53.476562 312.523438 M 53.476562 44.476562 C 48.503906 44.476562 44.476562 48.503906 44.476562 53.476562 C 44.476562 58.445312 48.503906 62.476562 53.476562 62.476562 C 58.445312 62.476562 62.476562 58.445312 62.476562 53.476562 C 62.476562 48.503906 58.445312 44.476562 53.476562 44.476562 M 321.523438 44.476562 C 316.554688 44.476562 312.523438 48.503906 312.523438 53.476562 C 312.523438 58.445312 316.554688 62.476562 321.523438 62.476562 C 326.496094 62.476562 330.523438 58.445312 330.523438 53.476562 C 330.523438 48.503906 326.496094 44.476562 321.523438 44.476562 M 321.523438 312.523438 C 316.554688 312.523438 312.523438 316.554688 312.523438 321.523438 C 312.523438 326.496094 316.554688 330.523438 321.523438 330.523438 C 326.496094 330.523438 330.523438 326.496094 330.523438 321.523438 C 330.523438 316.554688 326.496094 312.523438 321.523438 312.523438 " fill-opacity="1" fill-rule="nonzero"/><path fill="#d3c2bb" d="M 375 62.476562 L 375 33.375 C 368.101562 30.75 361.125 26.25 354.898438 20.101562 C 348.75 13.875 344.25 6.898438 341.625 0 L 33.375 0 C 30.75 6.898438 26.25 13.875 20.101562 20.101562 C 13.875 26.25 6.898438 30.75 0 33.375 L 0 341.625 C 1.726562 342.300781 3.449219 343.050781 5.175781 343.949219 C 5.625 344.175781 6 344.398438 6.449219 344.625 C 6.75 344.773438 7.050781 344.925781 7.351562 345.148438 C 7.425781 345.148438 7.5 345.226562 7.574219 345.300781 C 7.800781 345.375 7.949219 345.523438 8.175781 345.675781 C 10.351562 347.023438 12.523438 348.523438 14.699219 350.175781 C 15.074219 350.476562 15.449219 350.773438 15.824219 351.148438 C 16.125 351.375 16.351562 351.601562 16.574219 351.824219 C 17.324219 352.5 18.074219 353.175781 18.824219 353.925781 C 19.199219 354.300781 19.574219 354.675781 20.023438 355.050781 C 20.398438 355.425781 20.773438 355.800781 21.148438 356.25 C 21.824219 357 22.574219 357.75 23.25 358.5 C 23.476562 358.800781 23.699219 359.023438 23.925781 359.324219 L 24.824219 360.449219 C 25.050781 360.675781 25.199219 360.976562 25.425781 361.199219 C 25.800781 361.648438 26.175781 362.175781 26.550781 362.625 C 27 363.226562 27.375 363.824219 27.75 364.351562 C 28.875 366.074219 29.925781 367.800781 30.898438 369.601562 C 31.050781 369.898438 31.199219 370.125 31.273438 370.425781 L 31.5 370.875 C 31.648438 371.175781 31.800781 371.476562 31.875 371.699219 C 32.398438 372.824219 32.925781 373.949219 33.300781 375.148438 L 341.550781 375.148438 C 344.175781 368.25 348.675781 361.273438 354.824219 355.050781 C 357.148438 352.726562 359.550781 350.625 362.101562 348.824219 C 363.375 347.925781 364.648438 347.023438 365.925781 346.273438 C 366.75 345.75 367.648438 345.226562 368.476562 344.773438 C 369.300781 344.324219 370.199219 343.875 371.023438 343.425781 C 372.300781 342.824219 373.648438 342.226562 374.925781 341.773438 L 375 62.476562 M 351.675781 316.949219 C 351.675781 336.148438 336.148438 351.675781 316.949219 351.675781 L 58.050781 351.675781 C 38.851562 351.675781 23.324219 336.148438 23.324219 316.949219 L 23.324219 58.050781 C 23.324219 38.851562 38.851562 23.324219 58.050781 23.324219 L 316.949219 23.324219 C 336.148438 23.324219 351.675781 38.851562 351.675781 58.050781 L 351.675781 316.949219 " fill-opacity="1" fill-rule="nonzero"/><g clip-path="url(#id1)"><path fill="#1d918a" d="M 262.390625 235.15625 C 262.390625 236.84375 261.023438 238.210938 259.335938 238.210938 C 257.652344 238.210938 256.285156 236.84375 256.285156 235.15625 C 256.285156 233.472656 257.652344 232.105469 259.335938 232.105469 C 261.023438 232.105469 262.390625 233.472656 262.390625 235.15625 Z M 257.441406 248.839844 C 255.757812 248.839844 254.390625 250.207031 254.390625 251.890625 C 254.390625 253.578125 255.757812 254.945312 257.441406 254.945312 C 259.128906 254.945312 260.496094 253.578125 260.496094 251.890625 C 260.496094 250.207031 259.128906 248.839844 257.441406 248.839844 Z M 240.296875 255.371094 C 238.609375 255.371094 237.242188 256.738281 237.242188 258.425781 C 237.242188 260.113281 238.609375 261.480469 240.296875 261.480469 C 241.984375 261.480469 243.351562 260.113281 243.351562 258.425781 C 243.351562 256.738281 241.984375 255.371094 240.296875 255.371094 Z M 229.070312 222.375 C 227.386719 222.375 226.019531 223.742188 226.019531 225.429688 C 226.019531 227.117188 227.386719 228.484375 229.070312 228.484375 C 230.757812 228.484375 232.125 227.117188 232.125 225.429688 C 232.125 223.742188 230.757812 222.375 229.070312 222.375 Z M 250.347656 220.078125 C 248.664062 220.078125 247.296875 221.445312 247.296875 223.128906 C 247.296875 224.816406 248.664062 226.183594 250.347656 226.183594 C 252.035156 226.183594 253.402344 224.816406 253.402344 223.128906 C 253.402344 221.445312 252.035156 220.078125 250.347656 220.078125 Z M 280.203125 230.105469 C 278.515625 230.105469 277.148438 231.472656 277.148438 233.160156 C 277.148438 234.847656 278.515625 236.214844 280.203125 236.214844 C 281.890625 236.214844 283.257812 234.847656 283.257812 233.160156 C 283.257812 231.472656 281.890625 230.105469 280.203125 230.105469 Z M 275.511719 246.492188 C 273.824219 246.492188 272.457031 247.859375 272.457031 249.546875 C 272.457031 251.230469 273.824219 252.597656 275.511719 252.597656 C 277.195312 252.597656 278.5625 251.230469 278.5625 249.546875 C 278.554688 247.859375 277.1875 246.492188 275.511719 246.492188 Z M 268.496094 218.179688 C 266.808594 218.179688 265.441406 219.546875 265.441406 221.234375 C 265.441406 222.921875 266.808594 224.289062 268.496094 224.289062 C 270.183594 224.289062 271.550781 222.921875 271.550781 221.234375 C 271.550781 219.546875 270.183594 218.179688 268.496094 218.179688 Z M 190.371094 222.199219 C 188.683594 222.199219 187.316406 223.566406 187.316406 225.25 C 187.316406 226.9375 188.683594 228.304688 190.371094 228.304688 C 192.054688 228.304688 193.421875 226.9375 193.421875 225.25 C 193.421875 223.566406 192.054688 222.199219 190.371094 222.199219 Z M 142.128906 225.25 C 140.441406 225.25 139.074219 226.617188 139.074219 228.304688 C 139.074219 229.992188 140.441406 231.359375 142.128906 231.359375 C 143.8125 231.359375 145.179688 229.992188 145.179688 228.304688 C 145.179688 226.617188 143.8125 225.25 142.128906 225.25 Z M 163.40625 222.953125 C 161.71875 222.953125 160.351562 224.320312 160.351562 226.003906 C 160.351562 227.691406 161.71875 229.058594 163.40625 229.058594 C 165.089844 229.058594 166.457031 227.691406 166.457031 226.003906 C 166.457031 224.320312 165.089844 222.953125 163.40625 222.953125 Z M 180.230469 232.507812 C 178.546875 232.507812 177.179688 233.875 177.179688 235.5625 C 177.179688 237.246094 178.546875 238.613281 180.230469 238.613281 C 181.917969 238.613281 183.285156 237.246094 183.285156 235.5625 C 183.285156 233.875 181.917969 232.507812 180.230469 232.507812 Z M 203.527344 235.5625 C 201.84375 235.5625 200.476562 236.929688 200.476562 238.613281 C 200.476562 240.300781 201.84375 241.667969 203.527344 241.667969 C 205.214844 241.667969 206.582031 240.300781 206.582031 238.613281 C 206.582031 236.921875 205.214844 235.5625 203.527344 235.5625 Z M 223.757812 234.402344 C 223.757812 232.71875 222.390625 231.351562 220.703125 231.351562 C 219.019531 231.351562 217.652344 232.71875 217.652344 234.402344 C 217.652344 236.089844 219.019531 237.457031 220.703125 237.457031 C 222.390625 237.457031 223.757812 236.089844 223.757812 234.402344 Z M 240.296875 235.5625 C 238.609375 235.5625 237.242188 236.929688 237.242188 238.613281 C 237.242188 240.300781 238.609375 241.667969 240.296875 241.667969 C 241.984375 241.667969 243.351562 240.300781 243.351562 238.613281 C 243.351562 236.921875 241.984375 235.5625 240.296875 235.5625 Z M 223.757812 244.613281 C 222.070312 244.613281 220.703125 245.980469 220.703125 247.664062 C 220.703125 249.351562 222.070312 250.71875 223.757812 250.71875 C 225.445312 250.71875 226.8125 249.351562 226.8125 247.664062 C 226.8125 245.980469 225.445312 244.613281 223.757812 244.613281 Z M 206.582031 222.953125 C 204.894531 222.953125 203.527344 224.320312 203.527344 226.003906 C 203.527344 227.691406 204.894531 229.058594 206.582031 229.058594 C 208.269531 229.058594 209.636719 227.691406 209.636719 226.003906 C 209.636719 224.320312 208.269531 222.953125 206.582031 222.953125 Z M 253.597656 203.988281 C 253.597656 212.339844 246.824219 219.113281 238.472656 219.113281 L 125.054688 219.113281 C 116.703125 219.113281 109.925781 212.339844 109.925781 203.988281 C 109.925781 196.429688 115.464844 190.164062 122.714844 189.039062 C 122.714844 188.976562 122.714844 188.921875 122.714844 188.859375 C 122.714844 183.164062 126.613281 178.378906 131.890625 177.019531 C 131.851562 176.601562 131.828125 176.179688 131.828125 175.753906 C 131.828125 174.144531 132.121094 172.609375 132.664062 171.195312 L 141.453125 180.351562 C 143.921875 182.925781 146.757812 184.890625 149.886719 186.1875 C 152.769531 187.390625 155.832031 188.007812 158.976562 188.007812 C 161.097656 188.007812 163.210938 187.726562 165.261719 187.167969 C 171.304688 185.535156 173.332031 182.449219 173.96875 180.152344 C 174.460938 178.378906 174.304688 176.5 173.503906 174.558594 C 172.804688 172.863281 171.585938 171.101562 169.882812 169.328125 L 156.046875 154.902344 C 155.410156 154.234375 154.535156 153.867188 153.632812 153.867188 C 153.335938 153.867188 153.050781 153.90625 152.753906 153.984375 L 146.695312 155.625 C 149.320312 151.15625 154.183594 148.15625 159.738281 148.15625 C 162.277344 148.15625 164.671875 148.789062 166.777344 149.890625 C 169.898438 147.558594 173.777344 146.183594 177.972656 146.183594 C 187.050781 146.183594 194.617188 152.640625 196.34375 161.210938 C 201.042969 162.113281 204.949219 165.234375 206.9375 169.4375 C 211.078125 169.941406 214.492188 172.816406 215.773438 176.664062 C 217.347656 176.195312 219.019531 175.949219 220.75 175.949219 C 228.855469 175.949219 235.675781 181.425781 237.71875 188.882812 C 237.964844 188.867188 238.214844 188.867188 238.472656 188.867188 C 246.824219 188.859375 253.597656 195.628906 253.597656 203.988281 Z M 129.730469 207.691406 C 129.730469 206.007812 128.363281 204.640625 126.675781 204.640625 C 124.992188 204.640625 123.625 206.007812 123.625 207.691406 C 123.625 209.378906 124.992188 210.746094 126.675781 210.746094 C 128.363281 210.746094 129.730469 209.378906 129.730469 207.691406 Z M 149.832031 209.804688 C 149.832031 208.121094 148.464844 206.753906 146.78125 206.753906 C 145.09375 206.753906 143.726562 208.121094 143.726562 209.804688 C 143.726562 211.492188 145.09375 212.859375 146.78125 212.859375 C 148.464844 212.851562 149.832031 211.492188 149.832031 209.804688 Z M 164.648438 199.894531 C 164.648438 198.207031 163.28125 196.839844 161.59375 196.839844 C 159.910156 196.839844 158.542969 198.207031 158.542969 199.894531 C 158.542969 201.578125 159.910156 202.945312 161.59375 202.945312 C 163.28125 202.945312 164.648438 201.578125 164.648438 199.894531 Z M 180.363281 207.691406 C 180.363281 206.007812 178.996094 204.640625 177.3125 204.640625 C 175.625 204.640625 174.257812 206.007812 174.257812 207.691406 C 174.257812 209.378906 175.625 210.746094 177.3125 210.746094 C 179.003906 210.746094 180.363281 209.378906 180.363281 207.691406 Z M 185.429688 194.367188 C 185.429688 192.683594 184.0625 191.316406 182.375 191.316406 C 180.691406 191.316406 179.324219 192.683594 179.324219 194.367188 C 179.324219 196.054688 180.691406 197.421875 182.375 197.421875 C 184.0625 197.414062 185.429688 196.054688 185.429688 194.367188 Z M 199.675781 202.945312 C 199.675781 201.261719 198.308594 199.894531 196.621094 199.894531 C 194.9375 199.894531 193.570312 201.261719 193.570312 202.945312 C 193.570312 204.632812 194.9375 206 196.621094 206 C 198.308594 206 199.675781 204.632812 199.675781 202.945312 Z M 214.832031 207.691406 C 214.832031 206.007812 213.464844 204.640625 211.777344 204.640625 C 210.09375 204.640625 208.726562 206.007812 208.726562 207.691406 C 208.726562 209.378906 210.09375 210.746094 211.777344 210.746094 C 213.464844 210.746094 214.832031 209.378906 214.832031 207.691406 Z M 223.757812 193.785156 C 223.757812 192.101562 222.390625 190.734375 220.703125 190.734375 C 219.019531 190.734375 217.652344 192.101562 217.652344 193.785156 C 217.652344 195.472656 219.019531 196.839844 220.703125 196.839844 C 222.390625 196.839844 223.757812 195.472656 223.757812 193.785156 Z M 234.269531 207.691406 C 234.269531 206.007812 232.902344 204.640625 231.214844 204.640625 C 229.53125 204.640625 228.164062 206.007812 228.164062 207.691406 C 228.164062 209.378906 229.53125 210.746094 231.214844 210.746094 C 232.902344 210.746094 234.269531 209.378906 234.269531 207.691406 Z M 244.6875 200.644531 C 244.6875 198.960938 243.320312 197.59375 241.632812 197.59375 C 239.949219 197.59375 238.578125 198.960938 238.578125 200.644531 C 238.578125 202.332031 239.949219 203.699219 241.632812 203.699219 C 243.320312 203.699219 244.6875 202.332031 244.6875 200.644531 Z M 138.863281 161.210938 L 105.78125 126.730469 L 102.246094 127.6875 C 102.105469 127.726562 101.949219 127.742188 101.792969 127.742188 C 101.148438 127.742188 100.417969 127.414062 99.945312 126.917969 L 92.613281 119.28125 C 92.175781 118.828125 92.007812 118.285156 92.136719 117.804688 C 92.253906 117.375 92.589844 117.066406 93.046875 116.941406 L 104.691406 113.789062 C 104.832031 113.75 104.988281 113.734375 105.140625 113.734375 C 105.789062 113.734375 106.515625 114.058594 107 114.554688 L 114.324219 122.195312 C 114.757812 122.644531 114.929688 123.1875 114.796875 123.667969 C 114.683594 124.097656 114.347656 124.40625 113.890625 124.53125 L 111.242188 125.246094 L 144.324219 159.734375 L 153.625 157.21875 L 167.46875 171.644531 C 173.574219 178.007812 170.910156 182.164062 164.390625 183.925781 C 157.875 185.691406 149.972656 184.386719 143.867188 178.03125 L 130.023438 163.601562 Z M 107.960938 121.300781 L 104.296875 117.515625 L 98.019531 119.21875 L 101.683594 123 Z M 107.960938 121.300781 " fill-opacity="1" fill-rule="nonzero"/></g></svg>