<svg xmlns="http://www.w3.org/2000/svg" xmlns:xlink="http://www.w3.org/1999/xlink" width="1024" zoomAndPan="magnify" viewBox="0 0 768 576" height="768" preserveAspectRatio="xMidYMid meet" version="1.0"><defs><g/><clipPath id="id1"><path d="M 342 57.601562 L 427 57.601562 L 427 138 L 342 138 Z M 342 57.601562 " clip-rule="nonzero"/></clipPath><clipPath id="id2"><path d="M 264.070312 94 L 504 94 L 504 269.851562 L 264.070312 269.851562 Z M 264.070312 94 " clip-rule="nonzero"/></clipPath><clipPath id="id3"><path d="M 470 198 L 478 198 L 478 269.851562 L 470 269.851562 Z M 470 198 " clip-rule="nonzero"/></clipPath></defs><g clip-path="url(#id1)"><path fill="#1d918a" d="M 372.578125 88.40625 C 373.644531 88.25 374.558594 87.582031 375.039062 86.621094 L 384.097656 68.25 L 393.152344 86.617188 C 393.628906 87.582031 394.546875 88.25 395.613281 88.40625 L 415.871094 91.355469 L 401.210938 105.648438 C 400.441406 106.398438 400.089844 107.480469 400.273438 108.539062 L 403.734375 128.730469 L 385.617188 119.199219 C 384.664062 118.699219 383.53125 118.699219 382.578125 119.199219 L 364.457031 128.730469 L 367.921875 108.539062 C 368.101562 107.480469 367.75 106.398438 366.980469 105.648438 L 352.320312 91.355469 Z M 361.199219 109.128906 L 356.910156 134.148438 C 356.699219 135.371094 357.199219 136.609375 358.207031 137.339844 C 359.214844 138.070312 360.546875 138.164062 361.644531 137.589844 L 384.097656 125.777344 L 406.546875 137.589844 C 407.027344 137.839844 407.546875 137.964844 408.066406 137.964844 C 408.742188 137.964844 409.414062 137.753906 409.984375 137.339844 C 410.992188 136.609375 411.492188 135.371094 411.285156 134.148438 L 406.996094 109.128906 L 425.160156 91.410156 C 426.046875 90.542969 426.371094 89.246094 425.984375 88.066406 C 425.601562 86.878906 424.582031 86.019531 423.351562 85.839844 L 398.246094 82.191406 L 387.023438 59.429688 C 386.472656 58.3125 385.339844 57.605469 384.097656 57.605469 C 382.855469 57.605469 381.722656 58.3125 381.171875 59.425781 L 369.945312 82.191406 L 344.839844 85.839844 C 343.609375 86.019531 342.589844 86.878906 342.207031 88.066406 C 341.824219 89.246094 342.140625 90.542969 343.03125 91.410156 L 361.199219 109.128906 " fill-opacity="1" fill-rule="nonzero"/></g><g clip-path="url(#id2)"><path fill="#1d918a" d="M 438.675781 128.597656 C 438.675781 113.40625 451.027344 101.050781 466.203125 101.050781 C 481.386719 101.050781 493.734375 113.40625 493.734375 128.597656 C 493.734375 143.789062 481.386719 156.144531 466.203125 156.144531 C 451.027344 156.144531 438.675781 143.789062 438.675781 128.597656 Z M 415.808594 239.667969 C 414.125 241.304688 412.054688 242.546875 409.8125 243.261719 L 390.875 249.261719 C 392.152344 245.769531 392.207031 241.988281 390.984375 238.40625 C 390.171875 236.007812 388.851562 233.890625 387.132812 232.15625 L 401.808594 227.070312 C 405.855469 225.667969 409.273438 223.0625 411.695312 219.535156 L 429.933594 192.957031 L 429.933594 225.890625 Z M 274.457031 128.597656 C 274.457031 113.40625 286.804688 101.050781 301.984375 101.050781 C 317.164062 101.050781 329.519531 113.40625 329.519531 128.597656 C 329.519531 143.789062 317.164062 156.144531 301.984375 156.144531 C 286.804688 156.144531 274.457031 143.789062 274.457031 128.597656 Z M 481.476562 159.042969 C 492.605469 153.433594 500.261719 141.898438 500.261719 128.597656 C 500.261719 109.808594 484.984375 94.519531 466.203125 94.519531 C 447.425781 94.519531 432.148438 109.808594 432.148438 128.597656 C 432.148438 142.148438 440.09375 153.875 451.566406 159.363281 C 445.269531 162.199219 439.910156 166.761719 436.101562 172.453125 C 436.070312 172.5 436.03125 172.539062 436 172.589844 L 406.316406 215.835938 C 404.691406 218.207031 402.390625 219.957031 399.667969 220.898438 L 379.972656 227.722656 L 347.589844 212.714844 C 346.433594 212.175781 345.601562 211.15625 345.308594 209.917969 L 339.4375 185.179688 C 336.566406 173.078125 328.160156 163.566406 317.269531 159.039062 C 328.390625 153.421875 336.042969 141.890625 336.042969 128.597656 C 336.042969 109.808594 320.765625 94.519531 301.984375 94.519531 C 283.210938 94.519531 267.933594 109.808594 267.933594 128.597656 C 267.933594 142.0625 275.777344 153.726562 287.132812 159.257812 C 273.761719 165.070312 264.386719 178.40625 264.386719 193.898438 L 264.386719 266.578125 C 264.386719 268.382812 265.847656 269.84375 267.652344 269.84375 C 269.453125 269.84375 270.914062 268.382812 270.914062 266.578125 L 270.914062 193.898438 C 270.914062 176.683594 284.910156 162.675781 302.113281 162.675781 L 302.734375 162.675781 C 317.253906 162.675781 329.738281 172.550781 333.089844 186.6875 L 338.957031 211.425781 C 339.71875 214.625 341.859375 217.25 344.84375 218.636719 L 379.644531 234.765625 C 382.101562 235.902344 383.9375 237.945312 384.808594 240.507812 C 385.683594 243.074219 385.472656 245.8125 384.105469 248.4375 C 382.972656 250.617188 381.101562 252.210938 378.933594 253.046875 L 377.867188 253.382812 C 376.023438 253.867188 374.03125 253.828125 372.128906 253.15625 L 332.152344 239 C 326.808594 237.105469 322.644531 232.726562 321.019531 227.289062 L 311.929688 196.851562 C 311.417969 195.121094 309.605469 194.144531 307.871094 194.660156 C 306.144531 195.175781 305.160156 196.992188 305.679688 198.726562 L 314.769531 229.160156 C 316.761719 235.832031 321.554688 241.328125 327.800781 244.253906 L 327.800781 266.578125 C 327.800781 268.382812 329.261719 269.84375 331.066406 269.84375 C 332.867188 269.84375 334.328125 268.382812 334.328125 266.578125 L 334.328125 246.699219 L 369.953125 259.3125 C 372.941406 260.371094 376.078125 260.492188 379.019531 259.804688 C 379.214844 259.78125 379.40625 259.746094 379.601562 259.683594 L 411.78125 249.484375 C 414.992188 248.46875 417.957031 246.691406 420.363281 244.339844 L 429.933594 235.007812 L 429.933594 266.578125 C 429.933594 268.382812 431.398438 269.84375 433.199219 269.84375 C 435.003906 269.84375 436.460938 268.382812 436.460938 266.578125 L 436.460938 192.769531 C 436.460938 176.175781 449.953125 162.675781 466.535156 162.675781 L 467.207031 162.675781 C 483.789062 162.675781 497.28125 176.175781 497.28125 192.769531 L 497.28125 266.578125 C 497.28125 268.382812 498.742188 269.84375 500.542969 269.84375 C 502.34375 269.84375 503.804688 268.382812 503.804688 266.578125 L 503.804688 192.769531 C 503.804688 177.640625 494.585938 164.621094 481.476562 159.042969 " fill-opacity="1" fill-rule="nonzero"/></g><g clip-path="url(#id3)"><path fill="#1d918a" d="M 473.886719 198.734375 C 472.082031 198.734375 470.621094 200.195312 470.621094 202 L 470.621094 266.578125 C 470.621094 268.382812 472.082031 269.84375 473.886719 269.84375 C 475.691406 269.84375 477.148438 268.382812 477.148438 266.578125 L 477.148438 202 C 477.148438 200.195312 475.691406 198.734375 473.886719 198.734375 " fill-opacity="1" fill-rule="nonzero"/></g><g fill="#3a3d41" fill-opacity="1"><g transform="translate(115.013668, 376.944261)"><g/></g></g><g fill="#3a3d41" fill-opacity="1"><g transform="translate(115.013668, 376.944261)"><g><path d="M 16.65625 -27.875 C 12.976562 -27.875 10.082031 -26.695312 7.96875 -24.34375 C 5.863281 -22 4.8125 -18.78125 4.8125 -14.6875 C 4.8125 -10.507812 5.804688 -7.265625 7.796875 -4.953125 C 9.785156 -2.640625 12.628906 -1.484375 16.328125 -1.484375 C 18.785156 -1.484375 21.046875 -1.796875 23.109375 -2.421875 L 23.109375 -0.625 C 21.171875 0.0625 18.753906 0.40625 15.859375 0.40625 C 11.742188 0.40625 8.5 -0.921875 6.125 -3.578125 C 3.757812 -6.242188 2.578125 -9.960938 2.578125 -14.734375 C 2.578125 -17.710938 3.140625 -20.335938 4.265625 -22.609375 C 5.398438 -24.878906 7.023438 -26.628906 9.140625 -27.859375 C 11.265625 -29.097656 13.726562 -29.71875 16.53125 -29.71875 C 19.394531 -29.71875 21.957031 -29.1875 24.21875 -28.125 L 23.390625 -26.28125 C 21.253906 -27.34375 19.007812 -27.875 16.65625 -27.875 Z M 16.65625 -27.875 "/></g></g></g><g fill="#3a3d41" fill-opacity="1"><g transform="translate(140.502772, 376.944261)"><g><path d="M 5.375 -21.78125 L 5.375 -7.671875 C 5.375 -5.484375 5.832031 -3.890625 6.75 -2.890625 C 7.675781 -1.898438 9.109375 -1.40625 11.046875 -1.40625 C 13.640625 -1.40625 15.546875 -2.054688 16.765625 -3.359375 C 17.984375 -4.671875 18.59375 -6.804688 18.59375 -9.765625 L 18.59375 -21.78125 L 20.5625 -21.78125 L 20.5625 0 L 18.875 0 L 18.515625 -3 L 18.40625 -3 C 16.988281 -0.726562 14.46875 0.40625 10.84375 0.40625 C 5.882812 0.40625 3.40625 -2.25 3.40625 -7.5625 L 3.40625 -21.78125 Z M 5.375 -21.78125 "/></g></g></g><g fill="#3a3d41" fill-opacity="1"><g transform="translate(164.709406, 376.944261)"><g><path d="M 17.15625 -5.671875 C 17.15625 -3.722656 16.410156 -2.222656 14.921875 -1.171875 C 13.441406 -0.117188 11.34375 0.40625 8.625 0.40625 C 5.707031 0.40625 3.394531 -0.0390625 1.6875 -0.9375 L 1.6875 -3.09375 C 3.875 -1.988281 6.1875 -1.4375 8.625 -1.4375 C 10.769531 -1.4375 12.398438 -1.796875 13.515625 -2.515625 C 14.628906 -3.234375 15.1875 -4.1875 15.1875 -5.375 C 15.1875 -6.46875 14.742188 -7.390625 13.859375 -8.140625 C 12.972656 -8.890625 11.515625 -9.625 9.484375 -10.34375 C 7.304688 -11.132812 5.773438 -11.8125 4.890625 -12.375 C 4.003906 -12.945312 3.335938 -13.585938 2.890625 -14.296875 C 2.441406 -15.015625 2.21875 -15.890625 2.21875 -16.921875 C 2.21875 -18.546875 2.898438 -19.832031 4.265625 -20.78125 C 5.640625 -21.726562 7.554688 -22.203125 10.015625 -22.203125 C 12.367188 -22.203125 14.601562 -21.765625 16.71875 -20.890625 L 15.96875 -19.078125 C 13.832031 -19.960938 11.847656 -20.40625 10.015625 -20.40625 C 8.242188 -20.40625 6.835938 -20.109375 5.796875 -19.515625 C 4.753906 -18.929688 4.234375 -18.117188 4.234375 -17.078125 C 4.234375 -15.941406 4.632812 -15.03125 5.4375 -14.34375 C 6.25 -13.664062 7.832031 -12.90625 10.1875 -12.0625 C 12.144531 -11.351562 13.570312 -10.710938 14.46875 -10.140625 C 15.363281 -9.578125 16.035156 -8.9375 16.484375 -8.21875 C 16.929688 -7.5 17.15625 -6.648438 17.15625 -5.671875 Z M 17.15625 -5.671875 "/></g></g></g><g fill="#3a3d41" fill-opacity="1"><g transform="translate(183.826234, 376.944261)"><g><path d="M 9.40625 -1.359375 C 10.65625 -1.359375 11.75 -1.46875 12.6875 -1.6875 L 12.6875 -0.078125 C 11.726562 0.242188 10.617188 0.40625 9.359375 0.40625 C 7.429688 0.40625 6.007812 -0.109375 5.09375 -1.140625 C 4.1875 -2.171875 3.734375 -3.789062 3.734375 -6 L 3.734375 -20.0625 L 0.5 -20.0625 L 0.5 -21.21875 L 3.734375 -22.125 L 4.734375 -27.0625 L 5.75 -27.0625 L 5.75 -21.78125 L 12.140625 -21.78125 L 12.140625 -20.0625 L 5.75 -20.0625 L 5.75 -6.265625 C 5.75 -4.597656 6.039062 -3.363281 6.625 -2.5625 C 7.21875 -1.757812 8.144531 -1.359375 9.40625 -1.359375 Z M 9.40625 -1.359375 "/></g></g></g><g fill="#3a3d41" fill-opacity="1"><g transform="translate(197.572717, 376.944261)"><g><path d="M 21.671875 -10.921875 C 21.671875 -7.367188 20.804688 -4.59375 19.078125 -2.59375 C 17.359375 -0.59375 14.976562 0.40625 11.9375 0.40625 C 10.03125 0.40625 8.347656 -0.0507812 6.890625 -0.96875 C 5.429688 -1.894531 4.316406 -3.21875 3.546875 -4.9375 C 2.773438 -6.664062 2.390625 -8.660156 2.390625 -10.921875 C 2.390625 -14.472656 3.25 -17.238281 4.96875 -19.21875 C 6.695312 -21.207031 9.0625 -22.203125 12.0625 -22.203125 C 15.0625 -22.203125 17.410156 -21.195312 19.109375 -19.1875 C 20.816406 -17.175781 21.671875 -14.421875 21.671875 -10.921875 Z M 4.46875 -10.921875 C 4.46875 -7.929688 5.125 -5.597656 6.4375 -3.921875 C 7.757812 -2.242188 9.625 -1.40625 12.03125 -1.40625 C 14.4375 -1.40625 16.296875 -2.242188 17.609375 -3.921875 C 18.921875 -5.597656 19.578125 -7.929688 19.578125 -10.921875 C 19.578125 -13.929688 18.910156 -16.265625 17.578125 -17.921875 C 16.253906 -19.578125 14.390625 -20.40625 11.984375 -20.40625 C 9.578125 -20.40625 7.722656 -19.578125 6.421875 -17.921875 C 5.117188 -16.273438 4.46875 -13.941406 4.46875 -10.921875 Z M 4.46875 -10.921875 "/></g></g></g><g fill="#3a3d41" fill-opacity="1"><g transform="translate(221.619042, 376.944261)"><g><path d="M 30.859375 0 L 30.859375 -14.296875 C 30.859375 -16.421875 30.441406 -17.96875 29.609375 -18.9375 C 28.785156 -19.914062 27.519531 -20.40625 25.8125 -20.40625 C 23.582031 -20.40625 21.929688 -19.789062 20.859375 -18.5625 C 19.796875 -17.332031 19.265625 -15.398438 19.265625 -12.765625 L 19.265625 0 L 17.234375 0 L 17.234375 -14.890625 C 17.234375 -18.566406 15.550781 -20.40625 12.1875 -20.40625 C 9.90625 -20.40625 8.238281 -19.738281 7.1875 -18.40625 C 6.144531 -17.082031 5.625 -14.957031 5.625 -12.03125 L 5.625 0 L 3.640625 0 L 3.640625 -21.78125 L 5.296875 -21.78125 L 5.71875 -18.796875 L 5.828125 -18.796875 C 6.429688 -19.878906 7.285156 -20.71875 8.390625 -21.3125 C 9.503906 -21.90625 10.726562 -22.203125 12.0625 -22.203125 C 15.5 -22.203125 17.703125 -20.914062 18.671875 -18.34375 L 18.765625 -18.34375 C 19.472656 -19.582031 20.421875 -20.535156 21.609375 -21.203125 C 22.804688 -21.867188 24.164062 -22.203125 25.6875 -22.203125 C 28.070312 -22.203125 29.859375 -21.566406 31.046875 -20.296875 C 32.234375 -19.035156 32.828125 -17.019531 32.828125 -14.25 L 32.828125 0 Z M 30.859375 0 "/></g></g></g><g fill="#3a3d41" fill-opacity="1"><g transform="translate(257.848837, 376.944261)"><g><path d="M 12.453125 0.40625 C 9.285156 0.40625 6.816406 -0.566406 5.046875 -2.515625 C 3.273438 -4.472656 2.390625 -7.207031 2.390625 -10.71875 C 2.390625 -14.195312 3.242188 -16.976562 4.953125 -19.0625 C 6.660156 -21.15625 8.960938 -22.203125 11.859375 -22.203125 C 14.429688 -22.203125 16.457031 -21.304688 17.9375 -19.515625 C 19.414062 -17.722656 20.15625 -15.289062 20.15625 -12.21875 L 20.15625 -10.625 L 4.46875 -10.625 C 4.5 -7.632812 5.195312 -5.347656 6.5625 -3.765625 C 7.9375 -2.191406 9.898438 -1.40625 12.453125 -1.40625 C 13.691406 -1.40625 14.78125 -1.488281 15.71875 -1.65625 C 16.664062 -1.832031 17.859375 -2.207031 19.296875 -2.78125 L 19.296875 -0.984375 C 18.066406 -0.453125 16.929688 -0.0859375 15.890625 0.109375 C 14.847656 0.304688 13.703125 0.40625 12.453125 0.40625 Z M 11.859375 -20.4375 C 9.765625 -20.4375 8.082031 -19.742188 6.8125 -18.359375 C 5.539062 -16.984375 4.800781 -14.992188 4.59375 -12.390625 L 18.0625 -12.390625 C 18.0625 -14.910156 17.507812 -16.878906 16.40625 -18.296875 C 15.3125 -19.722656 13.796875 -20.4375 11.859375 -20.4375 Z M 11.859375 -20.4375 "/></g></g></g><g fill="#3a3d41" fill-opacity="1"><g transform="translate(280.372228, 376.944261)"><g><path d="M 12.21875 -22.203125 C 13.144531 -22.203125 14.132812 -22.109375 15.1875 -21.921875 L 14.8125 -20.015625 C 13.90625 -20.242188 12.960938 -20.359375 11.984375 -20.359375 C 10.128906 -20.359375 8.601562 -19.570312 7.40625 -18 C 6.21875 -16.425781 5.625 -14.4375 5.625 -12.03125 L 5.625 0 L 3.640625 0 L 3.640625 -21.78125 L 5.328125 -21.78125 L 5.53125 -17.859375 L 5.671875 -17.859375 C 6.566406 -19.460938 7.519531 -20.585938 8.53125 -21.234375 C 9.550781 -21.878906 10.78125 -22.203125 12.21875 -22.203125 Z M 12.21875 -22.203125 "/></g></g></g><g fill="#3a3d41" fill-opacity="1"><g transform="translate(296.342995, 376.944261)"><g><path d="M 1.84375 -10.265625 L 1.84375 -11.90625 L 11.359375 -11.90625 L 11.359375 -10.265625 Z M 1.84375 -10.265625 "/></g></g></g><g fill="#3a3d41" fill-opacity="1"><g transform="translate(309.548435, 376.944261)"><g><path d="M 21.671875 -10.921875 C 21.671875 -7.367188 20.804688 -4.59375 19.078125 -2.59375 C 17.359375 -0.59375 14.976562 0.40625 11.9375 0.40625 C 10.03125 0.40625 8.347656 -0.0507812 6.890625 -0.96875 C 5.429688 -1.894531 4.316406 -3.21875 3.546875 -4.9375 C 2.773438 -6.664062 2.390625 -8.660156 2.390625 -10.921875 C 2.390625 -14.472656 3.25 -17.238281 4.96875 -19.21875 C 6.695312 -21.207031 9.0625 -22.203125 12.0625 -22.203125 C 15.0625 -22.203125 17.410156 -21.195312 19.109375 -19.1875 C 20.816406 -17.175781 21.671875 -14.421875 21.671875 -10.921875 Z M 4.46875 -10.921875 C 4.46875 -7.929688 5.125 -5.597656 6.4375 -3.921875 C 7.757812 -2.242188 9.625 -1.40625 12.03125 -1.40625 C 14.4375 -1.40625 16.296875 -2.242188 17.609375 -3.921875 C 18.921875 -5.597656 19.578125 -7.929688 19.578125 -10.921875 C 19.578125 -13.929688 18.910156 -16.265625 17.578125 -17.921875 C 16.253906 -19.578125 14.390625 -20.40625 11.984375 -20.40625 C 9.578125 -20.40625 7.722656 -19.578125 6.421875 -17.921875 C 5.117188 -16.273438 4.46875 -13.941406 4.46875 -10.921875 Z M 4.46875 -10.921875 "/></g></g></g><g fill="#3a3d41" fill-opacity="1"><g transform="translate(333.59476, 376.944261)"><g><path d="M 12.21875 -22.203125 C 13.144531 -22.203125 14.132812 -22.109375 15.1875 -21.921875 L 14.8125 -20.015625 C 13.90625 -20.242188 12.960938 -20.359375 11.984375 -20.359375 C 10.128906 -20.359375 8.601562 -19.570312 7.40625 -18 C 6.21875 -16.425781 5.625 -14.4375 5.625 -12.03125 L 5.625 0 L 3.640625 0 L 3.640625 -21.78125 L 5.328125 -21.78125 L 5.53125 -17.859375 L 5.671875 -17.859375 C 6.566406 -19.460938 7.519531 -20.585938 8.53125 -21.234375 C 9.550781 -21.878906 10.78125 -22.203125 12.21875 -22.203125 Z M 12.21875 -22.203125 "/></g></g></g><g fill="#3a3d41" fill-opacity="1"><g transform="translate(349.565539, 376.944261)"><g><path d="M 5.625 0 L 3.640625 0 L 3.640625 -21.78125 L 5.625 -21.78125 Z M 3.359375 -27.84375 C 3.359375 -29.125 3.78125 -29.765625 4.625 -29.765625 C 5.039062 -29.765625 5.363281 -29.597656 5.59375 -29.265625 C 5.832031 -28.929688 5.953125 -28.457031 5.953125 -27.84375 C 5.953125 -27.238281 5.832031 -26.757812 5.59375 -26.40625 C 5.363281 -26.0625 5.039062 -25.890625 4.625 -25.890625 C 3.78125 -25.890625 3.359375 -26.539062 3.359375 -27.84375 Z M 3.359375 -27.84375 "/></g></g></g><g fill="#3a3d41" fill-opacity="1"><g transform="translate(358.843401, 376.944261)"><g><path d="M 12.453125 0.40625 C 9.285156 0.40625 6.816406 -0.566406 5.046875 -2.515625 C 3.273438 -4.472656 2.390625 -7.207031 2.390625 -10.71875 C 2.390625 -14.195312 3.242188 -16.976562 4.953125 -19.0625 C 6.660156 -21.15625 8.960938 -22.203125 11.859375 -22.203125 C 14.429688 -22.203125 16.457031 -21.304688 17.9375 -19.515625 C 19.414062 -17.722656 20.15625 -15.289062 20.15625 -12.21875 L 20.15625 -10.625 L 4.46875 -10.625 C 4.5 -7.632812 5.195312 -5.347656 6.5625 -3.765625 C 7.9375 -2.191406 9.898438 -1.40625 12.453125 -1.40625 C 13.691406 -1.40625 14.78125 -1.488281 15.71875 -1.65625 C 16.664062 -1.832031 17.859375 -2.207031 19.296875 -2.78125 L 19.296875 -0.984375 C 18.066406 -0.453125 16.929688 -0.0859375 15.890625 0.109375 C 14.847656 0.304688 13.703125 0.40625 12.453125 0.40625 Z M 11.859375 -20.4375 C 9.765625 -20.4375 8.082031 -19.742188 6.8125 -18.359375 C 5.539062 -16.984375 4.800781 -14.992188 4.59375 -12.390625 L 18.0625 -12.390625 C 18.0625 -14.910156 17.507812 -16.878906 16.40625 -18.296875 C 15.3125 -19.722656 13.796875 -20.4375 11.859375 -20.4375 Z M 11.859375 -20.4375 "/></g></g></g><g fill="#3a3d41" fill-opacity="1"><g transform="translate(381.366792, 376.944261)"><g><path d="M 18.84375 0 L 18.84375 -14.125 C 18.84375 -16.320312 18.378906 -17.914062 17.453125 -18.90625 C 16.535156 -19.90625 15.109375 -20.40625 13.171875 -20.40625 C 10.566406 -20.40625 8.65625 -19.742188 7.4375 -18.421875 C 6.226562 -17.109375 5.625 -14.976562 5.625 -12.03125 L 5.625 0 L 3.640625 0 L 3.640625 -21.78125 L 5.328125 -21.78125 L 5.71875 -18.796875 L 5.828125 -18.796875 C 7.242188 -21.066406 9.765625 -22.203125 13.390625 -22.203125 C 18.328125 -22.203125 20.796875 -19.550781 20.796875 -14.25 L 20.796875 0 Z M 18.84375 0 "/></g></g></g><g fill="#3a3d41" fill-opacity="1"><g transform="translate(405.573426, 376.944261)"><g><path d="M 9.40625 -1.359375 C 10.65625 -1.359375 11.75 -1.46875 12.6875 -1.6875 L 12.6875 -0.078125 C 11.726562 0.242188 10.617188 0.40625 9.359375 0.40625 C 7.429688 0.40625 6.007812 -0.109375 5.09375 -1.140625 C 4.1875 -2.171875 3.734375 -3.789062 3.734375 -6 L 3.734375 -20.0625 L 0.5 -20.0625 L 0.5 -21.21875 L 3.734375 -22.125 L 4.734375 -27.0625 L 5.75 -27.0625 L 5.75 -21.78125 L 12.140625 -21.78125 L 12.140625 -20.0625 L 5.75 -20.0625 L 5.75 -6.265625 C 5.75 -4.597656 6.039062 -3.363281 6.625 -2.5625 C 7.21875 -1.757812 8.144531 -1.359375 9.40625 -1.359375 Z M 9.40625 -1.359375 "/></g></g></g><g fill="#3a3d41" fill-opacity="1"><g transform="translate(419.319908, 376.944261)"><g><path d="M 12.453125 0.40625 C 9.285156 0.40625 6.816406 -0.566406 5.046875 -2.515625 C 3.273438 -4.472656 2.390625 -7.207031 2.390625 -10.71875 C 2.390625 -14.195312 3.242188 -16.976562 4.953125 -19.0625 C 6.660156 -21.15625 8.960938 -22.203125 11.859375 -22.203125 C 14.429688 -22.203125 16.457031 -21.304688 17.9375 -19.515625 C 19.414062 -17.722656 20.15625 -15.289062 20.15625 -12.21875 L 20.15625 -10.625 L 4.46875 -10.625 C 4.5 -7.632812 5.195312 -5.347656 6.5625 -3.765625 C 7.9375 -2.191406 9.898438 -1.40625 12.453125 -1.40625 C 13.691406 -1.40625 14.78125 -1.488281 15.71875 -1.65625 C 16.664062 -1.832031 17.859375 -2.207031 19.296875 -2.78125 L 19.296875 -0.984375 C 18.066406 -0.453125 16.929688 -0.0859375 15.890625 0.109375 C 14.847656 0.304688 13.703125 0.40625 12.453125 0.40625 Z M 11.859375 -20.4375 C 9.765625 -20.4375 8.082031 -19.742188 6.8125 -18.359375 C 5.539062 -16.984375 4.800781 -14.992188 4.59375 -12.390625 L 18.0625 -12.390625 C 18.0625 -14.910156 17.507812 -16.878906 16.40625 -18.296875 C 15.3125 -19.722656 13.796875 -20.4375 11.859375 -20.4375 Z M 11.859375 -20.4375 "/></g></g></g><g fill="#3a3d41" fill-opacity="1"><g transform="translate(441.843299, 376.944261)"><g><path d="M 11.625 -22.203125 C 13.195312 -22.203125 14.554688 -21.914062 15.703125 -21.34375 C 16.859375 -20.769531 17.890625 -19.789062 18.796875 -18.40625 L 18.921875 -18.40625 C 18.835938 -20.082031 18.796875 -21.726562 18.796875 -23.34375 L 18.796875 -31.1875 L 20.765625 -31.1875 L 20.765625 0 L 19.46875 0 L 18.953125 -3.328125 L 18.796875 -3.328125 C 17.140625 -0.835938 14.765625 0.40625 11.671875 0.40625 C 8.660156 0.40625 6.359375 -0.53125 4.765625 -2.40625 C 3.179688 -4.28125 2.390625 -7.003906 2.390625 -10.578125 C 2.390625 -14.347656 3.175781 -17.226562 4.75 -19.21875 C 6.320312 -21.207031 8.613281 -22.203125 11.625 -22.203125 Z M 11.625 -20.40625 C 9.25 -20.40625 7.460938 -19.566406 6.265625 -17.890625 C 5.066406 -16.222656 4.46875 -13.800781 4.46875 -10.625 C 4.46875 -4.445312 6.867188 -1.359375 11.671875 -1.359375 C 14.128906 -1.359375 15.929688 -2.070312 17.078125 -3.5 C 18.222656 -4.9375 18.796875 -7.296875 18.796875 -10.578125 L 18.796875 -10.921875 C 18.796875 -14.285156 18.226562 -16.707031 17.09375 -18.1875 C 15.96875 -19.664062 14.144531 -20.40625 11.625 -20.40625 Z M 11.625 -20.40625 "/></g></g></g><g fill="#3a3d41" fill-opacity="1"><g transform="translate(466.270368, 376.944261)"><g/></g></g><g fill="#3a3d41" fill-opacity="1"><g transform="translate(476.930906, 376.944261)"><g><path d="M 16.875 0 L 16.375 -3.453125 L 16.21875 -3.453125 C 15.125 -2.046875 14 -1.050781 12.84375 -0.46875 C 11.6875 0.113281 10.316406 0.40625 8.734375 0.40625 C 6.597656 0.40625 4.9375 -0.140625 3.75 -1.234375 C 2.5625 -2.335938 1.96875 -3.859375 1.96875 -5.796875 C 1.96875 -7.921875 2.851562 -9.566406 4.625 -10.734375 C 6.394531 -11.910156 8.957031 -12.535156 12.3125 -12.609375 L 16.453125 -12.734375 L 16.453125 -14.171875 C 16.453125 -16.242188 16.03125 -17.804688 15.1875 -18.859375 C 14.34375 -19.910156 12.988281 -20.4375 11.125 -20.4375 C 9.101562 -20.4375 7.007812 -19.878906 4.84375 -18.765625 L 4.109375 -20.484375 C 6.503906 -21.609375 8.867188 -22.171875 11.203125 -22.171875 C 13.597656 -22.171875 15.382812 -21.546875 16.5625 -20.296875 C 17.75 -19.054688 18.34375 -17.117188 18.34375 -14.484375 L 18.34375 0 Z M 8.859375 -1.40625 C 11.179688 -1.40625 13.015625 -2.066406 14.359375 -3.390625 C 15.703125 -4.722656 16.375 -6.570312 16.375 -8.9375 L 16.375 -11.078125 L 12.5625 -10.921875 C 9.507812 -10.773438 7.328125 -10.296875 6.015625 -9.484375 C 4.710938 -8.679688 4.0625 -7.425781 4.0625 -5.71875 C 4.0625 -4.351562 4.476562 -3.289062 5.3125 -2.53125 C 6.15625 -1.78125 7.335938 -1.40625 8.859375 -1.40625 Z M 8.859375 -1.40625 "/></g></g></g><g fill="#3a3d41" fill-opacity="1"><g transform="translate(498.672802, 376.944261)"><g><path d="M 12.96875 0.40625 C 9.613281 0.40625 7.164062 -0.847656 5.625 -3.359375 L 5.484375 -3.359375 L 5.546875 -1.6875 C 5.597656 -0.695312 5.625 0.382812 5.625 1.5625 L 5.625 9.859375 L 3.640625 9.859375 L 3.640625 -21.78125 L 5.328125 -21.78125 L 5.71875 -18.671875 L 5.828125 -18.671875 C 7.328125 -21.023438 9.71875 -22.203125 13 -22.203125 C 15.945312 -22.203125 18.191406 -21.238281 19.734375 -19.3125 C 21.273438 -17.382812 22.046875 -14.578125 22.046875 -10.890625 C 22.046875 -7.304688 21.234375 -4.523438 19.609375 -2.546875 C 17.984375 -0.578125 15.769531 0.40625 12.96875 0.40625 Z M 12.921875 -1.359375 C 15.160156 -1.359375 16.890625 -2.1875 18.109375 -3.84375 C 19.328125 -5.5 19.9375 -7.816406 19.9375 -10.796875 C 19.9375 -17.203125 17.625 -20.40625 13 -20.40625 C 10.46875 -20.40625 8.601562 -19.707031 7.40625 -18.3125 C 6.21875 -16.914062 5.625 -14.640625 5.625 -11.484375 L 5.625 -10.84375 C 5.625 -7.4375 6.195312 -5.003906 7.34375 -3.546875 C 8.488281 -2.085938 10.347656 -1.359375 12.921875 -1.359375 Z M 12.921875 -1.359375 "/></g></g></g><g fill="#3a3d41" fill-opacity="1"><g transform="translate(523.099849, 376.944261)"><g><path d="M 12.96875 0.40625 C 9.613281 0.40625 7.164062 -0.847656 5.625 -3.359375 L 5.484375 -3.359375 L 5.546875 -1.6875 C 5.597656 -0.695312 5.625 0.382812 5.625 1.5625 L 5.625 9.859375 L 3.640625 9.859375 L 3.640625 -21.78125 L 5.328125 -21.78125 L 5.71875 -18.671875 L 5.828125 -18.671875 C 7.328125 -21.023438 9.71875 -22.203125 13 -22.203125 C 15.945312 -22.203125 18.191406 -21.238281 19.734375 -19.3125 C 21.273438 -17.382812 22.046875 -14.578125 22.046875 -10.890625 C 22.046875 -7.304688 21.234375 -4.523438 19.609375 -2.546875 C 17.984375 -0.578125 15.769531 0.40625 12.96875 0.40625 Z M 12.921875 -1.359375 C 15.160156 -1.359375 16.890625 -2.1875 18.109375 -3.84375 C 19.328125 -5.5 19.9375 -7.816406 19.9375 -10.796875 C 19.9375 -17.203125 17.625 -20.40625 13 -20.40625 C 10.46875 -20.40625 8.601562 -19.707031 7.40625 -18.3125 C 6.21875 -16.914062 5.625 -14.640625 5.625 -11.484375 L 5.625 -10.84375 C 5.625 -7.4375 6.195312 -5.003906 7.34375 -3.546875 C 8.488281 -2.085938 10.347656 -1.359375 12.921875 -1.359375 Z M 12.921875 -1.359375 "/></g></g></g><g fill="#3a3d41" fill-opacity="1"><g transform="translate(547.526896, 376.944261)"><g><path d="M 12.21875 -22.203125 C 13.144531 -22.203125 14.132812 -22.109375 15.1875 -21.921875 L 14.8125 -20.015625 C 13.90625 -20.242188 12.960938 -20.359375 11.984375 -20.359375 C 10.128906 -20.359375 8.601562 -19.570312 7.40625 -18 C 6.21875 -16.425781 5.625 -14.4375 5.625 -12.03125 L 5.625 0 L 3.640625 0 L 3.640625 -21.78125 L 5.328125 -21.78125 L 5.53125 -17.859375 L 5.671875 -17.859375 C 6.566406 -19.460938 7.519531 -20.585938 8.53125 -21.234375 C 9.550781 -21.878906 10.78125 -22.203125 12.21875 -22.203125 Z M 12.21875 -22.203125 "/></g></g></g><g fill="#3a3d41" fill-opacity="1"><g transform="translate(563.497675, 376.944261)"><g><path d="M 21.671875 -10.921875 C 21.671875 -7.367188 20.804688 -4.59375 19.078125 -2.59375 C 17.359375 -0.59375 14.976562 0.40625 11.9375 0.40625 C 10.03125 0.40625 8.347656 -0.0507812 6.890625 -0.96875 C 5.429688 -1.894531 4.316406 -3.21875 3.546875 -4.9375 C 2.773438 -6.664062 2.390625 -8.660156 2.390625 -10.921875 C 2.390625 -14.472656 3.25 -17.238281 4.96875 -19.21875 C 6.695312 -21.207031 9.0625 -22.203125 12.0625 -22.203125 C 15.0625 -22.203125 17.410156 -21.195312 19.109375 -19.1875 C 20.816406 -17.175781 21.671875 -14.421875 21.671875 -10.921875 Z M 4.46875 -10.921875 C 4.46875 -7.929688 5.125 -5.597656 6.4375 -3.921875 C 7.757812 -2.242188 9.625 -1.40625 12.03125 -1.40625 C 14.4375 -1.40625 16.296875 -2.242188 17.609375 -3.921875 C 18.921875 -5.597656 19.578125 -7.929688 19.578125 -10.921875 C 19.578125 -13.929688 18.910156 -16.265625 17.578125 -17.921875 C 16.253906 -19.578125 14.390625 -20.40625 11.984375 -20.40625 C 9.578125 -20.40625 7.722656 -19.578125 6.421875 -17.921875 C 5.117188 -16.273438 4.46875 -13.941406 4.46875 -10.921875 Z M 4.46875 -10.921875 "/></g></g></g><g fill="#3a3d41" fill-opacity="1"><g transform="translate(587.544, 376.944261)"><g><path d="M 16.875 0 L 16.375 -3.453125 L 16.21875 -3.453125 C 15.125 -2.046875 14 -1.050781 12.84375 -0.46875 C 11.6875 0.113281 10.316406 0.40625 8.734375 0.40625 C 6.597656 0.40625 4.9375 -0.140625 3.75 -1.234375 C 2.5625 -2.335938 1.96875 -3.859375 1.96875 -5.796875 C 1.96875 -7.921875 2.851562 -9.566406 4.625 -10.734375 C 6.394531 -11.910156 8.957031 -12.535156 12.3125 -12.609375 L 16.453125 -12.734375 L 16.453125 -14.171875 C 16.453125 -16.242188 16.03125 -17.804688 15.1875 -18.859375 C 14.34375 -19.910156 12.988281 -20.4375 11.125 -20.4375 C 9.101562 -20.4375 7.007812 -19.878906 4.84375 -18.765625 L 4.109375 -20.484375 C 6.503906 -21.609375 8.867188 -22.171875 11.203125 -22.171875 C 13.597656 -22.171875 15.382812 -21.546875 16.5625 -20.296875 C 17.75 -19.054688 18.34375 -17.117188 18.34375 -14.484375 L 18.34375 0 Z M 8.859375 -1.40625 C 11.179688 -1.40625 13.015625 -2.066406 14.359375 -3.390625 C 15.703125 -4.722656 16.375 -6.570312 16.375 -8.9375 L 16.375 -11.078125 L 12.5625 -10.921875 C 9.507812 -10.773438 7.328125 -10.296875 6.015625 -9.484375 C 4.710938 -8.679688 4.0625 -7.425781 4.0625 -5.71875 C 4.0625 -4.351562 4.476562 -3.289062 5.3125 -2.53125 C 6.15625 -1.78125 7.335938 -1.40625 8.859375 -1.40625 Z M 8.859375 -1.40625 "/></g></g></g><g fill="#3a3d41" fill-opacity="1"><g transform="translate(609.285897, 376.944261)"><g><path d="M 12.34375 0.40625 C 9.226562 0.40625 6.789062 -0.570312 5.03125 -2.53125 C 3.269531 -4.5 2.390625 -7.242188 2.390625 -10.765625 C 2.390625 -14.367188 3.300781 -17.175781 5.125 -19.1875 C 6.957031 -21.195312 9.460938 -22.203125 12.640625 -22.203125 C 14.523438 -22.203125 16.332031 -21.875 18.0625 -21.21875 L 17.515625 -19.46875 C 15.628906 -20.09375 13.992188 -20.40625 12.609375 -20.40625 C 9.929688 -20.40625 7.90625 -19.578125 6.53125 -17.921875 C 5.15625 -16.273438 4.46875 -13.898438 4.46875 -10.796875 C 4.46875 -7.859375 5.15625 -5.554688 6.53125 -3.890625 C 7.90625 -2.234375 9.832031 -1.40625 12.3125 -1.40625 C 14.28125 -1.40625 16.113281 -1.757812 17.8125 -2.46875 L 17.8125 -0.625 C 16.425781 0.0625 14.601562 0.40625 12.34375 0.40625 Z M 12.34375 0.40625 "/></g></g></g><g fill="#3a3d41" fill-opacity="1"><g transform="translate(628.78347, 376.944261)"><g><path d="M 18.84375 0 L 18.84375 -14.125 C 18.84375 -16.320312 18.378906 -17.914062 17.453125 -18.90625 C 16.535156 -19.90625 15.109375 -20.40625 13.171875 -20.40625 C 10.566406 -20.40625 8.65625 -19.742188 7.4375 -18.421875 C 6.226562 -17.109375 5.625 -14.976562 5.625 -12.03125 L 5.625 0 L 3.640625 0 L 3.640625 -31.1875 L 5.625 -31.1875 L 5.625 -21.265625 L 5.53125 -18.484375 L 5.671875 -18.484375 C 6.484375 -19.785156 7.507812 -20.726562 8.75 -21.3125 C 10 -21.90625 11.546875 -22.203125 13.390625 -22.203125 C 18.328125 -22.203125 20.796875 -19.550781 20.796875 -14.25 L 20.796875 0 Z M 18.84375 0 "/></g></g></g><g fill="#3a3d41" fill-opacity="1"><g transform="translate(160.904291, 445.065361)"><g><path d="M 22.796875 -3.75 L 22.796875 0 L 1.5625 0 L 1.5625 -3.75 L 4.453125 -3.75 C 3.484375 -5.070312 3 -6.539062 3 -8.15625 C 3 -9.769531 3.460938 -11.210938 4.390625 -12.484375 C 5.316406 -13.765625 6.59375 -14.765625 8.21875 -15.484375 C 9.84375 -16.203125 11.660156 -16.5625 13.671875 -16.5625 C 14.972656 -16.5625 16.414062 -16.394531 18 -16.0625 C 19.582031 -15.738281 20.9375 -15.332031 22.0625 -14.84375 L 20.265625 -11.015625 C 19.359375 -11.398438 18.289062 -11.722656 17.0625 -11.984375 C 15.84375 -12.242188 14.710938 -12.375 13.671875 -12.375 C 11.796875 -12.375 10.296875 -11.984375 9.171875 -11.203125 C 8.054688 -10.421875 7.5 -9.40625 7.5 -8.15625 C 7.5 -6.90625 8.03125 -5.859375 9.09375 -5.015625 C 10.164062 -4.171875 11.484375 -3.75 13.046875 -3.75 Z M 22.796875 -3.75 "/></g></g></g><g fill="#3a3d41" fill-opacity="1"><g transform="translate(185.269551, 445.065361)"><g><path d="M 27.84375 -4.171875 C 28.363281 -4.171875 28.625 -3.484375 28.625 -2.109375 C 28.625 -0.703125 28.363281 0 27.84375 0 L 25.6875 0 C 23.476562 0 21.65625 -0.554688 20.21875 -1.671875 C 19 -0.554688 17.113281 0 14.5625 0 L 1.5625 0 L 1.5625 -4.171875 L 6.515625 -4.171875 L 6.515625 -23.421875 L 11.015625 -23.421875 L 11.015625 -4.171875 L 14.21875 -4.171875 C 15.625 -4.171875 16.585938 -4.453125 17.109375 -5.015625 C 17.628906 -5.578125 17.890625 -6.546875 17.890625 -7.921875 L 17.890625 -28.9375 L 22.375 -28.9375 L 22.375 -7.890625 C 22.375 -6.710938 22.253906 -5.671875 22.015625 -4.765625 C 22.691406 -4.367188 23.515625 -4.171875 24.484375 -4.171875 Z M 27.84375 -4.171875 "/></g></g></g><g fill="#3a3d41" fill-opacity="1"><g transform="translate(213.109981, 445.065361)"><g><path d="M 29.5625 -4.171875 C 30.082031 -4.171875 30.34375 -3.484375 30.34375 -2.109375 C 30.34375 -0.703125 30.082031 0 29.5625 0 L 29.28125 0 C 26.757812 0 24.742188 -0.6875 23.234375 -2.0625 C 21.515625 -1.382812 19.71875 -0.867188 17.84375 -0.515625 C 15.96875 -0.171875 14.289062 0 12.8125 0 C 10.332031 0 7.921875 -0.519531 5.578125 -1.5625 C 4.222656 -0.519531 2.546875 0 0.546875 0 L 0 0 C -0.519531 0 -0.78125 -0.703125 -0.78125 -2.109375 C -0.78125 -3.484375 -0.519531 -4.171875 0 -4.171875 L 0.546875 -4.171875 C 2.316406 -4.171875 3.28125 -4.875 3.4375 -6.28125 C 3.59375 -8.050781 3.835938 -9.738281 4.171875 -11.34375 C 4.515625 -12.945312 5.328125 -14.613281 6.609375 -16.34375 C 7.898438 -18.070312 9.785156 -18.9375 12.265625 -18.9375 C 14.085938 -18.9375 15.816406 -18.414062 17.453125 -17.375 C 19.085938 -16.332031 20.484375 -14.882812 21.640625 -13.03125 C 22.804688 -11.1875 23.582031 -9.109375 23.96875 -6.796875 C 24.257812 -5.960938 24.753906 -5.316406 25.453125 -4.859375 C 26.160156 -4.398438 27.035156 -4.171875 28.078125 -4.171875 Z M 7.8125 -5.1875 C 9.425781 -4.507812 11.101562 -4.171875 12.84375 -4.171875 C 15.03125 -4.171875 17.28125 -4.550781 19.59375 -5.3125 C 19.394531 -7.03125 18.9375 -8.617188 18.21875 -10.078125 C 17.5 -11.535156 16.628906 -12.679688 15.609375 -13.515625 C 14.597656 -14.347656 13.5625 -14.765625 12.5 -14.765625 C 11.375 -14.765625 10.492188 -14.328125 9.859375 -13.453125 C 9.222656 -12.578125 8.785156 -11.585938 8.546875 -10.484375 C 8.316406 -9.378906 8.132812 -8.109375 8 -6.671875 L 7.890625 -5.578125 C 7.890625 -5.523438 7.863281 -5.394531 7.8125 -5.1875 Z M 7.8125 -5.1875 "/></g></g></g><g fill="#3a3d41" fill-opacity="1"><g transform="translate(242.668467, 445.065361)"><g><path d="M 26.9375 -4.171875 C 27.457031 -4.171875 27.71875 -3.484375 27.71875 -2.109375 C 27.71875 -0.703125 27.457031 0 26.9375 0 L 20.109375 0 C 17.222656 0 14.554688 -0.503906 12.109375 -1.515625 C 9.367188 -0.503906 6.984375 0 4.953125 0 L 0 0 C -0.519531 0 -0.78125 -0.703125 -0.78125 -2.109375 C -0.78125 -3.484375 -0.519531 -4.171875 0 -4.171875 L 4.953125 -4.171875 C 5.816406 -4.171875 6.648438 -4.265625 7.453125 -4.453125 C 5.003906 -6.585938 3.300781 -9.347656 2.34375 -12.734375 L 6.125 -19.25 C 8.394531 -19.894531 10.632812 -20.21875 12.84375 -20.21875 C 15.082031 -20.21875 17.050781 -19.925781 18.75 -19.34375 C 20.457031 -18.757812 21.785156 -17.925781 22.734375 -16.84375 C 23.691406 -15.769531 24.171875 -14.53125 24.171875 -13.125 C 24.171875 -11.53125 23.582031 -9.976562 22.40625 -8.46875 C 21.238281 -6.957031 19.679688 -5.578125 17.734375 -4.328125 C 18.378906 -4.222656 19.171875 -4.171875 20.109375 -4.171875 Z M 6.515625 -14.84375 C 6.929688 -12.914062 7.644531 -11.207031 8.65625 -9.71875 C 9.675781 -8.238281 10.957031 -7.039062 12.5 -6.125 C 14.53125 -7.09375 16.234375 -8.21875 17.609375 -9.5 C 18.984375 -10.789062 19.671875 -11.957031 19.671875 -13 C 19.671875 -13.914062 19.070312 -14.648438 17.875 -15.203125 C 16.6875 -15.765625 15.023438 -16.046875 12.890625 -16.046875 C 10.671875 -16.046875 8.546875 -15.644531 6.515625 -14.84375 Z M 6.515625 -14.84375 "/></g></g></g><g fill="#3a3d41" fill-opacity="1"><g transform="translate(269.610811, 445.065361)"><g><path d="M 3 -28.9375 L 7.5 -28.9375 L 7.5 0 L 0 0 C -0.519531 0 -0.78125 -0.703125 -0.78125 -2.109375 C -0.78125 -3.484375 -0.519531 -4.171875 0 -4.171875 L 3 -4.171875 Z M 3 -28.9375 "/></g></g></g><g fill="#3a3d41" fill-opacity="1"><g transform="translate(280.231568, 445.065361)"><g><path d="M 8 0 L 3.515625 0 L 3.515625 -28.9375 L 8 -28.9375 Z M 8 0 "/></g></g></g><g fill="#3a3d41" fill-opacity="1"><g transform="translate(291.750401, 445.065361)"><g/></g></g><g fill="#3a3d41" fill-opacity="1"><g transform="translate(302.293064, 445.065361)"><g><path d="M 25.421875 -4.171875 C 25.941406 -4.171875 26.203125 -3.484375 26.203125 -2.109375 C 26.203125 -0.703125 25.941406 0 25.421875 0 L 24.59375 0 C 21.394531 0 19.195312 -0.921875 18 -2.765625 C 17.0625 -2.328125 16.046875 -1.96875 14.953125 -1.6875 C 13.859375 -1.414062 12.804688 -1.28125 11.796875 -1.28125 C 9.941406 -1.28125 8.234375 -1.703125 6.671875 -2.546875 C 5.109375 -3.398438 3.863281 -4.5625 2.9375 -6.03125 C 2.019531 -7.5 1.5625 -9.109375 1.5625 -10.859375 C 1.5625 -12.628906 2.019531 -14.242188 2.9375 -15.703125 C 3.863281 -17.160156 5.109375 -18.316406 6.671875 -19.171875 C 8.234375 -20.023438 9.925781 -20.453125 11.75 -20.453125 L 16.796875 -20.453125 L 16.796875 -21.4375 L 21.28125 -21.4375 L 21.28125 -7.921875 C 21.28125 -6.546875 21.539062 -5.578125 22.0625 -5.015625 C 22.582031 -4.453125 23.546875 -4.171875 24.953125 -4.171875 Z M 11.90625 -5.5 C 13.519531 -5.5 15.160156 -5.96875 16.828125 -6.90625 C 16.804688 -7.113281 16.796875 -7.441406 16.796875 -7.890625 L 16.796875 -16.28125 L 11.75 -16.28125 C 10.707031 -16.28125 9.75 -16.039062 8.875 -15.5625 C 8.007812 -15.082031 7.320312 -14.425781 6.8125 -13.59375 C 6.300781 -12.757812 6.046875 -11.847656 6.046875 -10.859375 C 6.046875 -9.867188 6.289062 -8.96875 6.78125 -8.15625 C 7.28125 -7.351562 7.976562 -6.707031 8.875 -6.21875 C 9.78125 -5.738281 10.789062 -5.5 11.90625 -5.5 Z M 8.59375 -23.625 C 7.914062 -23.625 7.347656 -23.859375 6.890625 -24.328125 C 6.429688 -24.796875 6.203125 -25.378906 6.203125 -26.078125 C 6.203125 -26.785156 6.429688 -27.375 6.890625 -27.84375 C 7.347656 -28.3125 7.914062 -28.546875 8.59375 -28.546875 C 9.269531 -28.546875 9.832031 -28.316406 10.28125 -27.859375 C 10.738281 -27.398438 10.96875 -26.804688 10.96875 -26.078125 C 10.96875 -25.378906 10.738281 -24.796875 10.28125 -24.328125 C 9.832031 -23.859375 9.269531 -23.625 8.59375 -23.625 Z M 14.765625 -23.625 C 14.085938 -23.625 13.519531 -23.859375 13.0625 -24.328125 C 12.601562 -24.796875 12.375 -25.378906 12.375 -26.078125 C 12.375 -26.785156 12.601562 -27.375 13.0625 -27.84375 C 13.519531 -28.3125 14.085938 -28.546875 14.765625 -28.546875 C 15.441406 -28.546875 16.003906 -28.316406 16.453125 -27.859375 C 16.910156 -27.398438 17.140625 -26.804688 17.140625 -26.078125 C 17.140625 -25.378906 16.910156 -24.796875 16.453125 -24.328125 C 16.003906 -23.859375 15.441406 -23.625 14.765625 -23.625 Z M 14.765625 -23.625 "/></g></g></g><g fill="#3a3d41" fill-opacity="1"><g transform="translate(327.712588, 445.065361)"><g><path d="M 12.265625 -18.9375 C 14.453125 -18.9375 16.488281 -18.203125 18.375 -16.734375 C 20.257812 -15.265625 21.734375 -13.269531 22.796875 -10.75 C 23.867188 -8.238281 24.335938 -5.488281 24.203125 -2.5 C 22.410156 -1.6875 20.476562 -1.066406 18.40625 -0.640625 C 16.34375 -0.210938 14.476562 0 12.8125 0 C 10.332031 0 7.921875 -0.519531 5.578125 -1.5625 C 4.222656 -0.519531 2.546875 0 0.546875 0 L 0 0 C -0.519531 0 -0.78125 -0.703125 -0.78125 -2.109375 C -0.78125 -3.484375 -0.519531 -4.171875 0 -4.171875 L 0.546875 -4.171875 C 2.316406 -4.171875 3.28125 -4.875 3.4375 -6.28125 C 3.59375 -8.050781 3.835938 -9.738281 4.171875 -11.34375 C 4.515625 -12.945312 5.328125 -14.613281 6.609375 -16.34375 C 7.898438 -18.070312 9.785156 -18.9375 12.265625 -18.9375 Z M 7.8125 -5.1875 C 9.425781 -4.507812 11.101562 -4.171875 12.84375 -4.171875 C 15.03125 -4.171875 17.28125 -4.550781 19.59375 -5.3125 C 19.394531 -7.03125 18.9375 -8.617188 18.21875 -10.078125 C 17.5 -11.535156 16.628906 -12.679688 15.609375 -13.515625 C 14.597656 -14.347656 13.5625 -14.765625 12.5 -14.765625 C 11.375 -14.765625 10.492188 -14.328125 9.859375 -13.453125 C 9.222656 -12.578125 8.785156 -11.585938 8.546875 -10.484375 C 8.316406 -9.378906 8.132812 -8.109375 8 -6.671875 L 7.890625 -5.578125 C 7.890625 -5.523438 7.863281 -5.394531 7.8125 -5.1875 Z M 7.8125 -5.1875 "/></g></g></g><g fill="#3a3d41" fill-opacity="1"><g transform="translate(353.171159, 445.065361)"><g><path d="M 28.859375 -4.171875 C 29.378906 -4.171875 29.640625 -3.484375 29.640625 -2.109375 C 29.640625 -0.703125 29.378906 0 28.859375 0 L 25.8125 0 C 23.332031 0 21.40625 -0.554688 20.03125 -1.671875 C 16.726562 -0.554688 13.046875 0 8.984375 0 C 6.429688 0 3.957031 -0.242188 1.5625 -0.734375 L 1.5625 -5.03125 C 3.925781 -4.457031 6.410156 -4.171875 9.015625 -4.171875 C 12.171875 -4.171875 15.050781 -4.578125 17.65625 -5.390625 C 17.550781 -5.597656 17.316406 -6.234375 16.953125 -7.296875 L 12.03125 -21.546875 L 16.25 -22.875 L 21.15625 -8.625 C 21.65625 -7.144531 22.0625 -6.125 22.375 -5.5625 C 22.6875 -5 23.066406 -4.632812 23.515625 -4.46875 C 23.972656 -4.300781 24.738281 -4.21875 25.8125 -4.21875 L 28.859375 -4.21875 Z M 28.859375 -4.171875 "/></g></g></g><g fill="#3a3d41" fill-opacity="1"><g transform="translate(382.026794, 445.065361)"><g><path d="M 25.921875 -4.171875 C 26.441406 -4.171875 26.703125 -3.484375 26.703125 -2.109375 C 26.703125 -0.703125 26.441406 0 25.921875 0 L 0 0 C -0.519531 0 -0.78125 -0.703125 -0.78125 -2.109375 C -0.78125 -3.484375 -0.519531 -4.171875 0 -4.171875 L 15.5 -4.171875 L 15.5 -10.109375 C 15.5 -12.085938 14.867188 -13.660156 13.609375 -14.828125 C 12.347656 -16.003906 10.660156 -16.59375 8.546875 -16.59375 C 6.253906 -16.59375 4.054688 -15.96875 1.953125 -14.71875 L 0.03125 -18.359375 C 2.582031 -19.960938 5.421875 -20.765625 8.546875 -20.765625 C 10.765625 -20.765625 12.738281 -20.3125 14.46875 -19.40625 C 16.195312 -18.5 17.546875 -17.238281 18.515625 -15.625 C 19.492188 -14.007812 19.984375 -12.171875 19.984375 -10.109375 L 19.984375 -4.171875 Z M 8.171875 -23.859375 C 7.421875 -23.859375 6.796875 -24.117188 6.296875 -24.640625 C 5.804688 -25.160156 5.5625 -25.8125 5.5625 -26.59375 C 5.5625 -27.375 5.804688 -28.019531 6.296875 -28.53125 C 6.796875 -29.039062 7.421875 -29.296875 8.171875 -29.296875 C 8.929688 -29.296875 9.554688 -29.039062 10.046875 -28.53125 C 10.546875 -28.019531 10.796875 -27.375 10.796875 -26.59375 C 10.796875 -25.8125 10.546875 -25.160156 10.046875 -24.640625 C 9.554688 -24.117188 8.929688 -23.859375 8.171875 -23.859375 Z M 8.171875 -23.859375 "/></g></g></g><g fill="#3a3d41" fill-opacity="1"><g transform="translate(407.953933, 445.065361)"><g><path d="M 3 -28.9375 L 7.5 -28.9375 L 7.5 0 L 0 0 C -0.519531 0 -0.78125 -0.703125 -0.78125 -2.109375 C -0.78125 -3.484375 -0.519531 -4.171875 0 -4.171875 L 3 -4.171875 Z M 3 -28.9375 "/></g></g></g><g fill="#3a3d41" fill-opacity="1"><g transform="translate(418.57469, 445.065361)"><g/></g></g><g fill="#3a3d41" fill-opacity="1"><g transform="translate(429.117353, 445.065361)"><g><path d="M 25.421875 -4.171875 C 25.941406 -4.171875 26.203125 -3.484375 26.203125 -2.109375 C 26.203125 -0.703125 25.941406 0 25.421875 0 L 24.59375 0 C 21.394531 0 19.195312 -0.921875 18 -2.765625 C 17.0625 -2.328125 16.046875 -1.96875 14.953125 -1.6875 C 13.859375 -1.414062 12.804688 -1.28125 11.796875 -1.28125 C 9.941406 -1.28125 8.234375 -1.703125 6.671875 -2.546875 C 5.109375 -3.398438 3.863281 -4.5625 2.9375 -6.03125 C 2.019531 -7.5 1.5625 -9.109375 1.5625 -10.859375 C 1.5625 -12.628906 2.019531 -14.242188 2.9375 -15.703125 C 3.863281 -17.160156 5.109375 -18.316406 6.671875 -19.171875 C 8.234375 -20.023438 9.925781 -20.453125 11.75 -20.453125 L 16.796875 -20.453125 L 16.796875 -21.4375 L 21.28125 -21.4375 L 21.28125 -7.921875 C 21.28125 -6.546875 21.539062 -5.578125 22.0625 -5.015625 C 22.582031 -4.453125 23.546875 -4.171875 24.953125 -4.171875 Z M 11.90625 -5.5 C 13.519531 -5.5 15.160156 -5.96875 16.828125 -6.90625 C 16.804688 -7.113281 16.796875 -7.441406 16.796875 -7.890625 L 16.796875 -16.28125 L 11.75 -16.28125 C 10.707031 -16.28125 9.75 -16.039062 8.875 -15.5625 C 8.007812 -15.082031 7.320312 -14.425781 6.8125 -13.59375 C 6.300781 -12.757812 6.046875 -11.847656 6.046875 -10.859375 C 6.046875 -9.867188 6.289062 -8.96875 6.78125 -8.15625 C 7.28125 -7.351562 7.976562 -6.707031 8.875 -6.21875 C 9.78125 -5.738281 10.789062 -5.5 11.90625 -5.5 Z M 11.90625 -5.5 "/></g></g></g><g fill="#3a3d41" fill-opacity="1"><g transform="translate(454.536877, 445.065361)"><g><path d="M 19.984375 -4.171875 L 21.625 -4.171875 L 21 0 L 0 0 C -0.519531 0 -0.78125 -0.703125 -0.78125 -2.109375 C -0.78125 -3.484375 -0.519531 -4.171875 0 -4.171875 L 15.5 -4.171875 L 15.5 -10.109375 C 15.5 -12.085938 14.867188 -13.660156 13.609375 -14.828125 C 12.347656 -16.003906 10.660156 -16.59375 8.546875 -16.59375 C 6.253906 -16.59375 4.054688 -15.96875 1.953125 -14.71875 L 0.03125 -18.359375 C 2.582031 -19.960938 5.421875 -20.765625 8.546875 -20.765625 C 10.765625 -20.765625 12.738281 -20.3125 14.46875 -19.40625 C 16.195312 -18.5 17.546875 -17.238281 18.515625 -15.625 C 19.492188 -14.007812 19.984375 -12.171875 19.984375 -10.109375 Z M 8.171875 8.140625 C 7.421875 8.140625 6.796875 7.878906 6.296875 7.359375 C 5.804688 6.835938 5.5625 6.1875 5.5625 5.40625 C 5.5625 4.625 5.804688 3.976562 6.296875 3.46875 C 6.796875 2.957031 7.421875 2.703125 8.171875 2.703125 C 8.929688 2.703125 9.554688 2.957031 10.046875 3.46875 C 10.546875 3.976562 10.796875 4.625 10.796875 5.40625 C 10.796875 6.1875 10.546875 6.835938 10.046875 7.359375 C 9.554688 7.878906 8.929688 8.140625 8.171875 8.140625 Z M 8.171875 8.140625 "/></g></g></g><g fill="#3a3d41" fill-opacity="1"><g transform="translate(478.121181, 445.065361)"><g><path d="M 25.734375 -4.171875 C 26.253906 -4.171875 26.515625 -3.484375 26.515625 -2.109375 C 26.515625 -0.703125 26.253906 0 25.734375 0 L 21.203125 0 L 21.203125 0.078125 C 21.203125 2.859375 20.445312 5.015625 18.9375 6.546875 C 17.425781 8.085938 15.359375 8.859375 12.734375 8.859375 L 5.109375 8.859375 L 5.109375 4.6875 L 12.6875 4.6875 C 14.09375 4.6875 15.113281 4.320312 15.75 3.59375 C 16.394531 2.863281 16.71875 1.691406 16.71875 0.078125 L 16.71875 0 L 11.75 0 C 9.75 0 7.972656 -0.445312 6.421875 -1.34375 C 4.867188 -2.238281 3.671875 -3.441406 2.828125 -4.953125 C 1.984375 -6.460938 1.5625 -8.128906 1.5625 -9.953125 C 1.5625 -11.804688 2.003906 -13.503906 2.890625 -15.046875 C 3.773438 -16.597656 5.03125 -17.828125 6.65625 -18.734375 C 8.28125 -19.648438 10.175781 -20.109375 12.34375 -20.109375 C 13.769531 -20.109375 15.285156 -19.910156 16.890625 -19.515625 C 18.492188 -19.128906 19.929688 -18.597656 21.203125 -17.921875 L 21.203125 -4.171875 Z M 16.71875 -4.171875 L 16.71875 -15.1875 C 15.226562 -15.6875 13.78125 -15.9375 12.375 -15.9375 C 10.425781 -15.9375 8.882812 -15.390625 7.75 -14.296875 C 6.613281 -13.203125 6.046875 -11.753906 6.046875 -9.953125 C 6.046875 -8.234375 6.570312 -6.835938 7.625 -5.765625 C 8.6875 -4.703125 10.0625 -4.171875 11.75 -4.171875 Z M 16.71875 -4.171875 "/></g></g></g><g fill="#3a3d41" fill-opacity="1"><g transform="translate(503.853083, 445.065361)"><g><path d="M 12.265625 -18.9375 C 14.453125 -18.9375 16.488281 -18.203125 18.375 -16.734375 C 20.257812 -15.265625 21.734375 -13.269531 22.796875 -10.75 C 23.867188 -8.238281 24.335938 -5.488281 24.203125 -2.5 C 22.410156 -1.6875 20.476562 -1.066406 18.40625 -0.640625 C 16.34375 -0.210938 14.476562 0 12.8125 0 C 10.332031 0 7.921875 -0.519531 5.578125 -1.5625 C 4.222656 -0.519531 2.546875 0 0.546875 0 L 0 0 C -0.519531 0 -0.78125 -0.703125 -0.78125 -2.109375 C -0.78125 -3.484375 -0.519531 -4.171875 0 -4.171875 L 0.546875 -4.171875 C 2.316406 -4.171875 3.28125 -4.875 3.4375 -6.28125 C 3.59375 -8.050781 3.835938 -9.738281 4.171875 -11.34375 C 4.515625 -12.945312 5.328125 -14.613281 6.609375 -16.34375 C 7.898438 -18.070312 9.785156 -18.9375 12.265625 -18.9375 Z M 7.8125 -5.1875 C 9.425781 -4.507812 11.101562 -4.171875 12.84375 -4.171875 C 15.03125 -4.171875 17.28125 -4.550781 19.59375 -5.3125 C 19.394531 -7.03125 18.9375 -8.617188 18.21875 -10.078125 C 17.5 -11.535156 16.628906 -12.679688 15.609375 -13.515625 C 14.597656 -14.347656 13.5625 -14.765625 12.5 -14.765625 C 11.375 -14.765625 10.492188 -14.328125 9.859375 -13.453125 C 9.222656 -12.578125 8.785156 -11.585938 8.546875 -10.484375 C 8.316406 -9.378906 8.132812 -8.109375 8 -6.671875 L 7.890625 -5.578125 C 7.890625 -5.523438 7.863281 -5.394531 7.8125 -5.1875 Z M 7.8125 -5.1875 "/></g></g></g><g fill="#3a3d41" fill-opacity="1"><g transform="translate(529.311654, 445.065361)"><g/></g></g><g fill="#3a3d41" fill-opacity="1"><g transform="translate(539.854318, 445.065361)"><g><path d="M 29.828125 -4.171875 C 30.347656 -4.171875 30.609375 -3.484375 30.609375 -2.109375 C 30.609375 -0.703125 30.347656 0 29.828125 0 L 13.828125 0 C 12.285156 0 10.925781 0.21875 9.75 0.65625 C 8.582031 1.101562 7.671875 1.71875 7.015625 2.5 C 6.367188 3.28125 6.046875 4.148438 6.046875 5.109375 C 6.046875 6.078125 6.359375 6.941406 6.984375 7.703125 C 7.609375 8.472656 8.488281 9.078125 9.625 9.515625 C 10.757812 9.960938 12.039062 10.1875 13.46875 10.1875 C 14.695312 10.1875 15.960938 10.046875 17.265625 9.765625 L 18.46875 13.75 C 16.726562 14.164062 15.0625 14.375 13.46875 14.375 C 11.257812 14.375 9.242188 13.972656 7.421875 13.171875 C 5.597656 12.378906 4.164062 11.273438 3.125 9.859375 C 2.082031 8.441406 1.5625 6.859375 1.5625 5.109375 C 1.5625 3.335938 2.085938 1.75 3.140625 0.34375 C 4.191406 -1.050781 5.65625 -2.148438 7.53125 -2.953125 C 9.40625 -3.765625 11.503906 -4.171875 13.828125 -4.171875 L 19.796875 -4.171875 L 19.796875 -10.109375 C 19.796875 -12.085938 19.164062 -13.660156 17.90625 -14.828125 C 16.644531 -16.003906 14.957031 -16.59375 12.84375 -16.59375 C 10.550781 -16.59375 8.351562 -15.96875 6.25 -14.71875 L 4.328125 -18.359375 C 6.878906 -19.960938 9.71875 -20.765625 12.84375 -20.765625 C 15.0625 -20.765625 17.035156 -20.3125 18.765625 -19.40625 C 20.492188 -18.5 21.84375 -17.238281 22.8125 -15.625 C 23.789062 -14.007812 24.28125 -12.171875 24.28125 -10.109375 L 24.28125 -4.171875 Z M 18.171875 8.140625 C 17.421875 8.140625 16.796875 7.878906 16.296875 7.359375 C 15.804688 6.835938 15.5625 6.1875 15.5625 5.40625 C 15.5625 4.625 15.804688 3.976562 16.296875 3.46875 C 16.796875 2.957031 17.421875 2.703125 18.171875 2.703125 C 18.929688 2.703125 19.554688 2.957031 20.046875 3.46875 C 20.546875 3.976562 20.796875 4.625 20.796875 5.40625 C 20.796875 6.1875 20.546875 6.835938 20.046875 7.359375 C 19.554688 7.878906 18.929688 8.140625 18.171875 8.140625 Z M 18.171875 8.140625 "/></g></g></g><g fill="#3a3d41" fill-opacity="1"><g transform="translate(569.686134, 445.065361)"><g><path d="M 26.046875 -4.171875 C 26.566406 -4.171875 26.828125 -3.484375 26.828125 -2.109375 C 26.828125 -0.703125 26.566406 0 26.046875 0 L 25.421875 0 C 24.273438 0 23.445312 0.296875 22.9375 0.890625 C 22.425781 1.492188 22.125 2.265625 22.03125 3.203125 C 21.945312 4.140625 21.890625 5.632812 21.859375 7.6875 L 13.546875 12.03125 C 10.972656 11.039062 8.921875 9.59375 7.390625 7.6875 C 5.867188 5.789062 4.898438 3.226562 4.484375 0 L 0 0 C -0.519531 0 -0.78125 -0.703125 -0.78125 -2.109375 C -0.78125 -3.484375 -0.519531 -4.171875 0 -4.171875 L 4.296875 -4.171875 C 4.347656 -7.171875 4.742188 -9.910156 5.484375 -12.390625 C 6.222656 -14.878906 7.226562 -16.851562 8.5 -18.3125 C 9.78125 -19.769531 11.226562 -20.5 12.84375 -20.5 C 14.195312 -20.5 15.5 -19.960938 16.75 -18.890625 C 18 -17.828125 19.019531 -16.265625 19.8125 -14.203125 C 20.601562 -12.148438 21 -9.707031 21 -6.875 C 21 -5.726562 20.910156 -4.453125 20.734375 -3.046875 C 21.878906 -3.796875 23.441406 -4.171875 25.421875 -4.171875 Z M 12.84375 -16.328125 C 12.351562 -16.328125 11.796875 -15.734375 11.171875 -14.546875 C 10.546875 -13.359375 10.003906 -11.828125 9.546875 -9.953125 C 9.085938 -8.078125 8.832031 -6.148438 8.78125 -4.171875 L 16.359375 -4.171875 C 16.460938 -4.929688 16.515625 -5.832031 16.515625 -6.875 C 16.515625 -8.507812 16.316406 -10.054688 15.921875 -11.515625 C 15.535156 -12.972656 15.054688 -14.140625 14.484375 -15.015625 C 13.910156 -15.890625 13.363281 -16.328125 12.84375 -16.328125 Z M 17.453125 5.265625 C 17.585938 3.054688 17.898438 1.300781 18.390625 0 L 9.015625 0 C 9.273438 1.769531 9.753906 3.234375 10.453125 4.390625 C 11.160156 5.546875 12.15625 6.503906 13.4375 7.265625 Z M 17.453125 5.265625 "/></g></g></g><g fill="#3a3d41" fill-opacity="1"><g transform="translate(595.730414, 445.065361)"><g><path d="M 4.140625 -18.984375 L 8.625 -18.984375 L 8.625 0 L 0 0 C -0.519531 0 -0.78125 -0.703125 -0.78125 -2.109375 C -0.78125 -3.484375 -0.519531 -4.171875 0 -4.171875 L 4.140625 -4.171875 Z M 6.171875 -21.859375 C 5.421875 -21.859375 4.796875 -22.117188 4.296875 -22.640625 C 3.804688 -23.160156 3.5625 -23.8125 3.5625 -24.59375 C 3.5625 -25.375 3.804688 -26.019531 4.296875 -26.53125 C 4.796875 -27.039062 5.421875 -27.296875 6.171875 -27.296875 C 6.929688 -27.296875 7.554688 -27.039062 8.046875 -26.53125 C 8.546875 -26.019531 8.796875 -25.375 8.796875 -24.59375 C 8.796875 -23.8125 8.546875 -23.160156 8.046875 -22.640625 C 7.554688 -22.117188 6.929688 -21.859375 6.171875 -21.859375 Z M 6.171875 -21.859375 "/></g></g></g></svg>