<svg xmlns="http://www.w3.org/2000/svg" xmlns:xlink="http://www.w3.org/1999/xlink" width="500" zoomAndPan="magnify" viewBox="0 0 375 374.999991" height="500" preserveAspectRatio="xMidYMid meet" version="1.0"><defs><clipPath id="id1"><path d="M 112.5 119.71875 L 262.5 119.71875 L 262.5 255.46875 L 112.5 255.46875 Z M 112.5 119.71875 " clip-rule="nonzero"/></clipPath><clipPath id="id2"><path d="M 112.5 119.816406 L 262.5 119.816406 L 262.5 207 L 112.5 207 Z M 112.5 119.816406 " clip-rule="nonzero"/></clipPath><clipPath id="id3"><path d="M 112.5 161.339844 L 262.5 161.339844 L 262.5 219 L 112.5 219 Z M 112.5 161.339844 " clip-rule="nonzero"/></clipPath><clipPath id="id4"><path d="M 112.5 173.550781 L 262.5 173.550781 L 262.5 231 L 112.5 231 Z M 112.5 173.550781 " clip-rule="nonzero"/></clipPath><clipPath id="id5"><path d="M 112.5 185.761719 L 262.5 185.761719 L 262.5 244 L 112.5 244 Z M 112.5 185.761719 " clip-rule="nonzero"/></clipPath><clipPath id="id6"><path d="M 112.5 149.125 L 262.5 149.125 L 262.5 255.371094 L 112.5 255.371094 Z M 112.5 149.125 " clip-rule="nonzero"/></clipPath><clipPath id="id7"><path d="M 190.546875 202.859375 L 195 202.859375 L 195 255.371094 L 190.546875 255.371094 Z M 190.546875 202.859375 " clip-rule="nonzero"/></clipPath></defs><path fill="#ffffff" d="M 351.675781 58.050781 L 351.675781 316.949219 C 351.675781 336.148438 336.148438 351.675781 316.949219 351.675781 L 58.050781 351.675781 C 38.851562 351.675781 23.324219 336.148438 23.324219 316.949219 L 23.324219 58.050781 C 23.324219 38.851562 38.851562 23.324219 58.050781 23.324219 L 316.949219 23.324219 C 336.148438 23.324219 351.675781 38.851562 351.675781 58.050781 " fill-opacity="1" fill-rule="nonzero"/><path fill="#3a3d41" d="M 53.476562 312.523438 C 48.503906 312.523438 44.476562 316.554688 44.476562 321.523438 C 44.476562 326.496094 48.503906 330.523438 53.476562 330.523438 C 58.445312 330.523438 62.476562 326.496094 62.476562 321.523438 C 62.476562 316.554688 58.445312 312.523438 53.476562 312.523438 M 53.476562 44.476562 C 48.503906 44.476562 44.476562 48.503906 44.476562 53.476562 C 44.476562 58.445312 48.503906 62.476562 53.476562 62.476562 C 58.445312 62.476562 62.476562 58.445312 62.476562 53.476562 C 62.476562 48.503906 58.445312 44.476562 53.476562 44.476562 M 321.523438 44.476562 C 316.554688 44.476562 312.523438 48.503906 312.523438 53.476562 C 312.523438 58.445312 316.554688 62.476562 321.523438 62.476562 C 326.496094 62.476562 330.523438 58.445312 330.523438 53.476562 C 330.523438 48.503906 326.496094 44.476562 321.523438 44.476562 M 321.523438 312.523438 C 316.554688 312.523438 312.523438 316.554688 312.523438 321.523438 C 312.523438 326.496094 316.554688 330.523438 321.523438 330.523438 C 326.496094 330.523438 330.523438 326.496094 330.523438 321.523438 C 330.523438 316.554688 326.496094 312.523438 321.523438 312.523438 " fill-opacity="1" fill-rule="nonzero"/><path fill="#d3c2bb" d="M 375 62.476562 L 375 33.375 C 368.101562 30.75 361.125 26.25 354.898438 20.101562 C 348.75 13.875 344.25 6.898438 341.625 0 L 33.375 0 C 30.75 6.898438 26.25 13.875 20.101562 20.101562 C 13.875 26.25 6.898438 30.75 0 33.375 L 0 341.625 C 1.726562 342.300781 3.449219 343.050781 5.175781 343.949219 C 5.625 344.175781 6 344.398438 6.449219 344.625 C 6.75 344.773438 7.050781 344.925781 7.351562 345.148438 C 7.425781 345.148438 7.5 345.226562 7.574219 345.300781 C 7.800781 345.375 7.949219 345.523438 8.175781 345.675781 C 10.351562 347.023438 12.523438 348.523438 14.699219 350.175781 C 15.074219 350.476562 15.449219 350.773438 15.824219 351.148438 C 16.125 351.375 16.351562 351.601562 16.574219 351.824219 C 17.324219 352.5 18.074219 353.175781 18.824219 353.925781 C 19.199219 354.300781 19.574219 354.675781 20.023438 355.050781 C 20.398438 355.425781 20.773438 355.800781 21.148438 356.25 C 21.824219 357 22.574219 357.75 23.25 358.5 C 23.476562 358.800781 23.699219 359.023438 23.925781 359.324219 L 24.824219 360.449219 C 25.050781 360.675781 25.199219 360.976562 25.425781 361.199219 C 25.800781 361.648438 26.175781 362.175781 26.550781 362.625 C 27 363.226562 27.375 363.824219 27.75 364.351562 C 28.875 366.074219 29.925781 367.800781 30.898438 369.601562 C 31.050781 369.898438 31.199219 370.125 31.273438 370.425781 L 31.5 370.875 C 31.648438 371.175781 31.800781 371.476562 31.875 371.699219 C 32.398438 372.824219 32.925781 373.949219 33.300781 375.148438 L 341.550781 375.148438 C 344.175781 368.25 348.675781 361.273438 354.824219 355.050781 C 357.148438 352.726562 359.550781 350.625 362.101562 348.824219 C 363.375 347.925781 364.648438 347.023438 365.925781 346.273438 C 366.75 345.75 367.648438 345.226562 368.476562 344.773438 C 369.300781 344.324219 370.199219 343.875 371.023438 343.425781 C 372.300781 342.824219 373.648438 342.226562 374.925781 341.773438 L 375 62.476562 M 351.675781 316.949219 C 351.675781 336.148438 336.148438 351.675781 316.949219 351.675781 L 58.050781 351.675781 C 38.851562 351.675781 23.324219 336.148438 23.324219 316.949219 L 23.324219 58.050781 C 23.324219 38.851562 38.851562 23.324219 58.050781 23.324219 L 316.949219 23.324219 C 336.148438 23.324219 351.675781 38.851562 351.675781 58.050781 L 351.675781 316.949219 " fill-opacity="1" fill-rule="nonzero"/><g clip-path="url(#id1)"><path fill="#ebedf0" d="M 262.5 187.585938 L 262.5 175.382812 C 262.5 175.113281 262.433594 174.867188 262.339844 174.636719 C 262.320312 174.597656 262.28125 174.570312 262.261719 174.53125 C 262.148438 174.304688 261.984375 174.121094 261.785156 173.96875 C 261.757812 173.941406 261.746094 173.894531 261.710938 173.875 L 260.613281 173.121094 C 259.421875 144.488281 235.890625 121.648438 207.011719 121.648438 C 201.027344 121.648438 195.292969 122.640625 189.921875 124.453125 L 183.660156 120.140625 C 183.144531 119.789062 182.480469 119.722656 181.898438 119.960938 L 113.613281 149.269531 L 113.605469 149.269531 C 113.605469 149.277344 113.59375 149.289062 113.59375 149.289062 C 113.328125 149.402344 113.121094 149.59375 112.9375 149.8125 C 112.882812 149.871094 112.84375 149.9375 112.804688 150.011719 C 112.691406 150.195312 112.613281 150.40625 112.566406 150.625 C 112.558594 150.679688 112.519531 150.71875 112.507812 150.777344 C 112.507812 150.804688 112.519531 150.824219 112.519531 150.851562 C 112.519531 150.890625 112.5 150.917969 112.5 150.957031 L 112.5 199.804688 C 112.5 200.40625 112.796875 200.96875 113.289062 201.3125 L 191.339844 255.046875 C 191.40625 255.09375 191.484375 255.113281 191.558594 255.152344 C 191.617188 255.179688 191.671875 255.21875 191.738281 255.238281 C 191.949219 255.3125 192.160156 255.371094 192.378906 255.371094 C 192.636719 255.371094 192.875 255.3125 193.09375 255.21875 L 261.386719 225.917969 C 262.0625 225.621094 262.5 224.964844 262.5 224.230469 L 262.5 187.585938 " fill-opacity="1" fill-rule="nonzero"/></g><path fill="#ebedf0" d="M 260.671875 175.382812 C 260.671875 145.699219 236.652344 121.648438 207.011719 121.648438 C 177.371094 121.648438 153.355469 145.699219 153.355469 175.382812 C 153.355469 205.0625 177.371094 229.113281 207.011719 229.113281 C 236.652344 229.113281 260.671875 205.0625 260.671875 175.382812 " fill-opacity="1" fill-rule="nonzero"/><path fill="#ffffff" d="M 260.671875 212.019531 L 260.671875 224.230469 L 192.378906 253.539062 L 192.378906 241.328125 L 260.671875 212.019531 " fill-opacity="1" fill-rule="nonzero"/><path fill="#ffffff" d="M 260.671875 199.804688 L 260.671875 212.019531 L 192.378906 241.328125 L 192.378906 229.113281 L 260.671875 199.804688 " fill-opacity="1" fill-rule="nonzero"/><path fill="#ffffff" d="M 260.671875 187.59375 L 260.671875 199.804688 L 192.378906 229.113281 L 192.378906 216.902344 L 260.671875 187.59375 " fill-opacity="1" fill-rule="nonzero"/><path fill="#ffffff" d="M 260.671875 175.382812 L 260.671875 187.59375 L 192.378906 216.902344 L 192.378906 204.691406 L 260.671875 175.382812 " fill-opacity="1" fill-rule="nonzero"/><path fill="#ebedf0" d="M 192.378906 241.328125 L 192.378906 253.539062 L 114.328125 199.804688 L 114.328125 187.59375 L 192.378906 241.328125 " fill-opacity="1" fill-rule="nonzero"/><path fill="#ebedf0" d="M 192.378906 229.113281 L 192.378906 241.328125 L 114.328125 187.59375 L 114.328125 175.382812 L 192.378906 229.113281 " fill-opacity="1" fill-rule="nonzero"/><path fill="#ebedf0" d="M 192.378906 216.902344 L 192.378906 229.113281 L 114.328125 175.382812 L 114.328125 163.167969 L 192.378906 216.902344 " fill-opacity="1" fill-rule="nonzero"/><path fill="#ebedf0" d="M 192.378906 204.691406 L 192.378906 216.902344 L 114.328125 163.167969 L 114.328125 150.957031 L 192.378906 204.691406 " fill-opacity="1" fill-rule="nonzero"/><path fill="#1d918a" d="M 260.671875 175.382812 L 192.378906 204.691406 L 114.328125 150.957031 L 182.621094 121.648438 L 260.671875 175.382812 " fill-opacity="1" fill-rule="nonzero"/><g clip-path="url(#id2)"><path fill="#3a3d41" d="M 118.101562 151.328125 L 192.585938 202.609375 L 256.898438 175.007812 L 182.414062 123.730469 Z M 192.378906 206.523438 C 192.015625 206.523438 191.652344 206.417969 191.339844 206.199219 L 113.289062 152.464844 C 112.746094 152.09375 112.441406 151.445312 112.507812 150.777344 C 112.578125 150.117188 112.996094 149.535156 113.605469 149.269531 L 181.898438 119.960938 C 182.480469 119.722656 183.144531 119.789062 183.660156 120.140625 L 261.710938 173.875 C 262.253906 174.246094 262.558594 174.894531 262.492188 175.5625 C 262.421875 176.222656 262.003906 176.804688 261.386719 177.070312 L 193.09375 206.378906 C 192.875 206.476562 192.625 206.523438 192.378906 206.523438 " fill-opacity="1" fill-rule="nonzero"/></g><g clip-path="url(#id3)"><path fill="#3a3d41" d="M 192.378906 218.734375 C 192.015625 218.734375 191.652344 218.628906 191.339844 218.410156 L 113.289062 164.675781 C 112.460938 164.105469 112.253906 162.96875 112.824219 162.128906 C 113.394531 161.300781 114.539062 161.089844 115.367188 161.664062 L 192.585938 214.824219 L 259.957031 185.90625 C 260.878906 185.515625 261.957031 185.941406 262.355469 186.867188 C 262.746094 187.804688 262.320312 188.882812 261.386719 189.28125 L 193.09375 218.589844 C 192.875 218.6875 192.625 218.734375 192.378906 218.734375 " fill-opacity="1" fill-rule="nonzero"/></g><g clip-path="url(#id4)"><path fill="#3a3d41" d="M 192.378906 230.945312 C 192.015625 230.945312 191.652344 230.839844 191.339844 230.621094 L 113.289062 176.890625 C 112.460938 176.316406 112.253906 175.179688 112.824219 174.34375 C 113.394531 173.511719 114.539062 173.300781 115.367188 173.875 L 192.585938 227.035156 L 259.957031 198.117188 C 260.878906 197.726562 261.957031 198.15625 262.355469 199.089844 C 262.746094 200.015625 262.320312 201.09375 261.386719 201.496094 L 193.09375 230.804688 C 192.875 230.898438 192.625 230.945312 192.378906 230.945312 " fill-opacity="1" fill-rule="nonzero"/></g><g clip-path="url(#id5)"><path fill="#3a3d41" d="M 192.378906 243.160156 C 192.015625 243.160156 191.652344 243.054688 191.339844 242.832031 L 113.289062 189.101562 C 112.460938 188.527344 112.253906 187.394531 112.824219 186.554688 C 113.394531 185.722656 114.539062 185.515625 115.367188 186.085938 L 192.585938 239.246094 L 259.957031 210.328125 C 260.878906 209.9375 261.957031 210.367188 262.355469 211.300781 C 262.746094 212.226562 262.320312 213.304688 261.386719 213.707031 L 193.09375 243.003906 C 192.875 243.109375 192.625 243.160156 192.378906 243.160156 " fill-opacity="1" fill-rule="nonzero"/></g><g clip-path="url(#id6)"><path fill="#3a3d41" d="M 192.378906 255.371094 C 192.015625 255.371094 191.652344 255.265625 191.339844 255.046875 L 113.289062 201.3125 C 112.796875 200.96875 112.5 200.40625 112.5 199.804688 L 112.5 150.957031 C 112.5 149.945312 113.320312 149.125 114.328125 149.125 C 115.339844 149.125 116.160156 149.945312 116.160156 150.957031 L 116.160156 198.84375 L 192.585938 251.457031 L 258.839844 223.027344 L 258.839844 175.382812 C 258.839844 174.371094 259.660156 173.550781 260.671875 173.550781 C 261.679688 173.550781 262.5 174.371094 262.5 175.382812 L 262.5 224.230469 C 262.5 224.964844 262.0625 225.621094 261.386719 225.917969 L 193.09375 255.21875 C 192.875 255.324219 192.625 255.371094 192.378906 255.371094 " fill-opacity="1" fill-rule="nonzero"/></g><g clip-path="url(#id7)"><path fill="#3a3d41" d="M 192.378906 255.371094 C 191.367188 255.371094 190.546875 254.550781 190.546875 253.539062 L 190.546875 204.691406 C 190.546875 203.679688 191.367188 202.859375 192.378906 202.859375 C 193.386719 202.859375 194.207031 203.679688 194.207031 204.691406 L 194.207031 253.539062 C 194.207031 254.550781 193.386719 255.371094 192.378906 255.371094 " fill-opacity="1" fill-rule="nonzero"/></g></svg>