<svg xmlns="http://www.w3.org/2000/svg" xmlns:xlink="http://www.w3.org/1999/xlink" width="1024" zoomAndPan="magnify" viewBox="0 0 768 576" height="768" preserveAspectRatio="xMidYMid meet" version="1.0"><defs><g/><clipPath id="id1"><path d="M 268.800781 57.601562 L 499.050781 57.601562 L 499.050781 287.851562 L 268.800781 287.851562 Z M 268.800781 57.601562 " clip-rule="nonzero"/></clipPath></defs><path fill="#1d918a" d="M 454.1875 143.398438 L 446.769531 150.816406 L 436.472656 130.234375 C 435.359375 130.753906 434.242188 131.292969 433.097656 131.785156 C 432.332031 132.101562 431.503906 132.277344 430.679688 132.277344 C 427.277344 132.277344 424.523438 129.523438 424.523438 126.121094 C 424.523438 125.296875 424.699219 124.46875 425.015625 123.703125 C 425.507812 122.558594 426.046875 121.441406 426.566406 120.3125 L 405.984375 110.03125 L 413.402344 102.613281 L 420.339844 104.351562 C 409.417969 98.515625 396.976562 95.199219 383.738281 95.199219 C 365.257812 95.199219 348.300781 101.671875 334.945312 112.433594 C 334.511719 113.203125 334.132812 114 333.640625 114.722656 L 311.640625 147.730469 C 311.0625 148.597656 310.28125 149.28125 309.410156 149.800781 C 307.121094 157.144531 305.878906 164.964844 305.878906 173.0625 C 305.878906 186.515625 309.382812 199.117188 315.40625 210.136719 L 354.078125 210.136719 C 358.175781 210.136719 361.492188 213.453125 361.492188 217.554688 C 361.492188 221.652344 358.175781 224.96875 354.078125 224.96875 L 365.996094 248.808594 C 371.703125 250.140625 377.628906 250.921875 383.738281 250.921875 C 397.164062 250.921875 409.796875 247.519531 420.816406 241.539062 L 420.816406 224.96875 C 420.816406 220.871094 424.132812 217.554688 428.230469 217.554688 L 447.582031 217.554688 C 456.402344 204.9375 461.601562 189.617188 461.601562 173.0625 C 461.601562 159.824219 458.269531 147.367188 452.449219 136.460938 L 454.1875 143.398438 " fill-opacity="1" fill-rule="nonzero"/><path fill="#1d918a" d="M 476.433594 236.09375 L 439.355469 236.09375 L 439.355469 217.554688 L 476.433594 217.554688 L 476.433594 236.09375 " fill-opacity="1" fill-rule="nonzero"/><path fill="#3a3d41" d="M 291.046875 95.199219 C 291.046875 87.015625 297.695312 80.367188 305.878906 80.367188 C 314.058594 80.367188 320.707031 87.015625 320.707031 95.199219 C 320.707031 103.382812 314.058594 110.03125 305.878906 110.03125 C 297.695312 110.03125 291.046875 103.382812 291.046875 95.199219 Z M 328.125 95.199219 C 328.125 82.929688 318.144531 72.953125 305.878906 72.953125 C 293.609375 72.953125 283.632812 82.929688 283.632812 95.199219 C 283.632812 107.464844 293.609375 117.445312 305.878906 117.445312 C 318.144531 117.445312 328.125 107.464844 328.125 95.199219 " fill-opacity="1" fill-rule="nonzero"/><path fill="#3a3d41" d="M 458.082031 93.476562 L 463.324219 98.71875 L 468.570312 93.476562 L 463.324219 88.230469 L 458.082031 93.476562 " fill-opacity="1" fill-rule="nonzero"/><path fill="#3a3d41" d="M 447.855469 103.699219 L 453.101562 108.945312 L 458.082031 103.960938 L 452.839844 98.71875 L 447.855469 103.699219 " fill-opacity="1" fill-rule="nonzero"/><path fill="#3a3d41" d="M 479.054688 82.988281 L 473.8125 77.746094 L 468.570312 82.988281 L 473.8125 88.230469 L 479.054688 82.988281 " fill-opacity="1" fill-rule="nonzero"/><path fill="#3a3d41" d="M 476.433594 273.167969 L 483.847656 273.167969 L 483.847656 265.753906 L 476.433594 265.753906 L 476.433594 273.167969 " fill-opacity="1" fill-rule="nonzero"/><path fill="#3a3d41" d="M 461.601562 273.167969 L 469.015625 273.167969 L 469.015625 265.753906 L 461.601562 265.753906 L 461.601562 273.167969 " fill-opacity="1" fill-rule="nonzero"/><path fill="#3a3d41" d="M 320.707031 236.09375 L 313.292969 236.09375 L 313.292969 243.507812 L 320.707031 243.507812 L 320.707031 236.09375 " fill-opacity="1" fill-rule="nonzero"/><path fill="#3a3d41" d="M 335.539062 236.09375 L 328.125 236.09375 L 328.125 243.507812 L 335.539062 243.507812 L 335.539062 236.09375 " fill-opacity="1" fill-rule="nonzero"/><path fill="#3a3d41" d="M 350.371094 236.09375 L 342.953125 236.09375 L 342.953125 243.507812 L 350.371094 243.507812 L 350.371094 236.09375 " fill-opacity="1" fill-rule="nonzero"/><g clip-path="url(#id1)"><path fill="#3a3d41" d="M 491.265625 276.878906 C 491.265625 278.917969 489.597656 280.585938 487.554688 280.585938 L 428.230469 280.585938 C 426.191406 280.585938 424.523438 278.917969 424.523438 276.878906 L 424.523438 224.96875 C 424.523438 222.925781 426.191406 221.261719 428.230469 221.261719 L 487.554688 221.261719 C 489.597656 221.261719 491.265625 222.925781 491.265625 224.96875 Z M 399.917969 256.773438 C 406.464844 249.039062 411.878906 236.671875 415.574219 221.261719 L 417.789062 221.261719 C 417.382812 222.421875 417.109375 223.664062 417.109375 224.96875 L 417.109375 251.53125 C 411.546875 253.890625 405.8125 255.644531 399.917969 256.773438 Z M 349.328125 280.585938 L 308.296875 280.585938 C 290.613281 280.585938 276.214844 266.1875 276.214844 248.503906 L 276.214844 243.507812 L 299.882812 243.507812 L 307.296875 258.339844 L 379.871094 258.339844 C 375.628906 271.488281 363.214844 280.585938 349.328125 280.585938 Z M 298.460938 228.675781 L 351.789062 228.675781 L 362.914062 250.921875 L 311.875 250.921875 L 304.457031 236.09375 L 298.460938 236.09375 Z M 294.753906 213.847656 L 354.078125 213.847656 C 356.121094 213.847656 357.785156 215.511719 357.785156 217.554688 C 357.785156 219.597656 356.121094 221.261719 354.078125 221.261719 L 294.753906 221.261719 C 292.710938 221.261719 291.046875 219.597656 291.046875 217.554688 C 291.046875 215.511719 292.710938 213.847656 294.753906 213.847656 Z M 298.5625 176.769531 L 346.734375 176.769531 C 346.894531 187.023438 347.691406 196.957031 349.09375 206.429688 L 305.269531 206.429688 C 301.257812 197.003906 298.996094 187.050781 298.5625 176.769531 Z M 276.214844 96.210938 L 276.214844 95.199219 C 276.214844 78.847656 289.527344 65.535156 305.878906 65.535156 C 322.230469 65.535156 335.539062 78.847656 335.539062 95.199219 L 335.539062 96.210938 C 335.539062 102.09375 333.816406 107.785156 330.558594 112.664062 L 308.558594 145.671875 C 307.355469 147.46875 304.398438 147.46875 303.199219 145.671875 L 281.199219 112.664062 C 277.9375 107.785156 276.214844 102.09375 276.214844 96.210938 Z M 342.808594 98.285156 C 350.542969 94.027344 358.902344 91.011719 367.5625 89.347656 C 361.015625 97.097656 355.585938 109.449219 351.90625 124.859375 L 331.339844 124.859375 L 336.726562 116.777344 C 340.421875 111.246094 342.433594 104.886719 342.808594 98.285156 Z M 431.460938 103.308594 L 412.273438 98.5 L 408.1875 102.585938 C 405.753906 97.285156 403.058594 92.867188 400.148438 89.417969 C 411.488281 91.621094 422.191406 96.097656 431.839844 102.714844 C 431.707031 102.917969 431.578125 103.105469 431.460938 103.308594 Z M 430.839844 66.609375 L 454.738281 74.574219 L 452.101562 77.210938 C 450.320312 78.992188 448.597656 80.816406 446.914062 82.683594 Z M 475.535156 69.246094 C 482.167969 69.246094 487.554688 74.632812 487.554688 81.265625 C 487.554688 84.480469 486.308594 87.492188 484.035156 89.765625 L 474.347656 99.457031 C 462.023438 111.78125 447.65625 121.5 431.652344 128.367188 C 430.070312 129.03125 428.230469 127.800781 428.230469 126.121094 C 428.230469 125.789062 428.304688 125.46875 428.433594 125.148438 C 435.300781 109.144531 445.019531 94.777344 457.34375 82.453125 L 467.03125 72.765625 C 469.308594 70.488281 472.320312 69.246094 475.535156 69.246094 Z M 490.191406 125.960938 L 474.117188 109.886719 C 475.96875 108.203125 477.808594 106.480469 479.589844 104.699219 L 482.226562 102.0625 Z M 446.828125 129.234375 L 450.085938 142.253906 L 447.785156 144.558594 L 441.5 131.972656 C 443.296875 131.089844 445.078125 130.191406 446.828125 129.234375 Z M 468.871094 169.351562 L 420.746094 169.351562 C 420.554688 156.304688 419.324219 143.71875 417.167969 132.277344 L 423.03125 132.277344 C 424.84375 134.519531 427.582031 135.984375 430.679688 135.984375 C 432.011719 135.984375 433.316406 135.707031 434.5625 135.1875 C 434.632812 135.15625 434.691406 135.113281 434.765625 135.085938 L 445.757812 157.070312 L 458.285156 144.527344 L 453.492188 125.339844 C 453.695312 125.222656 453.882812 125.078125 454.085938 124.960938 C 463.121094 138.140625 468.191406 153.347656 468.871094 169.351562 Z M 421.699219 122.035156 C 421.671875 122.09375 421.640625 122.167969 421.613281 122.238281 C 421.25 123.078125 421.0625 123.960938 420.945312 124.859375 L 415.589844 124.859375 C 415.039062 122.527344 414.445312 120.285156 413.808594 118.082031 Z M 424.828125 115.300781 L 412.242188 109.015625 L 414.53125 106.714844 L 427.566406 109.972656 C 426.609375 111.722656 425.710938 113.503906 424.828125 115.300781 Z M 383.738281 87.785156 C 390.328125 87.785156 397.109375 95.242188 402.554688 108.21875 L 399.730469 111.042969 L 404.566406 113.460938 C 405.828125 117.039062 406.972656 120.835938 407.96875 124.859375 L 359.566406 124.859375 C 365.359375 101.832031 374.863281 87.785156 383.738281 87.785156 Z M 357.902344 132.277344 L 409.636719 132.277344 C 411.878906 143.617188 413.125 156.230469 413.328125 169.351562 L 354.148438 169.351562 C 354.367188 155.652344 355.714844 143.136719 357.902344 132.277344 Z M 298.605469 169.351562 C 298.839844 163.894531 299.535156 158.492188 300.792969 153.21875 C 302.328125 154.058594 304.066406 154.523438 305.878906 154.523438 C 309.441406 154.523438 312.742188 152.753906 314.726562 149.785156 L 326.398438 132.277344 L 350.3125 132.277344 C 348.167969 143.484375 346.894531 156.015625 346.707031 169.351562 Z M 364.519531 213.847656 C 363.261719 210.328125 360.320312 207.632812 356.640625 206.75 C 355.148438 197.21875 354.308594 187.167969 354.148438 176.769531 L 413.359375 176.769531 C 413.15625 190.46875 411.78125 202.96875 409.605469 213.847656 Z M 387.332031 257.585938 L 387.449219 250.921875 L 371.195312 250.921875 L 359.378906 227.273438 C 361.753906 225.96875 363.59375 223.839844 364.519531 221.261719 L 407.941406 221.261719 C 402.929688 241.234375 395.125 254.429688 387.332031 257.585938 Z M 428.230469 213.847656 L 417.167969 213.847656 C 419.3125 202.636719 420.585938 190.109375 420.773438 176.769531 L 468.902344 176.769531 C 468.335938 189.773438 464.804688 202.476562 458.605469 213.847656 Z M 487.554688 213.847656 L 466.988281 213.847656 C 473.175781 201.214844 476.433594 187.238281 476.433594 173.0625 C 476.433594 154.21875 470.8125 136.289062 460.269531 120.863281 C 463.066406 118.90625 465.800781 116.867188 468.453125 114.707031 L 491.265625 137.519531 L 499.214844 129.566406 L 488.09375 96.199219 L 489.28125 95.011719 C 492.945312 91.347656 494.972656 86.464844 494.972656 81.265625 C 494.972656 70.546875 486.253906 61.828125 475.535156 61.828125 C 470.351562 61.828125 465.46875 63.84375 461.789062 67.519531 L 460.601562 68.707031 L 427.234375 57.585938 L 419.28125 65.535156 L 442.09375 88.347656 C 439.933594 91 437.894531 93.734375 435.9375 96.53125 C 420.511719 85.988281 402.582031 80.367188 383.738281 80.367188 C 369.414062 80.367188 355.292969 83.683594 342.550781 90.015625 C 340.015625 72.027344 324.5625 58.121094 305.878906 58.121094 C 285.425781 58.121094 268.800781 74.75 268.800781 95.199219 L 268.800781 96.210938 C 268.800781 103.554688 270.957031 110.667969 275.027344 116.777344 L 294.929688 146.628906 C 292.378906 155.175781 291.046875 164.050781 291.046875 173.0625 C 291.046875 184.617188 293.144531 195.8125 297.246094 206.429688 L 294.753906 206.429688 C 288.613281 206.429688 283.632812 211.414062 283.632812 217.554688 C 283.632812 222.375 286.746094 226.460938 291.046875 227.996094 L 291.046875 236.09375 L 268.800781 236.09375 L 268.800781 248.503906 C 268.800781 270.289062 286.511719 288 308.296875 288 L 349.328125 288 C 364.5625 288 378.335938 279.109375 384.855469 265.726562 C 396.007812 265.59375 406.824219 263.523438 417.109375 259.554688 L 417.109375 276.878906 C 417.109375 283.003906 422.089844 288 428.230469 288 L 487.554688 288 C 493.695312 288 498.679688 283.003906 498.679688 276.878906 L 498.679688 224.96875 C 498.679688 218.828125 493.695312 213.847656 487.554688 213.847656 " fill-opacity="1" fill-rule="nonzero"/></g><path fill="#3a3d41" d="M 365.199219 191.601562 L 372.617188 191.601562 L 372.617188 184.183594 L 365.199219 184.183594 L 365.199219 191.601562 " fill-opacity="1" fill-rule="nonzero"/><path fill="#3a3d41" d="M 380.03125 191.601562 L 387.449219 191.601562 L 387.449219 184.183594 L 380.03125 184.183594 L 380.03125 191.601562 " fill-opacity="1" fill-rule="nonzero"/><path fill="#3a3d41" d="M 394.863281 184.183594 L 394.863281 191.601562 L 402.277344 191.601562 L 402.277344 184.183594 L 394.863281 184.183594 " fill-opacity="1" fill-rule="nonzero"/><path fill="#3a3d41" d="M 394.863281 154.523438 L 394.863281 161.9375 L 402.277344 161.9375 L 402.277344 154.523438 L 394.863281 154.523438 " fill-opacity="1" fill-rule="nonzero"/><path fill="#3a3d41" d="M 380.03125 161.9375 L 387.449219 161.9375 L 387.449219 154.523438 L 380.03125 154.523438 L 380.03125 161.9375 " fill-opacity="1" fill-rule="nonzero"/><path fill="#3a3d41" d="M 365.199219 161.9375 L 372.617188 161.9375 L 372.617188 154.523438 L 365.199219 154.523438 L 365.199219 161.9375 " fill-opacity="1" fill-rule="nonzero"/><g fill="#3a3d41" fill-opacity="1"><g transform="translate(114.421871, 376.944146)"><g/></g></g><g fill="#3a3d41" fill-opacity="1"><g transform="translate(114.421871, 376.944146)"><g><path d="M 28.78125 -14.6875 C 28.78125 -10.039062 27.617188 -6.363281 25.296875 -3.65625 C 22.972656 -0.945312 19.765625 0.40625 15.671875 0.40625 C 11.597656 0.40625 8.394531 -0.945312 6.0625 -3.65625 C 3.738281 -6.363281 2.578125 -10.054688 2.578125 -14.734375 C 2.578125 -19.390625 3.75 -23.054688 6.09375 -25.734375 C 8.445312 -28.421875 11.65625 -29.765625 15.71875 -29.765625 C 19.800781 -29.765625 23 -28.414062 25.3125 -25.71875 C 27.625 -23.03125 28.78125 -19.351562 28.78125 -14.6875 Z M 4.8125 -14.6875 C 4.8125 -10.488281 5.742188 -7.242188 7.609375 -4.953125 C 9.484375 -2.660156 12.171875 -1.515625 15.671875 -1.515625 C 19.203125 -1.515625 21.898438 -2.648438 23.765625 -4.921875 C 25.628906 -7.203125 26.5625 -10.457031 26.5625 -14.6875 C 26.5625 -18.914062 25.628906 -22.15625 23.765625 -24.40625 C 21.898438 -26.65625 19.21875 -27.78125 15.71875 -27.78125 C 12.226562 -27.78125 9.535156 -26.644531 7.640625 -24.375 C 5.753906 -22.101562 4.8125 -18.875 4.8125 -14.6875 Z M 4.8125 -14.6875 "/></g></g></g><g fill="#3a3d41" fill-opacity="1"><g transform="translate(145.782287, 376.944146)"><g><path d="M 5.375 -21.78125 L 5.375 -7.671875 C 5.375 -5.484375 5.832031 -3.890625 6.75 -2.890625 C 7.675781 -1.898438 9.109375 -1.40625 11.046875 -1.40625 C 13.640625 -1.40625 15.546875 -2.054688 16.765625 -3.359375 C 17.984375 -4.671875 18.59375 -6.804688 18.59375 -9.765625 L 18.59375 -21.78125 L 20.5625 -21.78125 L 20.5625 0 L 18.875 0 L 18.515625 -3 L 18.40625 -3 C 16.988281 -0.726562 14.46875 0.40625 10.84375 0.40625 C 5.882812 0.40625 3.40625 -2.25 3.40625 -7.5625 L 3.40625 -21.78125 Z M 5.375 -21.78125 "/></g></g></g><g fill="#3a3d41" fill-opacity="1"><g transform="translate(169.98892, 376.944146)"><g><path d="M 12.21875 -22.203125 C 13.144531 -22.203125 14.132812 -22.109375 15.1875 -21.921875 L 14.8125 -20.015625 C 13.90625 -20.242188 12.960938 -20.359375 11.984375 -20.359375 C 10.128906 -20.359375 8.601562 -19.570312 7.40625 -18 C 6.21875 -16.425781 5.625 -14.4375 5.625 -12.03125 L 5.625 0 L 3.640625 0 L 3.640625 -21.78125 L 5.328125 -21.78125 L 5.53125 -17.859375 L 5.671875 -17.859375 C 6.566406 -19.460938 7.519531 -20.585938 8.53125 -21.234375 C 9.550781 -21.878906 10.78125 -22.203125 12.21875 -22.203125 Z M 12.21875 -22.203125 "/></g></g></g><g fill="#3a3d41" fill-opacity="1"><g transform="translate(185.959688, 376.944146)"><g/></g></g><g fill="#3a3d41" fill-opacity="1"><g transform="translate(196.620225, 376.944146)"><g><path d="M 30.859375 0 L 30.859375 -14.296875 C 30.859375 -16.421875 30.441406 -17.96875 29.609375 -18.9375 C 28.785156 -19.914062 27.519531 -20.40625 25.8125 -20.40625 C 23.582031 -20.40625 21.929688 -19.789062 20.859375 -18.5625 C 19.796875 -17.332031 19.265625 -15.398438 19.265625 -12.765625 L 19.265625 0 L 17.234375 0 L 17.234375 -14.890625 C 17.234375 -18.566406 15.550781 -20.40625 12.1875 -20.40625 C 9.90625 -20.40625 8.238281 -19.738281 7.1875 -18.40625 C 6.144531 -17.082031 5.625 -14.957031 5.625 -12.03125 L 5.625 0 L 3.640625 0 L 3.640625 -21.78125 L 5.296875 -21.78125 L 5.71875 -18.796875 L 5.828125 -18.796875 C 6.429688 -19.878906 7.285156 -20.71875 8.390625 -21.3125 C 9.503906 -21.90625 10.726562 -22.203125 12.0625 -22.203125 C 15.5 -22.203125 17.703125 -20.914062 18.671875 -18.34375 L 18.765625 -18.34375 C 19.472656 -19.582031 20.421875 -20.535156 21.609375 -21.203125 C 22.804688 -21.867188 24.164062 -22.203125 25.6875 -22.203125 C 28.070312 -22.203125 29.859375 -21.566406 31.046875 -20.296875 C 32.234375 -19.035156 32.828125 -17.019531 32.828125 -14.25 L 32.828125 0 Z M 30.859375 0 "/></g></g></g><g fill="#3a3d41" fill-opacity="1"><g transform="translate(232.85002, 376.944146)"><g><path d="M 16.875 0 L 16.375 -3.453125 L 16.21875 -3.453125 C 15.125 -2.046875 14 -1.050781 12.84375 -0.46875 C 11.6875 0.113281 10.316406 0.40625 8.734375 0.40625 C 6.597656 0.40625 4.9375 -0.140625 3.75 -1.234375 C 2.5625 -2.335938 1.96875 -3.859375 1.96875 -5.796875 C 1.96875 -7.921875 2.851562 -9.566406 4.625 -10.734375 C 6.394531 -11.910156 8.957031 -12.535156 12.3125 -12.609375 L 16.453125 -12.734375 L 16.453125 -14.171875 C 16.453125 -16.242188 16.03125 -17.804688 15.1875 -18.859375 C 14.34375 -19.910156 12.988281 -20.4375 11.125 -20.4375 C 9.101562 -20.4375 7.007812 -19.878906 4.84375 -18.765625 L 4.109375 -20.484375 C 6.503906 -21.609375 8.867188 -22.171875 11.203125 -22.171875 C 13.597656 -22.171875 15.382812 -21.546875 16.5625 -20.296875 C 17.75 -19.054688 18.34375 -17.117188 18.34375 -14.484375 L 18.34375 0 Z M 8.859375 -1.40625 C 11.179688 -1.40625 13.015625 -2.066406 14.359375 -3.390625 C 15.703125 -4.722656 16.375 -6.570312 16.375 -8.9375 L 16.375 -11.078125 L 12.5625 -10.921875 C 9.507812 -10.773438 7.328125 -10.296875 6.015625 -9.484375 C 4.710938 -8.679688 4.0625 -7.425781 4.0625 -5.71875 C 4.0625 -4.351562 4.476562 -3.289062 5.3125 -2.53125 C 6.15625 -1.78125 7.335938 -1.40625 8.859375 -1.40625 Z M 8.859375 -1.40625 "/></g></g></g><g fill="#3a3d41" fill-opacity="1"><g transform="translate(254.591906, 376.944146)"><g><path d="M 12.21875 -22.203125 C 13.144531 -22.203125 14.132812 -22.109375 15.1875 -21.921875 L 14.8125 -20.015625 C 13.90625 -20.242188 12.960938 -20.359375 11.984375 -20.359375 C 10.128906 -20.359375 8.601562 -19.570312 7.40625 -18 C 6.21875 -16.425781 5.625 -14.4375 5.625 -12.03125 L 5.625 0 L 3.640625 0 L 3.640625 -21.78125 L 5.328125 -21.78125 L 5.53125 -17.859375 L 5.671875 -17.859375 C 6.566406 -19.460938 7.519531 -20.585938 8.53125 -21.234375 C 9.550781 -21.878906 10.78125 -22.203125 12.21875 -22.203125 Z M 12.21875 -22.203125 "/></g></g></g><g fill="#3a3d41" fill-opacity="1"><g transform="translate(270.562673, 376.944146)"><g><path d="M 5.625 0 L 3.640625 0 L 3.640625 -21.78125 L 5.625 -21.78125 Z M 3.359375 -27.84375 C 3.359375 -29.125 3.78125 -29.765625 4.625 -29.765625 C 5.039062 -29.765625 5.363281 -29.597656 5.59375 -29.265625 C 5.832031 -28.929688 5.953125 -28.457031 5.953125 -27.84375 C 5.953125 -27.238281 5.832031 -26.757812 5.59375 -26.40625 C 5.363281 -26.0625 5.039062 -25.890625 4.625 -25.890625 C 3.78125 -25.890625 3.359375 -26.539062 3.359375 -27.84375 Z M 3.359375 -27.84375 "/></g></g></g><g fill="#3a3d41" fill-opacity="1"><g transform="translate(279.840547, 376.944146)"><g><path d="M 18.84375 0 L 18.84375 -14.125 C 18.84375 -16.320312 18.378906 -17.914062 17.453125 -18.90625 C 16.535156 -19.90625 15.109375 -20.40625 13.171875 -20.40625 C 10.566406 -20.40625 8.65625 -19.742188 7.4375 -18.421875 C 6.226562 -17.109375 5.625 -14.976562 5.625 -12.03125 L 5.625 0 L 3.640625 0 L 3.640625 -21.78125 L 5.328125 -21.78125 L 5.71875 -18.796875 L 5.828125 -18.796875 C 7.242188 -21.066406 9.765625 -22.203125 13.390625 -22.203125 C 18.328125 -22.203125 20.796875 -19.550781 20.796875 -14.25 L 20.796875 0 Z M 18.84375 0 "/></g></g></g><g fill="#3a3d41" fill-opacity="1"><g transform="translate(304.04718, 376.944146)"><g><path d="M 12.453125 0.40625 C 9.285156 0.40625 6.816406 -0.566406 5.046875 -2.515625 C 3.273438 -4.472656 2.390625 -7.207031 2.390625 -10.71875 C 2.390625 -14.195312 3.242188 -16.976562 4.953125 -19.0625 C 6.660156 -21.15625 8.960938 -22.203125 11.859375 -22.203125 C 14.429688 -22.203125 16.457031 -21.304688 17.9375 -19.515625 C 19.414062 -17.722656 20.15625 -15.289062 20.15625 -12.21875 L 20.15625 -10.625 L 4.46875 -10.625 C 4.5 -7.632812 5.195312 -5.347656 6.5625 -3.765625 C 7.9375 -2.191406 9.898438 -1.40625 12.453125 -1.40625 C 13.691406 -1.40625 14.78125 -1.488281 15.71875 -1.65625 C 16.664062 -1.832031 17.859375 -2.207031 19.296875 -2.78125 L 19.296875 -0.984375 C 18.066406 -0.453125 16.929688 -0.0859375 15.890625 0.109375 C 14.847656 0.304688 13.703125 0.40625 12.453125 0.40625 Z M 11.859375 -20.4375 C 9.765625 -20.4375 8.082031 -19.742188 6.8125 -18.359375 C 5.539062 -16.984375 4.800781 -14.992188 4.59375 -12.390625 L 18.0625 -12.390625 C 18.0625 -14.910156 17.507812 -16.878906 16.40625 -18.296875 C 15.3125 -19.722656 13.796875 -20.4375 11.859375 -20.4375 Z M 11.859375 -20.4375 "/></g></g></g><g fill="#3a3d41" fill-opacity="1"><g transform="translate(326.57056, 376.944146)"><g/></g></g><g fill="#3a3d41" fill-opacity="1"><g transform="translate(337.231097, 376.944146)"><g><path d="M 16.875 0 L 16.375 -3.453125 L 16.21875 -3.453125 C 15.125 -2.046875 14 -1.050781 12.84375 -0.46875 C 11.6875 0.113281 10.316406 0.40625 8.734375 0.40625 C 6.597656 0.40625 4.9375 -0.140625 3.75 -1.234375 C 2.5625 -2.335938 1.96875 -3.859375 1.96875 -5.796875 C 1.96875 -7.921875 2.851562 -9.566406 4.625 -10.734375 C 6.394531 -11.910156 8.957031 -12.535156 12.3125 -12.609375 L 16.453125 -12.734375 L 16.453125 -14.171875 C 16.453125 -16.242188 16.03125 -17.804688 15.1875 -18.859375 C 14.34375 -19.910156 12.988281 -20.4375 11.125 -20.4375 C 9.101562 -20.4375 7.007812 -19.878906 4.84375 -18.765625 L 4.109375 -20.484375 C 6.503906 -21.609375 8.867188 -22.171875 11.203125 -22.171875 C 13.597656 -22.171875 15.382812 -21.546875 16.5625 -20.296875 C 17.75 -19.054688 18.34375 -17.117188 18.34375 -14.484375 L 18.34375 0 Z M 8.859375 -1.40625 C 11.179688 -1.40625 13.015625 -2.066406 14.359375 -3.390625 C 15.703125 -4.722656 16.375 -6.570312 16.375 -8.9375 L 16.375 -11.078125 L 12.5625 -10.921875 C 9.507812 -10.773438 7.328125 -10.296875 6.015625 -9.484375 C 4.710938 -8.679688 4.0625 -7.425781 4.0625 -5.71875 C 4.0625 -4.351562 4.476562 -3.289062 5.3125 -2.53125 C 6.15625 -1.78125 7.335938 -1.40625 8.859375 -1.40625 Z M 8.859375 -1.40625 "/></g></g></g><g fill="#3a3d41" fill-opacity="1"><g transform="translate(358.972994, 376.944146)"><g><path d="M 18.84375 0 L 18.84375 -14.125 C 18.84375 -16.320312 18.378906 -17.914062 17.453125 -18.90625 C 16.535156 -19.90625 15.109375 -20.40625 13.171875 -20.40625 C 10.566406 -20.40625 8.65625 -19.742188 7.4375 -18.421875 C 6.226562 -17.109375 5.625 -14.976562 5.625 -12.03125 L 5.625 0 L 3.640625 0 L 3.640625 -21.78125 L 5.328125 -21.78125 L 5.71875 -18.796875 L 5.828125 -18.796875 C 7.242188 -21.066406 9.765625 -22.203125 13.390625 -22.203125 C 18.328125 -22.203125 20.796875 -19.550781 20.796875 -14.25 L 20.796875 0 Z M 18.84375 0 "/></g></g></g><g fill="#3a3d41" fill-opacity="1"><g transform="translate(383.179628, 376.944146)"><g><path d="M 11.625 -22.203125 C 13.195312 -22.203125 14.554688 -21.914062 15.703125 -21.34375 C 16.859375 -20.769531 17.890625 -19.789062 18.796875 -18.40625 L 18.921875 -18.40625 C 18.835938 -20.082031 18.796875 -21.726562 18.796875 -23.34375 L 18.796875 -31.1875 L 20.765625 -31.1875 L 20.765625 0 L 19.46875 0 L 18.953125 -3.328125 L 18.796875 -3.328125 C 17.140625 -0.835938 14.765625 0.40625 11.671875 0.40625 C 8.660156 0.40625 6.359375 -0.53125 4.765625 -2.40625 C 3.179688 -4.28125 2.390625 -7.003906 2.390625 -10.578125 C 2.390625 -14.347656 3.175781 -17.226562 4.75 -19.21875 C 6.320312 -21.207031 8.613281 -22.203125 11.625 -22.203125 Z M 11.625 -20.40625 C 9.25 -20.40625 7.460938 -19.566406 6.265625 -17.890625 C 5.066406 -16.222656 4.46875 -13.800781 4.46875 -10.625 C 4.46875 -4.445312 6.867188 -1.359375 11.671875 -1.359375 C 14.128906 -1.359375 15.929688 -2.070312 17.078125 -3.5 C 18.222656 -4.9375 18.796875 -7.296875 18.796875 -10.578125 L 18.796875 -10.921875 C 18.796875 -14.285156 18.226562 -16.707031 17.09375 -18.1875 C 15.96875 -19.664062 14.144531 -20.40625 11.625 -20.40625 Z M 11.625 -20.40625 "/></g></g></g><g fill="#3a3d41" fill-opacity="1"><g transform="translate(407.606675, 376.944146)"><g/></g></g><g fill="#3a3d41" fill-opacity="1"><g transform="translate(418.267212, 376.944146)"><g><path d="M 5.625 0 L 3.640625 0 L 3.640625 -31.1875 L 5.625 -31.1875 Z M 5.625 0 "/></g></g></g><g fill="#3a3d41" fill-opacity="1"><g transform="translate(427.545074, 376.944146)"><g><path d="M 16.875 0 L 16.375 -3.453125 L 16.21875 -3.453125 C 15.125 -2.046875 14 -1.050781 12.84375 -0.46875 C 11.6875 0.113281 10.316406 0.40625 8.734375 0.40625 C 6.597656 0.40625 4.9375 -0.140625 3.75 -1.234375 C 2.5625 -2.335938 1.96875 -3.859375 1.96875 -5.796875 C 1.96875 -7.921875 2.851562 -9.566406 4.625 -10.734375 C 6.394531 -11.910156 8.957031 -12.535156 12.3125 -12.609375 L 16.453125 -12.734375 L 16.453125 -14.171875 C 16.453125 -16.242188 16.03125 -17.804688 15.1875 -18.859375 C 14.34375 -19.910156 12.988281 -20.4375 11.125 -20.4375 C 9.101562 -20.4375 7.007812 -19.878906 4.84375 -18.765625 L 4.109375 -20.484375 C 6.503906 -21.609375 8.867188 -22.171875 11.203125 -22.171875 C 13.597656 -22.171875 15.382812 -21.546875 16.5625 -20.296875 C 17.75 -19.054688 18.34375 -17.117188 18.34375 -14.484375 L 18.34375 0 Z M 8.859375 -1.40625 C 11.179688 -1.40625 13.015625 -2.066406 14.359375 -3.390625 C 15.703125 -4.722656 16.375 -6.570312 16.375 -8.9375 L 16.375 -11.078125 L 12.5625 -10.921875 C 9.507812 -10.773438 7.328125 -10.296875 6.015625 -9.484375 C 4.710938 -8.679688 4.0625 -7.425781 4.0625 -5.71875 C 4.0625 -4.351562 4.476562 -3.289062 5.3125 -2.53125 C 6.15625 -1.78125 7.335938 -1.40625 8.859375 -1.40625 Z M 8.859375 -1.40625 "/></g></g></g><g fill="#3a3d41" fill-opacity="1"><g transform="translate(449.286971, 376.944146)"><g><path d="M 18.84375 0 L 18.84375 -14.125 C 18.84375 -16.320312 18.378906 -17.914062 17.453125 -18.90625 C 16.535156 -19.90625 15.109375 -20.40625 13.171875 -20.40625 C 10.566406 -20.40625 8.65625 -19.742188 7.4375 -18.421875 C 6.226562 -17.109375 5.625 -14.976562 5.625 -12.03125 L 5.625 0 L 3.640625 0 L 3.640625 -21.78125 L 5.328125 -21.78125 L 5.71875 -18.796875 L 5.828125 -18.796875 C 7.242188 -21.066406 9.765625 -22.203125 13.390625 -22.203125 C 18.328125 -22.203125 20.796875 -19.550781 20.796875 -14.25 L 20.796875 0 Z M 18.84375 0 "/></g></g></g><g fill="#3a3d41" fill-opacity="1"><g transform="translate(473.493605, 376.944146)"><g><path d="M 11.625 -22.203125 C 13.195312 -22.203125 14.554688 -21.914062 15.703125 -21.34375 C 16.859375 -20.769531 17.890625 -19.789062 18.796875 -18.40625 L 18.921875 -18.40625 C 18.835938 -20.082031 18.796875 -21.726562 18.796875 -23.34375 L 18.796875 -31.1875 L 20.765625 -31.1875 L 20.765625 0 L 19.46875 0 L 18.953125 -3.328125 L 18.796875 -3.328125 C 17.140625 -0.835938 14.765625 0.40625 11.671875 0.40625 C 8.660156 0.40625 6.359375 -0.53125 4.765625 -2.40625 C 3.179688 -4.28125 2.390625 -7.003906 2.390625 -10.578125 C 2.390625 -14.347656 3.175781 -17.226562 4.75 -19.21875 C 6.320312 -21.207031 8.613281 -22.203125 11.625 -22.203125 Z M 11.625 -20.40625 C 9.25 -20.40625 7.460938 -19.566406 6.265625 -17.890625 C 5.066406 -16.222656 4.46875 -13.800781 4.46875 -10.625 C 4.46875 -4.445312 6.867188 -1.359375 11.671875 -1.359375 C 14.128906 -1.359375 15.929688 -2.070312 17.078125 -3.5 C 18.222656 -4.9375 18.796875 -7.296875 18.796875 -10.578125 L 18.796875 -10.921875 C 18.796875 -14.285156 18.226562 -16.707031 17.09375 -18.1875 C 15.96875 -19.664062 14.144531 -20.40625 11.625 -20.40625 Z M 11.625 -20.40625 "/></g></g></g><g fill="#3a3d41" fill-opacity="1"><g transform="translate(497.920651, 376.944146)"><g/></g></g><g fill="#3a3d41" fill-opacity="1"><g transform="translate(508.581189, 376.944146)"><g><path d="M 17.15625 -5.671875 C 17.15625 -3.722656 16.410156 -2.222656 14.921875 -1.171875 C 13.441406 -0.117188 11.34375 0.40625 8.625 0.40625 C 5.707031 0.40625 3.394531 -0.0390625 1.6875 -0.9375 L 1.6875 -3.09375 C 3.875 -1.988281 6.1875 -1.4375 8.625 -1.4375 C 10.769531 -1.4375 12.398438 -1.796875 13.515625 -2.515625 C 14.628906 -3.234375 15.1875 -4.1875 15.1875 -5.375 C 15.1875 -6.46875 14.742188 -7.390625 13.859375 -8.140625 C 12.972656 -8.890625 11.515625 -9.625 9.484375 -10.34375 C 7.304688 -11.132812 5.773438 -11.8125 4.890625 -12.375 C 4.003906 -12.945312 3.335938 -13.585938 2.890625 -14.296875 C 2.441406 -15.015625 2.21875 -15.890625 2.21875 -16.921875 C 2.21875 -18.546875 2.898438 -19.832031 4.265625 -20.78125 C 5.640625 -21.726562 7.554688 -22.203125 10.015625 -22.203125 C 12.367188 -22.203125 14.601562 -21.765625 16.71875 -20.890625 L 15.96875 -19.078125 C 13.832031 -19.960938 11.847656 -20.40625 10.015625 -20.40625 C 8.242188 -20.40625 6.835938 -20.109375 5.796875 -19.515625 C 4.753906 -18.929688 4.234375 -18.117188 4.234375 -17.078125 C 4.234375 -15.941406 4.632812 -15.03125 5.4375 -14.34375 C 6.25 -13.664062 7.832031 -12.90625 10.1875 -12.0625 C 12.144531 -11.351562 13.570312 -10.710938 14.46875 -10.140625 C 15.363281 -9.578125 16.035156 -8.9375 16.484375 -8.21875 C 16.929688 -7.5 17.15625 -6.648438 17.15625 -5.671875 Z M 17.15625 -5.671875 "/></g></g></g><g fill="#3a3d41" fill-opacity="1"><g transform="translate(527.69804, 376.944146)"><g><path d="M 9.40625 -1.359375 C 10.65625 -1.359375 11.75 -1.46875 12.6875 -1.6875 L 12.6875 -0.078125 C 11.726562 0.242188 10.617188 0.40625 9.359375 0.40625 C 7.429688 0.40625 6.007812 -0.109375 5.09375 -1.140625 C 4.1875 -2.171875 3.734375 -3.789062 3.734375 -6 L 3.734375 -20.0625 L 0.5 -20.0625 L 0.5 -21.21875 L 3.734375 -22.125 L 4.734375 -27.0625 L 5.75 -27.0625 L 5.75 -21.78125 L 12.140625 -21.78125 L 12.140625 -20.0625 L 5.75 -20.0625 L 5.75 -6.265625 C 5.75 -4.597656 6.039062 -3.363281 6.625 -2.5625 C 7.21875 -1.757812 8.144531 -1.359375 9.40625 -1.359375 Z M 9.40625 -1.359375 "/></g></g></g><g fill="#3a3d41" fill-opacity="1"><g transform="translate(541.444499, 376.944146)"><g><path d="M 16.875 0 L 16.375 -3.453125 L 16.21875 -3.453125 C 15.125 -2.046875 14 -1.050781 12.84375 -0.46875 C 11.6875 0.113281 10.316406 0.40625 8.734375 0.40625 C 6.597656 0.40625 4.9375 -0.140625 3.75 -1.234375 C 2.5625 -2.335938 1.96875 -3.859375 1.96875 -5.796875 C 1.96875 -7.921875 2.851562 -9.566406 4.625 -10.734375 C 6.394531 -11.910156 8.957031 -12.535156 12.3125 -12.609375 L 16.453125 -12.734375 L 16.453125 -14.171875 C 16.453125 -16.242188 16.03125 -17.804688 15.1875 -18.859375 C 14.34375 -19.910156 12.988281 -20.4375 11.125 -20.4375 C 9.101562 -20.4375 7.007812 -19.878906 4.84375 -18.765625 L 4.109375 -20.484375 C 6.503906 -21.609375 8.867188 -22.171875 11.203125 -22.171875 C 13.597656 -22.171875 15.382812 -21.546875 16.5625 -20.296875 C 17.75 -19.054688 18.34375 -17.117188 18.34375 -14.484375 L 18.34375 0 Z M 8.859375 -1.40625 C 11.179688 -1.40625 13.015625 -2.066406 14.359375 -3.390625 C 15.703125 -4.722656 16.375 -6.570312 16.375 -8.9375 L 16.375 -11.078125 L 12.5625 -10.921875 C 9.507812 -10.773438 7.328125 -10.296875 6.015625 -9.484375 C 4.710938 -8.679688 4.0625 -7.425781 4.0625 -5.71875 C 4.0625 -4.351562 4.476562 -3.289062 5.3125 -2.53125 C 6.15625 -1.78125 7.335938 -1.40625 8.859375 -1.40625 Z M 8.859375 -1.40625 "/></g></g></g><g fill="#3a3d41" fill-opacity="1"><g transform="translate(563.186396, 376.944146)"><g><path d="M 9.40625 -1.359375 C 10.65625 -1.359375 11.75 -1.46875 12.6875 -1.6875 L 12.6875 -0.078125 C 11.726562 0.242188 10.617188 0.40625 9.359375 0.40625 C 7.429688 0.40625 6.007812 -0.109375 5.09375 -1.140625 C 4.1875 -2.171875 3.734375 -3.789062 3.734375 -6 L 3.734375 -20.0625 L 0.5 -20.0625 L 0.5 -21.21875 L 3.734375 -22.125 L 4.734375 -27.0625 L 5.75 -27.0625 L 5.75 -21.78125 L 12.140625 -21.78125 L 12.140625 -20.0625 L 5.75 -20.0625 L 5.75 -6.265625 C 5.75 -4.597656 6.039062 -3.363281 6.625 -2.5625 C 7.21875 -1.757812 8.144531 -1.359375 9.40625 -1.359375 Z M 9.40625 -1.359375 "/></g></g></g><g fill="#3a3d41" fill-opacity="1"><g transform="translate(576.932901, 376.944146)"><g><path d="M 5.625 0 L 3.640625 0 L 3.640625 -21.78125 L 5.625 -21.78125 Z M 3.359375 -27.84375 C 3.359375 -29.125 3.78125 -29.765625 4.625 -29.765625 C 5.039062 -29.765625 5.363281 -29.597656 5.59375 -29.265625 C 5.832031 -28.929688 5.953125 -28.457031 5.953125 -27.84375 C 5.953125 -27.238281 5.832031 -26.757812 5.59375 -26.40625 C 5.363281 -26.0625 5.039062 -25.890625 4.625 -25.890625 C 3.78125 -25.890625 3.359375 -26.539062 3.359375 -27.84375 Z M 3.359375 -27.84375 "/></g></g></g><g fill="#3a3d41" fill-opacity="1"><g transform="translate(586.210763, 376.944146)"><g><path d="M 21.671875 -10.921875 C 21.671875 -7.367188 20.804688 -4.59375 19.078125 -2.59375 C 17.359375 -0.59375 14.976562 0.40625 11.9375 0.40625 C 10.03125 0.40625 8.347656 -0.0507812 6.890625 -0.96875 C 5.429688 -1.894531 4.316406 -3.21875 3.546875 -4.9375 C 2.773438 -6.664062 2.390625 -8.660156 2.390625 -10.921875 C 2.390625 -14.472656 3.25 -17.238281 4.96875 -19.21875 C 6.695312 -21.207031 9.0625 -22.203125 12.0625 -22.203125 C 15.0625 -22.203125 17.410156 -21.195312 19.109375 -19.1875 C 20.816406 -17.175781 21.671875 -14.421875 21.671875 -10.921875 Z M 4.46875 -10.921875 C 4.46875 -7.929688 5.125 -5.597656 6.4375 -3.921875 C 7.757812 -2.242188 9.625 -1.40625 12.03125 -1.40625 C 14.4375 -1.40625 16.296875 -2.242188 17.609375 -3.921875 C 18.921875 -5.597656 19.578125 -7.929688 19.578125 -10.921875 C 19.578125 -13.929688 18.910156 -16.265625 17.578125 -17.921875 C 16.253906 -19.578125 14.390625 -20.40625 11.984375 -20.40625 C 9.578125 -20.40625 7.722656 -19.578125 6.421875 -17.921875 C 5.117188 -16.273438 4.46875 -13.941406 4.46875 -10.921875 Z M 4.46875 -10.921875 "/></g></g></g><g fill="#3a3d41" fill-opacity="1"><g transform="translate(610.257088, 376.944146)"><g><path d="M 18.84375 0 L 18.84375 -14.125 C 18.84375 -16.320312 18.378906 -17.914062 17.453125 -18.90625 C 16.535156 -19.90625 15.109375 -20.40625 13.171875 -20.40625 C 10.566406 -20.40625 8.65625 -19.742188 7.4375 -18.421875 C 6.226562 -17.109375 5.625 -14.976562 5.625 -12.03125 L 5.625 0 L 3.640625 0 L 3.640625 -21.78125 L 5.328125 -21.78125 L 5.71875 -18.796875 L 5.828125 -18.796875 C 7.242188 -21.066406 9.765625 -22.203125 13.390625 -22.203125 C 18.328125 -22.203125 20.796875 -19.550781 20.796875 -14.25 L 20.796875 0 Z M 18.84375 0 "/></g></g></g><g fill="#3a3d41" fill-opacity="1"><g transform="translate(634.463722, 376.944146)"><g><path d="M 17.15625 -5.671875 C 17.15625 -3.722656 16.410156 -2.222656 14.921875 -1.171875 C 13.441406 -0.117188 11.34375 0.40625 8.625 0.40625 C 5.707031 0.40625 3.394531 -0.0390625 1.6875 -0.9375 L 1.6875 -3.09375 C 3.875 -1.988281 6.1875 -1.4375 8.625 -1.4375 C 10.769531 -1.4375 12.398438 -1.796875 13.515625 -2.515625 C 14.628906 -3.234375 15.1875 -4.1875 15.1875 -5.375 C 15.1875 -6.46875 14.742188 -7.390625 13.859375 -8.140625 C 12.972656 -8.890625 11.515625 -9.625 9.484375 -10.34375 C 7.304688 -11.132812 5.773438 -11.8125 4.890625 -12.375 C 4.003906 -12.945312 3.335938 -13.585938 2.890625 -14.296875 C 2.441406 -15.015625 2.21875 -15.890625 2.21875 -16.921875 C 2.21875 -18.546875 2.898438 -19.832031 4.265625 -20.78125 C 5.640625 -21.726562 7.554688 -22.203125 10.015625 -22.203125 C 12.367188 -22.203125 14.601562 -21.765625 16.71875 -20.890625 L 15.96875 -19.078125 C 13.832031 -19.960938 11.847656 -20.40625 10.015625 -20.40625 C 8.242188 -20.40625 6.835938 -20.109375 5.796875 -19.515625 C 4.753906 -18.929688 4.234375 -18.117188 4.234375 -17.078125 C 4.234375 -15.941406 4.632812 -15.03125 5.4375 -14.34375 C 6.25 -13.664062 7.832031 -12.90625 10.1875 -12.0625 C 12.144531 -11.351562 13.570312 -10.710938 14.46875 -10.140625 C 15.363281 -9.578125 16.035156 -8.9375 16.484375 -8.21875 C 16.929688 -7.5 17.15625 -6.648438 17.15625 -5.671875 Z M 17.15625 -5.671875 "/></g></g></g><g fill="#3a3d41" fill-opacity="1"><g transform="translate(190.916009, 445.065241)"><g><path d="M 25.421875 -4.171875 C 25.941406 -4.171875 26.203125 -3.484375 26.203125 -2.109375 C 26.203125 -0.703125 25.941406 0 25.421875 0 L 24.59375 0 C 21.394531 0 19.195312 -0.921875 18 -2.765625 C 17.0625 -2.328125 16.046875 -1.96875 14.953125 -1.6875 C 13.859375 -1.414062 12.804688 -1.28125 11.796875 -1.28125 C 9.941406 -1.28125 8.234375 -1.703125 6.671875 -2.546875 C 5.109375 -3.398438 3.863281 -4.5625 2.9375 -6.03125 C 2.019531 -7.5 1.5625 -9.109375 1.5625 -10.859375 C 1.5625 -12.628906 2.019531 -14.242188 2.9375 -15.703125 C 3.863281 -17.160156 5.109375 -18.316406 6.671875 -19.171875 C 8.234375 -20.023438 9.925781 -20.453125 11.75 -20.453125 L 16.796875 -20.453125 L 16.796875 -21.4375 L 21.28125 -21.4375 L 21.28125 -7.921875 C 21.28125 -6.546875 21.539062 -5.578125 22.0625 -5.015625 C 22.582031 -4.453125 23.546875 -4.171875 24.953125 -4.171875 Z M 11.90625 -5.5 C 13.519531 -5.5 15.160156 -5.96875 16.828125 -6.90625 C 16.804688 -7.113281 16.796875 -7.441406 16.796875 -7.890625 L 16.796875 -16.28125 L 11.75 -16.28125 C 10.707031 -16.28125 9.75 -16.039062 8.875 -15.5625 C 8.007812 -15.082031 7.320312 -14.425781 6.8125 -13.59375 C 6.300781 -12.757812 6.046875 -11.847656 6.046875 -10.859375 C 6.046875 -9.867188 6.289062 -8.96875 6.78125 -8.15625 C 7.28125 -7.351562 7.976562 -6.707031 8.875 -6.21875 C 9.78125 -5.738281 10.789062 -5.5 11.90625 -5.5 Z M 8.59375 -23.625 C 7.914062 -23.625 7.347656 -23.859375 6.890625 -24.328125 C 6.429688 -24.796875 6.203125 -25.378906 6.203125 -26.078125 C 6.203125 -26.785156 6.429688 -27.375 6.890625 -27.84375 C 7.347656 -28.3125 7.914062 -28.546875 8.59375 -28.546875 C 9.269531 -28.546875 9.832031 -28.316406 10.28125 -27.859375 C 10.738281 -27.398438 10.96875 -26.804688 10.96875 -26.078125 C 10.96875 -25.378906 10.738281 -24.796875 10.28125 -24.328125 C 9.832031 -23.859375 9.269531 -23.625 8.59375 -23.625 Z M 14.765625 -23.625 C 14.085938 -23.625 13.519531 -23.859375 13.0625 -24.328125 C 12.601562 -24.796875 12.375 -25.378906 12.375 -26.078125 C 12.375 -26.785156 12.601562 -27.375 13.0625 -27.84375 C 13.519531 -28.3125 14.085938 -28.546875 14.765625 -28.546875 C 15.441406 -28.546875 16.003906 -28.316406 16.453125 -27.859375 C 16.910156 -27.398438 17.140625 -26.804688 17.140625 -26.078125 C 17.140625 -25.378906 16.910156 -24.796875 16.453125 -24.328125 C 16.003906 -23.859375 15.441406 -23.625 14.765625 -23.625 Z M 14.765625 -23.625 "/></g></g></g><g fill="#3a3d41" fill-opacity="1"><g transform="translate(216.335533, 445.065241)"><g><path d="M 4.140625 -18.984375 L 8.625 -18.984375 L 8.625 0 L 0 0 C -0.519531 0 -0.78125 -0.703125 -0.78125 -2.109375 C -0.78125 -3.484375 -0.519531 -4.171875 0 -4.171875 L 4.140625 -4.171875 Z M 3.59375 7.375 C 2.914062 7.375 2.347656 7.140625 1.890625 6.671875 C 1.429688 6.203125 1.203125 5.617188 1.203125 4.921875 C 1.203125 4.210938 1.429688 3.625 1.890625 3.15625 C 2.347656 2.6875 2.914062 2.453125 3.59375 2.453125 C 4.269531 2.453125 4.832031 2.679688 5.28125 3.140625 C 5.738281 3.597656 5.96875 4.191406 5.96875 4.921875 C 5.96875 5.617188 5.738281 6.203125 5.28125 6.671875 C 4.832031 7.140625 4.269531 7.375 3.59375 7.375 Z M 9.765625 7.375 C 9.085938 7.375 8.519531 7.140625 8.0625 6.671875 C 7.601562 6.203125 7.375 5.617188 7.375 4.921875 C 7.375 4.210938 7.601562 3.625 8.0625 3.15625 C 8.519531 2.6875 9.085938 2.453125 9.765625 2.453125 C 10.441406 2.453125 11.003906 2.679688 11.453125 3.140625 C 11.910156 3.597656 12.140625 4.191406 12.140625 4.921875 C 12.140625 5.617188 11.910156 6.203125 11.453125 6.671875 C 11.003906 7.140625 10.441406 7.375 9.765625 7.375 Z M 9.765625 7.375 "/></g></g></g><g fill="#3a3d41" fill-opacity="1"><g transform="translate(227.698176, 445.065241)"><g><path d="M 12.578125 -4.171875 C 13.097656 -4.171875 13.359375 -3.484375 13.359375 -2.109375 C 13.359375 -0.703125 13.097656 0 12.578125 0 L 8.28125 0 L 8.28125 0.078125 C 8.28125 2.804688 7.535156 4.9375 6.046875 6.46875 C 4.566406 8.007812 2.523438 8.804688 -0.078125 8.859375 L -0.78125 4.640625 C 0.832031 4.742188 1.992188 4.4375 2.703125 3.71875 C 3.421875 3.007812 3.78125 1.796875 3.78125 0.078125 L 3.78125 -18.984375 L 8.28125 -18.984375 L 8.28125 -4.171875 Z M 12.578125 -4.171875 "/></g></g></g><g fill="#3a3d41" fill-opacity="1"><g transform="translate(240.271273, 445.065241)"><g><path d="M 15.265625 -4.171875 C 15.785156 -4.171875 16.046875 -3.484375 16.046875 -2.109375 C 16.046875 -0.703125 15.785156 0 15.265625 0 L 13.125 0 C 10.90625 0 9.082031 -0.554688 7.65625 -1.671875 C 6.425781 -0.554688 4.535156 0 1.984375 0 L 0 0 C -0.519531 0 -0.78125 -0.703125 -0.78125 -2.109375 C -0.78125 -3.484375 -0.519531 -4.171875 0 -4.171875 L 1.640625 -4.171875 C 3.046875 -4.171875 4.007812 -4.453125 4.53125 -5.015625 C 5.050781 -5.578125 5.3125 -6.546875 5.3125 -7.921875 L 5.3125 -18.984375 L 9.796875 -18.984375 L 9.796875 -7.890625 C 9.796875 -6.710938 9.679688 -5.671875 9.453125 -4.765625 C 10.128906 -4.367188 10.945312 -4.171875 11.90625 -4.171875 Z M 7.171875 8.140625 C 6.421875 8.140625 5.796875 7.878906 5.296875 7.359375 C 4.804688 6.835938 4.5625 6.1875 4.5625 5.40625 C 4.5625 4.625 4.804688 3.976562 5.296875 3.46875 C 5.796875 2.957031 6.421875 2.703125 7.171875 2.703125 C 7.929688 2.703125 8.554688 2.957031 9.046875 3.46875 C 9.546875 3.976562 9.796875 4.625 9.796875 5.40625 C 9.796875 6.1875 9.546875 6.835938 9.046875 7.359375 C 8.554688 7.878906 7.929688 8.140625 7.171875 8.140625 Z M 7.171875 8.140625 "/></g></g></g><g fill="#3a3d41" fill-opacity="1"><g transform="translate(255.538606, 445.065241)"><g><path d="M 3 -28.9375 L 7.5 -28.9375 L 7.5 0 L 0 0 C -0.519531 0 -0.78125 -0.703125 -0.78125 -2.109375 C -0.78125 -3.484375 -0.519531 -4.171875 0 -4.171875 L 3 -4.171875 Z M 3 -28.9375 "/></g></g></g><g fill="#3a3d41" fill-opacity="1"><g transform="translate(266.159364, 445.065241)"><g><path d="M 8 0 L 3.515625 0 L 3.515625 -28.9375 L 8 -28.9375 Z M 8 0 "/></g></g></g><g fill="#3a3d41" fill-opacity="1"><g transform="translate(277.678196, 445.065241)"><g><path d="M 12.34375 -20.109375 C 13.769531 -20.109375 15.285156 -19.910156 16.890625 -19.515625 C 18.492188 -19.128906 19.929688 -18.597656 21.203125 -17.921875 L 21.203125 0.078125 C 21.203125 2.859375 20.445312 5.015625 18.9375 6.546875 C 17.425781 8.085938 15.359375 8.859375 12.734375 8.859375 L 5.109375 8.859375 L 5.109375 4.6875 L 12.6875 4.6875 C 14.09375 4.6875 15.113281 4.320312 15.75 3.59375 C 16.394531 2.863281 16.71875 1.691406 16.71875 0.078125 L 16.71875 0 L 11.75 0 C 9.75 0 7.972656 -0.445312 6.421875 -1.34375 C 4.867188 -2.238281 3.671875 -3.441406 2.828125 -4.953125 C 1.984375 -6.460938 1.5625 -8.128906 1.5625 -9.953125 C 1.5625 -11.804688 2.003906 -13.503906 2.890625 -15.046875 C 3.773438 -16.597656 5.03125 -17.828125 6.65625 -18.734375 C 8.28125 -19.648438 10.175781 -20.109375 12.34375 -20.109375 Z M 16.71875 -4.171875 L 16.71875 -15.1875 C 15.226562 -15.6875 13.78125 -15.9375 12.375 -15.9375 C 10.425781 -15.9375 8.882812 -15.390625 7.75 -14.296875 C 6.613281 -13.203125 6.046875 -11.753906 6.046875 -9.953125 C 6.046875 -8.234375 6.570312 -6.835938 7.625 -5.765625 C 8.6875 -4.703125 10.0625 -4.171875 11.75 -4.171875 Z M 16.71875 -4.171875 "/></g></g></g><g fill="#3a3d41" fill-opacity="1"><g transform="translate(301.223464, 445.065241)"><g/></g></g><g fill="#3a3d41" fill-opacity="1"><g transform="translate(311.766128, 445.065241)"><g><path d="M 25.421875 -4.171875 C 25.941406 -4.171875 26.203125 -3.484375 26.203125 -2.109375 C 26.203125 -0.703125 25.941406 0 25.421875 0 L 24.59375 0 C 21.394531 0 19.195312 -0.921875 18 -2.765625 C 17.0625 -2.328125 16.046875 -1.96875 14.953125 -1.6875 C 13.859375 -1.414062 12.804688 -1.28125 11.796875 -1.28125 C 9.941406 -1.28125 8.234375 -1.703125 6.671875 -2.546875 C 5.109375 -3.398438 3.863281 -4.5625 2.9375 -6.03125 C 2.019531 -7.5 1.5625 -9.109375 1.5625 -10.859375 C 1.5625 -12.628906 2.019531 -14.242188 2.9375 -15.703125 C 3.863281 -17.160156 5.109375 -18.316406 6.671875 -19.171875 C 8.234375 -20.023438 9.925781 -20.453125 11.75 -20.453125 L 16.796875 -20.453125 L 16.796875 -21.4375 L 21.28125 -21.4375 L 21.28125 -7.921875 C 21.28125 -6.546875 21.539062 -5.578125 22.0625 -5.015625 C 22.582031 -4.453125 23.546875 -4.171875 24.953125 -4.171875 Z M 11.90625 -5.5 C 13.519531 -5.5 15.160156 -5.96875 16.828125 -6.90625 C 16.804688 -7.113281 16.796875 -7.441406 16.796875 -7.890625 L 16.796875 -16.28125 L 11.75 -16.28125 C 10.707031 -16.28125 9.75 -16.039062 8.875 -15.5625 C 8.007812 -15.082031 7.320312 -14.425781 6.8125 -13.59375 C 6.300781 -12.757812 6.046875 -11.847656 6.046875 -10.859375 C 6.046875 -9.867188 6.289062 -8.96875 6.78125 -8.15625 C 7.28125 -7.351562 7.976562 -6.707031 8.875 -6.21875 C 9.78125 -5.738281 10.789062 -5.5 11.90625 -5.5 Z M 8.59375 -23.625 C 7.914062 -23.625 7.347656 -23.859375 6.890625 -24.328125 C 6.429688 -24.796875 6.203125 -25.378906 6.203125 -26.078125 C 6.203125 -26.785156 6.429688 -27.375 6.890625 -27.84375 C 7.347656 -28.3125 7.914062 -28.546875 8.59375 -28.546875 C 9.269531 -28.546875 9.832031 -28.316406 10.28125 -27.859375 C 10.738281 -27.398438 10.96875 -26.804688 10.96875 -26.078125 C 10.96875 -25.378906 10.738281 -24.796875 10.28125 -24.328125 C 9.832031 -23.859375 9.269531 -23.625 8.59375 -23.625 Z M 14.765625 -23.625 C 14.085938 -23.625 13.519531 -23.859375 13.0625 -24.328125 C 12.601562 -24.796875 12.375 -25.378906 12.375 -26.078125 C 12.375 -26.785156 12.601562 -27.375 13.0625 -27.84375 C 13.519531 -28.3125 14.085938 -28.546875 14.765625 -28.546875 C 15.441406 -28.546875 16.003906 -28.316406 16.453125 -27.859375 C 16.910156 -27.398438 17.140625 -26.804688 17.140625 -26.078125 C 17.140625 -25.378906 16.910156 -24.796875 16.453125 -24.328125 C 16.003906 -23.859375 15.441406 -23.625 14.765625 -23.625 Z M 14.765625 -23.625 "/></g></g></g><g fill="#3a3d41" fill-opacity="1"><g transform="translate(337.185652, 445.065241)"><g><path d="M 4.140625 -18.984375 L 8.625 -18.984375 L 8.625 0 L 0 0 C -0.519531 0 -0.78125 -0.703125 -0.78125 -2.109375 C -0.78125 -3.484375 -0.519531 -4.171875 0 -4.171875 L 4.140625 -4.171875 Z M 3.59375 7.375 C 2.914062 7.375 2.347656 7.140625 1.890625 6.671875 C 1.429688 6.203125 1.203125 5.617188 1.203125 4.921875 C 1.203125 4.210938 1.429688 3.625 1.890625 3.15625 C 2.347656 2.6875 2.914062 2.453125 3.59375 2.453125 C 4.269531 2.453125 4.832031 2.679688 5.28125 3.140625 C 5.738281 3.597656 5.96875 4.191406 5.96875 4.921875 C 5.96875 5.617188 5.738281 6.203125 5.28125 6.671875 C 4.832031 7.140625 4.269531 7.375 3.59375 7.375 Z M 9.765625 7.375 C 9.085938 7.375 8.519531 7.140625 8.0625 6.671875 C 7.601562 6.203125 7.375 5.617188 7.375 4.921875 C 7.375 4.210938 7.601562 3.625 8.0625 3.15625 C 8.519531 2.6875 9.085938 2.453125 9.765625 2.453125 C 10.441406 2.453125 11.003906 2.679688 11.453125 3.140625 C 11.910156 3.597656 12.140625 4.191406 12.140625 4.921875 C 12.140625 5.617188 11.910156 6.203125 11.453125 6.671875 C 11.003906 7.140625 10.441406 7.375 9.765625 7.375 Z M 9.765625 7.375 "/></g></g></g><g fill="#3a3d41" fill-opacity="1"><g transform="translate(348.548295, 445.065241)"><g><path d="M 12.578125 -4.171875 C 13.097656 -4.171875 13.359375 -3.484375 13.359375 -2.109375 C 13.359375 -0.703125 13.097656 0 12.578125 0 L 8.28125 0 L 8.28125 0.078125 C 8.28125 2.804688 7.535156 4.9375 6.046875 6.46875 C 4.566406 8.007812 2.523438 8.804688 -0.078125 8.859375 L -0.78125 4.640625 C 0.832031 4.742188 1.992188 4.4375 2.703125 3.71875 C 3.421875 3.007812 3.78125 1.796875 3.78125 0.078125 L 3.78125 -18.984375 L 8.28125 -18.984375 L 8.28125 -4.171875 Z M 12.578125 -4.171875 "/></g></g></g><g fill="#3a3d41" fill-opacity="1"><g transform="translate(361.121392, 445.065241)"><g><path d="M 25.921875 -4.171875 C 26.441406 -4.171875 26.703125 -3.484375 26.703125 -2.109375 C 26.703125 -0.703125 26.441406 0 25.921875 0 L 0 0 C -0.519531 0 -0.78125 -0.703125 -0.78125 -2.109375 C -0.78125 -3.484375 -0.519531 -4.171875 0 -4.171875 L 15.5 -4.171875 L 15.5 -10.109375 C 15.5 -12.085938 14.867188 -13.660156 13.609375 -14.828125 C 12.347656 -16.003906 10.660156 -16.59375 8.546875 -16.59375 C 6.253906 -16.59375 4.054688 -15.96875 1.953125 -14.71875 L 0.03125 -18.359375 C 2.582031 -19.960938 5.421875 -20.765625 8.546875 -20.765625 C 10.765625 -20.765625 12.738281 -20.3125 14.46875 -19.40625 C 16.195312 -18.5 17.546875 -17.238281 18.515625 -15.625 C 19.492188 -14.007812 19.984375 -12.171875 19.984375 -10.109375 L 19.984375 -4.171875 Z M 25.921875 -4.171875 "/></g></g></g><g fill="#3a3d41" fill-opacity="1"><g transform="translate(387.048508, 445.065241)"><g><path d="M 15.265625 -4.171875 C 15.785156 -4.171875 16.046875 -3.484375 16.046875 -2.109375 C 16.046875 -0.703125 15.785156 0 15.265625 0 L 13.125 0 C 10.90625 0 9.082031 -0.554688 7.65625 -1.671875 C 6.425781 -0.554688 4.535156 0 1.984375 0 L 0 0 C -0.519531 0 -0.78125 -0.703125 -0.78125 -2.109375 C -0.78125 -3.484375 -0.519531 -4.171875 0 -4.171875 L 1.640625 -4.171875 C 3.046875 -4.171875 4.007812 -4.453125 4.53125 -5.015625 C 5.050781 -5.578125 5.3125 -6.546875 5.3125 -7.921875 L 5.3125 -18.984375 L 9.796875 -18.984375 L 9.796875 -7.890625 C 9.796875 -6.710938 9.679688 -5.671875 9.453125 -4.765625 C 10.128906 -4.367188 10.945312 -4.171875 11.90625 -4.171875 Z M 7.171875 8.140625 C 6.421875 8.140625 5.796875 7.878906 5.296875 7.359375 C 4.804688 6.835938 4.5625 6.1875 4.5625 5.40625 C 4.5625 4.625 4.804688 3.976562 5.296875 3.46875 C 5.796875 2.957031 6.421875 2.703125 7.171875 2.703125 C 7.929688 2.703125 8.554688 2.957031 9.046875 3.46875 C 9.546875 3.976562 9.796875 4.625 9.796875 5.40625 C 9.796875 6.1875 9.546875 6.835938 9.046875 7.359375 C 8.554688 7.878906 7.929688 8.140625 7.171875 8.140625 Z M 7.171875 8.140625 "/></g></g></g><g fill="#3a3d41" fill-opacity="1"><g transform="translate(402.315841, 445.065241)"><g><path d="M 3 -28.9375 L 7.5 -28.9375 L 7.5 0 L 0 0 C -0.519531 0 -0.78125 -0.703125 -0.78125 -2.109375 C -0.78125 -3.484375 -0.519531 -4.171875 0 -4.171875 L 3 -4.171875 Z M 3 -28.9375 "/></g></g></g><g fill="#3a3d41" fill-opacity="1"><g transform="translate(412.936598, 445.065241)"><g><path d="M 8 0 L 3.515625 0 L 3.515625 -28.9375 L 8 -28.9375 Z M 8 0 "/></g></g></g><g fill="#3a3d41" fill-opacity="1"><g transform="translate(424.455442, 445.065241)"><g/></g></g><g fill="#3a3d41" fill-opacity="1"><g transform="translate(434.998106, 445.065241)"><g><path d="M 12.65625 -4.171875 C 13.175781 -4.171875 13.4375 -3.484375 13.4375 -2.109375 C 13.4375 -0.703125 13.175781 0 12.65625 0 L 3.515625 0 L 3.515625 -28.9375 L 8 -28.9375 L 8 -4.171875 Z M 12.65625 -4.171875 "/></g></g></g><g fill="#3a3d41" fill-opacity="1"><g transform="translate(447.649297, 445.065241)"><g><path d="M 15.265625 -4.171875 C 15.785156 -4.171875 16.046875 -3.484375 16.046875 -2.109375 C 16.046875 -0.703125 15.785156 0 15.265625 0 L 13.125 0 C 10.90625 0 9.082031 -0.554688 7.65625 -1.671875 C 6.425781 -0.554688 4.535156 0 1.984375 0 L 0 0 C -0.519531 0 -0.78125 -0.703125 -0.78125 -2.109375 C -0.78125 -3.484375 -0.519531 -4.171875 0 -4.171875 L 1.640625 -4.171875 C 3.046875 -4.171875 4.007812 -4.453125 4.53125 -5.015625 C 5.050781 -5.578125 5.3125 -6.546875 5.3125 -7.921875 L 5.3125 -18.984375 L 9.796875 -18.984375 L 9.796875 -7.890625 C 9.796875 -6.710938 9.679688 -5.671875 9.453125 -4.765625 C 10.128906 -4.367188 10.945312 -4.171875 11.90625 -4.171875 Z M 7.171875 -21.859375 C 6.421875 -21.859375 5.796875 -22.117188 5.296875 -22.640625 C 4.804688 -23.160156 4.5625 -23.8125 4.5625 -24.59375 C 4.5625 -25.375 4.804688 -26.019531 5.296875 -26.53125 C 5.796875 -27.039062 6.421875 -27.296875 7.171875 -27.296875 C 7.929688 -27.296875 8.554688 -27.039062 9.046875 -26.53125 C 9.546875 -26.019531 9.796875 -25.375 9.796875 -24.59375 C 9.796875 -23.8125 9.546875 -23.160156 9.046875 -22.640625 C 8.554688 -22.117188 7.929688 -21.859375 7.171875 -21.859375 Z M 7.171875 -21.859375 "/></g></g></g><g fill="#3a3d41" fill-opacity="1"><g transform="translate(462.91663, 445.065241)"><g><path d="M 4.140625 -18.984375 L 8.625 -18.984375 L 8.625 0 L 0 0 C -0.519531 0 -0.78125 -0.703125 -0.78125 -2.109375 C -0.78125 -3.484375 -0.519531 -4.171875 0 -4.171875 L 4.140625 -4.171875 Z M 3.59375 -21.625 C 2.914062 -21.625 2.347656 -21.859375 1.890625 -22.328125 C 1.429688 -22.796875 1.203125 -23.378906 1.203125 -24.078125 C 1.203125 -24.785156 1.429688 -25.375 1.890625 -25.84375 C 2.347656 -26.3125 2.914062 -26.546875 3.59375 -26.546875 C 4.269531 -26.546875 4.832031 -26.316406 5.28125 -25.859375 C 5.738281 -25.398438 5.96875 -24.804688 5.96875 -24.078125 C 5.96875 -23.378906 5.738281 -22.796875 5.28125 -22.328125 C 4.832031 -21.859375 4.269531 -21.625 3.59375 -21.625 Z M 9.765625 -21.625 C 9.085938 -21.625 8.519531 -21.859375 8.0625 -22.328125 C 7.601562 -22.796875 7.375 -23.378906 7.375 -24.078125 C 7.375 -24.785156 7.601562 -25.375 8.0625 -25.84375 C 8.519531 -26.3125 9.085938 -26.546875 9.765625 -26.546875 C 10.441406 -26.546875 11.003906 -26.316406 11.453125 -25.859375 C 11.910156 -25.398438 12.140625 -24.804688 12.140625 -24.078125 C 12.140625 -23.378906 11.910156 -22.796875 11.453125 -22.328125 C 11.003906 -21.859375 10.441406 -21.625 9.765625 -21.625 Z M 9.765625 -21.625 "/></g></g></g><g fill="#3a3d41" fill-opacity="1"><g transform="translate(474.279262, 445.065241)"><g><path d="M 12.65625 -4.171875 C 13.175781 -4.171875 13.4375 -3.484375 13.4375 -2.109375 C 13.4375 -0.703125 13.175781 0 12.65625 0 L 3.515625 0 L 3.515625 -28.9375 L 8 -28.9375 L 8 -4.171875 Z M 12.65625 -4.171875 "/></g></g></g><g fill="#3a3d41" fill-opacity="1"><g transform="translate(486.930454, 445.065241)"><g><path d="M 38.765625 -4.171875 C 39.285156 -4.171875 39.546875 -3.484375 39.546875 -2.109375 C 39.546875 -0.703125 39.285156 0 38.765625 0 L 0 0 C -0.519531 0 -0.78125 -0.703125 -0.78125 -2.109375 C -0.78125 -3.484375 -0.519531 -4.171875 0 -4.171875 L 4.484375 -4.171875 L 4.484375 -28.9375 L 8.984375 -28.9375 L 8.984375 -11.328125 C 10.078125 -13.878906 11.617188 -15.925781 13.609375 -17.46875 C 15.597656 -19.019531 18.128906 -19.796875 21.203125 -19.796875 C 23.773438 -19.796875 25.945312 -19.234375 27.71875 -18.109375 C 29.488281 -16.992188 30.800781 -15.472656 31.65625 -13.546875 C 32.519531 -11.617188 32.953125 -9.472656 32.953125 -7.109375 L 32.953125 -4.171875 Z M 28.46875 -4.171875 L 28.46875 -7.109375 C 28.46875 -9.835938 27.828125 -11.9375 26.546875 -13.40625 C 25.273438 -14.882812 23.53125 -15.625 21.3125 -15.625 C 19.445312 -15.625 17.679688 -15.113281 16.015625 -14.09375 C 14.347656 -13.082031 12.925781 -11.695312 11.75 -9.9375 C 10.582031 -8.175781 9.773438 -6.253906 9.328125 -4.171875 Z M 28.46875 -4.171875 "/></g></g></g><g fill="#3a3d41" fill-opacity="1"><g transform="translate(525.70402, 445.065241)"><g><path d="M 25.921875 -4.171875 C 26.441406 -4.171875 26.703125 -3.484375 26.703125 -2.109375 C 26.703125 -0.703125 26.441406 0 25.921875 0 L 0 0 C -0.519531 0 -0.78125 -0.703125 -0.78125 -2.109375 C -0.78125 -3.484375 -0.519531 -4.171875 0 -4.171875 L 15.5 -4.171875 L 15.5 -10.109375 C 15.5 -12.085938 14.867188 -13.660156 13.609375 -14.828125 C 12.347656 -16.003906 10.660156 -16.59375 8.546875 -16.59375 C 6.253906 -16.59375 4.054688 -15.96875 1.953125 -14.71875 L 0.03125 -18.359375 C 2.582031 -19.960938 5.421875 -20.765625 8.546875 -20.765625 C 10.765625 -20.765625 12.738281 -20.3125 14.46875 -19.40625 C 16.195312 -18.5 17.546875 -17.238281 18.515625 -15.625 C 19.492188 -14.007812 19.984375 -12.171875 19.984375 -10.109375 L 19.984375 -4.171875 Z M 25.921875 -4.171875 "/></g></g></g><g fill="#3a3d41" fill-opacity="1"><g transform="translate(551.631158, 445.065241)"><g><path d="M 12.265625 -18.9375 C 14.453125 -18.9375 16.488281 -18.203125 18.375 -16.734375 C 20.257812 -15.265625 21.734375 -13.269531 22.796875 -10.75 C 23.867188 -8.238281 24.335938 -5.488281 24.203125 -2.5 C 22.410156 -1.6875 20.476562 -1.066406 18.40625 -0.640625 C 16.34375 -0.210938 14.476562 0 12.8125 0 C 10.332031 0 7.921875 -0.519531 5.578125 -1.5625 C 4.222656 -0.519531 2.546875 0 0.546875 0 L 0 0 C -0.519531 0 -0.78125 -0.703125 -0.78125 -2.109375 C -0.78125 -3.484375 -0.519531 -4.171875 0 -4.171875 L 0.546875 -4.171875 C 2.316406 -4.171875 3.28125 -4.875 3.4375 -6.28125 C 3.59375 -8.050781 3.835938 -9.738281 4.171875 -11.34375 C 4.515625 -12.945312 5.328125 -14.613281 6.609375 -16.34375 C 7.898438 -18.070312 9.785156 -18.9375 12.265625 -18.9375 Z M 7.8125 -5.1875 C 9.425781 -4.507812 11.101562 -4.171875 12.84375 -4.171875 C 15.03125 -4.171875 17.28125 -4.550781 19.59375 -5.3125 C 19.394531 -7.03125 18.9375 -8.617188 18.21875 -10.078125 C 17.5 -11.535156 16.628906 -12.679688 15.609375 -13.515625 C 14.597656 -14.347656 13.5625 -14.765625 12.5 -14.765625 C 11.375 -14.765625 10.492188 -14.328125 9.859375 -13.453125 C 9.222656 -12.578125 8.785156 -11.585938 8.546875 -10.484375 C 8.316406 -9.378906 8.132812 -8.109375 8 -6.671875 L 7.890625 -5.578125 C 7.890625 -5.523438 7.863281 -5.394531 7.8125 -5.1875 Z M 7.8125 -5.1875 "/></g></g></g></svg>