<svg xmlns="http://www.w3.org/2000/svg" xmlns:xlink="http://www.w3.org/1999/xlink" width="500" zoomAndPan="magnify" viewBox="0 0 375 374.999991" height="500" preserveAspectRatio="xMidYMid meet" version="1.0"><defs><clipPath id="id1"><path d="M 87 123.378906 L 288 123.378906 L 288 251.628906 L 87 251.628906 Z M 87 123.378906 " clip-rule="nonzero"/></clipPath></defs><path fill="#ffffff" d="M 351.675781 58.050781 L 351.675781 316.949219 C 351.675781 336.148438 336.148438 351.675781 316.949219 351.675781 L 58.050781 351.675781 C 38.851562 351.675781 23.324219 336.148438 23.324219 316.949219 L 23.324219 58.050781 C 23.324219 38.851562 38.851562 23.324219 58.050781 23.324219 L 316.949219 23.324219 C 336.148438 23.324219 351.675781 38.851562 351.675781 58.050781 " fill-opacity="1" fill-rule="nonzero"/><path fill="#3a3d41" d="M 53.476562 312.523438 C 48.503906 312.523438 44.476562 316.554688 44.476562 321.523438 C 44.476562 326.496094 48.503906 330.523438 53.476562 330.523438 C 58.445312 330.523438 62.476562 326.496094 62.476562 321.523438 C 62.476562 316.554688 58.445312 312.523438 53.476562 312.523438 M 53.476562 44.476562 C 48.503906 44.476562 44.476562 48.503906 44.476562 53.476562 C 44.476562 58.445312 48.503906 62.476562 53.476562 62.476562 C 58.445312 62.476562 62.476562 58.445312 62.476562 53.476562 C 62.476562 48.503906 58.445312 44.476562 53.476562 44.476562 M 321.523438 44.476562 C 316.554688 44.476562 312.523438 48.503906 312.523438 53.476562 C 312.523438 58.445312 316.554688 62.476562 321.523438 62.476562 C 326.496094 62.476562 330.523438 58.445312 330.523438 53.476562 C 330.523438 48.503906 326.496094 44.476562 321.523438 44.476562 M 321.523438 312.523438 C 316.554688 312.523438 312.523438 316.554688 312.523438 321.523438 C 312.523438 326.496094 316.554688 330.523438 321.523438 330.523438 C 326.496094 330.523438 330.523438 326.496094 330.523438 321.523438 C 330.523438 316.554688 326.496094 312.523438 321.523438 312.523438 " fill-opacity="1" fill-rule="nonzero"/><path fill="#d3c2bb" d="M 375 62.476562 L 375 33.375 C 368.101562 30.75 361.125 26.25 354.898438 20.101562 C 348.75 13.875 344.25 6.898438 341.625 0 L 33.375 0 C 30.75 6.898438 26.25 13.875 20.101562 20.101562 C 13.875 26.25 6.898438 30.75 0 33.375 L 0 341.625 C 1.726562 342.300781 3.449219 343.050781 5.175781 343.949219 C 5.625 344.175781 6 344.398438 6.449219 344.625 C 6.75 344.773438 7.050781 344.925781 7.351562 345.148438 C 7.425781 345.148438 7.5 345.226562 7.574219 345.300781 C 7.800781 345.375 7.949219 345.523438 8.175781 345.675781 C 10.351562 347.023438 12.523438 348.523438 14.699219 350.175781 C 15.074219 350.476562 15.449219 350.773438 15.824219 351.148438 C 16.125 351.375 16.351562 351.601562 16.574219 351.824219 C 17.324219 352.5 18.074219 353.175781 18.824219 353.925781 C 19.199219 354.300781 19.574219 354.675781 20.023438 355.050781 C 20.398438 355.425781 20.773438 355.800781 21.148438 356.25 C 21.824219 357 22.574219 357.75 23.25 358.5 C 23.476562 358.800781 23.699219 359.023438 23.925781 359.324219 L 24.824219 360.449219 C 25.050781 360.675781 25.199219 360.976562 25.425781 361.199219 C 25.800781 361.648438 26.175781 362.175781 26.550781 362.625 C 27 363.226562 27.375 363.824219 27.75 364.351562 C 28.875 366.074219 29.925781 367.800781 30.898438 369.601562 C 31.050781 369.898438 31.199219 370.125 31.273438 370.425781 L 31.5 370.875 C 31.648438 371.175781 31.800781 371.476562 31.875 371.699219 C 32.398438 372.824219 32.925781 373.949219 33.300781 375.148438 L 341.550781 375.148438 C 344.175781 368.25 348.675781 361.273438 354.824219 355.050781 C 357.148438 352.726562 359.550781 350.625 362.101562 348.824219 C 363.375 347.925781 364.648438 347.023438 365.925781 346.273438 C 366.75 345.75 367.648438 345.226562 368.476562 344.773438 C 369.300781 344.324219 370.199219 343.875 371.023438 343.425781 C 372.300781 342.824219 373.648438 342.226562 374.925781 341.773438 L 375 62.476562 M 351.675781 316.949219 C 351.675781 336.148438 336.148438 351.675781 316.949219 351.675781 L 58.050781 351.675781 C 38.851562 351.675781 23.324219 336.148438 23.324219 316.949219 L 23.324219 58.050781 C 23.324219 38.851562 38.851562 23.324219 58.050781 23.324219 L 316.949219 23.324219 C 336.148438 23.324219 351.675781 38.851562 351.675781 58.050781 L 351.675781 316.949219 " fill-opacity="1" fill-rule="nonzero"/><path fill="#1d918a" d="M 144.757812 182.664062 C 144.757812 182.96875 144.757812 183.570312 144.757812 183.875 C 144.757812 184.175781 144.757812 184.480469 144.757812 184.78125 C 144.757812 185.085938 145.058594 185.691406 145.058594 185.992188 C 145.058594 186.292969 145.363281 186.597656 145.363281 187.203125 C 145.363281 187.503906 145.664062 187.808594 145.96875 188.109375 C 146.269531 188.410156 146.269531 188.714844 146.574219 189.320312 C 146.574219 189.320312 146.574219 189.320312 146.574219 189.621094 C 146.875 189.925781 146.875 190.226562 147.179688 190.226562 C 147.480469 190.527344 147.480469 190.832031 147.785156 190.832031 C 147.785156 190.832031 147.785156 190.832031 148.085938 190.832031 C 148.390625 191.132812 148.691406 191.4375 148.996094 191.738281 C 149.296875 192.042969 149.601562 192.042969 149.902344 192.34375 C 150.207031 192.648438 150.507812 192.648438 150.8125 192.949219 C 151.113281 193.25 151.417969 193.25 151.71875 193.554688 C 152.023438 193.554688 152.324219 193.855469 152.628906 193.855469 C 152.929688 193.855469 153.535156 194.160156 153.839844 194.160156 C 153.839844 194.160156 153.839844 194.160156 154.140625 194.160156 C 154.746094 194.160156 155.351562 194.460938 155.957031 194.460938 C 156.5625 194.460938 157.472656 194.460938 158.078125 194.160156 C 158.378906 194.160156 158.378906 194.160156 158.683594 194.160156 C 159.289062 194.160156 159.589844 193.855469 160.195312 193.855469 C 160.5 193.855469 160.804688 193.554688 160.804688 193.554688 C 161.105469 193.25 161.710938 193.25 162.015625 192.949219 C 162.316406 192.949219 162.316406 192.648438 162.621094 192.648438 C 162.621094 192.648438 162.621094 192.648438 162.921875 192.648438 C 163.226562 192.34375 163.527344 192.34375 163.527344 192.042969 C 163.832031 191.738281 164.132812 191.738281 164.132812 191.4375 C 164.132812 191.4375 164.132812 191.4375 164.132812 191.132812 C 164.4375 190.832031 164.738281 190.527344 165.042969 190.226562 C 165.34375 189.925781 165.34375 189.621094 165.648438 189.320312 C 165.949219 189.015625 165.949219 188.714844 166.253906 188.410156 C 166.554688 188.109375 166.554688 187.808594 166.859375 187.203125 C 166.859375 186.898438 167.160156 186.597656 167.160156 186.292969 C 167.160156 185.992188 167.464844 185.386719 167.464844 185.085938 C 167.464844 185.085938 167.464844 185.085938 167.464844 184.78125 C 167.464844 184.480469 167.464844 184.175781 167.464844 183.875 C 167.464844 183.574219 167.464844 183.269531 167.464844 182.96875 C 167.464844 182.96875 167.464844 182.96875 167.464844 182.664062 C 167.464844 182.363281 167.464844 181.757812 167.464844 181.453125 C 167.464844 181.152344 167.464844 180.851562 167.464844 180.546875 C 167.464844 180.246094 167.160156 179.640625 167.160156 179.335938 C 167.160156 179.035156 166.859375 178.734375 166.859375 178.128906 C 166.859375 177.824219 166.554688 177.523438 166.253906 177.21875 C 165.949219 176.917969 165.949219 176.617188 165.648438 176.011719 C 165.648438 176.011719 165.648438 176.011719 165.648438 175.707031 C 165.34375 175.40625 165.34375 175.101562 165.042969 175.101562 C 164.738281 174.800781 164.738281 174.496094 164.4375 174.496094 C 164.132812 174.195312 163.832031 173.894531 163.527344 173.589844 C 163.226562 173.289062 162.921875 173.289062 162.621094 172.984375 C 162.316406 172.683594 162.015625 172.683594 161.410156 172.378906 C 161.105469 172.078125 160.804688 172.078125 160.5 171.777344 C 160.199219 171.777344 159.894531 171.472656 159.589844 171.472656 C 159.289062 171.472656 158.683594 171.171875 158.378906 171.171875 C 158.378906 171.171875 158.378906 171.171875 158.078125 171.171875 C 157.773438 171.171875 157.472656 171.171875 157.167969 171.171875 C 156.867188 171.171875 156.5625 171.171875 156.261719 171.171875 C 156.261719 171.171875 156.261719 171.171875 155.957031 171.171875 C 155.65625 171.171875 155.050781 171.171875 154.746094 171.171875 C 154.445312 171.171875 154.140625 171.171875 153.535156 171.171875 C 153.234375 171.171875 152.929688 171.472656 152.324219 171.472656 C 152.023438 171.472656 151.417969 171.777344 151.113281 171.777344 C 150.8125 171.777344 150.507812 172.078125 150.207031 172.378906 C 149.902344 172.683594 149.296875 172.683594 148.996094 172.984375 C 148.996094 172.984375 148.996094 172.984375 148.691406 172.984375 C 148.390625 173.289062 148.085938 173.289062 148.085938 173.589844 C 147.785156 173.894531 147.480469 173.894531 147.480469 174.195312 C 147.480469 174.195312 147.480469 174.195312 147.480469 174.496094 C 147.179688 174.800781 146.875 175.101562 146.574219 175.40625 C 146.269531 175.707031 146.269531 176.011719 145.96875 176.3125 C 146.269531 176.3125 146.269531 176.617188 145.96875 176.917969 C 145.664062 177.21875 145.664062 177.523438 145.363281 178.128906 C 145.363281 178.429688 145.058594 178.734375 145.058594 179.035156 C 145.058594 179.335938 144.757812 179.941406 144.757812 180.246094 C 144.757812 180.246094 144.757812 180.246094 144.757812 180.546875 C 144.757812 180.851562 144.757812 181.152344 144.757812 181.453125 C 144.757812 181.757812 144.757812 182.058594 144.757812 182.664062 Z M 150.8125 181.453125 C 150.8125 181.152344 150.8125 181.152344 151.113281 180.851562 C 151.113281 180.851562 151.113281 180.546875 151.113281 180.546875 C 151.113281 180.246094 151.417969 180.246094 151.417969 179.941406 C 151.417969 179.640625 151.71875 179.640625 151.71875 179.335938 C 151.71875 179.335938 152.023438 179.035156 152.023438 179.035156 C 152.023438 178.734375 152.324219 178.734375 152.324219 178.429688 C 152.324219 178.429688 152.628906 178.128906 152.628906 178.128906 C 152.628906 178.128906 152.929688 177.824219 152.929688 177.824219 C 153.234375 177.523438 153.839844 177.21875 154.445312 177.21875 C 154.445312 177.21875 154.746094 177.21875 154.746094 177.21875 C 155.351562 177.21875 155.65625 176.917969 156.261719 176.917969 C 156.5625 176.917969 156.867188 176.917969 157.167969 176.917969 C 157.472656 176.917969 157.472656 176.917969 157.773438 176.917969 C 158.078125 176.917969 158.078125 176.917969 158.378906 177.21875 C 158.683594 177.21875 158.683594 177.21875 158.984375 177.523438 C 159.289062 177.523438 159.289062 177.824219 159.589844 177.824219 C 159.589844 177.824219 159.894531 178.128906 159.894531 178.128906 C 160.199219 178.128906 160.199219 178.429688 160.5 178.429688 C 160.5 178.429688 160.804688 178.734375 160.804688 178.734375 C 160.804688 178.734375 161.105469 179.035156 161.105469 179.035156 C 161.105469 179.335938 161.410156 179.335938 161.410156 179.640625 C 161.410156 179.640625 161.710938 179.941406 161.710938 179.941406 C 161.710938 180.246094 161.710938 180.246094 162.015625 180.546875 C 162.015625 180.851562 162.015625 180.851562 162.316406 181.152344 C 162.316406 181.453125 162.316406 181.453125 162.316406 181.757812 C 162.316406 182.058594 162.316406 182.058594 162.316406 182.363281 C 162.316406 182.664062 162.316406 182.664062 162.316406 182.96875 C 162.316406 183.269531 162.316406 183.269531 162.316406 183.570312 C 162.316406 183.875 162.316406 183.875 162.015625 184.175781 C 162.015625 184.175781 162.015625 184.480469 162.015625 184.480469 C 162.015625 184.78125 161.710938 184.78125 161.710938 185.085938 C 161.710938 185.386719 161.410156 185.386719 161.410156 185.691406 C 161.410156 185.691406 161.105469 185.992188 161.105469 185.992188 C 161.105469 186.292969 160.804688 186.292969 160.804688 186.597656 C 160.804688 186.597656 160.5 186.898438 160.5 186.898438 C 160.5 186.898438 160.199219 187.203125 160.199219 187.203125 C 159.894531 187.203125 159.894531 187.503906 159.589844 187.503906 C 159.589844 187.503906 159.289062 187.808594 159.289062 187.808594 C 158.984375 187.808594 158.984375 187.808594 158.683594 188.109375 C 158.378906 188.109375 158.378906 188.109375 158.078125 188.410156 C 157.773438 188.410156 157.773438 188.410156 157.472656 188.410156 C 157.167969 188.410156 157.167969 188.410156 156.867188 188.410156 C 156.5625 188.410156 156.5625 188.410156 156.261719 188.410156 C 155.957031 188.410156 155.957031 188.410156 155.65625 188.410156 C 155.351562 188.410156 155.351562 188.410156 155.050781 188.109375 C 154.746094 188.109375 154.746094 188.109375 154.445312 188.109375 C 154.140625 188.109375 154.140625 187.808594 153.839844 187.808594 C 153.535156 187.808594 153.535156 187.503906 153.234375 187.503906 C 153.234375 187.503906 152.929688 187.203125 152.929688 187.203125 C 152.628906 187.203125 152.628906 186.898438 152.324219 186.898438 C 152.324219 186.898438 152.023438 186.597656 152.023438 186.597656 C 152.023438 186.597656 151.71875 186.292969 151.71875 186.292969 C 151.71875 185.992188 151.417969 185.992188 151.417969 185.691406 C 151.417969 185.691406 151.113281 185.386719 151.113281 185.085938 C 151.113281 184.78125 151.113281 184.78125 150.8125 184.480469 C 150.8125 184.175781 150.8125 184.175781 150.507812 183.875 C 150.507812 183.570312 150.507812 183.570312 150.507812 183.269531 C 150.507812 182.96875 150.507812 182.96875 150.507812 182.664062 C 150.507812 182.363281 150.507812 182.363281 150.507812 182.058594 C 150.8125 181.757812 150.8125 181.453125 150.8125 181.453125 Z M 150.8125 181.453125 " fill-opacity="1" fill-rule="nonzero"/><path fill="#1d918a" d="M 112.363281 238.621094 C 115.390625 238.621094 118.417969 237.414062 120.839844 234.992188 C 122.960938 232.875 124.472656 229.851562 124.472656 226.523438 C 124.472656 223.195312 123.261719 220.472656 120.839844 218.054688 C 118.722656 215.9375 115.691406 214.425781 112.363281 214.425781 C 109.335938 214.425781 106.308594 215.636719 103.886719 218.054688 C 101.765625 220.171875 100.253906 223.195312 100.253906 226.523438 C 100.253906 229.851562 101.464844 232.574219 103.886719 234.992188 C 106.003906 237.414062 109.03125 238.621094 112.363281 238.621094 Z M 108.125 222.589844 C 109.335938 221.382812 110.546875 220.777344 112.363281 220.777344 C 113.875 220.777344 115.390625 221.382812 116.601562 222.589844 C 117.8125 223.800781 118.417969 225.3125 118.417969 226.828125 C 118.417969 228.339844 117.8125 229.851562 116.601562 231.0625 C 114.480469 233.179688 110.546875 233.179688 108.425781 231.0625 C 107.214844 229.851562 106.609375 228.339844 106.609375 226.828125 C 106.609375 225.3125 107.214844 223.800781 108.125 222.589844 Z M 108.125 222.589844 " fill-opacity="1" fill-rule="nonzero"/><g clip-path="url(#id1)"><path fill="#1d918a" d="M 112.363281 251.628906 C 119.023438 251.628906 125.382812 248.90625 130.226562 244.371094 C 134.464844 240.136719 137.1875 234.691406 137.492188 228.640625 C 137.792969 223.800781 140.214844 218.960938 143.847656 215.332031 L 146.269531 212.914062 C 149.601562 209.585938 153.839844 207.769531 159.289062 207.164062 C 165.648438 206.558594 171.097656 203.535156 175.335938 199.300781 L 195.316406 202.628906 C 196.828125 206.257812 199.25 209.28125 202.582031 212.003906 C 207.125 215.632812 212.574219 217.449219 218.023438 217.449219 C 223.773438 217.449219 229.828125 215.332031 234.371094 211.398438 C 239.214844 207.164062 242.242188 201.722656 242.847656 195.367188 C 243.453125 189.621094 245.875 184.78125 249.203125 181.453125 L 251.023438 179.640625 C 254.65625 176.011719 259.5 173.894531 265.25 173.289062 C 270.699219 172.683594 275.847656 170.261719 279.78125 166.332031 C 284.625 161.792969 287.046875 155.441406 287.351562 148.789062 C 287.351562 142.132812 284.929688 135.78125 280.386719 130.941406 C 275.847656 126.101562 269.488281 123.378906 262.828125 123.378906 C 262.828125 123.378906 262.527344 123.378906 262.527344 123.378906 C 255.867188 123.378906 249.507812 125.800781 244.964844 130.640625 C 240.726562 134.875 238.003906 140.621094 237.699219 146.367188 C 237.398438 151.207031 234.976562 156.046875 231.34375 159.675781 L 229.828125 161.1875 C 226.195312 164.820312 221.351562 167.238281 216.507812 167.539062 C 210.453125 167.84375 205.003906 170.566406 200.460938 174.800781 C 200.460938 174.800781 200.160156 175.101562 200.160156 175.101562 L 179.875 171.777344 C 177.152344 166.027344 172.308594 161.1875 165.949219 159.070312 C 158.683594 156.652344 151.113281 157.257812 144.453125 160.886719 C 138.097656 164.820312 133.554688 171.171875 132.34375 178.429688 C 132.34375 179.035156 132.042969 179.941406 132.042969 180.546875 C 131.738281 185.386719 129.316406 190.527344 125.382812 194.460938 L 124.472656 195.367188 C 120.839844 199 115.996094 201.417969 111.152344 201.722656 C 105.097656 202.023438 99.34375 204.746094 95.105469 208.980469 C 90.261719 213.820312 87.839844 219.871094 87.839844 226.828125 C 87.839844 233.480469 90.566406 239.832031 95.105469 244.371094 C 99.34375 249.210938 105.703125 251.628906 112.363281 251.628906 Z M 216.207031 173.589844 C 222.5625 173.289062 228.617188 170.261719 233.460938 165.726562 L 234.976562 164.214844 C 239.820312 159.375 242.542969 153.324219 243.148438 146.972656 C 243.453125 142.433594 245.570312 138.199219 248.597656 134.875 C 252.234375 131.242188 256.773438 129.429688 261.921875 129.429688 C 261.921875 129.429688 261.921875 129.429688 262.222656 129.429688 C 267.371094 129.429688 272.214844 131.546875 275.542969 135.175781 C 278.875 138.804688 280.992188 143.644531 280.691406 148.789062 C 280.691406 153.929688 278.570312 158.769531 274.9375 162.097656 C 271.910156 165.121094 267.976562 166.9375 263.738281 167.238281 C 256.773438 168.144531 250.417969 170.867188 245.875 175.40625 L 244.664062 176.917969 C 240.121094 181.453125 237.398438 187.503906 236.488281 194.460938 C 235.882812 199 233.765625 203.535156 230.132812 206.558594 C 223.472656 212.308594 212.875 212.609375 205.914062 207.164062 C 203.1875 205.046875 201.066406 202.324219 199.855469 199.300781 C 199.25 197.484375 198.644531 195.367188 198.644531 193.554688 C 198.34375 188.109375 200.460938 182.96875 204.09375 179.035156 C 207.425781 175.707031 211.664062 173.894531 216.207031 173.589844 Z M 195.617188 180.546875 C 193.5 184.480469 192.289062 189.015625 192.589844 193.554688 C 192.589844 194.460938 192.589844 195.367188 192.894531 195.972656 L 178.664062 193.554688 C 180.480469 189.925781 181.691406 185.691406 181.390625 181.152344 C 181.390625 179.941406 181.085938 179.035156 181.085938 177.824219 Z M 99.042969 213.214844 C 102.371094 209.886719 106.609375 208.074219 111.152344 207.769531 C 117.511719 207.46875 123.566406 204.441406 128.410156 199.601562 L 129.316406 198.695312 C 134.464844 193.554688 137.492188 187.503906 137.792969 181.152344 C 137.792969 180.546875 137.792969 179.941406 138.097656 179.640625 C 139.003906 174.195312 142.335938 169.355469 147.179688 166.332031 C 150.207031 164.515625 153.535156 163.609375 156.867188 163.609375 C 158.984375 163.609375 161.410156 163.910156 163.527344 164.820312 C 168.371094 166.632812 172.308594 170.261719 174.125 174.800781 C 174.125 175.40625 174.425781 176.011719 174.730469 176.3125 C 175.335938 178.128906 175.636719 179.941406 175.636719 181.757812 C 175.636719 185.992188 174.425781 190.226562 172.003906 193.554688 C 171.398438 193.855469 170.792969 194.460938 170.492188 195.066406 C 167.464844 198.394531 163.226562 200.8125 158.378906 201.117188 C 151.71875 201.722656 145.96875 204.140625 141.730469 208.375 L 139.308594 210.796875 C 134.464844 215.636719 131.738281 221.683594 131.132812 227.734375 C 130.832031 232.269531 128.710938 236.503906 125.683594 239.53125 C 122.050781 243.160156 117.207031 244.976562 112.363281 244.976562 C 107.214844 244.976562 102.675781 242.859375 99.042969 239.53125 C 95.410156 235.902344 93.59375 231.363281 93.59375 226.222656 C 93.289062 221.683594 95.410156 216.84375 99.042969 213.214844 Z M 99.042969 213.214844 " fill-opacity="1" fill-rule="nonzero"/></g><path fill="#1d918a" d="M 262.222656 160.28125 C 265.25 160.28125 268.277344 159.070312 270.699219 156.953125 C 275.242188 152.417969 275.242188 144.855469 270.699219 140.015625 C 266.160156 135.476562 258.589844 135.476562 253.746094 140.015625 C 249.207031 144.554688 249.207031 152.113281 253.746094 156.953125 C 255.867188 159.070312 258.894531 160.28125 262.222656 160.28125 Z M 257.984375 144.25 C 259.195312 143.039062 260.710938 142.433594 262.222656 142.433594 C 263.738281 142.433594 265.25 143.039062 266.460938 144.25 C 267.671875 145.460938 268.277344 146.972656 268.277344 148.484375 C 268.277344 149.996094 267.671875 151.507812 266.460938 152.71875 C 265.25 153.929688 264.039062 154.535156 262.222656 154.535156 C 260.710938 154.535156 259.195312 153.929688 257.984375 152.71875 C 256.773438 151.507812 256.167969 149.996094 256.167969 148.484375 C 256.167969 146.972656 256.773438 145.15625 257.984375 144.25 Z M 257.984375 144.25 " fill-opacity="1" fill-rule="nonzero"/><path fill="#1d918a" d="M 217.71875 204.140625 C 221.050781 204.140625 223.773438 202.929688 226.195312 200.8125 C 228.316406 198.695312 229.828125 195.671875 229.828125 192.34375 C 229.828125 189.015625 228.617188 186.292969 226.5 183.875 C 221.957031 179.335938 214.390625 179.335938 209.546875 183.875 C 207.425781 185.992188 205.914062 189.015625 205.914062 192.34375 C 205.914062 195.671875 207.125 198.394531 209.242188 200.8125 C 211.363281 202.929688 214.390625 204.140625 217.71875 204.140625 Z M 213.480469 188.109375 C 214.691406 186.898438 215.902344 186.292969 217.71875 186.292969 C 219.234375 186.292969 220.746094 186.898438 221.957031 188.109375 C 223.167969 189.320312 223.773438 190.832031 223.773438 192.34375 C 223.773438 193.855469 223.167969 195.367188 221.957031 196.578125 C 220.746094 197.789062 219.535156 198.089844 217.71875 198.394531 C 216.207031 198.394531 214.691406 197.789062 213.480469 196.578125 C 212.269531 195.367188 211.664062 193.855469 211.664062 192.34375 C 211.664062 190.832031 212.269531 189.320312 213.480469 188.109375 Z M 213.480469 188.109375 " fill-opacity="1" fill-rule="nonzero"/></svg>