<svg xmlns="http://www.w3.org/2000/svg" xmlns:xlink="http://www.w3.org/1999/xlink" width="1024" zoomAndPan="magnify" viewBox="0 0 768 576" height="768" preserveAspectRatio="xMidYMid meet" version="1.0"><defs><g/><clipPath id="id1"><path d="M 230.398438 96 L 312 96 L 312 175 L 230.398438 175 Z M 230.398438 96 " clip-rule="nonzero"/></clipPath><clipPath id="id2"><path d="M 318 57.601562 L 462 57.601562 L 462 73 L 318 73 Z M 318 57.601562 " clip-rule="nonzero"/></clipPath><clipPath id="id3"><path d="M 463 217 L 510.324219 217 L 510.324219 263.851562 L 463 263.851562 Z M 463 217 " clip-rule="nonzero"/></clipPath><clipPath id="id4"><path d="M 312.289062 217 L 359.917969 217 L 359.917969 263.851562 L 312.289062 263.851562 Z M 312.289062 217 " clip-rule="nonzero"/></clipPath><clipPath id="id5"><path d="M 284 126.074219 L 537.898438 126.074219 L 537.898438 241 L 284 241 Z M 284 126.074219 " clip-rule="nonzero"/></clipPath></defs><path fill="#1d918a" d="M 271.871094 166.480469 C 274.097656 166.480469 276.121094 167.386719 277.585938 168.847656 C 279.046875 170.308594 279.953125 172.328125 279.953125 174.558594 C 279.953125 176.789062 279.046875 178.808594 277.585938 180.273438 C 276.121094 181.734375 274.097656 182.636719 271.871094 182.636719 C 269.636719 182.636719 267.613281 181.734375 266.152344 180.273438 C 264.6875 178.808594 263.785156 176.789062 263.785156 174.558594 C 263.785156 172.328125 264.6875 170.308594 266.152344 168.847656 C 267.613281 167.386719 269.636719 166.480469 271.871094 166.480469 " fill-opacity="1" fill-rule="nonzero"/><g clip-path="url(#id1)"><path fill="#1d918a" d="M 245.328125 136.28125 L 270.15625 101.539062 L 287.113281 101.539062 L 287.113281 136.28125 Z M 311.660156 96.460938 L 268.875 96.460938 C 268.015625 96.457031 267.300781 96.855469 266.789062 97.535156 L 238.445312 137.195312 C 238.058594 137.660156 237.863281 138.226562 237.859375 138.820312 L 237.859375 169.859375 L 232.941406 169.859375 C 231.539062 169.859375 230.398438 171 230.398438 172.402344 C 230.398438 173.804688 231.539062 174.9375 232.941406 174.9375 L 245.328125 174.9375 C 245.324219 174.816406 245.324219 174.6875 245.324219 174.558594 C 245.324219 167.507812 248.109375 160.789062 253.097656 155.804688 C 258.089844 150.816406 264.8125 148.035156 271.871094 148.035156 C 278.925781 148.035156 285.648438 150.816406 290.636719 155.804688 C 295.628906 160.789062 298.414062 167.507812 298.414062 174.558594 C 298.414062 174.6875 298.414062 174.816406 298.410156 174.9375 L 311.660156 174.9375 L 311.660156 96.460938 " fill-opacity="1" fill-rule="nonzero"/></g><path fill="#1d918a" d="M 318.078125 139.640625 L 357.335938 139.640625 C 365.914062 129.683594 371.539062 124.703125 385.191406 121.644531 C 389.355469 120.710938 393.3125 120.273438 397.5625 120.171875 C 401.074219 120.089844 404.582031 120.136719 408.09375 120.136719 L 461.429688 120.136719 L 461.429688 78.945312 L 318.078125 78.945312 L 318.078125 139.640625 " fill-opacity="1" fill-rule="evenodd"/><path fill="#1d918a" d="M 318.078125 146.054688 L 318.078125 172.402344 C 318.078125 173.640625 318.96875 174.675781 320.144531 174.898438 C 322.609375 173.890625 325.054688 172.757812 325.953125 171.859375 C 334.535156 163.277344 343.722656 155.199219 351.714844 146.054688 L 318.078125 146.054688 " fill-opacity="1" fill-rule="evenodd"/><g clip-path="url(#id2)"><path fill="#1d918a" d="M 318.078125 60.144531 L 318.078125 72.53125 L 461.429688 72.53125 L 461.429688 60.144531 C 461.429688 58.742188 460.289062 57.605469 458.886719 57.605469 L 320.621094 57.605469 C 319.21875 57.605469 318.078125 58.742188 318.078125 60.144531 " fill-opacity="1" fill-rule="evenodd"/></g><path fill="#1d918a" d="M 281.4375 165 C 278.890625 162.453125 275.46875 161.042969 271.871094 161.042969 C 268.265625 161.042969 264.847656 162.453125 262.304688 165 C 259.757812 167.546875 258.339844 170.960938 258.339844 174.558594 C 258.339844 178.15625 259.757812 181.574219 262.304688 184.121094 C 264.847656 186.660156 268.265625 188.078125 271.871094 188.078125 C 275.46875 188.078125 278.890625 186.660156 281.4375 184.121094 C 283.984375 181.574219 285.398438 178.15625 285.398438 174.558594 C 285.398438 170.960938 283.980469 167.546875 281.4375 165 Z M 271.871094 154.445312 C 277.222656 154.445312 282.316406 156.554688 286.101562 160.335938 C 289.886719 164.121094 291.996094 169.207031 291.996094 174.558594 C 291.996094 179.910156 289.886719 184.996094 286.101562 188.78125 C 282.316406 192.5625 277.222656 194.671875 271.871094 194.671875 C 266.511719 194.671875 261.421875 192.5625 257.636719 188.78125 C 253.847656 184.996094 251.742188 179.910156 251.742188 174.558594 C 251.742188 169.207031 253.847656 164.121094 257.636719 160.335938 C 261.421875 156.554688 266.511719 154.445312 271.871094 154.445312 " fill-opacity="1" fill-rule="evenodd"/><g clip-path="url(#id3)"><path fill="#1d918a" d="M 502.109375 240.457031 C 502.109375 236.335938 500.488281 232.421875 497.574219 229.507812 C 494.65625 226.59375 490.742188 224.972656 486.613281 224.972656 C 482.488281 224.972656 478.574219 226.59375 475.65625 229.507812 C 472.738281 232.421875 471.117188 236.335938 471.117188 240.457031 C 471.117188 244.578125 472.738281 248.492188 475.65625 251.40625 C 478.574219 254.320312 482.488281 255.941406 486.613281 255.941406 C 490.742188 255.941406 494.65625 254.320312 497.574219 251.40625 C 500.488281 248.492188 502.109375 244.578125 502.109375 240.457031 Z M 486.613281 217.046875 C 492.847656 217.046875 498.773438 219.5 503.179688 223.902344 C 507.589844 228.304688 510.042969 234.226562 510.042969 240.457031 C 510.042969 246.683594 507.589844 252.605469 503.179688 257.007812 C 498.773438 261.414062 492.847656 263.867188 486.613281 263.867188 C 480.378906 263.867188 474.453125 261.414062 470.046875 257.007812 C 465.640625 252.605469 463.1875 246.683594 463.1875 240.457031 C 463.1875 234.226562 465.640625 228.304688 470.046875 223.902344 C 474.453125 219.5 480.378906 217.046875 486.613281 217.046875 " fill-opacity="1" fill-rule="evenodd"/></g><path fill="#1d918a" d="M 486.613281 231.183594 C 489.175781 231.183594 491.5 232.222656 493.175781 233.902344 C 494.855469 235.578125 495.894531 237.898438 495.894531 240.457031 C 495.894531 243.015625 494.855469 245.332031 493.175781 247.011719 C 491.5 248.6875 489.175781 249.730469 486.613281 249.730469 C 484.054688 249.730469 481.730469 248.6875 480.054688 247.011719 C 478.375 245.332031 477.335938 243.015625 477.335938 240.457031 C 477.335938 237.898438 478.375 235.578125 480.054688 233.902344 C 481.730469 232.222656 484.054688 231.183594 486.613281 231.183594 " fill-opacity="1" fill-rule="nonzero"/><g clip-path="url(#id4)"><path fill="#1d918a" d="M 351.273438 240.457031 C 351.273438 236.335938 349.652344 232.421875 346.738281 229.507812 C 343.820312 226.59375 339.902344 224.972656 335.777344 224.972656 C 331.652344 224.972656 327.738281 226.59375 324.820312 229.507812 C 321.90625 232.421875 320.28125 236.335938 320.28125 240.457031 C 320.28125 244.578125 321.90625 248.492188 324.820312 251.40625 C 327.738281 254.320312 331.652344 255.941406 335.777344 255.941406 C 339.902344 255.941406 343.820312 254.320312 346.738281 251.40625 C 349.652344 248.492188 351.273438 244.578125 351.273438 240.457031 Z M 335.777344 217.046875 C 342.011719 217.046875 347.9375 219.5 352.34375 223.902344 C 356.75 228.304688 359.207031 234.226562 359.207031 240.457031 C 359.207031 246.683594 356.75 252.605469 352.34375 257.007812 C 347.9375 261.414062 342.011719 263.867188 335.777344 263.867188 C 329.546875 263.867188 323.617188 261.414062 319.210938 257.007812 C 314.804688 252.605469 312.351562 246.683594 312.351562 240.457031 C 312.351562 234.226562 314.804688 228.304688 319.210938 223.902344 C 323.617188 219.5 329.546875 217.046875 335.777344 217.046875 " fill-opacity="1" fill-rule="evenodd"/></g><path fill="#1d918a" d="M 335.777344 231.183594 C 338.339844 231.183594 340.660156 232.222656 342.339844 233.902344 C 344.019531 235.578125 345.054688 237.898438 345.054688 240.457031 C 345.054688 243.015625 344.019531 245.332031 342.339844 247.011719 C 340.660156 248.6875 338.339844 249.730469 335.777344 249.730469 C 333.21875 249.730469 330.898438 248.6875 329.214844 247.011719 C 327.539062 245.332031 326.5 243.015625 326.5 240.457031 C 326.5 237.898438 327.539062 235.578125 329.214844 233.902344 C 330.898438 232.222656 333.21875 231.183594 335.777344 231.183594 " fill-opacity="1" fill-rule="nonzero"/><g clip-path="url(#id5)"><path fill="#1d918a" d="M 299.121094 240.691406 L 305.933594 240.691406 L 305.933594 240.457031 C 305.933594 232.527344 309.0625 224.972656 314.675781 219.367188 C 320.285156 213.761719 327.84375 210.632812 335.777344 210.632812 C 343.710938 210.632812 351.269531 213.761719 356.882812 219.367188 C 362.492188 224.972656 365.625 232.527344 365.625 240.457031 L 365.625 240.691406 L 456.769531 240.691406 L 456.769531 240.457031 C 456.769531 232.527344 459.898438 224.972656 465.511719 219.367188 C 471.121094 213.761719 478.679688 210.632812 486.613281 210.632812 C 494.550781 210.632812 502.109375 213.761719 507.71875 219.367188 C 513.332031 224.972656 516.460938 232.527344 516.460938 240.457031 L 516.457031 240.691406 L 523.269531 240.691406 C 527.300781 240.691406 530.960938 239.046875 533.613281 236.398438 C 536.269531 233.746094 537.917969 230.085938 537.917969 226.058594 L 537.917969 135.054688 C 537.917969 130.355469 533.882812 126.464844 529.1875 126.542969 L 408.09375 126.542969 C 404.636719 126.542969 401.167969 126.5 397.710938 126.582031 C 394.101562 126.667969 390.839844 126.953125 386.597656 127.902344 C 373.308594 130.882812 368.734375 136.207031 361.863281 144.21875 C 360.34375 145.988281 358.597656 147.800781 357.152344 149.582031 C 348.648438 158.890625 339.40625 167.484375 330.488281 176.394531 C 328.058594 178.824219 322.769531 180.800781 316.792969 183.039062 C 301.980469 188.570312 283.347656 195.542969 284.480469 216.671875 L 284.476562 226.058594 C 284.480469 230.085938 286.125 233.746094 288.777344 236.398438 C 291.429688 239.046875 295.09375 240.691406 299.121094 240.691406 Z M 392.164062 153.886719 L 392.164062 178.023438 L 336.339844 178.023438 C 338.539062 175.84375 340.4375 173.988281 342.34375 172.125 C 348.480469 166.121094 354.683594 160.050781 360.363281 153.886719 L 392.164062 153.886719 " fill-opacity="1" fill-rule="evenodd"/></g><g fill="#3a3d41" fill-opacity="1"><g transform="translate(160.010736, 376.944614)"><g/></g></g><g fill="#3a3d41" fill-opacity="1"><g transform="translate(160.010736, 376.944614)"><g><path d="M 20.15625 0 L 4.15625 0 L 4.15625 -29.296875 L 20.15625 -29.296875 L 20.15625 -27.421875 L 6.1875 -27.421875 L 6.1875 -16.328125 L 19.375 -16.328125 L 19.375 -14.453125 L 6.1875 -14.453125 L 6.1875 -1.890625 L 20.15625 -1.890625 Z M 20.15625 0 "/></g></g></g><g fill="#3a3d41" fill-opacity="1"><g transform="translate(182.654359, 376.944614)"><g><path d="M 9 -11.203125 L 1.40625 -21.78125 L 3.6875 -21.78125 L 10.1875 -12.609375 L 16.609375 -21.78125 L 18.796875 -21.78125 L 11.328125 -11.203125 L 19.34375 0 L 17.03125 0 L 10.1875 -9.71875 L 3.28125 0 L 1.109375 0 Z M 9 -11.203125 "/></g></g></g><g fill="#3a3d41" fill-opacity="1"><g transform="translate(203.093734, 376.944614)"><g><path d="M 9.40625 -1.359375 C 10.65625 -1.359375 11.75 -1.46875 12.6875 -1.6875 L 12.6875 -0.078125 C 11.726562 0.242188 10.617188 0.40625 9.359375 0.40625 C 7.429688 0.40625 6.007812 -0.109375 5.09375 -1.140625 C 4.1875 -2.171875 3.734375 -3.789062 3.734375 -6 L 3.734375 -20.0625 L 0.5 -20.0625 L 0.5 -21.21875 L 3.734375 -22.125 L 4.734375 -27.0625 L 5.75 -27.0625 L 5.75 -21.78125 L 12.140625 -21.78125 L 12.140625 -20.0625 L 5.75 -20.0625 L 5.75 -6.265625 C 5.75 -4.597656 6.039062 -3.363281 6.625 -2.5625 C 7.21875 -1.757812 8.144531 -1.359375 9.40625 -1.359375 Z M 9.40625 -1.359375 "/></g></g></g><g fill="#3a3d41" fill-opacity="1"><g transform="translate(216.840217, 376.944614)"><g><path d="M 12.453125 0.40625 C 9.285156 0.40625 6.816406 -0.566406 5.046875 -2.515625 C 3.273438 -4.472656 2.390625 -7.207031 2.390625 -10.71875 C 2.390625 -14.195312 3.242188 -16.976562 4.953125 -19.0625 C 6.660156 -21.15625 8.960938 -22.203125 11.859375 -22.203125 C 14.429688 -22.203125 16.457031 -21.304688 17.9375 -19.515625 C 19.414062 -17.722656 20.15625 -15.289062 20.15625 -12.21875 L 20.15625 -10.625 L 4.46875 -10.625 C 4.5 -7.632812 5.195312 -5.347656 6.5625 -3.765625 C 7.9375 -2.191406 9.898438 -1.40625 12.453125 -1.40625 C 13.691406 -1.40625 14.78125 -1.488281 15.71875 -1.65625 C 16.664062 -1.832031 17.859375 -2.207031 19.296875 -2.78125 L 19.296875 -0.984375 C 18.066406 -0.453125 16.929688 -0.0859375 15.890625 0.109375 C 14.847656 0.304688 13.703125 0.40625 12.453125 0.40625 Z M 11.859375 -20.4375 C 9.765625 -20.4375 8.082031 -19.742188 6.8125 -18.359375 C 5.539062 -16.984375 4.800781 -14.992188 4.59375 -12.390625 L 18.0625 -12.390625 C 18.0625 -14.910156 17.507812 -16.878906 16.40625 -18.296875 C 15.3125 -19.722656 13.796875 -20.4375 11.859375 -20.4375 Z M 11.859375 -20.4375 "/></g></g></g><g fill="#3a3d41" fill-opacity="1"><g transform="translate(239.363608, 376.944614)"><g><path d="M 18.84375 0 L 18.84375 -14.125 C 18.84375 -16.320312 18.378906 -17.914062 17.453125 -18.90625 C 16.535156 -19.90625 15.109375 -20.40625 13.171875 -20.40625 C 10.566406 -20.40625 8.65625 -19.742188 7.4375 -18.421875 C 6.226562 -17.109375 5.625 -14.976562 5.625 -12.03125 L 5.625 0 L 3.640625 0 L 3.640625 -21.78125 L 5.328125 -21.78125 L 5.71875 -18.796875 L 5.828125 -18.796875 C 7.242188 -21.066406 9.765625 -22.203125 13.390625 -22.203125 C 18.328125 -22.203125 20.796875 -19.550781 20.796875 -14.25 L 20.796875 0 Z M 18.84375 0 "/></g></g></g><g fill="#3a3d41" fill-opacity="1"><g transform="translate(263.570241, 376.944614)"><g><path d="M 17.15625 -5.671875 C 17.15625 -3.722656 16.410156 -2.222656 14.921875 -1.171875 C 13.441406 -0.117188 11.34375 0.40625 8.625 0.40625 C 5.707031 0.40625 3.394531 -0.0390625 1.6875 -0.9375 L 1.6875 -3.09375 C 3.875 -1.988281 6.1875 -1.4375 8.625 -1.4375 C 10.769531 -1.4375 12.398438 -1.796875 13.515625 -2.515625 C 14.628906 -3.234375 15.1875 -4.1875 15.1875 -5.375 C 15.1875 -6.46875 14.742188 -7.390625 13.859375 -8.140625 C 12.972656 -8.890625 11.515625 -9.625 9.484375 -10.34375 C 7.304688 -11.132812 5.773438 -11.8125 4.890625 -12.375 C 4.003906 -12.945312 3.335938 -13.585938 2.890625 -14.296875 C 2.441406 -15.015625 2.21875 -15.890625 2.21875 -16.921875 C 2.21875 -18.546875 2.898438 -19.832031 4.265625 -20.78125 C 5.640625 -21.726562 7.554688 -22.203125 10.015625 -22.203125 C 12.367188 -22.203125 14.601562 -21.765625 16.71875 -20.890625 L 15.96875 -19.078125 C 13.832031 -19.960938 11.847656 -20.40625 10.015625 -20.40625 C 8.242188 -20.40625 6.835938 -20.109375 5.796875 -19.515625 C 4.753906 -18.929688 4.234375 -18.117188 4.234375 -17.078125 C 4.234375 -15.941406 4.632812 -15.03125 5.4375 -14.34375 C 6.25 -13.664062 7.832031 -12.90625 10.1875 -12.0625 C 12.144531 -11.351562 13.570312 -10.710938 14.46875 -10.140625 C 15.363281 -9.578125 16.035156 -8.9375 16.484375 -8.21875 C 16.929688 -7.5 17.15625 -6.648438 17.15625 -5.671875 Z M 17.15625 -5.671875 "/></g></g></g><g fill="#3a3d41" fill-opacity="1"><g transform="translate(282.687069, 376.944614)"><g><path d="M 5.625 0 L 3.640625 0 L 3.640625 -21.78125 L 5.625 -21.78125 Z M 3.359375 -27.84375 C 3.359375 -29.125 3.78125 -29.765625 4.625 -29.765625 C 5.039062 -29.765625 5.363281 -29.597656 5.59375 -29.265625 C 5.832031 -28.929688 5.953125 -28.457031 5.953125 -27.84375 C 5.953125 -27.238281 5.832031 -26.757812 5.59375 -26.40625 C 5.363281 -26.0625 5.039062 -25.890625 4.625 -25.890625 C 3.78125 -25.890625 3.359375 -26.539062 3.359375 -27.84375 Z M 3.359375 -27.84375 "/></g></g></g><g fill="#3a3d41" fill-opacity="1"><g transform="translate(291.964943, 376.944614)"><g><path d="M 8.421875 0 L 0 -21.78125 L 2.046875 -21.78125 L 7.671875 -6.96875 C 8.421875 -5.070312 8.984375 -3.414062 9.359375 -2 L 9.484375 -2 C 10.023438 -3.820312 10.582031 -5.492188 11.15625 -7.015625 L 16.796875 -21.78125 L 18.84375 -21.78125 L 10.421875 0 Z M 8.421875 0 "/></g></g></g><g fill="#3a3d41" fill-opacity="1"><g transform="translate(310.80123, 376.944614)"><g><path d="M 12.453125 0.40625 C 9.285156 0.40625 6.816406 -0.566406 5.046875 -2.515625 C 3.273438 -4.472656 2.390625 -7.207031 2.390625 -10.71875 C 2.390625 -14.195312 3.242188 -16.976562 4.953125 -19.0625 C 6.660156 -21.15625 8.960938 -22.203125 11.859375 -22.203125 C 14.429688 -22.203125 16.457031 -21.304688 17.9375 -19.515625 C 19.414062 -17.722656 20.15625 -15.289062 20.15625 -12.21875 L 20.15625 -10.625 L 4.46875 -10.625 C 4.5 -7.632812 5.195312 -5.347656 6.5625 -3.765625 C 7.9375 -2.191406 9.898438 -1.40625 12.453125 -1.40625 C 13.691406 -1.40625 14.78125 -1.488281 15.71875 -1.65625 C 16.664062 -1.832031 17.859375 -2.207031 19.296875 -2.78125 L 19.296875 -0.984375 C 18.066406 -0.453125 16.929688 -0.0859375 15.890625 0.109375 C 14.847656 0.304688 13.703125 0.40625 12.453125 0.40625 Z M 11.859375 -20.4375 C 9.765625 -20.4375 8.082031 -19.742188 6.8125 -18.359375 C 5.539062 -16.984375 4.800781 -14.992188 4.59375 -12.390625 L 18.0625 -12.390625 C 18.0625 -14.910156 17.507812 -16.878906 16.40625 -18.296875 C 15.3125 -19.722656 13.796875 -20.4375 11.859375 -20.4375 Z M 11.859375 -20.4375 "/></g></g></g><g fill="#3a3d41" fill-opacity="1"><g transform="translate(333.324621, 376.944614)"><g/></g></g><g fill="#3a3d41" fill-opacity="1"><g transform="translate(343.985159, 376.944614)"><g><path d="M 9.40625 -1.359375 C 10.65625 -1.359375 11.75 -1.46875 12.6875 -1.6875 L 12.6875 -0.078125 C 11.726562 0.242188 10.617188 0.40625 9.359375 0.40625 C 7.429688 0.40625 6.007812 -0.109375 5.09375 -1.140625 C 4.1875 -2.171875 3.734375 -3.789062 3.734375 -6 L 3.734375 -20.0625 L 0.5 -20.0625 L 0.5 -21.21875 L 3.734375 -22.125 L 4.734375 -27.0625 L 5.75 -27.0625 L 5.75 -21.78125 L 12.140625 -21.78125 L 12.140625 -20.0625 L 5.75 -20.0625 L 5.75 -6.265625 C 5.75 -4.597656 6.039062 -3.363281 6.625 -2.5625 C 7.21875 -1.757812 8.144531 -1.359375 9.40625 -1.359375 Z M 9.40625 -1.359375 "/></g></g></g><g fill="#3a3d41" fill-opacity="1"><g transform="translate(357.73163, 376.944614)"><g><path d="M 12.21875 -22.203125 C 13.144531 -22.203125 14.132812 -22.109375 15.1875 -21.921875 L 14.8125 -20.015625 C 13.90625 -20.242188 12.960938 -20.359375 11.984375 -20.359375 C 10.128906 -20.359375 8.601562 -19.570312 7.40625 -18 C 6.21875 -16.425781 5.625 -14.4375 5.625 -12.03125 L 5.625 0 L 3.640625 0 L 3.640625 -21.78125 L 5.328125 -21.78125 L 5.53125 -17.859375 L 5.671875 -17.859375 C 6.566406 -19.460938 7.519531 -20.585938 8.53125 -21.234375 C 9.550781 -21.878906 10.78125 -22.203125 12.21875 -22.203125 Z M 12.21875 -22.203125 "/></g></g></g><g fill="#3a3d41" fill-opacity="1"><g transform="translate(373.702409, 376.944614)"><g><path d="M 16.875 0 L 16.375 -3.453125 L 16.21875 -3.453125 C 15.125 -2.046875 14 -1.050781 12.84375 -0.46875 C 11.6875 0.113281 10.316406 0.40625 8.734375 0.40625 C 6.597656 0.40625 4.9375 -0.140625 3.75 -1.234375 C 2.5625 -2.335938 1.96875 -3.859375 1.96875 -5.796875 C 1.96875 -7.921875 2.851562 -9.566406 4.625 -10.734375 C 6.394531 -11.910156 8.957031 -12.535156 12.3125 -12.609375 L 16.453125 -12.734375 L 16.453125 -14.171875 C 16.453125 -16.242188 16.03125 -17.804688 15.1875 -18.859375 C 14.34375 -19.910156 12.988281 -20.4375 11.125 -20.4375 C 9.101562 -20.4375 7.007812 -19.878906 4.84375 -18.765625 L 4.109375 -20.484375 C 6.503906 -21.609375 8.867188 -22.171875 11.203125 -22.171875 C 13.597656 -22.171875 15.382812 -21.546875 16.5625 -20.296875 C 17.75 -19.054688 18.34375 -17.117188 18.34375 -14.484375 L 18.34375 0 Z M 8.859375 -1.40625 C 11.179688 -1.40625 13.015625 -2.066406 14.359375 -3.390625 C 15.703125 -4.722656 16.375 -6.570312 16.375 -8.9375 L 16.375 -11.078125 L 12.5625 -10.921875 C 9.507812 -10.773438 7.328125 -10.296875 6.015625 -9.484375 C 4.710938 -8.679688 4.0625 -7.425781 4.0625 -5.71875 C 4.0625 -4.351562 4.476562 -3.289062 5.3125 -2.53125 C 6.15625 -1.78125 7.335938 -1.40625 8.859375 -1.40625 Z M 8.859375 -1.40625 "/></g></g></g><g fill="#3a3d41" fill-opacity="1"><g transform="translate(395.444306, 376.944614)"><g><path d="M 18.84375 0 L 18.84375 -14.125 C 18.84375 -16.320312 18.378906 -17.914062 17.453125 -18.90625 C 16.535156 -19.90625 15.109375 -20.40625 13.171875 -20.40625 C 10.566406 -20.40625 8.65625 -19.742188 7.4375 -18.421875 C 6.226562 -17.109375 5.625 -14.976562 5.625 -12.03125 L 5.625 0 L 3.640625 0 L 3.640625 -21.78125 L 5.328125 -21.78125 L 5.71875 -18.796875 L 5.828125 -18.796875 C 7.242188 -21.066406 9.765625 -22.203125 13.390625 -22.203125 C 18.328125 -22.203125 20.796875 -19.550781 20.796875 -14.25 L 20.796875 0 Z M 18.84375 0 "/></g></g></g><g fill="#3a3d41" fill-opacity="1"><g transform="translate(419.650939, 376.944614)"><g><path d="M 17.15625 -5.671875 C 17.15625 -3.722656 16.410156 -2.222656 14.921875 -1.171875 C 13.441406 -0.117188 11.34375 0.40625 8.625 0.40625 C 5.707031 0.40625 3.394531 -0.0390625 1.6875 -0.9375 L 1.6875 -3.09375 C 3.875 -1.988281 6.1875 -1.4375 8.625 -1.4375 C 10.769531 -1.4375 12.398438 -1.796875 13.515625 -2.515625 C 14.628906 -3.234375 15.1875 -4.1875 15.1875 -5.375 C 15.1875 -6.46875 14.742188 -7.390625 13.859375 -8.140625 C 12.972656 -8.890625 11.515625 -9.625 9.484375 -10.34375 C 7.304688 -11.132812 5.773438 -11.8125 4.890625 -12.375 C 4.003906 -12.945312 3.335938 -13.585938 2.890625 -14.296875 C 2.441406 -15.015625 2.21875 -15.890625 2.21875 -16.921875 C 2.21875 -18.546875 2.898438 -19.832031 4.265625 -20.78125 C 5.640625 -21.726562 7.554688 -22.203125 10.015625 -22.203125 C 12.367188 -22.203125 14.601562 -21.765625 16.71875 -20.890625 L 15.96875 -19.078125 C 13.832031 -19.960938 11.847656 -20.40625 10.015625 -20.40625 C 8.242188 -20.40625 6.835938 -20.109375 5.796875 -19.515625 C 4.753906 -18.929688 4.234375 -18.117188 4.234375 -17.078125 C 4.234375 -15.941406 4.632812 -15.03125 5.4375 -14.34375 C 6.25 -13.664062 7.832031 -12.90625 10.1875 -12.0625 C 12.144531 -11.351562 13.570312 -10.710938 14.46875 -10.140625 C 15.363281 -9.578125 16.035156 -8.9375 16.484375 -8.21875 C 16.929688 -7.5 17.15625 -6.648438 17.15625 -5.671875 Z M 17.15625 -5.671875 "/></g></g></g><g fill="#3a3d41" fill-opacity="1"><g transform="translate(438.767767, 376.944614)"><g><path d="M 12.96875 0.40625 C 9.613281 0.40625 7.164062 -0.847656 5.625 -3.359375 L 5.484375 -3.359375 L 5.546875 -1.6875 C 5.597656 -0.695312 5.625 0.382812 5.625 1.5625 L 5.625 9.859375 L 3.640625 9.859375 L 3.640625 -21.78125 L 5.328125 -21.78125 L 5.71875 -18.671875 L 5.828125 -18.671875 C 7.328125 -21.023438 9.71875 -22.203125 13 -22.203125 C 15.945312 -22.203125 18.191406 -21.238281 19.734375 -19.3125 C 21.273438 -17.382812 22.046875 -14.578125 22.046875 -10.890625 C 22.046875 -7.304688 21.234375 -4.523438 19.609375 -2.546875 C 17.984375 -0.578125 15.769531 0.40625 12.96875 0.40625 Z M 12.921875 -1.359375 C 15.160156 -1.359375 16.890625 -2.1875 18.109375 -3.84375 C 19.328125 -5.5 19.9375 -7.816406 19.9375 -10.796875 C 19.9375 -17.203125 17.625 -20.40625 13 -20.40625 C 10.46875 -20.40625 8.601562 -19.707031 7.40625 -18.3125 C 6.21875 -16.914062 5.625 -14.640625 5.625 -11.484375 L 5.625 -10.84375 C 5.625 -7.4375 6.195312 -5.003906 7.34375 -3.546875 C 8.488281 -2.085938 10.347656 -1.359375 12.921875 -1.359375 Z M 12.921875 -1.359375 "/></g></g></g><g fill="#3a3d41" fill-opacity="1"><g transform="translate(463.194837, 376.944614)"><g><path d="M 21.671875 -10.921875 C 21.671875 -7.367188 20.804688 -4.59375 19.078125 -2.59375 C 17.359375 -0.59375 14.976562 0.40625 11.9375 0.40625 C 10.03125 0.40625 8.347656 -0.0507812 6.890625 -0.96875 C 5.429688 -1.894531 4.316406 -3.21875 3.546875 -4.9375 C 2.773438 -6.664062 2.390625 -8.660156 2.390625 -10.921875 C 2.390625 -14.472656 3.25 -17.238281 4.96875 -19.21875 C 6.695312 -21.207031 9.0625 -22.203125 12.0625 -22.203125 C 15.0625 -22.203125 17.410156 -21.195312 19.109375 -19.1875 C 20.816406 -17.175781 21.671875 -14.421875 21.671875 -10.921875 Z M 4.46875 -10.921875 C 4.46875 -7.929688 5.125 -5.597656 6.4375 -3.921875 C 7.757812 -2.242188 9.625 -1.40625 12.03125 -1.40625 C 14.4375 -1.40625 16.296875 -2.242188 17.609375 -3.921875 C 18.921875 -5.597656 19.578125 -7.929688 19.578125 -10.921875 C 19.578125 -13.929688 18.910156 -16.265625 17.578125 -17.921875 C 16.253906 -19.578125 14.390625 -20.40625 11.984375 -20.40625 C 9.578125 -20.40625 7.722656 -19.578125 6.421875 -17.921875 C 5.117188 -16.273438 4.46875 -13.941406 4.46875 -10.921875 Z M 4.46875 -10.921875 "/></g></g></g><g fill="#3a3d41" fill-opacity="1"><g transform="translate(487.241162, 376.944614)"><g><path d="M 12.21875 -22.203125 C 13.144531 -22.203125 14.132812 -22.109375 15.1875 -21.921875 L 14.8125 -20.015625 C 13.90625 -20.242188 12.960938 -20.359375 11.984375 -20.359375 C 10.128906 -20.359375 8.601562 -19.570312 7.40625 -18 C 6.21875 -16.425781 5.625 -14.4375 5.625 -12.03125 L 5.625 0 L 3.640625 0 L 3.640625 -21.78125 L 5.328125 -21.78125 L 5.53125 -17.859375 L 5.671875 -17.859375 C 6.566406 -19.460938 7.519531 -20.585938 8.53125 -21.234375 C 9.550781 -21.878906 10.78125 -22.203125 12.21875 -22.203125 Z M 12.21875 -22.203125 "/></g></g></g><g fill="#3a3d41" fill-opacity="1"><g transform="translate(503.211941, 376.944614)"><g><path d="M 9.40625 -1.359375 C 10.65625 -1.359375 11.75 -1.46875 12.6875 -1.6875 L 12.6875 -0.078125 C 11.726562 0.242188 10.617188 0.40625 9.359375 0.40625 C 7.429688 0.40625 6.007812 -0.109375 5.09375 -1.140625 C 4.1875 -2.171875 3.734375 -3.789062 3.734375 -6 L 3.734375 -20.0625 L 0.5 -20.0625 L 0.5 -21.21875 L 3.734375 -22.125 L 4.734375 -27.0625 L 5.75 -27.0625 L 5.75 -21.78125 L 12.140625 -21.78125 L 12.140625 -20.0625 L 5.75 -20.0625 L 5.75 -6.265625 C 5.75 -4.597656 6.039062 -3.363281 6.625 -2.5625 C 7.21875 -1.757812 8.144531 -1.359375 9.40625 -1.359375 Z M 9.40625 -1.359375 "/></g></g></g><g fill="#3a3d41" fill-opacity="1"><g transform="translate(516.958423, 376.944614)"><g/></g></g><g fill="#3a3d41" fill-opacity="1"><g transform="translate(527.61896, 376.944614)"><g><path d="M 11.75 -20.0625 L 6.609375 -20.0625 L 6.609375 0 L 4.625 0 L 4.625 -20.0625 L 0.578125 -20.0625 L 0.578125 -21.21875 L 4.625 -21.96875 L 4.625 -23.65625 C 4.625 -26.320312 5.113281 -28.28125 6.09375 -29.53125 C 7.082031 -30.78125 8.691406 -31.40625 10.921875 -31.40625 C 12.128906 -31.40625 13.332031 -31.222656 14.53125 -30.859375 L 14.0625 -29.140625 C 13 -29.472656 11.941406 -29.640625 10.890625 -29.640625 C 9.335938 -29.640625 8.234375 -29.179688 7.578125 -28.265625 C 6.929688 -27.347656 6.609375 -25.863281 6.609375 -23.8125 L 6.609375 -21.78125 L 11.75 -21.78125 Z M 11.75 -20.0625 "/></g></g></g><g fill="#3a3d41" fill-opacity="1"><g transform="translate(539.922663, 376.944614)"><g><path d="M 5.625 0 L 3.640625 0 L 3.640625 -31.1875 L 5.625 -31.1875 Z M 5.625 0 "/></g></g></g><g fill="#3a3d41" fill-opacity="1"><g transform="translate(549.200525, 376.944614)"><g><path d="M 12.453125 0.40625 C 9.285156 0.40625 6.816406 -0.566406 5.046875 -2.515625 C 3.273438 -4.472656 2.390625 -7.207031 2.390625 -10.71875 C 2.390625 -14.195312 3.242188 -16.976562 4.953125 -19.0625 C 6.660156 -21.15625 8.960938 -22.203125 11.859375 -22.203125 C 14.429688 -22.203125 16.457031 -21.304688 17.9375 -19.515625 C 19.414062 -17.722656 20.15625 -15.289062 20.15625 -12.21875 L 20.15625 -10.625 L 4.46875 -10.625 C 4.5 -7.632812 5.195312 -5.347656 6.5625 -3.765625 C 7.9375 -2.191406 9.898438 -1.40625 12.453125 -1.40625 C 13.691406 -1.40625 14.78125 -1.488281 15.71875 -1.65625 C 16.664062 -1.832031 17.859375 -2.207031 19.296875 -2.78125 L 19.296875 -0.984375 C 18.066406 -0.453125 16.929688 -0.0859375 15.890625 0.109375 C 14.847656 0.304688 13.703125 0.40625 12.453125 0.40625 Z M 11.859375 -20.4375 C 9.765625 -20.4375 8.082031 -19.742188 6.8125 -18.359375 C 5.539062 -16.984375 4.800781 -14.992188 4.59375 -12.390625 L 18.0625 -12.390625 C 18.0625 -14.910156 17.507812 -16.878906 16.40625 -18.296875 C 15.3125 -19.722656 13.796875 -20.4375 11.859375 -20.4375 Z M 11.859375 -20.4375 "/></g></g></g><g fill="#3a3d41" fill-opacity="1"><g transform="translate(571.723916, 376.944614)"><g><path d="M 12.453125 0.40625 C 9.285156 0.40625 6.816406 -0.566406 5.046875 -2.515625 C 3.273438 -4.472656 2.390625 -7.207031 2.390625 -10.71875 C 2.390625 -14.195312 3.242188 -16.976562 4.953125 -19.0625 C 6.660156 -21.15625 8.960938 -22.203125 11.859375 -22.203125 C 14.429688 -22.203125 16.457031 -21.304688 17.9375 -19.515625 C 19.414062 -17.722656 20.15625 -15.289062 20.15625 -12.21875 L 20.15625 -10.625 L 4.46875 -10.625 C 4.5 -7.632812 5.195312 -5.347656 6.5625 -3.765625 C 7.9375 -2.191406 9.898438 -1.40625 12.453125 -1.40625 C 13.691406 -1.40625 14.78125 -1.488281 15.71875 -1.65625 C 16.664062 -1.832031 17.859375 -2.207031 19.296875 -2.78125 L 19.296875 -0.984375 C 18.066406 -0.453125 16.929688 -0.0859375 15.890625 0.109375 C 14.847656 0.304688 13.703125 0.40625 12.453125 0.40625 Z M 11.859375 -20.4375 C 9.765625 -20.4375 8.082031 -19.742188 6.8125 -18.359375 C 5.539062 -16.984375 4.800781 -14.992188 4.59375 -12.390625 L 18.0625 -12.390625 C 18.0625 -14.910156 17.507812 -16.878906 16.40625 -18.296875 C 15.3125 -19.722656 13.796875 -20.4375 11.859375 -20.4375 Z M 11.859375 -20.4375 "/></g></g></g><g fill="#3a3d41" fill-opacity="1"><g transform="translate(594.247307, 376.944614)"><g><path d="M 9.40625 -1.359375 C 10.65625 -1.359375 11.75 -1.46875 12.6875 -1.6875 L 12.6875 -0.078125 C 11.726562 0.242188 10.617188 0.40625 9.359375 0.40625 C 7.429688 0.40625 6.007812 -0.109375 5.09375 -1.140625 C 4.1875 -2.171875 3.734375 -3.789062 3.734375 -6 L 3.734375 -20.0625 L 0.5 -20.0625 L 0.5 -21.21875 L 3.734375 -22.125 L 4.734375 -27.0625 L 5.75 -27.0625 L 5.75 -21.78125 L 12.140625 -21.78125 L 12.140625 -20.0625 L 5.75 -20.0625 L 5.75 -6.265625 C 5.75 -4.597656 6.039062 -3.363281 6.625 -2.5625 C 7.21875 -1.757812 8.144531 -1.359375 9.40625 -1.359375 Z M 9.40625 -1.359375 "/></g></g></g><g fill="#3a3d41" fill-opacity="1"><g transform="translate(152.548823, 445.065241)"><g><path d="M 33.65625 -17.375 L 33.65625 -2.5 C 33.65625 1.6875 32.351562 5.050781 29.75 7.59375 C 27.144531 10.132812 23.097656 11.40625 17.609375 11.40625 C 12.117188 11.40625 8.070312 10.132812 5.46875 7.59375 C 2.863281 5.050781 1.5625 1.6875 1.5625 -2.5 C 1.5625 -4.65625 1.910156 -6.921875 2.609375 -9.296875 L 6.71875 -7.296875 C 6.269531 -5.609375 6.046875 -3.96875 6.046875 -2.375 C 6.046875 0.71875 6.941406 3.085938 8.734375 4.734375 C 10.535156 6.390625 13.492188 7.21875 17.609375 7.21875 C 21.304688 7.21875 24.066406 6.539062 25.890625 5.1875 C 27.710938 3.832031 28.78125 1.894531 29.09375 -0.625 C 27.738281 -0.207031 26.316406 0 24.828125 0 C 22.878906 0 21.078125 -0.445312 19.421875 -1.34375 C 17.773438 -2.238281 16.460938 -3.453125 15.484375 -4.984375 C 14.503906 -6.523438 14.015625 -8.222656 14.015625 -10.078125 C 14.015625 -11.921875 14.503906 -13.609375 15.484375 -15.140625 C 16.460938 -16.679688 17.773438 -17.898438 19.421875 -18.796875 C 21.078125 -19.691406 22.878906 -20.140625 24.828125 -20.140625 C 26.234375 -20.140625 27.71875 -19.894531 29.28125 -19.40625 C 30.84375 -18.914062 32.273438 -18.238281 33.578125 -17.375 Z M 18.515625 -10.078125 C 18.515625 -9.003906 18.785156 -8.019531 19.328125 -7.125 C 19.867188 -6.226562 20.632812 -5.507812 21.625 -4.96875 C 22.613281 -4.4375 23.722656 -4.171875 24.953125 -4.171875 C 26.273438 -4.171875 27.679688 -4.5 29.171875 -5.15625 L 29.171875 -14.953125 C 27.679688 -15.628906 26.273438 -15.96875 24.953125 -15.96875 C 23.722656 -15.96875 22.613281 -15.703125 21.625 -15.171875 C 20.632812 -14.640625 19.867188 -13.921875 19.328125 -13.015625 C 18.785156 -12.117188 18.515625 -11.140625 18.515625 -10.078125 Z M 21.59375 -23.625 C 20.914062 -23.625 20.347656 -23.859375 19.890625 -24.328125 C 19.429688 -24.796875 19.203125 -25.378906 19.203125 -26.078125 C 19.203125 -26.785156 19.429688 -27.375 19.890625 -27.84375 C 20.347656 -28.3125 20.914062 -28.546875 21.59375 -28.546875 C 22.269531 -28.546875 22.832031 -28.316406 23.28125 -27.859375 C 23.738281 -27.398438 23.96875 -26.804688 23.96875 -26.078125 C 23.96875 -25.378906 23.738281 -24.796875 23.28125 -24.328125 C 22.832031 -23.859375 22.269531 -23.625 21.59375 -23.625 Z M 27.765625 -23.625 C 27.085938 -23.625 26.519531 -23.859375 26.0625 -24.328125 C 25.601562 -24.796875 25.375 -25.378906 25.375 -26.078125 C 25.375 -26.785156 25.601562 -27.375 26.0625 -27.84375 C 26.519531 -28.3125 27.085938 -28.546875 27.765625 -28.546875 C 28.441406 -28.546875 29.003906 -28.316406 29.453125 -27.859375 C 29.910156 -27.398438 30.140625 -26.804688 30.140625 -26.078125 C 30.140625 -25.378906 29.910156 -24.796875 29.453125 -24.328125 C 29.003906 -23.859375 28.441406 -23.625 27.765625 -23.625 Z M 27.765625 -23.625 "/></g></g></g><g fill="#3a3d41" fill-opacity="1"><g transform="translate(188.940518, 445.065241)"><g><path d="M 12.65625 -4.171875 C 13.175781 -4.171875 13.4375 -3.484375 13.4375 -2.109375 C 13.4375 -0.703125 13.175781 0 12.65625 0 L 3.515625 0 L 3.515625 -28.9375 L 8 -28.9375 L 8 -4.171875 Z M 12.65625 -4.171875 "/></g></g></g><g fill="#3a3d41" fill-opacity="1"><g transform="translate(201.59171, 445.065241)"><g><path d="M 38.765625 -4.171875 C 39.285156 -4.171875 39.546875 -3.484375 39.546875 -2.109375 C 39.546875 -0.703125 39.285156 0 38.765625 0 L 0 0 C -0.519531 0 -0.78125 -0.703125 -0.78125 -2.109375 C -0.78125 -3.484375 -0.519531 -4.171875 0 -4.171875 L 4.484375 -4.171875 L 4.484375 -28.9375 L 8.984375 -28.9375 L 8.984375 -11.328125 C 10.078125 -13.878906 11.617188 -15.925781 13.609375 -17.46875 C 15.597656 -19.019531 18.128906 -19.796875 21.203125 -19.796875 C 23.773438 -19.796875 25.945312 -19.234375 27.71875 -18.109375 C 29.488281 -16.992188 30.800781 -15.472656 31.65625 -13.546875 C 32.519531 -11.617188 32.953125 -9.472656 32.953125 -7.109375 L 32.953125 -4.171875 Z M 28.46875 -4.171875 L 28.46875 -7.109375 C 28.46875 -9.835938 27.828125 -11.9375 26.546875 -13.40625 C 25.273438 -14.882812 23.53125 -15.625 21.3125 -15.625 C 19.445312 -15.625 17.679688 -15.113281 16.015625 -14.09375 C 14.347656 -13.082031 12.925781 -11.695312 11.75 -9.9375 C 10.582031 -8.175781 9.773438 -6.253906 9.328125 -4.171875 Z M 28.46875 -4.171875 "/></g></g></g><g fill="#3a3d41" fill-opacity="1"><g transform="translate(240.365264, 445.065241)"><g><path d="M 15.265625 -4.171875 C 15.785156 -4.171875 16.046875 -3.484375 16.046875 -2.109375 C 16.046875 -0.703125 15.785156 0 15.265625 0 L 13.125 0 C 10.90625 0 9.082031 -0.554688 7.65625 -1.671875 C 6.425781 -0.554688 4.535156 0 1.984375 0 L 0 0 C -0.519531 0 -0.78125 -0.703125 -0.78125 -2.109375 C -0.78125 -3.484375 -0.519531 -4.171875 0 -4.171875 L 1.640625 -4.171875 C 3.046875 -4.171875 4.007812 -4.453125 4.53125 -5.015625 C 5.050781 -5.578125 5.3125 -6.546875 5.3125 -7.921875 L 5.3125 -18.984375 L 9.796875 -18.984375 L 9.796875 -7.890625 C 9.796875 -6.710938 9.679688 -5.671875 9.453125 -4.765625 C 10.128906 -4.367188 10.945312 -4.171875 11.90625 -4.171875 Z M 7.171875 -21.859375 C 6.421875 -21.859375 5.796875 -22.117188 5.296875 -22.640625 C 4.804688 -23.160156 4.5625 -23.8125 4.5625 -24.59375 C 4.5625 -25.375 4.804688 -26.019531 5.296875 -26.53125 C 5.796875 -27.039062 6.421875 -27.296875 7.171875 -27.296875 C 7.929688 -27.296875 8.554688 -27.039062 9.046875 -26.53125 C 9.546875 -26.019531 9.796875 -25.375 9.796875 -24.59375 C 9.796875 -23.8125 9.546875 -23.160156 9.046875 -22.640625 C 8.554688 -22.117188 7.929688 -21.859375 7.171875 -21.859375 Z M 7.171875 -21.859375 "/></g></g></g><g fill="#3a3d41" fill-opacity="1"><g transform="translate(255.632597, 445.065241)"><g><path d="M 3 -28.9375 L 7.5 -28.9375 L 7.5 0 L 0 0 C -0.519531 0 -0.78125 -0.703125 -0.78125 -2.109375 C -0.78125 -3.484375 -0.519531 -4.171875 0 -4.171875 L 3 -4.171875 Z M 3 -28.9375 "/></g></g></g><g fill="#3a3d41" fill-opacity="1"><g transform="translate(266.253355, 445.065241)"><g><path d="M 8 0 L 3.515625 0 L 3.515625 -28.9375 L 8 -28.9375 Z M 8 0 "/></g></g></g><g fill="#3a3d41" fill-opacity="1"><g transform="translate(277.772187, 445.065241)"><g/></g></g><g fill="#3a3d41" fill-opacity="1"><g transform="translate(288.31485, 445.065241)"><g><path d="M 29.640625 -4.171875 C 30.160156 -4.171875 30.421875 -3.484375 30.421875 -2.109375 C 30.421875 -0.703125 30.160156 0 29.640625 0 L 22.796875 0 C 20.460938 0 18.253906 -0.335938 16.171875 -1.015625 C 15.128906 -0.671875 14.085938 -0.410156 13.046875 -0.234375 C 11.484375 0.078125 10.21875 0.394531 9.25 0.71875 C 8.289062 1.039062 7.515625 1.515625 6.921875 2.140625 C 6.335938 2.765625 6.046875 3.625 6.046875 4.71875 C 6.046875 6.332031 6.707031 7.632812 8.03125 8.625 C 9.363281 9.613281 11.097656 10.109375 13.234375 10.109375 C 14.328125 10.109375 15.476562 9.972656 16.6875 9.703125 C 17.90625 9.429688 18.925781 9.070312 19.75 8.625 L 21.9375 12.34375 C 20.875 12.914062 19.519531 13.382812 17.875 13.75 C 16.238281 14.113281 14.691406 14.296875 13.234375 14.296875 C 11.023438 14.296875 9.035156 13.882812 7.265625 13.0625 C 5.492188 12.238281 4.097656 11.097656 3.078125 9.640625 C 2.066406 8.179688 1.5625 6.539062 1.5625 4.71875 C 1.5625 2.144531 2.429688 0.195312 4.171875 -1.125 C 5.921875 -2.457031 8.082031 -3.421875 10.65625 -4.015625 C 7.894531 -6.253906 6.019531 -9.160156 5.03125 -12.734375 L 8.828125 -19.25 C 11.015625 -19.894531 13.289062 -20.21875 15.65625 -20.21875 C 19.144531 -20.21875 21.835938 -19.53125 23.734375 -18.15625 C 25.640625 -16.78125 26.59375 -14.828125 26.59375 -12.296875 C 26.59375 -10.785156 26.21875 -9.332031 25.46875 -7.9375 C 24.726562 -6.550781 23.671875 -5.296875 22.296875 -4.171875 Z M 9.21875 -14.796875 C 9.6875 -12.660156 10.523438 -10.796875 11.734375 -9.203125 C 12.941406 -7.617188 14.457031 -6.398438 16.28125 -5.546875 C 18.15625 -6.328125 19.59375 -7.300781 20.59375 -8.46875 C 21.59375 -9.644531 22.09375 -10.921875 22.09375 -12.296875 C 22.09375 -13.578125 21.597656 -14.519531 20.609375 -15.125 C 19.628906 -15.738281 17.976562 -16.046875 15.65625 -16.046875 C 14.4375 -16.046875 13.332031 -15.945312 12.34375 -15.75 C 11.351562 -15.5625 10.3125 -15.242188 9.21875 -14.796875 Z M 9.21875 -14.796875 "/></g></g></g><g fill="#3a3d41" fill-opacity="1"><g transform="translate(317.951431, 445.065241)"><g><path d="M 27.53125 -19.015625 L 32.015625 -19.015625 L 32.015625 -7.890625 C 32.015625 -5.234375 31.394531 -3.253906 30.15625 -1.953125 C 28.925781 -0.648438 27.007812 0 24.40625 0 C 22.03125 0 20.144531 -0.554688 18.75 -1.671875 C 17.519531 -0.554688 15.695312 0 13.28125 0 C 10.90625 0 9.015625 -0.554688 7.609375 -1.671875 C 6.335938 -0.554688 4.453125 0 1.953125 0 L 0 0 C -0.519531 0 -0.78125 -0.703125 -0.78125 -2.109375 C -0.78125 -3.484375 -0.519531 -4.171875 0 -4.171875 L 1.59375 -4.171875 C 3 -4.171875 3.960938 -4.453125 4.484375 -5.015625 C 5.003906 -5.578125 5.265625 -6.546875 5.265625 -7.921875 L 5.265625 -15.109375 L 9.765625 -15.109375 L 9.765625 -7.890625 C 9.765625 -6.742188 9.644531 -5.710938 9.40625 -4.796875 C 10.164062 -4.378906 11.207031 -4.171875 12.53125 -4.171875 C 14.039062 -4.171875 15.0625 -4.441406 15.59375 -4.984375 C 16.132812 -5.535156 16.40625 -6.515625 16.40625 -7.921875 L 16.40625 -17.0625 L 20.890625 -17.0625 L 20.890625 -7.890625 C 20.890625 -6.742188 20.769531 -5.710938 20.53125 -4.796875 C 21.289062 -4.378906 22.332031 -4.171875 23.65625 -4.171875 C 25.164062 -4.171875 26.1875 -4.441406 26.71875 -4.984375 C 27.257812 -5.535156 27.53125 -6.515625 27.53125 -7.921875 Z M 27.53125 -19.015625 "/></g></g></g><g fill="#3a3d41" fill-opacity="1"><g transform="translate(352.312693, 445.065241)"><g><path d="M 8 0 L 3.515625 0 L 3.515625 -28.9375 L 8 -28.9375 Z M 8 0 "/></g></g></g><g fill="#3a3d41" fill-opacity="1"><g transform="translate(363.831514, 445.065241)"><g><path d="M 12.34375 -20.109375 C 13.769531 -20.109375 15.285156 -19.910156 16.890625 -19.515625 C 18.492188 -19.128906 19.929688 -18.597656 21.203125 -17.921875 L 21.203125 0.078125 C 21.203125 2.859375 20.445312 5.015625 18.9375 6.546875 C 17.425781 8.085938 15.359375 8.859375 12.734375 8.859375 L 5.109375 8.859375 L 5.109375 4.6875 L 12.6875 4.6875 C 14.09375 4.6875 15.113281 4.320312 15.75 3.59375 C 16.394531 2.863281 16.71875 1.691406 16.71875 0.078125 L 16.71875 0 L 11.75 0 C 9.75 0 7.972656 -0.445312 6.421875 -1.34375 C 4.867188 -2.238281 3.671875 -3.441406 2.828125 -4.953125 C 1.984375 -6.460938 1.5625 -8.128906 1.5625 -9.953125 C 1.5625 -11.804688 2.003906 -13.503906 2.890625 -15.046875 C 3.773438 -16.597656 5.03125 -17.828125 6.65625 -18.734375 C 8.28125 -19.648438 10.175781 -20.109375 12.34375 -20.109375 Z M 16.71875 -4.171875 L 16.71875 -15.1875 C 15.226562 -15.6875 13.78125 -15.9375 12.375 -15.9375 C 10.425781 -15.9375 8.882812 -15.390625 7.75 -14.296875 C 6.613281 -13.203125 6.046875 -11.753906 6.046875 -9.953125 C 6.046875 -8.234375 6.570312 -6.835938 7.625 -5.765625 C 8.6875 -4.703125 10.0625 -4.171875 11.75 -4.171875 Z M 16.71875 -4.171875 "/></g></g></g><g fill="#3a3d41" fill-opacity="1"><g transform="translate(387.376771, 445.065241)"><g/></g></g><g fill="#3a3d41" fill-opacity="1"><g transform="translate(397.919434, 445.065241)"><g><path d="M 30.296875 -4.171875 C 30.816406 -4.171875 31.078125 -3.484375 31.078125 -2.109375 C 31.078125 -0.703125 30.816406 0 30.296875 0 L 30.1875 0 C 28.3125 0 26.695312 -0.414062 25.34375 -1.25 C 24.664062 1.53125 23.3125 3.773438 21.28125 5.484375 C 19.25 7.191406 16.722656 8.046875 13.703125 8.046875 C 11.203125 8.046875 9.035156 7.453125 7.203125 6.265625 C 5.367188 5.078125 3.96875 3.46875 3 1.4375 C 2.039062 -0.582031 1.5625 -2.816406 1.5625 -5.265625 C 1.5625 -6.753906 1.742188 -8.304688 2.109375 -9.921875 L 6.515625 -9.25 C 6.203125 -7.632812 6.046875 -6.269531 6.046875 -5.15625 C 6.046875 -3.382812 6.359375 -1.816406 6.984375 -0.453125 C 7.609375 0.910156 8.5 1.96875 9.65625 2.71875 C 10.820312 3.476562 12.171875 3.859375 13.703125 3.859375 C 15.242188 3.859375 16.59375 3.476562 17.75 2.71875 C 18.90625 1.96875 19.796875 0.910156 20.421875 -0.453125 C 21.046875 -1.816406 21.359375 -3.394531 21.359375 -5.1875 L 21.359375 -28.9375 L 25.84375 -28.9375 L 25.84375 -5.265625 C 26.625 -4.535156 27.664062 -4.171875 28.96875 -4.171875 Z M 30.296875 -4.171875 "/></g></g></g><g fill="#3a3d41" fill-opacity="1"><g transform="translate(428.219817, 445.065241)"><g><path d="M 26.359375 -4.171875 C 26.878906 -4.171875 27.140625 -3.484375 27.140625 -2.109375 C 27.140625 -0.703125 26.878906 0 26.359375 0 L 0 0 C -0.519531 0 -0.78125 -0.703125 -0.78125 -2.109375 C -0.78125 -3.484375 -0.519531 -4.171875 0 -4.171875 L 4.71875 -4.171875 C 3.550781 -5.835938 2.96875 -7.710938 2.96875 -9.796875 C 2.96875 -11.753906 3.445312 -13.519531 4.40625 -15.09375 C 5.375 -16.664062 6.691406 -17.898438 8.359375 -18.796875 C 10.023438 -19.691406 11.847656 -20.140625 13.828125 -20.140625 C 16.328125 -20.140625 19.003906 -19.425781 21.859375 -18 L 21.859375 -4.171875 Z M 7.453125 -9.84375 C 7.453125 -8.40625 7.863281 -7.1875 8.6875 -6.1875 C 9.507812 -5.1875 10.625 -4.515625 12.03125 -4.171875 L 17.375 -4.171875 L 17.375 -15.34375 C 16.050781 -15.757812 14.878906 -15.96875 13.859375 -15.96875 C 12.640625 -15.96875 11.539062 -15.703125 10.5625 -15.171875 C 9.582031 -14.640625 8.816406 -13.90625 8.265625 -12.96875 C 7.722656 -12.03125 7.453125 -10.988281 7.453125 -9.84375 Z M 10.59375 -23.625 C 9.914062 -23.625 9.347656 -23.859375 8.890625 -24.328125 C 8.429688 -24.796875 8.203125 -25.378906 8.203125 -26.078125 C 8.203125 -26.785156 8.429688 -27.375 8.890625 -27.84375 C 9.347656 -28.3125 9.914062 -28.546875 10.59375 -28.546875 C 11.269531 -28.546875 11.832031 -28.316406 12.28125 -27.859375 C 12.738281 -27.398438 12.96875 -26.804688 12.96875 -26.078125 C 12.96875 -25.378906 12.738281 -24.796875 12.28125 -24.328125 C 11.832031 -23.859375 11.269531 -23.625 10.59375 -23.625 Z M 16.765625 -23.625 C 16.085938 -23.625 15.519531 -23.859375 15.0625 -24.328125 C 14.601562 -24.796875 14.375 -25.378906 14.375 -26.078125 C 14.375 -26.785156 14.601562 -27.375 15.0625 -27.84375 C 15.519531 -28.3125 16.085938 -28.546875 16.765625 -28.546875 C 17.441406 -28.546875 18.003906 -28.316406 18.453125 -27.859375 C 18.910156 -27.398438 19.140625 -26.804688 19.140625 -26.078125 C 19.140625 -25.378906 18.910156 -24.796875 18.453125 -24.328125 C 18.003906 -23.859375 17.441406 -23.625 16.765625 -23.625 Z M 16.765625 -23.625 "/></g></g></g><g fill="#3a3d41" fill-opacity="1"><g transform="translate(454.576475, 445.065241)"><g><path d="M 4.140625 -18.984375 L 8.625 -18.984375 L 8.625 0 L 0 0 C -0.519531 0 -0.78125 -0.703125 -0.78125 -2.109375 C -0.78125 -3.484375 -0.519531 -4.171875 0 -4.171875 L 4.140625 -4.171875 Z M 6.171875 -21.859375 C 5.421875 -21.859375 4.796875 -22.117188 4.296875 -22.640625 C 3.804688 -23.160156 3.5625 -23.8125 3.5625 -24.59375 C 3.5625 -25.375 3.804688 -26.019531 4.296875 -26.53125 C 4.796875 -27.039062 5.421875 -27.296875 6.171875 -27.296875 C 6.929688 -27.296875 7.554688 -27.039062 8.046875 -26.53125 C 8.546875 -26.019531 8.796875 -25.375 8.796875 -24.59375 C 8.796875 -23.8125 8.546875 -23.160156 8.046875 -22.640625 C 7.554688 -22.117188 6.929688 -21.859375 6.171875 -21.859375 Z M 6.171875 -21.859375 "/></g></g></g><g fill="#3a3d41" fill-opacity="1"><g transform="translate(465.93913, 445.065241)"><g/></g></g><g fill="#3a3d41" fill-opacity="1"><g transform="translate(476.481794, 445.065241)"><g><path d="M 13.703125 8.046875 C 11.203125 8.046875 9.035156 7.453125 7.203125 6.265625 C 5.367188 5.078125 3.96875 3.46875 3 1.4375 C 2.039062 -0.582031 1.5625 -2.816406 1.5625 -5.265625 C 1.5625 -6.753906 1.742188 -8.304688 2.109375 -9.921875 L 6.515625 -9.25 C 6.203125 -7.632812 6.046875 -6.269531 6.046875 -5.15625 C 6.046875 -3.382812 6.359375 -1.816406 6.984375 -0.453125 C 7.609375 0.910156 8.5 1.96875 9.65625 2.71875 C 10.820312 3.476562 12.171875 3.859375 13.703125 3.859375 C 15.242188 3.859375 16.59375 3.476562 17.75 2.71875 C 18.90625 1.96875 19.796875 0.910156 20.421875 -0.453125 C 21.046875 -1.816406 21.359375 -3.394531 21.359375 -5.1875 L 21.359375 -28.9375 L 25.84375 -28.9375 L 25.84375 -5.34375 C 25.84375 -2.875 25.359375 -0.617188 24.390625 1.421875 C 23.429688 3.460938 22.035156 5.078125 20.203125 6.265625 C 18.367188 7.453125 16.203125 8.046875 13.703125 8.046875 Z M 13.703125 8.046875 "/></g></g></g><g fill="#3a3d41" fill-opacity="1"><g transform="translate(505.064098, 445.065241)"><g><path d="M 25.734375 -4.171875 C 26.253906 -4.171875 26.515625 -3.484375 26.515625 -2.109375 C 26.515625 -0.703125 26.253906 0 25.734375 0 L 21.203125 0 L 21.203125 0.078125 C 21.203125 2.859375 20.445312 5.015625 18.9375 6.546875 C 17.425781 8.085938 15.359375 8.859375 12.734375 8.859375 L 5.109375 8.859375 L 5.109375 4.6875 L 12.6875 4.6875 C 14.09375 4.6875 15.113281 4.320312 15.75 3.59375 C 16.394531 2.863281 16.71875 1.691406 16.71875 0.078125 L 16.71875 0 L 11.75 0 C 9.75 0 7.972656 -0.445312 6.421875 -1.34375 C 4.867188 -2.238281 3.671875 -3.441406 2.828125 -4.953125 C 1.984375 -6.460938 1.5625 -8.128906 1.5625 -9.953125 C 1.5625 -11.804688 2.003906 -13.503906 2.890625 -15.046875 C 3.773438 -16.597656 5.03125 -17.828125 6.65625 -18.734375 C 8.28125 -19.648438 10.175781 -20.109375 12.34375 -20.109375 C 13.769531 -20.109375 15.285156 -19.910156 16.890625 -19.515625 C 18.492188 -19.128906 19.929688 -18.597656 21.203125 -17.921875 L 21.203125 -4.171875 Z M 16.71875 -4.171875 L 16.71875 -15.1875 C 15.226562 -15.6875 13.78125 -15.9375 12.375 -15.9375 C 10.425781 -15.9375 8.882812 -15.390625 7.75 -14.296875 C 6.613281 -13.203125 6.046875 -11.753906 6.046875 -9.953125 C 6.046875 -8.234375 6.570312 -6.835938 7.625 -5.765625 C 8.6875 -4.703125 10.0625 -4.171875 11.75 -4.171875 Z M 16.71875 -4.171875 "/></g></g></g><g fill="#3a3d41" fill-opacity="1"><g transform="translate(530.796, 445.065241)"><g><path d="M 38.765625 -4.171875 C 39.285156 -4.171875 39.546875 -3.484375 39.546875 -2.109375 C 39.546875 -0.703125 39.285156 0 38.765625 0 L 0 0 C -0.519531 0 -0.78125 -0.703125 -0.78125 -2.109375 C -0.78125 -3.484375 -0.519531 -4.171875 0 -4.171875 L 4.484375 -4.171875 L 4.484375 -28.9375 L 8.984375 -28.9375 L 8.984375 -11.328125 C 10.078125 -13.878906 11.617188 -15.925781 13.609375 -17.46875 C 15.597656 -19.019531 18.128906 -19.796875 21.203125 -19.796875 C 23.773438 -19.796875 25.945312 -19.234375 27.71875 -18.109375 C 29.488281 -16.992188 30.800781 -15.472656 31.65625 -13.546875 C 32.519531 -11.617188 32.953125 -9.472656 32.953125 -7.109375 L 32.953125 -4.171875 Z M 28.46875 -4.171875 L 28.46875 -7.109375 C 28.46875 -9.835938 27.828125 -11.9375 26.546875 -13.40625 C 25.273438 -14.882812 23.53125 -15.625 21.3125 -15.625 C 19.445312 -15.625 17.679688 -15.113281 16.015625 -14.09375 C 14.347656 -13.082031 12.925781 -11.695312 11.75 -9.9375 C 10.582031 -8.175781 9.773438 -6.253906 9.328125 -4.171875 Z M 28.46875 -4.171875 "/></g></g></g><g fill="#3a3d41" fill-opacity="1"><g transform="translate(569.569543, 445.065241)"><g><path d="M 27.53125 -19.015625 L 32.015625 -19.015625 L 32.015625 -7.890625 C 32.015625 -5.234375 31.394531 -3.253906 30.15625 -1.953125 C 28.925781 -0.648438 27.007812 0 24.40625 0 C 22.03125 0 20.144531 -0.554688 18.75 -1.671875 C 17.519531 -0.554688 15.695312 0 13.28125 0 C 10.90625 0 9.015625 -0.554688 7.609375 -1.671875 C 6.335938 -0.554688 4.453125 0 1.953125 0 L 0 0 C -0.519531 0 -0.78125 -0.703125 -0.78125 -2.109375 C -0.78125 -3.484375 -0.519531 -4.171875 0 -4.171875 L 1.59375 -4.171875 C 3 -4.171875 3.960938 -4.453125 4.484375 -5.015625 C 5.003906 -5.578125 5.265625 -6.546875 5.265625 -7.921875 L 5.265625 -15.109375 L 9.765625 -15.109375 L 9.765625 -7.890625 C 9.765625 -6.742188 9.644531 -5.710938 9.40625 -4.796875 C 10.164062 -4.378906 11.207031 -4.171875 12.53125 -4.171875 C 14.039062 -4.171875 15.0625 -4.441406 15.59375 -4.984375 C 16.132812 -5.535156 16.40625 -6.515625 16.40625 -7.921875 L 16.40625 -17.0625 L 20.890625 -17.0625 L 20.890625 -7.890625 C 20.890625 -6.742188 20.769531 -5.710938 20.53125 -4.796875 C 21.289062 -4.378906 22.332031 -4.171875 23.65625 -4.171875 C 25.164062 -4.171875 26.1875 -4.441406 26.71875 -4.984375 C 27.257812 -5.535156 27.53125 -6.515625 27.53125 -7.921875 Z M 27.53125 -19.015625 "/></g></g></g><g fill="#3a3d41" fill-opacity="1"><g transform="translate(603.930793, 445.065241)"><g><path d="M 8 0 L 3.515625 0 L 3.515625 -28.9375 L 8 -28.9375 Z M 8 0 "/></g></g></g></svg>