<svg xmlns="http://www.w3.org/2000/svg" xmlns:xlink="http://www.w3.org/1999/xlink" width="500" zoomAndPan="magnify" viewBox="0 0 375 374.999991" height="500" preserveAspectRatio="xMidYMid meet" version="1.0"><defs><clipPath id="id1"><path d="M 94 108.101562 L 281.789062 108.101562 L 281.789062 267.101562 L 94 267.101562 Z M 94 108.101562 " clip-rule="nonzero"/></clipPath></defs><path fill="#ffffff" d="M 351.675781 58.050781 L 351.675781 316.949219 C 351.675781 336.148438 336.148438 351.675781 316.949219 351.675781 L 58.050781 351.675781 C 38.851562 351.675781 23.324219 336.148438 23.324219 316.949219 L 23.324219 58.050781 C 23.324219 38.851562 38.851562 23.324219 58.050781 23.324219 L 316.949219 23.324219 C 336.148438 23.324219 351.675781 38.851562 351.675781 58.050781 " fill-opacity="1" fill-rule="nonzero"/><path fill="#3a3d41" d="M 53.476562 312.523438 C 48.503906 312.523438 44.476562 316.554688 44.476562 321.523438 C 44.476562 326.496094 48.503906 330.523438 53.476562 330.523438 C 58.445312 330.523438 62.476562 326.496094 62.476562 321.523438 C 62.476562 316.554688 58.445312 312.523438 53.476562 312.523438 M 53.476562 44.476562 C 48.503906 44.476562 44.476562 48.503906 44.476562 53.476562 C 44.476562 58.445312 48.503906 62.476562 53.476562 62.476562 C 58.445312 62.476562 62.476562 58.445312 62.476562 53.476562 C 62.476562 48.503906 58.445312 44.476562 53.476562 44.476562 M 321.523438 44.476562 C 316.554688 44.476562 312.523438 48.503906 312.523438 53.476562 C 312.523438 58.445312 316.554688 62.476562 321.523438 62.476562 C 326.496094 62.476562 330.523438 58.445312 330.523438 53.476562 C 330.523438 48.503906 326.496094 44.476562 321.523438 44.476562 M 321.523438 312.523438 C 316.554688 312.523438 312.523438 316.554688 312.523438 321.523438 C 312.523438 326.496094 316.554688 330.523438 321.523438 330.523438 C 326.496094 330.523438 330.523438 326.496094 330.523438 321.523438 C 330.523438 316.554688 326.496094 312.523438 321.523438 312.523438 " fill-opacity="1" fill-rule="nonzero"/><path fill="#d3c2bb" d="M 375 62.476562 L 375 33.375 C 368.101562 30.75 361.125 26.25 354.898438 20.101562 C 348.75 13.875 344.25 6.898438 341.625 0 L 33.375 0 C 30.75 6.898438 26.25 13.875 20.101562 20.101562 C 13.875 26.25 6.898438 30.75 0 33.375 L 0 341.625 C 1.726562 342.300781 3.449219 343.050781 5.175781 343.949219 C 5.625 344.175781 6 344.398438 6.449219 344.625 C 6.75 344.773438 7.050781 344.925781 7.351562 345.148438 C 7.425781 345.148438 7.5 345.226562 7.574219 345.300781 C 7.800781 345.375 7.949219 345.523438 8.175781 345.675781 C 10.351562 347.023438 12.523438 348.523438 14.699219 350.175781 C 15.074219 350.476562 15.449219 350.773438 15.824219 351.148438 C 16.125 351.375 16.351562 351.601562 16.574219 351.824219 C 17.324219 352.5 18.074219 353.175781 18.824219 353.925781 C 19.199219 354.300781 19.574219 354.675781 20.023438 355.050781 C 20.398438 355.425781 20.773438 355.800781 21.148438 356.25 C 21.824219 357 22.574219 357.75 23.25 358.5 C 23.476562 358.800781 23.699219 359.023438 23.925781 359.324219 L 24.824219 360.449219 C 25.050781 360.675781 25.199219 360.976562 25.425781 361.199219 C 25.800781 361.648438 26.175781 362.175781 26.550781 362.625 C 27 363.226562 27.375 363.824219 27.75 364.351562 C 28.875 366.074219 29.925781 367.800781 30.898438 369.601562 C 31.050781 369.898438 31.199219 370.125 31.273438 370.425781 L 31.5 370.875 C 31.648438 371.175781 31.800781 371.476562 31.875 371.699219 C 32.398438 372.824219 32.925781 373.949219 33.300781 375.148438 L 341.550781 375.148438 C 344.175781 368.25 348.675781 361.273438 354.824219 355.050781 C 357.148438 352.726562 359.550781 350.625 362.101562 348.824219 C 363.375 347.925781 364.648438 347.023438 365.925781 346.273438 C 366.75 345.75 367.648438 345.226562 368.476562 344.773438 C 369.300781 344.324219 370.199219 343.875 371.023438 343.425781 C 372.300781 342.824219 373.648438 342.226562 374.925781 341.773438 L 375 62.476562 M 351.675781 316.949219 C 351.675781 336.148438 336.148438 351.675781 316.949219 351.675781 L 58.050781 351.675781 C 38.851562 351.675781 23.324219 336.148438 23.324219 316.949219 L 23.324219 58.050781 C 23.324219 38.851562 38.851562 23.324219 58.050781 23.324219 L 316.949219 23.324219 C 336.148438 23.324219 351.675781 38.851562 351.675781 58.050781 L 351.675781 316.949219 " fill-opacity="1" fill-rule="nonzero"/><g clip-path="url(#id1)"><path fill="#1d918a" d="M 278.402344 174.839844 C 279.878906 174.839844 281.085938 173.632812 281.085938 172.148438 L 281.085938 141.425781 C 281.085938 139.949219 279.878906 138.742188 278.402344 138.742188 L 250.847656 138.742188 L 250.847656 110.707031 C 250.847656 109.21875 249.65625 108.015625 248.164062 108.015625 L 127.195312 108.015625 C 125.707031 108.015625 124.511719 109.21875 124.511719 110.707031 L 124.511719 138.742188 L 96.957031 138.742188 C 95.484375 138.742188 94.273438 139.949219 94.273438 141.425781 L 94.273438 172.148438 C 94.273438 173.632812 95.484375 174.839844 96.957031 174.839844 L 124.511719 174.839844 L 124.511719 200.183594 L 96.957031 200.183594 C 95.484375 200.183594 94.273438 201.382812 94.273438 202.875 L 94.273438 233.589844 C 94.273438 235.082031 95.484375 236.28125 96.957031 236.28125 L 124.511719 236.28125 L 124.511719 264.316406 C 124.511719 265.804688 125.707031 267.007812 127.195312 267.007812 L 248.164062 267.007812 C 249.65625 267.007812 250.847656 265.804688 250.847656 264.316406 L 250.847656 236.28125 L 278.402344 236.28125 C 279.878906 236.28125 281.085938 235.082031 281.085938 233.589844 L 281.085938 202.875 C 281.085938 201.382812 279.878906 200.183594 278.402344 200.183594 L 250.847656 200.183594 L 250.847656 174.839844 Z M 275.703125 169.457031 L 220.605469 169.457031 L 220.605469 144.121094 L 275.703125 144.121094 Z M 160.140625 144.121094 L 215.21875 144.121094 L 215.21875 169.457031 L 160.140625 169.457031 Z M 215.21875 230.90625 L 160.140625 230.90625 L 160.140625 205.558594 L 215.21875 205.558594 Z M 190.367188 113.390625 L 245.480469 113.390625 L 245.480469 138.742188 L 190.367188 138.742188 Z M 129.882812 113.390625 L 184.996094 113.390625 L 184.996094 138.742188 L 129.882812 138.742188 Z M 99.65625 144.121094 L 154.757812 144.121094 L 154.757812 169.457031 L 99.65625 169.457031 Z M 129.882812 174.839844 L 184.996094 174.839844 L 184.996094 200.183594 L 129.882812 200.183594 Z M 99.65625 205.558594 L 154.757812 205.558594 L 154.757812 230.90625 L 99.65625 230.90625 Z M 184.996094 261.632812 L 129.882812 261.632812 L 129.882812 236.28125 L 184.996094 236.28125 Z M 245.480469 261.632812 L 190.367188 261.632812 L 190.367188 236.28125 L 245.480469 236.28125 Z M 275.703125 230.90625 L 220.605469 230.90625 L 220.605469 205.558594 L 275.703125 205.558594 Z M 245.480469 200.183594 L 190.367188 200.183594 L 190.367188 174.839844 L 245.480469 174.839844 Z M 245.480469 200.183594 " fill-opacity="1" fill-rule="nonzero"/></g></svg>