<svg xmlns="http://www.w3.org/2000/svg" xmlns:xlink="http://www.w3.org/1999/xlink" width="1024" zoomAndPan="magnify" viewBox="0 0 768 576" height="768" preserveAspectRatio="xMidYMid meet" version="1.0"><defs><g/><clipPath id="id1"><path d="M 269 165 L 499.195312 165 L 499.195312 287.851562 L 269 287.851562 Z M 269 165 " clip-rule="nonzero"/></clipPath><clipPath id="id2"><path d="M 353 57.601562 L 415 57.601562 L 415 116 L 353 116 Z M 353 57.601562 " clip-rule="nonzero"/></clipPath><clipPath id="id3"><path d="M 437 57.601562 L 499.195312 57.601562 L 499.195312 116 L 437 116 Z M 437 57.601562 " clip-rule="nonzero"/></clipPath><clipPath id="id4"><path d="M 269 57.601562 L 331 57.601562 L 331 116 L 269 116 Z M 269 57.601562 " clip-rule="nonzero"/></clipPath></defs><g clip-path="url(#id1)"><path fill="#1d918a" d="M 491.382812 261.054688 C 491.382812 263.164062 489.664062 264.882812 487.550781 264.882812 L 479.5 264.882812 C 477.71875 256.15625 469.976562 249.570312 460.722656 249.570312 C 451.46875 249.570312 443.722656 256.15625 441.945312 264.882812 L 353.40625 264.882812 L 353.40625 176.839844 C 353.40625 174.730469 355.128906 173.011719 357.242188 173.011719 L 380.238281 173.011719 L 380.238281 215.121094 L 414.730469 215.121094 L 414.730469 173.011719 L 487.550781 173.011719 C 489.664062 173.011719 491.382812 174.730469 491.382812 176.839844 Z M 460.722656 280.195312 C 454.382812 280.195312 449.222656 275.042969 449.222656 268.710938 C 449.222656 262.378906 454.382812 257.226562 460.722656 257.226562 C 467.0625 257.226562 472.21875 262.378906 472.21875 268.710938 C 472.21875 275.042969 467.0625 280.195312 460.722656 280.195312 Z M 387.902344 173.011719 L 407.066406 173.011719 L 407.066406 207.464844 L 387.902344 207.464844 Z M 330.414062 218.949219 L 282.175781 218.949219 L 311.714844 189.445312 C 312.4375 188.722656 313.402344 188.324219 314.425781 188.324219 L 330.414062 188.324219 Z M 330.414062 264.882812 L 322.363281 264.882812 C 320.582031 256.15625 312.839844 249.570312 303.585938 249.570312 C 294.332031 249.570312 286.589844 256.15625 284.808594 264.882812 L 280.589844 264.882812 C 278.476562 264.882812 276.757812 263.164062 276.757812 261.054688 L 276.757812 226.601562 L 330.414062 226.601562 Z M 303.585938 280.195312 C 297.242188 280.195312 292.085938 275.042969 292.085938 268.710938 C 292.085938 262.378906 297.242188 257.226562 303.585938 257.226562 C 309.925781 257.226562 315.082031 262.378906 315.082031 268.710938 C 315.082031 275.042969 309.925781 280.195312 303.585938 280.195312 Z M 487.550781 165.355469 L 357.242188 165.355469 C 350.902344 165.355469 345.742188 170.507812 345.742188 176.839844 L 345.742188 264.882812 L 338.078125 264.882812 L 338.078125 165.355469 L 330.414062 165.355469 L 330.414062 180.667969 L 314.425781 180.667969 C 311.355469 180.667969 308.464844 181.863281 306.292969 184.03125 L 272.460938 217.824219 C 270.285156 219.996094 269.089844 222.878906 269.089844 225.945312 L 269.089844 261.054688 C 269.089844 267.386719 274.25 272.539062 280.589844 272.539062 L 284.808594 272.539062 C 286.589844 281.261719 294.332031 287.851562 303.585938 287.851562 C 312.839844 287.851562 320.582031 281.261719 322.363281 272.539062 L 441.945312 272.539062 C 443.722656 281.261719 451.46875 287.851562 460.722656 287.851562 C 469.976562 287.851562 477.71875 281.261719 479.5 272.539062 L 487.550781 272.539062 C 493.890625 272.539062 499.046875 267.386719 499.046875 261.054688 L 499.046875 176.839844 C 499.046875 170.507812 493.890625 165.355469 487.550781 165.355469 " fill-opacity="1" fill-rule="nonzero"/></g><path fill="#1d918a" d="M 299.75 272.539062 L 307.417969 272.539062 L 307.417969 264.882812 L 299.75 264.882812 L 299.75 272.539062 " fill-opacity="1" fill-rule="nonzero"/><path fill="#1d918a" d="M 456.886719 272.539062 L 464.554688 272.539062 L 464.554688 264.882812 L 456.886719 264.882812 L 456.886719 272.539062 " fill-opacity="1" fill-rule="nonzero"/><path fill="#1d918a" d="M 322.746094 234.257812 L 311.25 234.257812 L 311.25 241.914062 L 322.746094 241.914062 L 322.746094 234.257812 " fill-opacity="1" fill-rule="nonzero"/><path fill="#1d918a" d="M 387.902344 157.699219 L 387.902344 96.453125 L 380.238281 96.453125 L 380.238281 157.699219 L 387.902344 157.699219 " fill-opacity="1" fill-rule="nonzero"/><path fill="#1d918a" d="M 410.898438 123.25 C 404.558594 123.25 399.398438 128.398438 399.398438 134.734375 L 399.398438 157.699219 L 407.066406 157.699219 L 407.066406 134.734375 C 407.066406 132.621094 408.785156 130.90625 410.898438 130.90625 L 460.722656 130.90625 C 467.0625 130.90625 472.21875 125.753906 472.21875 119.421875 L 472.21875 96.453125 L 464.554688 96.453125 L 464.554688 119.421875 C 464.554688 121.53125 462.832031 123.25 460.722656 123.25 L 410.898438 123.25 " fill-opacity="1" fill-rule="nonzero"/><g clip-path="url(#id2)"><path fill="#1d918a" d="M 372.570312 107.9375 L 361.074219 107.9375 L 361.074219 79.535156 L 384.070312 66.410156 L 407.066406 79.535156 L 407.066406 107.9375 L 395.566406 107.9375 L 395.566406 115.59375 L 414.730469 115.59375 L 414.730469 75.089844 L 384.070312 57.59375 L 353.40625 75.089844 L 353.40625 115.59375 L 372.570312 115.59375 L 372.570312 107.9375 " fill-opacity="1" fill-rule="nonzero"/></g><path fill="#1d918a" d="M 391.734375 77.3125 L 376.402344 77.3125 L 376.402344 84.96875 L 391.734375 84.96875 L 391.734375 77.3125 " fill-opacity="1" fill-rule="nonzero"/><path fill="#1d918a" d="M 476.050781 77.3125 L 460.722656 77.3125 L 460.722656 84.96875 L 476.050781 84.96875 L 476.050781 77.3125 " fill-opacity="1" fill-rule="nonzero"/><g clip-path="url(#id3)"><path fill="#1d918a" d="M 468.386719 57.59375 L 437.726562 75.089844 L 437.726562 115.59375 L 456.886719 115.59375 L 456.886719 107.9375 L 445.390625 107.9375 L 445.390625 79.535156 L 468.386719 66.410156 L 491.382812 79.535156 L 491.382812 107.9375 L 479.882812 107.9375 L 479.882812 115.59375 L 499.046875 115.59375 L 499.046875 75.089844 L 468.386719 57.59375 " fill-opacity="1" fill-rule="nonzero"/></g><path fill="#1d918a" d="M 368.738281 157.699219 L 368.738281 134.734375 C 368.738281 128.398438 363.582031 123.25 357.242188 123.25 L 307.417969 123.25 C 305.304688 123.25 303.585938 121.53125 303.585938 119.421875 L 303.585938 96.453125 L 295.917969 96.453125 L 295.917969 119.421875 C 295.917969 125.753906 301.078125 130.90625 307.417969 130.90625 L 357.242188 130.90625 C 359.351562 130.90625 361.074219 132.621094 361.074219 134.734375 L 361.074219 157.699219 L 368.738281 157.699219 " fill-opacity="1" fill-rule="nonzero"/><path fill="#1d918a" d="M 307.417969 77.3125 L 292.085938 77.3125 L 292.085938 84.96875 L 307.417969 84.96875 L 307.417969 77.3125 " fill-opacity="1" fill-rule="nonzero"/><g clip-path="url(#id4)"><path fill="#1d918a" d="M 288.253906 107.9375 L 276.757812 107.9375 L 276.757812 79.535156 L 299.75 66.410156 L 322.746094 79.535156 L 322.746094 107.9375 L 311.25 107.9375 L 311.25 115.59375 L 330.414062 115.59375 L 330.414062 75.089844 L 299.75 57.59375 L 269.089844 75.089844 L 269.089844 115.59375 L 288.253906 115.59375 L 288.253906 107.9375 " fill-opacity="1" fill-rule="nonzero"/></g><g fill="#3a3d41" fill-opacity="1"><g transform="translate(96.140621, 376.944849)"><g/></g></g><g fill="#3a3d41" fill-opacity="1"><g transform="translate(96.140621, 376.944849)"><g><path d="M 18.265625 -10.34375 L 6.359375 -10.34375 L 2.265625 0 L 0 0 L 11.78125 -29.421875 L 13.09375 -29.421875 L 24.625 0 L 22.328125 0 Z M 7.09375 -12.1875 L 17.578125 -12.1875 L 13.59375 -22.75 C 13.257812 -23.570312 12.859375 -24.722656 12.390625 -26.203125 C 12.023438 -24.910156 11.628906 -23.742188 11.203125 -22.703125 Z M 7.09375 -12.1875 "/></g></g></g><g fill="#3a3d41" fill-opacity="1"><g transform="translate(120.768065, 376.944849)"><g><path d="M 5.375 -21.78125 L 5.375 -7.671875 C 5.375 -5.484375 5.832031 -3.890625 6.75 -2.890625 C 7.675781 -1.898438 9.109375 -1.40625 11.046875 -1.40625 C 13.640625 -1.40625 15.546875 -2.054688 16.765625 -3.359375 C 17.984375 -4.671875 18.59375 -6.804688 18.59375 -9.765625 L 18.59375 -21.78125 L 20.5625 -21.78125 L 20.5625 0 L 18.875 0 L 18.515625 -3 L 18.40625 -3 C 16.988281 -0.726562 14.46875 0.40625 10.84375 0.40625 C 5.882812 0.40625 3.40625 -2.25 3.40625 -7.5625 L 3.40625 -21.78125 Z M 5.375 -21.78125 "/></g></g></g><g fill="#3a3d41" fill-opacity="1"><g transform="translate(144.974699, 376.944849)"><g><path d="M 9.40625 -1.359375 C 10.65625 -1.359375 11.75 -1.46875 12.6875 -1.6875 L 12.6875 -0.078125 C 11.726562 0.242188 10.617188 0.40625 9.359375 0.40625 C 7.429688 0.40625 6.007812 -0.109375 5.09375 -1.140625 C 4.1875 -2.171875 3.734375 -3.789062 3.734375 -6 L 3.734375 -20.0625 L 0.5 -20.0625 L 0.5 -21.21875 L 3.734375 -22.125 L 4.734375 -27.0625 L 5.75 -27.0625 L 5.75 -21.78125 L 12.140625 -21.78125 L 12.140625 -20.0625 L 5.75 -20.0625 L 5.75 -6.265625 C 5.75 -4.597656 6.039062 -3.363281 6.625 -2.5625 C 7.21875 -1.757812 8.144531 -1.359375 9.40625 -1.359375 Z M 9.40625 -1.359375 "/></g></g></g><g fill="#3a3d41" fill-opacity="1"><g transform="translate(158.721181, 376.944849)"><g><path d="M 21.671875 -10.921875 C 21.671875 -7.367188 20.804688 -4.59375 19.078125 -2.59375 C 17.359375 -0.59375 14.976562 0.40625 11.9375 0.40625 C 10.03125 0.40625 8.347656 -0.0507812 6.890625 -0.96875 C 5.429688 -1.894531 4.316406 -3.21875 3.546875 -4.9375 C 2.773438 -6.664062 2.390625 -8.660156 2.390625 -10.921875 C 2.390625 -14.472656 3.25 -17.238281 4.96875 -19.21875 C 6.695312 -21.207031 9.0625 -22.203125 12.0625 -22.203125 C 15.0625 -22.203125 17.410156 -21.195312 19.109375 -19.1875 C 20.816406 -17.175781 21.671875 -14.421875 21.671875 -10.921875 Z M 4.46875 -10.921875 C 4.46875 -7.929688 5.125 -5.597656 6.4375 -3.921875 C 7.757812 -2.242188 9.625 -1.40625 12.03125 -1.40625 C 14.4375 -1.40625 16.296875 -2.242188 17.609375 -3.921875 C 18.921875 -5.597656 19.578125 -7.929688 19.578125 -10.921875 C 19.578125 -13.929688 18.910156 -16.265625 17.578125 -17.921875 C 16.253906 -19.578125 14.390625 -20.40625 11.984375 -20.40625 C 9.578125 -20.40625 7.722656 -19.578125 6.421875 -17.921875 C 5.117188 -16.273438 4.46875 -13.941406 4.46875 -10.921875 Z M 4.46875 -10.921875 "/></g></g></g><g fill="#3a3d41" fill-opacity="1"><g transform="translate(182.767506, 376.944849)"><g><path d="M 30.859375 0 L 30.859375 -14.296875 C 30.859375 -16.421875 30.441406 -17.96875 29.609375 -18.9375 C 28.785156 -19.914062 27.519531 -20.40625 25.8125 -20.40625 C 23.582031 -20.40625 21.929688 -19.789062 20.859375 -18.5625 C 19.796875 -17.332031 19.265625 -15.398438 19.265625 -12.765625 L 19.265625 0 L 17.234375 0 L 17.234375 -14.890625 C 17.234375 -18.566406 15.550781 -20.40625 12.1875 -20.40625 C 9.90625 -20.40625 8.238281 -19.738281 7.1875 -18.40625 C 6.144531 -17.082031 5.625 -14.957031 5.625 -12.03125 L 5.625 0 L 3.640625 0 L 3.640625 -21.78125 L 5.296875 -21.78125 L 5.71875 -18.796875 L 5.828125 -18.796875 C 6.429688 -19.878906 7.285156 -20.71875 8.390625 -21.3125 C 9.503906 -21.90625 10.726562 -22.203125 12.0625 -22.203125 C 15.5 -22.203125 17.703125 -20.914062 18.671875 -18.34375 L 18.765625 -18.34375 C 19.472656 -19.582031 20.421875 -20.535156 21.609375 -21.203125 C 22.804688 -21.867188 24.164062 -22.203125 25.6875 -22.203125 C 28.070312 -22.203125 29.859375 -21.566406 31.046875 -20.296875 C 32.234375 -19.035156 32.828125 -17.019531 32.828125 -14.25 L 32.828125 0 Z M 30.859375 0 "/></g></g></g><g fill="#3a3d41" fill-opacity="1"><g transform="translate(218.997302, 376.944849)"><g><path d="M 16.875 0 L 16.375 -3.453125 L 16.21875 -3.453125 C 15.125 -2.046875 14 -1.050781 12.84375 -0.46875 C 11.6875 0.113281 10.316406 0.40625 8.734375 0.40625 C 6.597656 0.40625 4.9375 -0.140625 3.75 -1.234375 C 2.5625 -2.335938 1.96875 -3.859375 1.96875 -5.796875 C 1.96875 -7.921875 2.851562 -9.566406 4.625 -10.734375 C 6.394531 -11.910156 8.957031 -12.535156 12.3125 -12.609375 L 16.453125 -12.734375 L 16.453125 -14.171875 C 16.453125 -16.242188 16.03125 -17.804688 15.1875 -18.859375 C 14.34375 -19.910156 12.988281 -20.4375 11.125 -20.4375 C 9.101562 -20.4375 7.007812 -19.878906 4.84375 -18.765625 L 4.109375 -20.484375 C 6.503906 -21.609375 8.867188 -22.171875 11.203125 -22.171875 C 13.597656 -22.171875 15.382812 -21.546875 16.5625 -20.296875 C 17.75 -19.054688 18.34375 -17.117188 18.34375 -14.484375 L 18.34375 0 Z M 8.859375 -1.40625 C 11.179688 -1.40625 13.015625 -2.066406 14.359375 -3.390625 C 15.703125 -4.722656 16.375 -6.570312 16.375 -8.9375 L 16.375 -11.078125 L 12.5625 -10.921875 C 9.507812 -10.773438 7.328125 -10.296875 6.015625 -9.484375 C 4.710938 -8.679688 4.0625 -7.425781 4.0625 -5.71875 C 4.0625 -4.351562 4.476562 -3.289062 5.3125 -2.53125 C 6.15625 -1.78125 7.335938 -1.40625 8.859375 -1.40625 Z M 8.859375 -1.40625 "/></g></g></g><g fill="#3a3d41" fill-opacity="1"><g transform="translate(240.739188, 376.944849)"><g><path d="M 9.40625 -1.359375 C 10.65625 -1.359375 11.75 -1.46875 12.6875 -1.6875 L 12.6875 -0.078125 C 11.726562 0.242188 10.617188 0.40625 9.359375 0.40625 C 7.429688 0.40625 6.007812 -0.109375 5.09375 -1.140625 C 4.1875 -2.171875 3.734375 -3.789062 3.734375 -6 L 3.734375 -20.0625 L 0.5 -20.0625 L 0.5 -21.21875 L 3.734375 -22.125 L 4.734375 -27.0625 L 5.75 -27.0625 L 5.75 -21.78125 L 12.140625 -21.78125 L 12.140625 -20.0625 L 5.75 -20.0625 L 5.75 -6.265625 C 5.75 -4.597656 6.039062 -3.363281 6.625 -2.5625 C 7.21875 -1.757812 8.144531 -1.359375 9.40625 -1.359375 Z M 9.40625 -1.359375 "/></g></g></g><g fill="#3a3d41" fill-opacity="1"><g transform="translate(254.48567, 376.944849)"><g><path d="M 12.453125 0.40625 C 9.285156 0.40625 6.816406 -0.566406 5.046875 -2.515625 C 3.273438 -4.472656 2.390625 -7.207031 2.390625 -10.71875 C 2.390625 -14.195312 3.242188 -16.976562 4.953125 -19.0625 C 6.660156 -21.15625 8.960938 -22.203125 11.859375 -22.203125 C 14.429688 -22.203125 16.457031 -21.304688 17.9375 -19.515625 C 19.414062 -17.722656 20.15625 -15.289062 20.15625 -12.21875 L 20.15625 -10.625 L 4.46875 -10.625 C 4.5 -7.632812 5.195312 -5.347656 6.5625 -3.765625 C 7.9375 -2.191406 9.898438 -1.40625 12.453125 -1.40625 C 13.691406 -1.40625 14.78125 -1.488281 15.71875 -1.65625 C 16.664062 -1.832031 17.859375 -2.207031 19.296875 -2.78125 L 19.296875 -0.984375 C 18.066406 -0.453125 16.929688 -0.0859375 15.890625 0.109375 C 14.847656 0.304688 13.703125 0.40625 12.453125 0.40625 Z M 11.859375 -20.4375 C 9.765625 -20.4375 8.082031 -19.742188 6.8125 -18.359375 C 5.539062 -16.984375 4.800781 -14.992188 4.59375 -12.390625 L 18.0625 -12.390625 C 18.0625 -14.910156 17.507812 -16.878906 16.40625 -18.296875 C 15.3125 -19.722656 13.796875 -20.4375 11.859375 -20.4375 Z M 11.859375 -20.4375 "/></g></g></g><g fill="#3a3d41" fill-opacity="1"><g transform="translate(277.009061, 376.944849)"><g><path d="M 11.625 -22.203125 C 13.195312 -22.203125 14.554688 -21.914062 15.703125 -21.34375 C 16.859375 -20.769531 17.890625 -19.789062 18.796875 -18.40625 L 18.921875 -18.40625 C 18.835938 -20.082031 18.796875 -21.726562 18.796875 -23.34375 L 18.796875 -31.1875 L 20.765625 -31.1875 L 20.765625 0 L 19.46875 0 L 18.953125 -3.328125 L 18.796875 -3.328125 C 17.140625 -0.835938 14.765625 0.40625 11.671875 0.40625 C 8.660156 0.40625 6.359375 -0.53125 4.765625 -2.40625 C 3.179688 -4.28125 2.390625 -7.003906 2.390625 -10.578125 C 2.390625 -14.347656 3.175781 -17.226562 4.75 -19.21875 C 6.320312 -21.207031 8.613281 -22.203125 11.625 -22.203125 Z M 11.625 -20.40625 C 9.25 -20.40625 7.460938 -19.566406 6.265625 -17.890625 C 5.066406 -16.222656 4.46875 -13.800781 4.46875 -10.625 C 4.46875 -4.445312 6.867188 -1.359375 11.671875 -1.359375 C 14.128906 -1.359375 15.929688 -2.070312 17.078125 -3.5 C 18.222656 -4.9375 18.796875 -7.296875 18.796875 -10.578125 L 18.796875 -10.921875 C 18.796875 -14.285156 18.226562 -16.707031 17.09375 -18.1875 C 15.96875 -19.664062 14.144531 -20.40625 11.625 -20.40625 Z M 11.625 -20.40625 "/></g></g></g><g fill="#3a3d41" fill-opacity="1"><g transform="translate(301.43613, 376.944849)"><g/></g></g><g fill="#3a3d41" fill-opacity="1"><g transform="translate(312.096667, 376.944849)"><g><path d="M 26.390625 -14.9375 C 26.390625 -10.019531 25.097656 -6.300781 22.515625 -3.78125 C 19.941406 -1.257812 16.15625 0 11.15625 0 L 4.15625 0 L 4.15625 -29.296875 L 12.0625 -29.296875 C 16.738281 -29.296875 20.296875 -28.070312 22.734375 -25.625 C 25.171875 -23.1875 26.390625 -19.625 26.390625 -14.9375 Z M 24.171875 -14.84375 C 24.171875 -19.039062 23.101562 -22.195312 20.96875 -24.3125 C 18.84375 -26.4375 15.710938 -27.5 11.578125 -27.5 L 6.1875 -27.5 L 6.1875 -1.796875 L 11.046875 -1.796875 C 19.796875 -1.796875 24.171875 -6.144531 24.171875 -14.84375 Z M 24.171875 -14.84375 "/></g></g></g><g fill="#3a3d41" fill-opacity="1"><g transform="translate(341.072489, 376.944849)"><g><path d="M 5.625 0 L 3.640625 0 L 3.640625 -21.78125 L 5.625 -21.78125 Z M 3.359375 -27.84375 C 3.359375 -29.125 3.78125 -29.765625 4.625 -29.765625 C 5.039062 -29.765625 5.363281 -29.597656 5.59375 -29.265625 C 5.832031 -28.929688 5.953125 -28.457031 5.953125 -27.84375 C 5.953125 -27.238281 5.832031 -26.757812 5.59375 -26.40625 C 5.363281 -26.0625 5.039062 -25.890625 4.625 -25.890625 C 3.78125 -25.890625 3.359375 -26.539062 3.359375 -27.84375 Z M 3.359375 -27.84375 "/></g></g></g><g fill="#3a3d41" fill-opacity="1"><g transform="translate(350.350374, 376.944849)"><g><path d="M 17.15625 -5.671875 C 17.15625 -3.722656 16.410156 -2.222656 14.921875 -1.171875 C 13.441406 -0.117188 11.34375 0.40625 8.625 0.40625 C 5.707031 0.40625 3.394531 -0.0390625 1.6875 -0.9375 L 1.6875 -3.09375 C 3.875 -1.988281 6.1875 -1.4375 8.625 -1.4375 C 10.769531 -1.4375 12.398438 -1.796875 13.515625 -2.515625 C 14.628906 -3.234375 15.1875 -4.1875 15.1875 -5.375 C 15.1875 -6.46875 14.742188 -7.390625 13.859375 -8.140625 C 12.972656 -8.890625 11.515625 -9.625 9.484375 -10.34375 C 7.304688 -11.132812 5.773438 -11.8125 4.890625 -12.375 C 4.003906 -12.945312 3.335938 -13.585938 2.890625 -14.296875 C 2.441406 -15.015625 2.21875 -15.890625 2.21875 -16.921875 C 2.21875 -18.546875 2.898438 -19.832031 4.265625 -20.78125 C 5.640625 -21.726562 7.554688 -22.203125 10.015625 -22.203125 C 12.367188 -22.203125 14.601562 -21.765625 16.71875 -20.890625 L 15.96875 -19.078125 C 13.832031 -19.960938 11.847656 -20.40625 10.015625 -20.40625 C 8.242188 -20.40625 6.835938 -20.109375 5.796875 -19.515625 C 4.753906 -18.929688 4.234375 -18.117188 4.234375 -17.078125 C 4.234375 -15.941406 4.632812 -15.03125 5.4375 -14.34375 C 6.25 -13.664062 7.832031 -12.90625 10.1875 -12.0625 C 12.144531 -11.351562 13.570312 -10.710938 14.46875 -10.140625 C 15.363281 -9.578125 16.035156 -8.9375 16.484375 -8.21875 C 16.929688 -7.5 17.15625 -6.648438 17.15625 -5.671875 Z M 17.15625 -5.671875 "/></g></g></g><g fill="#3a3d41" fill-opacity="1"><g transform="translate(369.467202, 376.944849)"><g><path d="M 9.40625 -1.359375 C 10.65625 -1.359375 11.75 -1.46875 12.6875 -1.6875 L 12.6875 -0.078125 C 11.726562 0.242188 10.617188 0.40625 9.359375 0.40625 C 7.429688 0.40625 6.007812 -0.109375 5.09375 -1.140625 C 4.1875 -2.171875 3.734375 -3.789062 3.734375 -6 L 3.734375 -20.0625 L 0.5 -20.0625 L 0.5 -21.21875 L 3.734375 -22.125 L 4.734375 -27.0625 L 5.75 -27.0625 L 5.75 -21.78125 L 12.140625 -21.78125 L 12.140625 -20.0625 L 5.75 -20.0625 L 5.75 -6.265625 C 5.75 -4.597656 6.039062 -3.363281 6.625 -2.5625 C 7.21875 -1.757812 8.144531 -1.359375 9.40625 -1.359375 Z M 9.40625 -1.359375 "/></g></g></g><g fill="#3a3d41" fill-opacity="1"><g transform="translate(383.213684, 376.944849)"><g><path d="M 12.21875 -22.203125 C 13.144531 -22.203125 14.132812 -22.109375 15.1875 -21.921875 L 14.8125 -20.015625 C 13.90625 -20.242188 12.960938 -20.359375 11.984375 -20.359375 C 10.128906 -20.359375 8.601562 -19.570312 7.40625 -18 C 6.21875 -16.425781 5.625 -14.4375 5.625 -12.03125 L 5.625 0 L 3.640625 0 L 3.640625 -21.78125 L 5.328125 -21.78125 L 5.53125 -17.859375 L 5.671875 -17.859375 C 6.566406 -19.460938 7.519531 -20.585938 8.53125 -21.234375 C 9.550781 -21.878906 10.78125 -22.203125 12.21875 -22.203125 Z M 12.21875 -22.203125 "/></g></g></g><g fill="#3a3d41" fill-opacity="1"><g transform="translate(399.184463, 376.944849)"><g><path d="M 5.625 0 L 3.640625 0 L 3.640625 -21.78125 L 5.625 -21.78125 Z M 3.359375 -27.84375 C 3.359375 -29.125 3.78125 -29.765625 4.625 -29.765625 C 5.039062 -29.765625 5.363281 -29.597656 5.59375 -29.265625 C 5.832031 -28.929688 5.953125 -28.457031 5.953125 -27.84375 C 5.953125 -27.238281 5.832031 -26.757812 5.59375 -26.40625 C 5.363281 -26.0625 5.039062 -25.890625 4.625 -25.890625 C 3.78125 -25.890625 3.359375 -26.539062 3.359375 -27.84375 Z M 3.359375 -27.84375 "/></g></g></g><g fill="#3a3d41" fill-opacity="1"><g transform="translate(408.462325, 376.944849)"><g><path d="M 12.84375 -22.203125 C 15.894531 -22.203125 18.191406 -21.242188 19.734375 -19.328125 C 21.273438 -17.410156 22.046875 -14.609375 22.046875 -10.921875 C 22.046875 -7.296875 21.234375 -4.5 19.609375 -2.53125 C 17.984375 -0.570312 15.703125 0.40625 12.765625 0.40625 C 11.210938 0.40625 9.816406 0.0859375 8.578125 -0.546875 C 7.335938 -1.191406 6.351562 -2.101562 5.625 -3.28125 L 5.453125 -3.28125 L 4.890625 0 L 3.640625 0 L 3.640625 -31.1875 L 5.625 -31.1875 L 5.625 -23.34375 C 5.625 -22.164062 5.597656 -21.085938 5.546875 -20.109375 L 5.484375 -18.40625 L 5.625 -18.40625 C 6.457031 -19.707031 7.457031 -20.664062 8.625 -21.28125 C 9.789062 -21.894531 11.195312 -22.203125 12.84375 -22.203125 Z M 12.8125 -20.40625 C 10.238281 -20.40625 8.394531 -19.671875 7.28125 -18.203125 C 6.175781 -16.734375 5.625 -14.304688 5.625 -10.921875 L 5.625 -10.578125 C 5.625 -7.296875 6.203125 -4.9375 7.359375 -3.5 C 8.515625 -2.070312 10.316406 -1.359375 12.765625 -1.359375 C 15.140625 -1.359375 16.925781 -2.191406 18.125 -3.859375 C 19.332031 -5.523438 19.9375 -7.894531 19.9375 -10.96875 C 19.9375 -17.257812 17.5625 -20.40625 12.8125 -20.40625 Z M 12.8125 -20.40625 "/></g></g></g><g fill="#3a3d41" fill-opacity="1"><g transform="translate(432.889372, 376.944849)"><g><path d="M 5.375 -21.78125 L 5.375 -7.671875 C 5.375 -5.484375 5.832031 -3.890625 6.75 -2.890625 C 7.675781 -1.898438 9.109375 -1.40625 11.046875 -1.40625 C 13.640625 -1.40625 15.546875 -2.054688 16.765625 -3.359375 C 17.984375 -4.671875 18.59375 -6.804688 18.59375 -9.765625 L 18.59375 -21.78125 L 20.5625 -21.78125 L 20.5625 0 L 18.875 0 L 18.515625 -3 L 18.40625 -3 C 16.988281 -0.726562 14.46875 0.40625 10.84375 0.40625 C 5.882812 0.40625 3.40625 -2.25 3.40625 -7.5625 L 3.40625 -21.78125 Z M 5.375 -21.78125 "/></g></g></g><g fill="#3a3d41" fill-opacity="1"><g transform="translate(457.096006, 376.944849)"><g><path d="M 9.40625 -1.359375 C 10.65625 -1.359375 11.75 -1.46875 12.6875 -1.6875 L 12.6875 -0.078125 C 11.726562 0.242188 10.617188 0.40625 9.359375 0.40625 C 7.429688 0.40625 6.007812 -0.109375 5.09375 -1.140625 C 4.1875 -2.171875 3.734375 -3.789062 3.734375 -6 L 3.734375 -20.0625 L 0.5 -20.0625 L 0.5 -21.21875 L 3.734375 -22.125 L 4.734375 -27.0625 L 5.75 -27.0625 L 5.75 -21.78125 L 12.140625 -21.78125 L 12.140625 -20.0625 L 5.75 -20.0625 L 5.75 -6.265625 C 5.75 -4.597656 6.039062 -3.363281 6.625 -2.5625 C 7.21875 -1.757812 8.144531 -1.359375 9.40625 -1.359375 Z M 9.40625 -1.359375 "/></g></g></g><g fill="#3a3d41" fill-opacity="1"><g transform="translate(470.842488, 376.944849)"><g><path d="M 5.625 0 L 3.640625 0 L 3.640625 -21.78125 L 5.625 -21.78125 Z M 3.359375 -27.84375 C 3.359375 -29.125 3.78125 -29.765625 4.625 -29.765625 C 5.039062 -29.765625 5.363281 -29.597656 5.59375 -29.265625 C 5.832031 -28.929688 5.953125 -28.457031 5.953125 -27.84375 C 5.953125 -27.238281 5.832031 -26.757812 5.59375 -26.40625 C 5.363281 -26.0625 5.039062 -25.890625 4.625 -25.890625 C 3.78125 -25.890625 3.359375 -26.539062 3.359375 -27.84375 Z M 3.359375 -27.84375 "/></g></g></g><g fill="#3a3d41" fill-opacity="1"><g transform="translate(480.120373, 376.944849)"><g><path d="M 21.671875 -10.921875 C 21.671875 -7.367188 20.804688 -4.59375 19.078125 -2.59375 C 17.359375 -0.59375 14.976562 0.40625 11.9375 0.40625 C 10.03125 0.40625 8.347656 -0.0507812 6.890625 -0.96875 C 5.429688 -1.894531 4.316406 -3.21875 3.546875 -4.9375 C 2.773438 -6.664062 2.390625 -8.660156 2.390625 -10.921875 C 2.390625 -14.472656 3.25 -17.238281 4.96875 -19.21875 C 6.695312 -21.207031 9.0625 -22.203125 12.0625 -22.203125 C 15.0625 -22.203125 17.410156 -21.195312 19.109375 -19.1875 C 20.816406 -17.175781 21.671875 -14.421875 21.671875 -10.921875 Z M 4.46875 -10.921875 C 4.46875 -7.929688 5.125 -5.597656 6.4375 -3.921875 C 7.757812 -2.242188 9.625 -1.40625 12.03125 -1.40625 C 14.4375 -1.40625 16.296875 -2.242188 17.609375 -3.921875 C 18.921875 -5.597656 19.578125 -7.929688 19.578125 -10.921875 C 19.578125 -13.929688 18.910156 -16.265625 17.578125 -17.921875 C 16.253906 -19.578125 14.390625 -20.40625 11.984375 -20.40625 C 9.578125 -20.40625 7.722656 -19.578125 6.421875 -17.921875 C 5.117188 -16.273438 4.46875 -13.941406 4.46875 -10.921875 Z M 4.46875 -10.921875 "/></g></g></g><g fill="#3a3d41" fill-opacity="1"><g transform="translate(504.166698, 376.944849)"><g><path d="M 18.84375 0 L 18.84375 -14.125 C 18.84375 -16.320312 18.378906 -17.914062 17.453125 -18.90625 C 16.535156 -19.90625 15.109375 -20.40625 13.171875 -20.40625 C 10.566406 -20.40625 8.65625 -19.742188 7.4375 -18.421875 C 6.226562 -17.109375 5.625 -14.976562 5.625 -12.03125 L 5.625 0 L 3.640625 0 L 3.640625 -21.78125 L 5.328125 -21.78125 L 5.71875 -18.796875 L 5.828125 -18.796875 C 7.242188 -21.066406 9.765625 -22.203125 13.390625 -22.203125 C 18.328125 -22.203125 20.796875 -19.550781 20.796875 -14.25 L 20.796875 0 Z M 18.84375 0 "/></g></g></g><g fill="#3a3d41" fill-opacity="1"><g transform="translate(528.373332, 376.944849)"><g/></g></g><g fill="#3a3d41" fill-opacity="1"><g transform="translate(539.033869, 376.944849)"><g><path d="M 20.328125 -7.5625 C 20.328125 -5.113281 19.425781 -3.171875 17.625 -1.734375 C 15.832031 -0.304688 13.445312 0.40625 10.46875 0.40625 C 6.882812 0.40625 4.132812 0.0078125 2.21875 -0.78125 L 2.21875 -2.828125 C 4.332031 -1.929688 7.023438 -1.484375 10.296875 -1.484375 C 12.703125 -1.484375 14.609375 -2.035156 16.015625 -3.140625 C 17.429688 -4.242188 18.140625 -5.6875 18.140625 -7.46875 C 18.140625 -8.582031 17.90625 -9.503906 17.4375 -10.234375 C 16.96875 -10.960938 16.203125 -11.625 15.140625 -12.21875 C 14.085938 -12.820312 12.539062 -13.472656 10.5 -14.171875 C 7.507812 -15.203125 5.441406 -16.3125 4.296875 -17.5 C 3.148438 -18.695312 2.578125 -20.289062 2.578125 -22.28125 C 2.578125 -24.476562 3.4375 -26.265625 5.15625 -27.640625 C 6.875 -29.023438 9.082031 -29.71875 11.78125 -29.71875 C 14.53125 -29.71875 17.117188 -29.195312 19.546875 -28.15625 L 18.796875 -26.390625 C 16.367188 -27.410156 14.046875 -27.921875 11.828125 -27.921875 C 9.660156 -27.921875 7.9375 -27.414062 6.65625 -26.40625 C 5.375 -25.40625 4.734375 -24.046875 4.734375 -22.328125 C 4.734375 -21.242188 4.925781 -20.351562 5.3125 -19.65625 C 5.707031 -18.96875 6.351562 -18.34375 7.25 -17.78125 C 8.144531 -17.226562 9.679688 -16.566406 11.859375 -15.796875 C 14.148438 -15.003906 15.867188 -14.238281 17.015625 -13.5 C 18.160156 -12.757812 19 -11.914062 19.53125 -10.96875 C 20.0625 -10.03125 20.328125 -8.894531 20.328125 -7.5625 Z M 20.328125 -7.5625 "/></g></g></g><g fill="#3a3d41" fill-opacity="1"><g transform="translate(561.396951, 376.944849)"><g><path d="M 0 -21.78125 L 2.046875 -21.78125 L 6.65625 -9.5625 C 8.0625 -5.800781 8.945312 -3.269531 9.3125 -1.96875 L 9.4375 -1.96875 C 10 -3.6875 10.914062 -6.257812 12.1875 -9.6875 L 16.796875 -21.78125 L 18.84375 -21.78125 L 9.078125 3.53125 C 8.285156 5.582031 7.625 6.96875 7.09375 7.6875 C 6.5625 8.414062 5.9375 8.957031 5.21875 9.3125 C 4.507812 9.675781 3.644531 9.859375 2.625 9.859375 C 1.863281 9.859375 1.015625 9.71875 0.078125 9.4375 L 0.078125 7.71875 C 0.859375 7.925781 1.691406 8.03125 2.578125 8.03125 C 3.265625 8.03125 3.867188 7.867188 4.390625 7.546875 C 4.910156 7.234375 5.378906 6.738281 5.796875 6.0625 C 6.222656 5.382812 6.710938 4.3125 7.265625 2.84375 C 7.816406 1.382812 8.175781 0.4375 8.34375 0 Z M 0 -21.78125 "/></g></g></g><g fill="#3a3d41" fill-opacity="1"><g transform="translate(580.233239, 376.944849)"><g><path d="M 17.15625 -5.671875 C 17.15625 -3.722656 16.410156 -2.222656 14.921875 -1.171875 C 13.441406 -0.117188 11.34375 0.40625 8.625 0.40625 C 5.707031 0.40625 3.394531 -0.0390625 1.6875 -0.9375 L 1.6875 -3.09375 C 3.875 -1.988281 6.1875 -1.4375 8.625 -1.4375 C 10.769531 -1.4375 12.398438 -1.796875 13.515625 -2.515625 C 14.628906 -3.234375 15.1875 -4.1875 15.1875 -5.375 C 15.1875 -6.46875 14.742188 -7.390625 13.859375 -8.140625 C 12.972656 -8.890625 11.515625 -9.625 9.484375 -10.34375 C 7.304688 -11.132812 5.773438 -11.8125 4.890625 -12.375 C 4.003906 -12.945312 3.335938 -13.585938 2.890625 -14.296875 C 2.441406 -15.015625 2.21875 -15.890625 2.21875 -16.921875 C 2.21875 -18.546875 2.898438 -19.832031 4.265625 -20.78125 C 5.640625 -21.726562 7.554688 -22.203125 10.015625 -22.203125 C 12.367188 -22.203125 14.601562 -21.765625 16.71875 -20.890625 L 15.96875 -19.078125 C 13.832031 -19.960938 11.847656 -20.40625 10.015625 -20.40625 C 8.242188 -20.40625 6.835938 -20.109375 5.796875 -19.515625 C 4.753906 -18.929688 4.234375 -18.117188 4.234375 -17.078125 C 4.234375 -15.941406 4.632812 -15.03125 5.4375 -14.34375 C 6.25 -13.664062 7.832031 -12.90625 10.1875 -12.0625 C 12.144531 -11.351562 13.570312 -10.710938 14.46875 -10.140625 C 15.363281 -9.578125 16.035156 -8.9375 16.484375 -8.21875 C 16.929688 -7.5 17.15625 -6.648438 17.15625 -5.671875 Z M 17.15625 -5.671875 "/></g></g></g><g fill="#3a3d41" fill-opacity="1"><g transform="translate(599.350044, 376.944849)"><g><path d="M 9.40625 -1.359375 C 10.65625 -1.359375 11.75 -1.46875 12.6875 -1.6875 L 12.6875 -0.078125 C 11.726562 0.242188 10.617188 0.40625 9.359375 0.40625 C 7.429688 0.40625 6.007812 -0.109375 5.09375 -1.140625 C 4.1875 -2.171875 3.734375 -3.789062 3.734375 -6 L 3.734375 -20.0625 L 0.5 -20.0625 L 0.5 -21.21875 L 3.734375 -22.125 L 4.734375 -27.0625 L 5.75 -27.0625 L 5.75 -21.78125 L 12.140625 -21.78125 L 12.140625 -20.0625 L 5.75 -20.0625 L 5.75 -6.265625 C 5.75 -4.597656 6.039062 -3.363281 6.625 -2.5625 C 7.21875 -1.757812 8.144531 -1.359375 9.40625 -1.359375 Z M 9.40625 -1.359375 "/></g></g></g><g fill="#3a3d41" fill-opacity="1"><g transform="translate(613.096503, 376.944849)"><g><path d="M 12.453125 0.40625 C 9.285156 0.40625 6.816406 -0.566406 5.046875 -2.515625 C 3.273438 -4.472656 2.390625 -7.207031 2.390625 -10.71875 C 2.390625 -14.195312 3.242188 -16.976562 4.953125 -19.0625 C 6.660156 -21.15625 8.960938 -22.203125 11.859375 -22.203125 C 14.429688 -22.203125 16.457031 -21.304688 17.9375 -19.515625 C 19.414062 -17.722656 20.15625 -15.289062 20.15625 -12.21875 L 20.15625 -10.625 L 4.46875 -10.625 C 4.5 -7.632812 5.195312 -5.347656 6.5625 -3.765625 C 7.9375 -2.191406 9.898438 -1.40625 12.453125 -1.40625 C 13.691406 -1.40625 14.78125 -1.488281 15.71875 -1.65625 C 16.664062 -1.832031 17.859375 -2.207031 19.296875 -2.78125 L 19.296875 -0.984375 C 18.066406 -0.453125 16.929688 -0.0859375 15.890625 0.109375 C 14.847656 0.304688 13.703125 0.40625 12.453125 0.40625 Z M 11.859375 -20.4375 C 9.765625 -20.4375 8.082031 -19.742188 6.8125 -18.359375 C 5.539062 -16.984375 4.800781 -14.992188 4.59375 -12.390625 L 18.0625 -12.390625 C 18.0625 -14.910156 17.507812 -16.878906 16.40625 -18.296875 C 15.3125 -19.722656 13.796875 -20.4375 11.859375 -20.4375 Z M 11.859375 -20.4375 "/></g></g></g><g fill="#3a3d41" fill-opacity="1"><g transform="translate(635.619894, 376.944849)"><g><path d="M 30.859375 0 L 30.859375 -14.296875 C 30.859375 -16.421875 30.441406 -17.96875 29.609375 -18.9375 C 28.785156 -19.914062 27.519531 -20.40625 25.8125 -20.40625 C 23.582031 -20.40625 21.929688 -19.789062 20.859375 -18.5625 C 19.796875 -17.332031 19.265625 -15.398438 19.265625 -12.765625 L 19.265625 0 L 17.234375 0 L 17.234375 -14.890625 C 17.234375 -18.566406 15.550781 -20.40625 12.1875 -20.40625 C 9.90625 -20.40625 8.238281 -19.738281 7.1875 -18.40625 C 6.144531 -17.082031 5.625 -14.957031 5.625 -12.03125 L 5.625 0 L 3.640625 0 L 3.640625 -21.78125 L 5.296875 -21.78125 L 5.71875 -18.796875 L 5.828125 -18.796875 C 6.429688 -19.878906 7.285156 -20.71875 8.390625 -21.3125 C 9.503906 -21.90625 10.726562 -22.203125 12.0625 -22.203125 C 15.5 -22.203125 17.703125 -20.914062 18.671875 -18.34375 L 18.765625 -18.34375 C 19.472656 -19.582031 20.421875 -20.535156 21.609375 -21.203125 C 22.804688 -21.867188 24.164062 -22.203125 25.6875 -22.203125 C 28.070312 -22.203125 29.859375 -21.566406 31.046875 -20.296875 C 32.234375 -19.035156 32.828125 -17.019531 32.828125 -14.25 L 32.828125 0 Z M 30.859375 0 "/></g></g></g><g fill="#3a3d41" fill-opacity="1"><g transform="translate(228.087882, 445.065481)"><g><path d="M 36.359375 -4.171875 C 36.878906 -4.171875 37.140625 -3.484375 37.140625 -2.109375 C 37.140625 -0.703125 36.878906 0 36.359375 0 L 34.28125 0 L 34.28125 0.46875 C 34.28125 6.144531 28.851562 8.984375 18 8.984375 C 12.738281 8.984375 8.679688 8.179688 5.828125 6.578125 C 2.984375 4.972656 1.5625 2.273438 1.5625 -1.515625 C 1.5625 -2.378906 1.625 -3.398438 1.75 -4.578125 C 1.882812 -5.765625 2.082031 -6.878906 2.34375 -7.921875 L 6.71875 -6.90625 C 6.53125 -6.175781 6.367188 -5.296875 6.234375 -4.265625 C 6.109375 -3.242188 6.046875 -2.351562 6.046875 -1.59375 C 6.046875 -0.0078125 6.421875 1.238281 7.171875 2.15625 C 7.929688 3.082031 9.175781 3.753906 10.90625 4.171875 C 12.644531 4.585938 15.023438 4.796875 18.046875 4.796875 C 21.992188 4.796875 24.832031 4.460938 26.5625 3.796875 C 28.300781 3.140625 29.171875 2.144531 29.171875 0.8125 C 29.171875 0.5 29.128906 0.226562 29.046875 0 L 28.546875 0 C 25.472656 0 23.164062 -0.789062 21.625 -2.375 L 24.75 -5.34375 C 25.164062 -4.925781 25.660156 -4.625 26.234375 -4.4375 C 26.804688 -4.257812 27.578125 -4.171875 28.546875 -4.171875 Z M 15.59375 16.375 C 14.914062 16.375 14.347656 16.140625 13.890625 15.671875 C 13.429688 15.203125 13.203125 14.617188 13.203125 13.921875 C 13.203125 13.210938 13.429688 12.625 13.890625 12.15625 C 14.347656 11.6875 14.914062 11.453125 15.59375 11.453125 C 16.269531 11.453125 16.832031 11.679688 17.28125 12.140625 C 17.738281 12.597656 17.96875 13.191406 17.96875 13.921875 C 17.96875 14.617188 17.738281 15.203125 17.28125 15.671875 C 16.832031 16.140625 16.269531 16.375 15.59375 16.375 Z M 21.765625 16.375 C 21.085938 16.375 20.519531 16.140625 20.0625 15.671875 C 19.601562 15.203125 19.375 14.617188 19.375 13.921875 C 19.375 13.210938 19.601562 12.625 20.0625 12.15625 C 20.519531 11.6875 21.085938 11.453125 21.765625 11.453125 C 22.441406 11.453125 23.003906 11.679688 23.453125 12.140625 C 23.910156 12.597656 24.140625 13.191406 24.140625 13.921875 C 24.140625 14.617188 23.910156 15.203125 23.453125 15.671875 C 23.003906 16.140625 22.441406 16.375 21.765625 16.375 Z M 21.765625 16.375 "/></g></g></g><g fill="#3a3d41" fill-opacity="1"><g transform="translate(264.440531, 445.065481)"><g><path d="M 3 -28.9375 L 7.5 -28.9375 L 7.5 0 L 0 0 C -0.519531 0 -0.78125 -0.703125 -0.78125 -2.109375 C -0.78125 -3.484375 -0.519531 -4.171875 0 -4.171875 L 3 -4.171875 Z M 3 -28.9375 "/></g></g></g><g fill="#3a3d41" fill-opacity="1"><g transform="translate(275.061288, 445.065481)"><g><path d="M 17.890625 -4.171875 L 17.890625 -28.9375 L 22.375 -28.9375 L 22.375 0 L 1.5625 0 L 1.5625 -4.171875 L 6.515625 -4.171875 L 6.515625 -23.421875 L 11.015625 -23.421875 L 11.015625 -4.171875 Z M 12.140625 -25.390625 C 11.566406 -25.390625 11.03125 -25.476562 10.53125 -25.65625 C 10.039062 -25.84375 9.429688 -26.117188 8.703125 -26.484375 C 8.335938 -26.660156 7.972656 -26.828125 7.609375 -26.984375 C 7.242188 -27.140625 6.914062 -27.21875 6.625 -27.21875 C 5.875 -27.21875 5.5 -26.644531 5.5 -25.5 L 3 -25.5 C 3 -28.550781 4.066406 -30.078125 6.203125 -30.078125 C 6.773438 -30.078125 7.300781 -29.988281 7.78125 -29.8125 C 8.257812 -29.644531 8.890625 -29.378906 9.671875 -29.015625 C 10.609375 -28.523438 11.285156 -28.28125 11.703125 -28.28125 C 12.460938 -28.28125 12.84375 -28.828125 12.84375 -29.921875 L 15.34375 -29.921875 C 15.34375 -26.898438 14.273438 -25.390625 12.140625 -25.390625 Z M 12.140625 -25.390625 "/></g></g></g><g fill="#3a3d41" fill-opacity="1"><g transform="translate(300.168434, 445.065481)"><g><path d="M 8 0 L 3.515625 0 L 3.515625 -28.9375 L 8 -28.9375 Z M 8 0 "/></g></g></g><g fill="#3a3d41" fill-opacity="1"><g transform="translate(311.687267, 445.065481)"><g/></g></g><g fill="#3a3d41" fill-opacity="1"><g transform="translate(322.22993, 445.065481)"><g><path d="M 29.640625 -4.171875 C 30.160156 -4.171875 30.421875 -3.484375 30.421875 -2.109375 C 30.421875 -0.703125 30.160156 0 29.640625 0 L 22.796875 0 C 20.460938 0 18.253906 -0.335938 16.171875 -1.015625 C 15.128906 -0.671875 14.085938 -0.410156 13.046875 -0.234375 C 11.484375 0.078125 10.21875 0.394531 9.25 0.71875 C 8.289062 1.039062 7.515625 1.515625 6.921875 2.140625 C 6.335938 2.765625 6.046875 3.625 6.046875 4.71875 C 6.046875 6.332031 6.707031 7.632812 8.03125 8.625 C 9.363281 9.613281 11.097656 10.109375 13.234375 10.109375 C 14.328125 10.109375 15.476562 9.972656 16.6875 9.703125 C 17.90625 9.429688 18.925781 9.070312 19.75 8.625 L 21.9375 12.34375 C 20.875 12.914062 19.519531 13.382812 17.875 13.75 C 16.238281 14.113281 14.691406 14.296875 13.234375 14.296875 C 11.023438 14.296875 9.035156 13.882812 7.265625 13.0625 C 5.492188 12.238281 4.097656 11.097656 3.078125 9.640625 C 2.066406 8.179688 1.5625 6.539062 1.5625 4.71875 C 1.5625 2.144531 2.429688 0.195312 4.171875 -1.125 C 5.921875 -2.457031 8.082031 -3.421875 10.65625 -4.015625 C 7.894531 -6.253906 6.019531 -9.160156 5.03125 -12.734375 L 8.828125 -19.25 C 11.015625 -19.894531 13.289062 -20.21875 15.65625 -20.21875 C 19.144531 -20.21875 21.835938 -19.53125 23.734375 -18.15625 C 25.640625 -16.78125 26.59375 -14.828125 26.59375 -12.296875 C 26.59375 -10.785156 26.21875 -9.332031 25.46875 -7.9375 C 24.726562 -6.550781 23.671875 -5.296875 22.296875 -4.171875 Z M 9.21875 -14.796875 C 9.6875 -12.660156 10.523438 -10.796875 11.734375 -9.203125 C 12.941406 -7.617188 14.457031 -6.398438 16.28125 -5.546875 C 18.15625 -6.328125 19.59375 -7.300781 20.59375 -8.46875 C 21.59375 -9.644531 22.09375 -10.921875 22.09375 -12.296875 C 22.09375 -13.578125 21.597656 -14.519531 20.609375 -15.125 C 19.628906 -15.738281 17.976562 -16.046875 15.65625 -16.046875 C 14.4375 -16.046875 13.332031 -15.945312 12.34375 -15.75 C 11.351562 -15.5625 10.3125 -15.242188 9.21875 -14.796875 Z M 9.21875 -14.796875 "/></g></g></g><g fill="#3a3d41" fill-opacity="1"><g transform="translate(351.86651, 445.065481)"><g><path d="M 4.140625 -18.984375 L 8.625 -18.984375 L 8.625 0 L 0 0 C -0.519531 0 -0.78125 -0.703125 -0.78125 -2.109375 C -0.78125 -3.484375 -0.519531 -4.171875 0 -4.171875 L 4.140625 -4.171875 Z M 3.59375 7.375 C 2.914062 7.375 2.347656 7.140625 1.890625 6.671875 C 1.429688 6.203125 1.203125 5.617188 1.203125 4.921875 C 1.203125 4.210938 1.429688 3.625 1.890625 3.15625 C 2.347656 2.6875 2.914062 2.453125 3.59375 2.453125 C 4.269531 2.453125 4.832031 2.679688 5.28125 3.140625 C 5.738281 3.597656 5.96875 4.191406 5.96875 4.921875 C 5.96875 5.617188 5.738281 6.203125 5.28125 6.671875 C 4.832031 7.140625 4.269531 7.375 3.59375 7.375 Z M 9.765625 7.375 C 9.085938 7.375 8.519531 7.140625 8.0625 6.671875 C 7.601562 6.203125 7.375 5.617188 7.375 4.921875 C 7.375 4.210938 7.601562 3.625 8.0625 3.15625 C 8.519531 2.6875 9.085938 2.453125 9.765625 2.453125 C 10.441406 2.453125 11.003906 2.679688 11.453125 3.140625 C 11.910156 3.597656 12.140625 4.191406 12.140625 4.921875 C 12.140625 5.617188 11.910156 6.203125 11.453125 6.671875 C 11.003906 7.140625 10.441406 7.375 9.765625 7.375 Z M 9.765625 7.375 "/></g></g></g><g fill="#3a3d41" fill-opacity="1"><g transform="translate(363.229154, 445.065481)"><g><path d="M -0.78125 4.640625 C 0.832031 4.742188 1.992188 4.4375 2.703125 3.71875 C 3.421875 3.007812 3.78125 1.796875 3.78125 0.078125 L 3.78125 -18.984375 L 8.28125 -18.984375 L 8.28125 0.078125 C 8.28125 2.804688 7.535156 4.9375 6.046875 6.46875 C 4.566406 8.007812 2.523438 8.804688 -0.078125 8.859375 Z M 6.171875 -21.859375 C 5.421875 -21.859375 4.796875 -22.117188 4.296875 -22.640625 C 3.804688 -23.160156 3.5625 -23.8125 3.5625 -24.59375 C 3.5625 -25.375 3.804688 -26.019531 4.296875 -26.53125 C 4.796875 -27.039062 5.421875 -27.296875 6.171875 -27.296875 C 6.929688 -27.296875 7.554688 -27.039062 8.046875 -26.53125 C 8.546875 -26.019531 8.796875 -25.375 8.796875 -24.59375 C 8.796875 -23.8125 8.546875 -23.160156 8.046875 -22.640625 C 7.554688 -22.117188 6.929688 -21.859375 6.171875 -21.859375 Z M 6.171875 -21.859375 "/></g></g></g><g fill="#3a3d41" fill-opacity="1"><g transform="translate(373.849912, 445.065481)"><g><path d="M 25.734375 -4.171875 C 26.253906 -4.171875 26.515625 -3.484375 26.515625 -2.109375 C 26.515625 -0.703125 26.253906 0 25.734375 0 L 21.203125 0 L 21.203125 0.078125 C 21.203125 2.859375 20.445312 5.015625 18.9375 6.546875 C 17.425781 8.085938 15.359375 8.859375 12.734375 8.859375 L 5.109375 8.859375 L 5.109375 4.6875 L 12.6875 4.6875 C 14.09375 4.6875 15.113281 4.320312 15.75 3.59375 C 16.394531 2.863281 16.71875 1.691406 16.71875 0.078125 L 16.71875 0 L 11.75 0 C 9.75 0 7.972656 -0.445312 6.421875 -1.34375 C 4.867188 -2.238281 3.671875 -3.441406 2.828125 -4.953125 C 1.984375 -6.460938 1.5625 -8.128906 1.5625 -9.953125 C 1.5625 -11.804688 2.003906 -13.503906 2.890625 -15.046875 C 3.773438 -16.597656 5.03125 -17.828125 6.65625 -18.734375 C 8.28125 -19.648438 10.175781 -20.109375 12.34375 -20.109375 C 13.769531 -20.109375 15.285156 -19.910156 16.890625 -19.515625 C 18.492188 -19.128906 19.929688 -18.597656 21.203125 -17.921875 L 21.203125 -4.171875 Z M 16.71875 -4.171875 L 16.71875 -15.1875 C 15.226562 -15.6875 13.78125 -15.9375 12.375 -15.9375 C 10.425781 -15.9375 8.882812 -15.390625 7.75 -14.296875 C 6.613281 -13.203125 6.046875 -11.753906 6.046875 -9.953125 C 6.046875 -8.234375 6.570312 -6.835938 7.625 -5.765625 C 8.6875 -4.703125 10.0625 -4.171875 11.75 -4.171875 Z M 16.71875 -4.171875 "/></g></g></g><g fill="#3a3d41" fill-opacity="1"><g transform="translate(399.581802, 445.065481)"><g><path d="M 15.265625 -4.171875 C 15.785156 -4.171875 16.046875 -3.484375 16.046875 -2.109375 C 16.046875 -0.703125 15.785156 0 15.265625 0 L 13.125 0 C 10.90625 0 9.082031 -0.554688 7.65625 -1.671875 C 6.425781 -0.554688 4.535156 0 1.984375 0 L 0 0 C -0.519531 0 -0.78125 -0.703125 -0.78125 -2.109375 C -0.78125 -3.484375 -0.519531 -4.171875 0 -4.171875 L 1.640625 -4.171875 C 3.046875 -4.171875 4.007812 -4.453125 4.53125 -5.015625 C 5.050781 -5.578125 5.3125 -6.546875 5.3125 -7.921875 L 5.3125 -18.984375 L 9.796875 -18.984375 L 9.796875 -7.890625 C 9.796875 -6.710938 9.679688 -5.671875 9.453125 -4.765625 C 10.128906 -4.367188 10.945312 -4.171875 11.90625 -4.171875 Z M 4.59375 -21.625 C 3.914062 -21.625 3.347656 -21.859375 2.890625 -22.328125 C 2.429688 -22.796875 2.203125 -23.378906 2.203125 -24.078125 C 2.203125 -24.785156 2.429688 -25.375 2.890625 -25.84375 C 3.347656 -26.3125 3.914062 -26.546875 4.59375 -26.546875 C 5.269531 -26.546875 5.832031 -26.316406 6.28125 -25.859375 C 6.738281 -25.398438 6.96875 -24.804688 6.96875 -24.078125 C 6.96875 -23.378906 6.738281 -22.796875 6.28125 -22.328125 C 5.832031 -21.859375 5.269531 -21.625 4.59375 -21.625 Z M 10.765625 -21.625 C 10.085938 -21.625 9.519531 -21.859375 9.0625 -22.328125 C 8.601562 -22.796875 8.375 -23.378906 8.375 -24.078125 C 8.375 -24.785156 8.601562 -25.375 9.0625 -25.84375 C 9.519531 -26.3125 10.085938 -26.546875 10.765625 -26.546875 C 11.441406 -26.546875 12.003906 -26.316406 12.453125 -25.859375 C 12.910156 -25.398438 13.140625 -24.804688 13.140625 -24.078125 C 13.140625 -23.378906 12.910156 -22.796875 12.453125 -22.328125 C 12.003906 -21.859375 11.441406 -21.625 10.765625 -21.625 Z M 10.765625 -21.625 "/></g></g></g><g fill="#3a3d41" fill-opacity="1"><g transform="translate(414.849135, 445.065481)"><g><path d="M 3 -28.9375 L 7.5 -28.9375 L 7.5 0 L 0 0 C -0.519531 0 -0.78125 -0.703125 -0.78125 -2.109375 C -0.78125 -3.484375 -0.519531 -4.171875 0 -4.171875 L 3 -4.171875 Z M 3 -28.9375 "/></g></g></g><g fill="#3a3d41" fill-opacity="1"><g transform="translate(425.469893, 445.065481)"><g><path d="M 8 0 L 3.515625 0 L 3.515625 -28.9375 L 8 -28.9375 Z M 8 0 "/></g></g></g><g fill="#3a3d41" fill-opacity="1"><g transform="translate(436.988737, 445.065481)"><g/></g></g><g fill="#3a3d41" fill-opacity="1"><g transform="translate(447.5314, 445.065481)"><g><path d="M 5.890625 14.375 C 4.566406 12.914062 3.515625 11.203125 2.734375 9.234375 C 1.953125 7.265625 1.5625 5.203125 1.5625 3.046875 C 1.5625 0.890625 1.957031 -1.023438 2.75 -2.703125 C 3.539062 -4.390625 4.640625 -5.609375 6.046875 -6.359375 C 6.203125 -8.078125 6.445312 -9.742188 6.78125 -11.359375 C 7.125 -12.972656 7.941406 -14.640625 9.234375 -16.359375 C 10.523438 -18.078125 12.40625 -18.9375 14.875 -18.9375 C 17.0625 -18.9375 19.097656 -18.210938 20.984375 -16.765625 C 22.867188 -15.328125 24.34375 -13.359375 25.40625 -10.859375 C 26.476562 -8.359375 26.953125 -5.625 26.828125 -2.65625 C 24.898438 -1.789062 22.828125 -1.128906 20.609375 -0.671875 C 18.398438 -0.222656 16.410156 0 14.640625 0 C 12.222656 0 9.878906 -0.476562 7.609375 -1.4375 C 6.566406 -0.144531 6.046875 1.410156 6.046875 3.234375 C 6.046875 4.773438 6.382812 6.3125 7.0625 7.84375 C 7.738281 9.382812 8.585938 10.726562 9.609375 11.875 Z M 14.640625 -4.171875 C 17.035156 -4.171875 19.570312 -4.5625 22.25 -5.34375 C 22.070312 -7.09375 21.617188 -8.679688 20.890625 -10.109375 C 20.160156 -11.546875 19.28125 -12.679688 18.25 -13.515625 C 17.226562 -14.347656 16.171875 -14.765625 15.078125 -14.765625 C 13.691406 -14.765625 12.640625 -13.988281 11.921875 -12.4375 C 11.210938 -10.882812 10.710938 -8.363281 10.421875 -4.875 C 11.722656 -4.40625 13.128906 -4.171875 14.640625 -4.171875 Z M 14.640625 -4.171875 "/></g></g></g><g fill="#3a3d41" fill-opacity="1"><g transform="translate(477.128933, 445.065481)"><g><path d="M 12.65625 -4.171875 C 13.175781 -4.171875 13.4375 -3.484375 13.4375 -2.109375 C 13.4375 -0.703125 13.175781 0 12.65625 0 L 3.515625 0 L 3.515625 -28.9375 L 8 -28.9375 L 8 -4.171875 Z M 12.65625 -4.171875 "/></g></g></g><g fill="#3a3d41" fill-opacity="1"><g transform="translate(489.780125, 445.065481)"><g><path d="M 38.765625 -4.171875 C 39.285156 -4.171875 39.546875 -3.484375 39.546875 -2.109375 C 39.546875 -0.703125 39.285156 0 38.765625 0 L 0 0 C -0.519531 0 -0.78125 -0.703125 -0.78125 -2.109375 C -0.78125 -3.484375 -0.519531 -4.171875 0 -4.171875 L 4.484375 -4.171875 L 4.484375 -28.9375 L 8.984375 -28.9375 L 8.984375 -11.328125 C 10.078125 -13.878906 11.617188 -15.925781 13.609375 -17.46875 C 15.597656 -19.019531 18.128906 -19.796875 21.203125 -19.796875 C 23.773438 -19.796875 25.945312 -19.234375 27.71875 -18.109375 C 29.488281 -16.992188 30.800781 -15.472656 31.65625 -13.546875 C 32.519531 -11.617188 32.953125 -9.472656 32.953125 -7.109375 L 32.953125 -4.171875 Z M 28.46875 -4.171875 L 28.46875 -7.109375 C 28.46875 -9.835938 27.828125 -11.9375 26.546875 -13.40625 C 25.273438 -14.882812 23.53125 -15.625 21.3125 -15.625 C 19.445312 -15.625 17.679688 -15.113281 16.015625 -14.09375 C 14.347656 -13.082031 12.925781 -11.695312 11.75 -9.9375 C 10.582031 -8.175781 9.773438 -6.253906 9.328125 -4.171875 Z M 21.171875 -22.859375 C 20.421875 -22.859375 19.796875 -23.117188 19.296875 -23.640625 C 18.804688 -24.160156 18.5625 -24.8125 18.5625 -25.59375 C 18.5625 -26.375 18.804688 -27.019531 19.296875 -27.53125 C 19.796875 -28.039062 20.421875 -28.296875 21.171875 -28.296875 C 21.929688 -28.296875 22.554688 -28.039062 23.046875 -27.53125 C 23.546875 -27.019531 23.796875 -26.375 23.796875 -25.59375 C 23.796875 -24.8125 23.546875 -24.160156 23.046875 -23.640625 C 22.554688 -23.117188 21.929688 -22.859375 21.171875 -22.859375 Z M 21.171875 -22.859375 "/></g></g></g><g fill="#3a3d41" fill-opacity="1"><g transform="translate(528.553691, 445.065481)"><g><path d="M 4.140625 -18.984375 L 8.625 -18.984375 L 8.625 0 L 0 0 C -0.519531 0 -0.78125 -0.703125 -0.78125 -2.109375 C -0.78125 -3.484375 -0.519531 -4.171875 0 -4.171875 L 4.140625 -4.171875 Z M 6.171875 -21.859375 C 5.421875 -21.859375 4.796875 -22.117188 4.296875 -22.640625 C 3.804688 -23.160156 3.5625 -23.8125 3.5625 -24.59375 C 3.5625 -25.375 3.804688 -26.019531 4.296875 -26.53125 C 4.796875 -27.039062 5.421875 -27.296875 6.171875 -27.296875 C 6.929688 -27.296875 7.554688 -27.039062 8.046875 -26.53125 C 8.546875 -26.019531 8.796875 -25.375 8.796875 -24.59375 C 8.796875 -23.8125 8.546875 -23.160156 8.046875 -22.640625 C 7.554688 -22.117188 6.929688 -21.859375 6.171875 -21.859375 Z M 6.171875 -21.859375 "/></g></g></g></svg>