<svg xmlns="http://www.w3.org/2000/svg" xmlns:xlink="http://www.w3.org/1999/xlink" width="500" zoomAndPan="magnify" viewBox="0 0 375 374.999991" height="500" preserveAspectRatio="xMidYMid meet" version="1.0"><defs><clipPath id="id1"><path d="M 265.828125 169 L 278.019531 169 L 278.019531 179.882812 L 265.828125 179.882812 Z M 265.828125 169 " clip-rule="nonzero"/></clipPath><clipPath id="id2"><path d="M 96.632812 118 L 202 118 L 202 233 L 96.632812 233 Z M 96.632812 118 " clip-rule="nonzero"/></clipPath><clipPath id="id3"><path d="M 174.578125 242.601562 L 190.617188 242.601562 L 190.617188 257.257812 L 174.578125 257.257812 Z M 174.578125 242.601562 " clip-rule="nonzero"/></clipPath></defs><path fill="#ffffff" d="M 351.675781 58.050781 L 351.675781 316.949219 C 351.675781 336.148438 336.148438 351.675781 316.949219 351.675781 L 58.050781 351.675781 C 38.851562 351.675781 23.324219 336.148438 23.324219 316.949219 L 23.324219 58.050781 C 23.324219 38.851562 38.851562 23.324219 58.050781 23.324219 L 316.949219 23.324219 C 336.148438 23.324219 351.675781 38.851562 351.675781 58.050781 " fill-opacity="1" fill-rule="nonzero"/><path fill="#3a3d41" d="M 53.476562 312.523438 C 48.503906 312.523438 44.476562 316.554688 44.476562 321.523438 C 44.476562 326.496094 48.503906 330.523438 53.476562 330.523438 C 58.445312 330.523438 62.476562 326.496094 62.476562 321.523438 C 62.476562 316.554688 58.445312 312.523438 53.476562 312.523438 M 53.476562 44.476562 C 48.503906 44.476562 44.476562 48.503906 44.476562 53.476562 C 44.476562 58.445312 48.503906 62.476562 53.476562 62.476562 C 58.445312 62.476562 62.476562 58.445312 62.476562 53.476562 C 62.476562 48.503906 58.445312 44.476562 53.476562 44.476562 M 321.523438 44.476562 C 316.554688 44.476562 312.523438 48.503906 312.523438 53.476562 C 312.523438 58.445312 316.554688 62.476562 321.523438 62.476562 C 326.496094 62.476562 330.523438 58.445312 330.523438 53.476562 C 330.523438 48.503906 326.496094 44.476562 321.523438 44.476562 M 321.523438 312.523438 C 316.554688 312.523438 312.523438 316.554688 312.523438 321.523438 C 312.523438 326.496094 316.554688 330.523438 321.523438 330.523438 C 326.496094 330.523438 330.523438 326.496094 330.523438 321.523438 C 330.523438 316.554688 326.496094 312.523438 321.523438 312.523438 " fill-opacity="1" fill-rule="nonzero"/><path fill="#d3c2bb" d="M 375 62.476562 L 375 33.375 C 368.101562 30.75 361.125 26.25 354.898438 20.101562 C 348.75 13.875 344.25 6.898438 341.625 0 L 33.375 0 C 30.75 6.898438 26.25 13.875 20.101562 20.101562 C 13.875 26.25 6.898438 30.75 0 33.375 L 0 341.625 C 1.726562 342.300781 3.449219 343.050781 5.175781 343.949219 C 5.625 344.175781 6 344.398438 6.449219 344.625 C 6.75 344.773438 7.050781 344.925781 7.351562 345.148438 C 7.425781 345.148438 7.5 345.226562 7.574219 345.300781 C 7.800781 345.375 7.949219 345.523438 8.175781 345.675781 C 10.351562 347.023438 12.523438 348.523438 14.699219 350.175781 C 15.074219 350.476562 15.449219 350.773438 15.824219 351.148438 C 16.125 351.375 16.351562 351.601562 16.574219 351.824219 C 17.324219 352.5 18.074219 353.175781 18.824219 353.925781 C 19.199219 354.300781 19.574219 354.675781 20.023438 355.050781 C 20.398438 355.425781 20.773438 355.800781 21.148438 356.25 C 21.824219 357 22.574219 357.75 23.25 358.5 C 23.476562 358.800781 23.699219 359.023438 23.925781 359.324219 L 24.824219 360.449219 C 25.050781 360.675781 25.199219 360.976562 25.425781 361.199219 C 25.800781 361.648438 26.175781 362.175781 26.550781 362.625 C 27 363.226562 27.375 363.824219 27.75 364.351562 C 28.875 366.074219 29.925781 367.800781 30.898438 369.601562 C 31.050781 369.898438 31.199219 370.125 31.273438 370.425781 L 31.5 370.875 C 31.648438 371.175781 31.800781 371.476562 31.875 371.699219 C 32.398438 372.824219 32.925781 373.949219 33.300781 375.148438 L 341.550781 375.148438 C 344.175781 368.25 348.675781 361.273438 354.824219 355.050781 C 357.148438 352.726562 359.550781 350.625 362.101562 348.824219 C 363.375 347.925781 364.648438 347.023438 365.925781 346.273438 C 366.75 345.75 367.648438 345.226562 368.476562 344.773438 C 369.300781 344.324219 370.199219 343.875 371.023438 343.425781 C 372.300781 342.824219 373.648438 342.226562 374.925781 341.773438 L 375 62.476562 M 351.675781 316.949219 C 351.675781 336.148438 336.148438 351.675781 316.949219 351.675781 L 58.050781 351.675781 C 38.851562 351.675781 23.324219 336.148438 23.324219 316.949219 L 23.324219 58.050781 C 23.324219 38.851562 38.851562 23.324219 58.050781 23.324219 L 316.949219 23.324219 C 336.148438 23.324219 351.675781 38.851562 351.675781 58.050781 L 351.675781 316.949219 " fill-opacity="1" fill-rule="nonzero"/><g clip-path="url(#id1)"><path fill="#1d918a" d="M 266.003906 174.523438 C 264.136719 165.589844 279.136719 168.511719 277.953125 176.285156 C 277.519531 179.144531 274.859375 180.105469 270.574219 179.804688 C 269.058594 177.191406 266.484375 176.8125 266.003906 174.523438 Z M 270.222656 172.765625 C 270.640625 174.339844 271.492188 175.480469 272.683594 176.285156 C 272.828125 175.492188 274.609375 176.339844 274.441406 175.230469 C 273.273438 174.3125 271.933594 171.996094 270.222656 172.765625 " fill-opacity="1" fill-rule="nonzero"/></g><path fill="#1d918a" d="M 233.316406 243.164062 C 238.746094 237.808594 236.480469 224.742188 240.699219 218.171875 C 234.867188 210.992188 233.4375 198.6875 224.878906 194.238281 C 222.429688 192.960938 219.085938 192.144531 215.742188 191.421875 C 215.722656 191.871094 215.292969 191.910156 215.390625 192.476562 C 214.160156 195.273438 213.007812 198.164062 212.929688 201.628906 C 212.765625 209.113281 211.582031 217.914062 210.820312 225.5625 C 208.179688 227.171875 206.84375 230.339844 207.308594 233.308594 C 212.179688 234.980469 216.996094 235.550781 221.367188 237.179688 C 225.824219 238.839844 229.070312 241.726562 233.316406 243.164062 Z M 255.460938 242.8125 C 258.015625 237.6875 255.433594 229.234375 254.054688 225.914062 C 252.097656 224.785156 250.621094 227.164062 248.078125 226.621094 C 247.941406 226.53125 247.808594 226.4375 247.679688 226.335938 C 247.613281 226.289062 247.550781 226.238281 247.488281 226.1875 C 247.425781 226.136719 247.367188 226.085938 247.304688 226.03125 C 247.183594 225.925781 247.066406 225.816406 246.949219 225.703125 C 246.933594 225.691406 246.921875 225.675781 246.90625 225.664062 C 246.890625 225.648438 246.878906 225.632812 246.863281 225.621094 C 245.953125 224.714844 245.207031 223.644531 244.300781 222.730469 C 244.273438 222.703125 244.246094 222.675781 244.214844 222.648438 C 244.1875 222.617188 244.15625 222.589844 244.128906 222.5625 C 244.101562 222.535156 244.070312 222.507812 244.042969 222.480469 C 243.984375 222.425781 243.921875 222.371094 243.863281 222.316406 C 243.441406 221.941406 242.984375 221.605469 242.457031 221.339844 C 239.886719 227.425781 239.90625 235.480469 237.886719 241.757812 C 243.457031 242.925781 249.941406 241.339844 255.460938 242.8125 Z M 271.277344 212.1875 C 271.65625 214.5625 270.433594 216.894531 270.222656 218.523438 C 268.777344 229.664062 274.859375 237.46875 265.652344 242.460938 C 264.175781 243.261719 262.125 243.074219 260.378906 243.867188 C 258.519531 244.710938 257.8125 246.699219 255.8125 247.035156 C 254.269531 247.296875 252.429688 246.101562 250.539062 245.980469 C 246.523438 245.722656 240.742188 245.554688 237.535156 245.980469 C 235.84375 246.203125 234.625 247.351562 233.316406 247.386719 C 228.457031 247.519531 223.265625 241.40625 218.203125 239.996094 C 213.082031 238.570312 203.667969 238.75 202.738281 233.308594 C 202.511719 231.992188 203.582031 230.042969 204.144531 227.675781 C 204.625 225.644531 204.75 223.429688 205.199219 221.691406 C 206.117188 218.125 207.828125 214.511719 208.011719 210.78125 C 208.152344 207.894531 207.378906 205.121094 207.660156 202.683594 C 207.847656 201.035156 209.148438 199.550781 209.417969 197.40625 C 209.660156 195.460938 208.660156 193.265625 209.066406 191.421875 C 210.273438 185.894531 219.0625 181.503906 224.878906 180.507812 C 226.902344 180.164062 230.996094 180.640625 235.777344 180.859375 C 241.734375 181.136719 246.390625 180.09375 249.835938 182.621094 C 251.375 183.75 253.511719 188.027344 255.109375 190.363281 C 256.875 192.949219 259.621094 195.808594 262.140625 199.164062 C 265.386719 203.496094 270.402344 206.710938 271.277344 212.1875 Z M 217.851562 188.253906 C 220.335938 190.234375 223.105469 190.226562 225.582031 191.421875 C 237.796875 197.304688 237.511719 217.1875 249.484375 223.453125 C 252.722656 221.96875 255.945312 223.464844 258.972656 224.15625 C 261.082031 221.6875 263.488281 219.523438 266.003906 217.46875 C 264.835938 214.78125 267.226562 215.386719 267.761719 213.597656 C 264.613281 207.773438 260.222656 201.988281 255.8125 197.050781 C 253.148438 194.070312 251.613281 190.398438 249.484375 187.902344 C 246.023438 183.84375 241.898438 185.527344 235.777344 185.085938 C 229.390625 184.625 222.105469 182.988281 217.851562 188.253906 Z M 257.921875 228.027344 C 257.566406 231.707031 260.515625 234.8125 259.328125 239.644531 C 262.234375 240.078125 264.855469 238.503906 266.574219 236.457031 C 266.636719 236.382812 266.695312 236.308594 266.757812 236.234375 C 267.144531 235.746094 267.484375 235.230469 267.761719 234.714844 C 268 229.3125 266.382812 225.769531 266.003906 220.988281 C 264.136719 222.269531 262.695312 224.59375 261.03125 226.230469 C 260.992188 226.269531 260.953125 226.3125 260.910156 226.351562 C 260.890625 226.371094 260.871094 226.390625 260.847656 226.40625 C 260.808594 226.445312 260.765625 226.484375 260.726562 226.523438 C 260.707031 226.542969 260.683594 226.558594 260.664062 226.578125 C 260.621094 226.617188 260.582031 226.652344 260.539062 226.6875 C 260.519531 226.707031 260.496094 226.726562 260.476562 226.742188 C 260.433594 226.777344 260.390625 226.8125 260.351562 226.847656 C 260.308594 226.882812 260.265625 226.917969 260.222656 226.949219 C 260.179688 226.984375 260.136719 227.015625 260.09375 227.050781 C 260.03125 227.097656 259.964844 227.144531 259.898438 227.191406 C 259.835938 227.238281 259.769531 227.28125 259.703125 227.324219 C 259.636719 227.367188 259.570312 227.40625 259.503906 227.449219 C 259.433594 227.488281 259.367188 227.523438 259.296875 227.5625 C 259.210938 227.605469 259.128906 227.648438 259.039062 227.691406 C 259.011719 227.703125 258.980469 227.714844 258.953125 227.730469 C 258.910156 227.746094 258.867188 227.761719 258.828125 227.78125 C 258.535156 227.894531 258.234375 227.980469 257.921875 228.027344 " fill-opacity="1" fill-rule="nonzero"/><path fill="#1d918a" d="M 228.042969 157.628906 C 228.3125 160.765625 234.339844 160.003906 236.480469 160.09375 C 233.761719 159.179688 231.390625 157.914062 228.042969 157.628906 Z M 241.753906 144.605469 C 244.097656 149.476562 241.808594 156.09375 240.699219 162.558594 C 238.269531 166.476562 233.4375 163.199219 227.695312 163.613281 C 223.171875 163.9375 219.558594 165.789062 216.796875 165.371094 C 213.976562 164.945312 210.066406 161.34375 209.066406 159.390625 C 205.546875 152.519531 210.753906 141.941406 213.984375 136.859375 C 216.367188 136.257812 219.421875 135.195312 222.421875 136.15625 C 223.699219 136.566406 225.539062 138.734375 226.988281 139.324219 C 232.976562 141.765625 239.089844 139.070312 241.753906 144.605469 Z M 212.859375 149.949219 C 212.875 150.007812 212.890625 150.066406 212.910156 150.125 C 212.957031 150.265625 213.007812 150.410156 213.0625 150.550781 C 213.085938 150.605469 213.109375 150.660156 213.132812 150.714844 C 213.15625 150.773438 213.179688 150.828125 213.207031 150.882812 C 213.246094 150.964844 213.285156 151.046875 213.328125 151.125 C 213.355469 151.179688 213.382812 151.234375 213.414062 151.285156 C 213.433594 151.320312 213.453125 151.355469 213.472656 151.390625 C 213.574219 151.566406 213.679688 151.734375 213.796875 151.898438 C 213.84375 151.964844 213.890625 152.03125 213.941406 152.09375 C 214.0625 152.257812 214.195312 152.414062 214.332031 152.566406 C 214.359375 152.597656 214.386719 152.628906 214.414062 152.660156 C 214.472656 152.71875 214.53125 152.777344 214.589844 152.835938 C 216.671875 154.917969 220.277344 156.035156 224.882812 155.164062 C 224.808594 151.367188 223.222656 149.082031 221.175781 147.261719 C 221.054688 147.148438 220.925781 147.039062 220.800781 146.933594 C 220.671875 146.828125 220.542969 146.722656 220.414062 146.617188 C 220.285156 146.511719 220.152344 146.410156 220.019531 146.308594 C 219.953125 146.253906 219.886719 146.203125 219.820312 146.152344 C 219.6875 146.050781 219.554688 145.953125 219.417969 145.851562 C 219.148438 145.652344 218.878906 145.457031 218.605469 145.261719 C 218.398438 145.113281 218.195312 144.96875 217.988281 144.820312 C 217.921875 144.769531 217.851562 144.722656 217.785156 144.671875 C 217.511719 144.476562 217.242188 144.277344 216.972656 144.078125 C 216.769531 143.929688 216.570312 143.777344 216.375 143.625 C 216.242188 143.519531 216.109375 143.417969 215.980469 143.308594 C 215.820312 143.179688 215.660156 143.046875 215.503906 142.910156 C 215.347656 142.773438 215.191406 142.632812 215.039062 142.492188 C 213.253906 144.453125 212.503906 146.570312 212.613281 148.515625 C 212.617188 148.578125 212.621094 148.640625 212.625 148.699219 C 212.648438 148.976562 212.691406 149.246094 212.746094 149.511719 C 212.761719 149.570312 212.773438 149.628906 212.785156 149.6875 C 212.796875 149.71875 212.800781 149.746094 212.808594 149.777344 C 212.824219 149.835938 212.839844 149.894531 212.859375 149.949219 Z M 211.875 155.164062 C 212.636719 157.34375 214.335938 161.03125 217.5 161.5 C 218.117188 161.59375 219.570312 161.507812 221.03125 161.1875 C 221.125 161.167969 221.222656 161.144531 221.316406 161.121094 C 221.675781 161.035156 222.03125 160.933594 222.371094 160.820312 C 222.460938 160.789062 222.550781 160.757812 222.640625 160.726562 C 222.753906 160.683594 222.859375 160.640625 222.964844 160.597656 C 223.007812 160.578125 223.050781 160.558594 223.09375 160.542969 C 223.136719 160.523438 223.175781 160.503906 223.214844 160.488281 C 223.277344 160.457031 223.335938 160.429688 223.398438 160.398438 C 223.445312 160.375 223.492188 160.351562 223.539062 160.324219 C 223.550781 160.320312 223.558594 160.3125 223.570312 160.308594 C 223.609375 160.289062 223.644531 160.265625 223.679688 160.246094 C 224.011719 160.054688 224.296875 159.839844 224.511719 159.601562 C 224.535156 159.578125 224.558594 159.550781 224.582031 159.523438 C 224.617188 159.480469 224.648438 159.441406 224.675781 159.398438 C 224.695312 159.371094 224.714844 159.339844 224.734375 159.3125 C 224.976562 158.925781 225.046875 158.484375 224.882812 157.980469 C 223.25 158.242188 221.742188 158.242188 220.355469 158.082031 C 220.21875 158.066406 220.085938 158.050781 219.953125 158.03125 C 219.421875 157.957031 218.910156 157.859375 218.417969 157.742188 C 218.292969 157.714844 218.171875 157.683594 218.050781 157.652344 C 217.988281 157.636719 217.929688 157.621094 217.867188 157.605469 C 217.75 157.574219 217.628906 157.542969 217.511719 157.507812 C 217.453125 157.492188 217.394531 157.472656 217.335938 157.457031 C 217.222656 157.421875 217.105469 157.386719 216.992188 157.351562 C 216.878906 157.3125 216.765625 157.277344 216.652344 157.238281 C 216.542969 157.203125 216.429688 157.164062 216.320312 157.125 C 216.265625 157.105469 216.210938 157.085938 216.160156 157.066406 C 216.050781 157.027344 215.945312 156.988281 215.839844 156.945312 L 215.835938 156.945312 C 215.730469 156.90625 215.628906 156.867188 215.523438 156.824219 C 215.421875 156.785156 215.320312 156.742188 215.21875 156.703125 C 215.117188 156.660156 215.015625 156.617188 214.917969 156.578125 C 214.769531 156.515625 214.625 156.453125 214.480469 156.386719 C 214.386719 156.347656 214.292969 156.304688 214.199219 156.261719 C 214.105469 156.21875 214.015625 156.179688 213.925781 156.136719 C 213.878906 156.117188 213.835938 156.09375 213.792969 156.074219 C 213.699219 156.03125 213.613281 155.992188 213.527344 155.949219 C 213.351562 155.867188 213.183594 155.789062 213.019531 155.707031 C 212.894531 155.648438 212.773438 155.59375 212.65625 155.535156 C 212.539062 155.476562 212.425781 155.421875 212.3125 155.371094 C 212.238281 155.335938 212.164062 155.300781 212.09375 155.265625 C 212.019531 155.230469 211.949219 155.199219 211.875 155.164062 Z M 219.203125 142.148438 C 219.296875 142.242188 219.390625 142.332031 219.496094 142.414062 C 219.546875 142.457031 219.597656 142.5 219.652344 142.539062 C 219.707031 142.582031 219.761719 142.621094 219.816406 142.660156 C 219.875 142.703125 219.929688 142.742188 219.988281 142.777344 C 220.046875 142.816406 220.105469 142.855469 220.167969 142.894531 C 220.226562 142.929688 220.285156 142.964844 220.347656 143.003906 C 221.492188 143.679688 222.898438 144.238281 223.828125 145.308594 C 225.9375 147.738281 226.804688 151.253906 227.695312 154.8125 C 231.882812 154.574219 234.628906 157.378906 238.238281 156.574219 C 239.503906 154.359375 238.972656 149.132812 238.589844 146.367188 C 236.347656 142.445312 229.820312 145.082031 224.882812 142.84375 C 221.800781 141.449219 220.800781 138.167969 218.554688 140.027344 L 218.554688 141.085938 C 218.683594 141.5 218.910156 141.847656 219.203125 142.148438 " fill-opacity="1" fill-rule="nonzero"/><g clip-path="url(#id2)"><path fill="#1d918a" d="M 124.710938 222.75 C 128.628906 225.25 133.199219 229.171875 139.121094 227.324219 C 131.585938 224.660156 127.417969 218.628906 123.65625 212.1875 C 121.199219 212.089844 114.898438 210.3125 111 209.371094 C 110.972656 209.460938 110.945312 209.550781 110.914062 209.636719 C 110.867188 209.765625 110.816406 209.890625 110.765625 210.015625 C 110.734375 210.101562 110.699219 210.183594 110.664062 210.265625 C 110.609375 210.390625 110.554688 210.511719 110.503906 210.632812 C 110.484375 210.671875 110.464844 210.714844 110.449219 210.753906 C 110.410156 210.835938 110.375 210.914062 110.339844 210.996094 C 109.996094 211.765625 109.671875 212.558594 109.59375 213.597656 C 113.898438 217.238281 120.011719 219.75 124.710938 222.75 Z M 161.964844 137.566406 C 164.226562 136.074219 165.921875 134.019531 166.886719 131.230469 C 162.433594 128.621094 158.785156 123.535156 152.828125 123.132812 C 147.292969 122.761719 140.792969 126.167969 135.253906 127.710938 C 145.453125 129.699219 154.996094 132.34375 161.964844 137.566406 Z M 184.8125 223.804688 C 185.109375 221.394531 185.933594 219.226562 185.515625 217.117188 C 185.21875 215.609375 181.390625 208.976562 180.59375 208.316406 C 176.136719 214.128906 164.773438 214.589844 157.75 210.78125 C 153.769531 212.472656 155.691406 217.421875 154.234375 220.988281 C 153.046875 223.898438 149.15625 223.734375 148.257812 226.621094 C 160.230469 225.175781 173.707031 226.753906 184.8125 223.804688 Z M 197.464844 187.550781 C 197.367188 193.871094 201.828125 201.917969 201.332031 209.019531 C 201.007812 213.664062 198.304688 213.171875 195.355469 216.765625 C 192.574219 220.15625 191.476562 222.320312 188.328125 225.210938 C 187.214844 226.234375 186.609375 227.292969 185.867188 227.675781 C 183.984375 228.648438 177.796875 229.777344 174.269531 230.140625 C 166.171875 230.972656 158.027344 229.722656 148.257812 230.84375 C 142.125 231.550781 135.082031 233.230469 129.277344 230.84375 C 127.320312 230.039062 125.75 228.007812 123.65625 226.621094 C 119.734375 224.027344 107.234375 219.433594 106.082031 215.003906 C 105.308594 212.039062 107.300781 210.085938 107.488281 207.613281 C 107.800781 203.46875 104.890625 198.113281 103.269531 192.828125 C 101.496094 187.050781 100.800781 181.890625 99.402344 177.691406 C 98.804688 175.90625 96.746094 173.234375 96.941406 171.359375 C 97.277344 168.167969 103.476562 166.125 105.726562 163.964844 C 113.660156 156.363281 117.929688 142.792969 122.25 131.582031 C 126.863281 126.179688 133.449219 123.078125 142.285156 121.023438 C 144.929688 120.40625 147.941406 119.179688 150.367188 118.910156 C 160.730469 117.753906 165.90625 126.707031 172.511719 130.527344 C 174.570312 137.378906 178.242188 142.621094 182 147.773438 C 185.210938 148.820312 186.855469 151.910156 189.382812 154.8125 C 192.644531 158.558594 195.261719 162.109375 197.464844 167.132812 C 196.613281 172.527344 199.375 175.433594 199.222656 179.804688 C 199.140625 182.214844 197.511719 184.554688 197.464844 187.550781 Z M 173.566406 174.878906 C 180.554688 177.148438 185.816406 181.148438 187.976562 188.253906 C 189.828125 186.585938 188.175781 184.773438 187.976562 182.621094 C 187.476562 177.261719 190.382812 172.828125 192.898438 169.597656 C 191.785156 168.621094 192.558594 167.640625 192.898438 166.429688 C 189.980469 160.902344 185.890625 156.546875 181.648438 152.347656 C 178.144531 157.523438 172.246094 160.296875 171.457031 168.1875 C 172.972656 169.605469 173.214844 172.296875 173.566406 174.878906 Z M 111.703125 206.203125 C 114.757812 207.371094 118.628906 207.71875 121.898438 208.667969 C 122.042969 206.992188 122.011719 205.488281 121.859375 204.113281 C 121.84375 203.972656 121.828125 203.835938 121.808594 203.699219 C 121.78125 203.492188 121.75 203.292969 121.71875 203.09375 C 121.695312 202.960938 121.671875 202.828125 121.648438 202.695312 C 121.589844 202.371094 121.519531 202.050781 121.445312 201.738281 C 121.417969 201.613281 121.386719 201.488281 121.355469 201.367188 C 121.324219 201.242188 121.292969 201.121094 121.257812 201 C 121.222656 200.878906 121.191406 200.757812 121.15625 200.640625 C 121.121094 200.519531 121.082031 200.402344 121.046875 200.285156 C 121.027344 200.226562 121.007812 200.167969 120.988281 200.109375 C 120.933594 199.933594 120.875 199.757812 120.816406 199.585938 C 120.765625 199.445312 120.714844 199.300781 120.660156 199.160156 C 120.609375 199.019531 120.554688 198.882812 120.5 198.742188 C 120.433594 198.574219 120.367188 198.410156 120.300781 198.246094 C 120.277344 198.191406 120.253906 198.136719 120.230469 198.082031 C 120.183594 197.972656 120.136719 197.867188 120.089844 197.757812 C 120.042969 197.652344 119.996094 197.542969 119.949219 197.4375 C 119.875 197.277344 119.804688 197.117188 119.730469 196.960938 C 119.679688 196.855469 119.632812 196.75 119.582031 196.644531 C 119.554688 196.59375 119.53125 196.539062 119.503906 196.488281 C 119.40625 196.28125 119.304688 196.070312 119.199219 195.867188 C 119.046875 195.554688 118.890625 195.246094 118.734375 194.941406 C 118.578125 194.808594 118.421875 194.671875 118.265625 194.535156 C 117.957031 194.257812 117.644531 193.976562 117.335938 193.6875 C 117.238281 193.597656 117.140625 193.507812 117.046875 193.414062 C 116.851562 193.234375 116.660156 193.046875 116.464844 192.859375 C 116.371094 192.769531 116.273438 192.675781 116.179688 192.578125 C 116.023438 192.429688 115.871094 192.277344 115.714844 192.125 C 115.636719 192.046875 115.5625 191.96875 115.484375 191.894531 C 113.792969 190.199219 112.117188 188.394531 110.4375 186.703125 C 110.398438 186.664062 110.363281 186.625 110.324219 186.585938 C 110.207031 186.472656 110.09375 186.359375 109.980469 186.242188 C 109.789062 186.054688 109.597656 185.863281 109.40625 185.679688 C 109.292969 185.566406 109.175781 185.457031 109.0625 185.34375 C 108.792969 185.085938 108.527344 184.835938 108.257812 184.585938 C 108.179688 184.515625 108.105469 184.445312 108.027344 184.375 C 107.914062 184.269531 107.796875 184.167969 107.683594 184.0625 C 107.605469 183.996094 107.53125 183.925781 107.453125 183.859375 C 107.375 183.792969 107.296875 183.722656 107.222656 183.65625 C 107.144531 183.589844 107.066406 183.523438 106.992188 183.457031 C 106.914062 183.394531 106.835938 183.328125 106.761719 183.261719 C 106.296875 182.875 105.835938 182.507812 105.371094 182.164062 C 105.292969 182.109375 105.214844 182.050781 105.136719 181.996094 C 104.75 181.714844 104.363281 181.457031 103.972656 181.214844 C 106.027344 190.066406 108.785156 198.214844 111.703125 206.203125 Z M 110.296875 182.269531 C 112.800781 184.59375 117.132812 191.046875 120.140625 191.773438 C 122.046875 192.230469 125.292969 191.058594 127.871094 190.71875 C 132.445312 190.113281 136.578125 190.414062 140.175781 190.011719 C 142.027344 189.804688 144.09375 186.859375 145.796875 185.085938 C 149.789062 180.933594 151.597656 176.078125 151.070312 168.894531 C 141.824219 161.726562 128.003906 159.140625 118.03125 152.699219 C 114.070312 160.703125 107.992188 166.585938 101.511719 172.0625 C 102.910156 176.144531 106.472656 178.714844 110.296875 182.269531 Z M 119.085938 148.828125 C 127.46875 156.390625 141.585938 158.210938 151.070312 164.667969 C 153.316406 158.820312 155.40625 152.820312 157.589844 146.910156 C 157.78125 146.398438 157.96875 145.882812 158.160156 145.371094 C 158.351562 144.859375 158.546875 144.347656 158.738281 143.835938 C 159.101562 142.878906 159.464844 141.925781 159.835938 140.976562 C 159.960938 140.660156 160.085938 140.34375 160.210938 140.03125 L 160.207031 140.03125 C 155.027344 135.316406 140.832031 130.46875 131.738281 130.527344 C 130.332031 130.535156 129.402344 131.230469 128.570312 132.0625 C 128.558594 132.078125 128.542969 132.09375 128.527344 132.105469 C 128.511719 132.121094 128.496094 132.136719 128.484375 132.152344 C 128.363281 132.277344 128.242188 132.402344 128.125 132.527344 C 127.964844 132.699219 127.808594 132.867188 127.648438 133.035156 C 127.609375 133.078125 127.570312 133.121094 127.53125 133.160156 C 127.5 133.191406 127.472656 133.21875 127.441406 133.25 C 127.414062 133.28125 127.382812 133.308594 127.355469 133.339844 C 126.707031 133.988281 126.003906 134.546875 125.0625 134.75 C 124.929688 135.035156 124.796875 135.320312 124.664062 135.605469 C 124.398438 136.175781 124.136719 136.75 123.875 137.324219 C 123.746094 137.609375 123.613281 137.898438 123.484375 138.1875 C 123.386719 138.402344 123.289062 138.617188 123.191406 138.835938 C 121.742188 142.085938 120.355469 145.398438 119.085938 148.828125 Z M 126.464844 210.78125 C 129.21875 216.148438 135.109375 225.207031 142.285156 225.210938 C 146.398438 225.214844 148.480469 221.222656 151.773438 219.226562 C 151.59375 213.882812 153.058594 210.191406 155.640625 207.613281 C 154.515625 206.742188 154.125 205.140625 153.179688 204.09375 C 144.972656 204.332031 143.996094 197.332031 140.527344 192.828125 C 133.984375 193.433594 126.917969 193.515625 121.546875 195.292969 C 123.898438 199.398438 124.960938 203.683594 124.710938 209.726562 C 124.933594 210.4375 126.351562 209.957031 126.464844 210.78125 Z M 154.234375 165.019531 C 157.917969 162.488281 164.453125 170.128906 169.347656 165.371094 C 169.375 157.304688 176.535156 156.378906 178.835938 150.589844 C 178.074219 149.480469 177.332031 148.347656 176.609375 147.203125 C 175.988281 146.21875 175.375 145.222656 174.773438 144.222656 C 172.859375 141.054688 170.996094 137.832031 168.996094 134.75 C 167.796875 136.164062 166.84375 137.832031 165.511719 139.117188 C 165.355469 139.269531 165.191406 139.414062 165.019531 139.558594 C 164.917969 139.640625 164.8125 139.726562 164.707031 139.804688 C 164.636719 139.855469 164.5625 139.910156 164.488281 139.960938 C 164.046875 140.265625 163.5625 140.527344 163.019531 140.734375 C 159.363281 147.863281 155.894531 157.0625 154.234375 165.019531 Z M 156.695312 204.09375 C 159.0625 212.296875 173.691406 211.140625 178.484375 206.203125 C 176.960938 203.390625 180.667969 199.398438 179.890625 197.757812 C 172.296875 200.007812 166.230469 203.789062 156.695312 204.09375 Z M 185.164062 188.605469 C 184.035156 181.050781 176.707031 179.710938 171.105469 176.636719 C 170.207031 174.71875 170.363281 171.75 169.347656 169.949219 C 163.265625 170.523438 159.566406 168.71875 155.289062 167.484375 C 155.230469 167.5625 155.175781 167.636719 155.121094 167.710938 C 155.066406 167.789062 155.015625 167.863281 154.96875 167.941406 C 154.84375 168.132812 154.730469 168.324219 154.625 168.519531 C 154.480469 168.792969 154.355469 169.070312 154.25 169.347656 C 154.214844 169.4375 154.183594 169.523438 154.152344 169.609375 C 154.113281 169.726562 154.074219 169.84375 154.039062 169.960938 C 154.003906 170.078125 153.972656 170.199219 153.941406 170.316406 C 153.933594 170.34375 153.925781 170.375 153.921875 170.40625 C 153.898438 170.492188 153.878906 170.582031 153.859375 170.671875 C 153.851562 170.703125 153.847656 170.730469 153.839844 170.761719 C 153.828125 170.820312 153.816406 170.882812 153.804688 170.941406 C 153.792969 171 153.785156 171.058594 153.773438 171.121094 C 153.742188 171.300781 153.714844 171.480469 153.695312 171.664062 C 153.6875 171.722656 153.679688 171.785156 153.671875 171.84375 C 153.414062 174.210938 153.742188 176.695312 153.179688 179.101562 C 151.746094 185.230469 146.222656 187.035156 143.6875 192.125 C 145.527344 195.5625 146.964844 199.40625 150.71875 200.925781 C 160.753906 202.46875 171.378906 197.289062 180.945312 194.238281 C 182.078125 192.082031 184.203125 190.925781 185.164062 188.605469 Z M 185.867188 195.996094 C 177.320312 202.082031 187.410156 211.160156 187.976562 219.582031 C 191.179688 217.742188 193.785156 212.257812 197.464844 209.726562 C 198.519531 201.175781 194.25 195.109375 193.601562 188.253906 C 193.101562 182.988281 197.484375 177.617188 193.953125 173.117188 C 192.625 175.808594 190.683594 177.492188 190.789062 181.214844 C 190.847656 183.363281 192.242188 185.113281 191.84375 187.195312 C 191.25 190.261719 188.367188 191.46875 185.515625 192.828125 C 184.765625 193.683594 186.351562 194.332031 185.867188 195.996094 " fill-opacity="1" fill-rule="nonzero"/></g><g clip-path="url(#id3)"><path fill="#1d918a" d="M 190.4375 248.089844 C 191.195312 253.292969 188.554688 256.921875 184.109375 257.246094 C 181.191406 257.453125 174.929688 254.992188 174.621094 252.316406 C 174.539062 251.640625 176.609375 246.582031 177.429688 245.277344 C 180.792969 239.933594 187.367188 243.617188 190.4375 248.089844 Z M 179.890625 251.613281 C 181.925781 254.296875 187.210938 253.453125 187.273438 249.5 C 185.078125 246.15625 179.171875 244.941406 179.890625 251.613281 " fill-opacity="1" fill-rule="nonzero"/></g><path fill="#1d918a" d="M 124.007812 244.925781 C 127.65625 244.238281 132.011719 245.609375 131.035156 250.203125 C 130.054688 254.835938 120.136719 255.671875 119.4375 250.203125 C 119.070312 247.34375 120.21875 245.636719 124.007812 244.925781 Z M 122.953125 249.5 C 123.566406 250.382812 125.785156 250.460938 126.554688 249.511719 C 126.570312 249.492188 126.585938 249.472656 126.601562 249.449219 C 126.617188 249.429688 126.632812 249.40625 126.644531 249.382812 C 126.652344 249.371094 126.660156 249.363281 126.664062 249.351562 C 126.679688 249.328125 126.691406 249.304688 126.703125 249.28125 C 126.769531 249.136719 126.8125 248.976562 126.816406 248.796875 C 125.421875 248.464844 123.460938 248.089844 122.953125 249.5 " fill-opacity="1" fill-rule="nonzero"/></svg>