<svg xmlns="http://www.w3.org/2000/svg" xmlns:xlink="http://www.w3.org/1999/xlink" width="500" zoomAndPan="magnify" viewBox="0 0 375 374.999991" height="500" preserveAspectRatio="xMidYMid meet" version="1.0"><defs><clipPath id="id1"><path d="M 112.5 244 L 205 244 L 205 251.34375 L 112.5 251.34375 Z M 112.5 244 " clip-rule="nonzero"/></clipPath><clipPath id="id2"><path d="M 212 244 L 222 244 L 222 251.34375 L 212 251.34375 Z M 212 244 " clip-rule="nonzero"/></clipPath><clipPath id="id3"><path d="M 227 244 L 262.5 244 L 262.5 251.34375 L 227 251.34375 Z M 227 244 " clip-rule="nonzero"/></clipPath><clipPath id="id4"><path d="M 184 123.84375 L 192 123.84375 L 192 131 L 184 131 Z M 184 123.84375 " clip-rule="nonzero"/></clipPath></defs><path fill="#ffffff" d="M 351.675781 58.050781 L 351.675781 316.949219 C 351.675781 336.148438 336.148438 351.675781 316.949219 351.675781 L 58.050781 351.675781 C 38.851562 351.675781 23.324219 336.148438 23.324219 316.949219 L 23.324219 58.050781 C 23.324219 38.851562 38.851562 23.324219 58.050781 23.324219 L 316.949219 23.324219 C 336.148438 23.324219 351.675781 38.851562 351.675781 58.050781 " fill-opacity="1" fill-rule="nonzero"/><path fill="#3a3d41" d="M 53.476562 312.523438 C 48.503906 312.523438 44.476562 316.554688 44.476562 321.523438 C 44.476562 326.496094 48.503906 330.523438 53.476562 330.523438 C 58.445312 330.523438 62.476562 326.496094 62.476562 321.523438 C 62.476562 316.554688 58.445312 312.523438 53.476562 312.523438 M 53.476562 44.476562 C 48.503906 44.476562 44.476562 48.503906 44.476562 53.476562 C 44.476562 58.445312 48.503906 62.476562 53.476562 62.476562 C 58.445312 62.476562 62.476562 58.445312 62.476562 53.476562 C 62.476562 48.503906 58.445312 44.476562 53.476562 44.476562 M 321.523438 44.476562 C 316.554688 44.476562 312.523438 48.503906 312.523438 53.476562 C 312.523438 58.445312 316.554688 62.476562 321.523438 62.476562 C 326.496094 62.476562 330.523438 58.445312 330.523438 53.476562 C 330.523438 48.503906 326.496094 44.476562 321.523438 44.476562 M 321.523438 312.523438 C 316.554688 312.523438 312.523438 316.554688 312.523438 321.523438 C 312.523438 326.496094 316.554688 330.523438 321.523438 330.523438 C 326.496094 330.523438 330.523438 326.496094 330.523438 321.523438 C 330.523438 316.554688 326.496094 312.523438 321.523438 312.523438 " fill-opacity="1" fill-rule="nonzero"/><path fill="#d3c2bb" d="M 375 62.476562 L 375 33.375 C 368.101562 30.75 361.125 26.25 354.898438 20.101562 C 348.75 13.875 344.25 6.898438 341.625 0 L 33.375 0 C 30.75 6.898438 26.25 13.875 20.101562 20.101562 C 13.875 26.25 6.898438 30.75 0 33.375 L 0 341.625 C 1.726562 342.300781 3.449219 343.050781 5.175781 343.949219 C 5.625 344.175781 6 344.398438 6.449219 344.625 C 6.75 344.773438 7.050781 344.925781 7.351562 345.148438 C 7.425781 345.148438 7.5 345.226562 7.574219 345.300781 C 7.800781 345.375 7.949219 345.523438 8.175781 345.675781 C 10.351562 347.023438 12.523438 348.523438 14.699219 350.175781 C 15.074219 350.476562 15.449219 350.773438 15.824219 351.148438 C 16.125 351.375 16.351562 351.601562 16.574219 351.824219 C 17.324219 352.5 18.074219 353.175781 18.824219 353.925781 C 19.199219 354.300781 19.574219 354.675781 20.023438 355.050781 C 20.398438 355.425781 20.773438 355.800781 21.148438 356.25 C 21.824219 357 22.574219 357.75 23.25 358.5 C 23.476562 358.800781 23.699219 359.023438 23.925781 359.324219 L 24.824219 360.449219 C 25.050781 360.675781 25.199219 360.976562 25.425781 361.199219 C 25.800781 361.648438 26.175781 362.175781 26.550781 362.625 C 27 363.226562 27.375 363.824219 27.75 364.351562 C 28.875 366.074219 29.925781 367.800781 30.898438 369.601562 C 31.050781 369.898438 31.199219 370.125 31.273438 370.425781 L 31.5 370.875 C 31.648438 371.175781 31.800781 371.476562 31.875 371.699219 C 32.398438 372.824219 32.925781 373.949219 33.300781 375.148438 L 341.550781 375.148438 C 344.175781 368.25 348.675781 361.273438 354.824219 355.050781 C 357.148438 352.726562 359.550781 350.625 362.101562 348.824219 C 363.375 347.925781 364.648438 347.023438 365.925781 346.273438 C 366.75 345.75 367.648438 345.226562 368.476562 344.773438 C 369.300781 344.324219 370.199219 343.875 371.023438 343.425781 C 372.300781 342.824219 373.648438 342.226562 374.925781 341.773438 L 375 62.476562 M 351.675781 316.949219 C 351.675781 336.148438 336.148438 351.675781 316.949219 351.675781 L 58.050781 351.675781 C 38.851562 351.675781 23.324219 336.148438 23.324219 316.949219 L 23.324219 58.050781 C 23.324219 38.851562 38.851562 23.324219 58.050781 23.324219 L 316.949219 23.324219 C 336.148438 23.324219 351.675781 38.851562 351.675781 58.050781 L 351.675781 316.949219 " fill-opacity="1" fill-rule="nonzero"/><g clip-path="url(#id1)"><path fill="#1d918a" d="M 204.597656 247.835938 C 204.597656 245.980469 202.949219 244.328125 201.097656 244.328125 L 116.015625 244.328125 C 114.160156 244.328125 112.511719 245.980469 112.511719 247.835938 C 112.511719 249.691406 114.160156 251.34375 116.015625 251.34375 L 201.097656 251.34375 C 203.15625 251.34375 204.597656 249.898438 204.597656 247.835938 Z M 204.597656 247.835938 " fill-opacity="1" fill-rule="nonzero"/></g><g clip-path="url(#id2)"><path fill="#1d918a" d="M 215.929688 244.328125 C 214.074219 244.328125 212.425781 245.980469 212.425781 247.835938 C 212.425781 249.691406 214.074219 251.34375 215.929688 251.34375 L 218.402344 251.34375 C 220.253906 251.34375 221.902344 249.691406 221.902344 247.835938 C 221.902344 245.980469 220.253906 244.328125 218.402344 244.328125 Z M 215.929688 244.328125 " fill-opacity="1" fill-rule="nonzero"/></g><g clip-path="url(#id3)"><path fill="#1d918a" d="M 258.984375 244.328125 L 231.378906 244.328125 C 229.527344 244.328125 227.878906 245.980469 227.878906 247.835938 C 227.878906 249.691406 229.527344 251.34375 231.378906 251.34375 L 258.984375 251.34375 C 260.839844 251.34375 262.488281 249.691406 262.488281 247.835938 C 262.488281 245.980469 260.839844 244.328125 258.984375 244.328125 Z M 258.984375 244.328125 " fill-opacity="1" fill-rule="nonzero"/></g><path fill="#1d918a" d="M 194.503906 158.089844 C 196.359375 158.089844 198.007812 156.441406 198.007812 154.585938 C 198.007812 152.726562 196.359375 151.078125 194.503906 151.078125 C 192.648438 151.078125 191.003906 152.726562 191.003906 154.585938 C 191.003906 156.441406 192.648438 158.089844 194.503906 158.089844 Z M 194.503906 158.089844 " fill-opacity="1" fill-rule="nonzero"/><g clip-path="url(#id4)"><path fill="#1d918a" d="M 187.707031 123.84375 C 185.851562 123.84375 184.203125 125.496094 184.203125 127.351562 C 184.203125 129.207031 185.851562 130.859375 187.707031 130.859375 C 189.558594 130.859375 191.207031 129.207031 191.207031 127.351562 C 191.207031 125.289062 189.558594 123.84375 187.707031 123.84375 Z M 187.707031 123.84375 " fill-opacity="1" fill-rule="nonzero"/></g><path fill="#1d918a" d="M 183.171875 166.34375 C 185.027344 166.34375 186.675781 164.691406 186.675781 162.835938 C 186.675781 160.980469 185.027344 159.328125 183.171875 159.328125 C 181.320312 159.328125 179.671875 160.980469 179.671875 162.835938 C 179.671875 164.691406 181.320312 166.34375 183.171875 166.34375 Z M 183.171875 166.34375 " fill-opacity="1" fill-rule="nonzero"/><path fill="#1d918a" d="M 179.671875 150.664062 C 179.671875 152.519531 181.320312 154.171875 183.171875 154.171875 C 185.027344 154.171875 186.675781 152.519531 186.675781 150.664062 C 186.675781 148.808594 185.027344 147.15625 183.171875 147.15625 C 181.320312 147.15625 179.671875 148.808594 179.671875 150.664062 Z M 179.671875 150.664062 " fill-opacity="1" fill-rule="nonzero"/><path fill="#1d918a" d="M 175.550781 178.308594 L 124.460938 239.171875 L 250.949219 239.171875 L 199.859375 178.308594 C 199.859375 178.308594 199.65625 178.101562 199.65625 178.101562 C 193.0625 171.5 182.351562 171.5 175.757812 178.101562 C 175.757812 178.308594 175.757812 178.308594 175.550781 178.308594 Z M 155.980469 232.570312 C 154.125 232.570312 152.480469 230.917969 152.480469 229.0625 C 152.480469 227.207031 153.921875 225.554688 155.980469 225.554688 C 157.835938 225.554688 159.484375 227.207031 159.484375 229.0625 C 159.484375 230.917969 157.835938 232.570312 155.980469 232.570312 Z M 169.785156 217.097656 C 167.929688 217.097656 166.28125 215.445312 166.28125 213.589844 C 166.28125 211.730469 167.722656 210.082031 169.785156 210.082031 C 171.636719 210.082031 173.285156 211.730469 173.285156 213.589844 C 173.285156 215.445312 171.636719 217.097656 169.785156 217.097656 Z M 181.9375 217.097656 C 180.082031 217.097656 178.4375 215.445312 178.4375 213.589844 C 178.4375 211.730469 179.878906 210.082031 181.9375 210.082031 C 183.792969 210.082031 185.441406 211.730469 185.441406 213.589844 C 185.441406 215.445312 183.792969 217.097656 181.9375 217.097656 Z M 210.777344 211.730469 C 212.632812 211.730469 214.28125 213.382812 214.28125 215.238281 C 214.28125 217.097656 212.632812 218.746094 210.777344 218.746094 C 208.925781 218.746094 207.277344 217.097656 207.277344 215.238281 C 207.277344 213.382812 208.925781 211.730469 210.777344 211.730469 Z M 200.273438 199.765625 C 202.125 199.765625 203.773438 201.417969 203.773438 203.273438 C 203.773438 205.128906 202.125 206.78125 200.273438 206.78125 C 198.417969 206.78125 196.769531 205.128906 196.769531 203.273438 C 196.769531 201.417969 198.417969 199.765625 200.273438 199.765625 Z M 194.09375 210.082031 C 195.945312 210.082031 197.59375 211.730469 197.59375 213.589844 C 197.59375 215.445312 195.945312 217.097656 194.09375 217.097656 C 192.238281 217.097656 190.589844 215.445312 190.589844 213.589844 C 190.589844 211.730469 192.238281 210.082031 194.09375 210.082031 Z M 191.621094 203.066406 C 191.621094 204.925781 189.972656 206.574219 188.117188 206.574219 C 186.265625 206.574219 184.617188 204.925781 184.617188 203.066406 C 184.617188 201.210938 186.058594 199.558594 188.117188 199.558594 C 189.972656 199.765625 191.621094 201.210938 191.621094 203.066406 Z M 185.027344 187.59375 C 186.882812 187.59375 188.53125 189.246094 188.53125 191.101562 C 188.53125 192.957031 186.882812 194.609375 185.027344 194.609375 C 183.171875 194.609375 181.527344 192.957031 181.527344 191.101562 C 181.527344 189.246094 182.96875 187.59375 185.027344 187.59375 Z M 181.113281 199.765625 C 181.113281 201.621094 179.671875 203.273438 177.613281 203.273438 C 175.757812 203.273438 174.109375 201.621094 174.109375 199.765625 C 174.109375 197.910156 175.757812 196.257812 177.613281 196.257812 C 179.464844 196.257812 181.113281 197.703125 181.113281 199.765625 Z M 181.113281 199.765625 " fill-opacity="1" fill-rule="nonzero"/></svg>