<?xml version="1.0" encoding="utf-8"?>
<svg id="Layer_1" data-name="Layer 1" viewBox="0 0 645.44 935.1792" xmlns="http://www.w3.org/2000/svg">
  <defs>
    <style>.cls-1{fill:#1d918a;}.cls-2{fill:#3a3d41;}</style>
  </defs>
  <title>MAB</title>
  <path class="cls-1" d="M661.8848,297.7965s12.2791-9.6837,12.2791-28.5931a32.988,32.988,0,0,0-33.0206-33.0206h-88.004v55.1188l17.79,43.4414h-6.776l-11.0141-26.6084-14.8745-35.9432-14.9181-36.0086H446.6184l-50.2069,92.388-50.1852-92.388H323.4128V359.3885h23.38V290.3593l38.7785,69.0292h21.6793l38.4077-68.3749.3708-.6543,18.1678-32.3227h31.3119l-26.0774,53.3913V262.329L446.03,303.9646v55.4239H472.398l13.13-27.241.0025-.0053h52.645l.0023.0053,11.603,27.241h90.076c18.953,0,36.5539-15.3762,36.5539-34.3292C676.4105,306.3026,667.2938,299.9775,661.8848,297.7965ZM495.7521,310.9142l.0047-.01,14.3041-29.5908-10.6563-23.2771h6.8865l22.8134,52.8679.0041.01Zm151.4545,19.9684a13.24,13.24,0,0,1-9.3565,3.86H575.8436V308.309H637.85a13.2169,13.2169,0,0,1,9.3565,22.5736Zm0-49.16a13.24,13.24,0,0,1-9.3565,3.86H575.8436V259.149H637.85a13.2168,13.2168,0,0,1,9.3565,22.5735Z" transform="translate(-177.28 -32.4104)" style="fill: rgb(255, 255, 255);"/>
  <path class="cls-2" d="M661.36,700.2263,613.07,779.14s116.6033,32.979,116.6033,48.8794-78.872,57.1236-230.2413,57.1236c-126.4485,0-205.6225-39.8628-228.2648-52.9884a5.5882,5.5882,0,0,1-.5464-9.3149c15.9243-11.926,64.9461-41.0369,173.0955-50.8074l55.7266,95.4462,225.8661-387.85.0872-.1309a291.2462,291.2462,0,0,0,48.68-162.05c0-157.4258-122.9657-285.0371-274.6336-285.0371-151.69,0-274.6554,127.6113-274.6554,285.0371a291.6219,291.6219,0,0,0,41.2429,150.25l.7635,1.3085,129.2534,221.38C340.8335,697.4351,177.28,726.9877,177.28,829.7854c0,123.67,289.7826,137.8039,322.1518,137.8039S822.72,968.7671,822.72,828.0188C822.72,735.5607,661.36,700.2263,661.36,700.2263ZM289.8252,311.188c0-117.5132,93.8491-212.7582,209.6175-212.7582,115.7466,0,209.5957,95.245,209.5957,212.7582,0,117.4914-93.8491,212.7582-209.5957,212.7582C383.6743,523.9462,289.8252,428.6794,289.8252,311.188Z" transform="translate(-177.28 -32.4104)" style="fill: rgb(255, 255, 255);"/>
</svg>