<svg xmlns="http://www.w3.org/2000/svg" xmlns:xlink="http://www.w3.org/1999/xlink" width="500" zoomAndPan="magnify" viewBox="0 0 375 374.999991" height="500" preserveAspectRatio="xMidYMid meet" version="1.0"><defs><g/><clipPath id="1cbd2a4259"><path d="M 0 31.875 L 375 31.875 L 375 343.125 L 0 343.125 Z M 0 31.875 " clip-rule="nonzero"/></clipPath><clipPath id="b39c523bda"><path d="M 169.8125 127.507812 L 205.0625 127.507812 L 205.0625 178.507812 L 169.8125 178.507812 Z M 169.8125 127.507812 " clip-rule="nonzero"/></clipPath><clipPath id="d162473dd2"><path d="M 244.890625 127.507812 L 267.390625 127.507812 L 267.390625 159.757812 L 244.890625 159.757812 Z M 244.890625 127.507812 " clip-rule="nonzero"/></clipPath><clipPath id="71d1e21d15"><path d="M 65.65625 135.191406 L 88.15625 135.191406 L 88.15625 167.441406 L 65.65625 167.441406 Z M 65.65625 135.191406 " clip-rule="nonzero"/></clipPath><clipPath id="d6329a3b6b"><path d="M 70.980469 187.5 L 93.480469 187.5 L 93.480469 219.75 L 70.980469 219.75 Z M 70.980469 187.5 " clip-rule="nonzero"/></clipPath><clipPath id="34869ab64f"><path d="M 25.964844 84.222656 L 44.714844 84.222656 L 44.714844 111.972656 L 25.964844 111.972656 Z M 25.964844 84.222656 " clip-rule="nonzero"/></clipPath></defs><g clip-path="url(#1cbd2a4259)"><path fill="#1d918a" d="M 62.269531 64.527344 L 48.632812 44.0625 L 85.914062 31.84375 L 112.71875 43.152344 L 173.171875 94.070312 L 218.640625 99.976562 L 228.179688 108.148438 L 236.367188 108.148438 L 250.914062 124.070312 L 250.914062 132.246094 L 267.273438 140.433594 L 267.273438 161.792969 L 286.816406 182.242188 L 298.636719 182.242188 L 311.746094 213.617188 L 348.632812 220.429688 L 362.722656 216.796875 L 375 231.796875 L 362.722656 267.699219 L 272.269531 299.0625 L 244.085938 309.066406 L 220.457031 334.980469 L 206.820312 325.429688 L 180 325.882812 L 147.273438 320.886719 L 144.097656 343.152344 L 138.179688 343.152344 L 110.902344 302.695312 L 93.179688 269.0625 L 70.003906 250.429688 L 63.179688 232.703125 L 69.550781 211.785156 L 48.632812 184.527344 L 13.636719 114.519531 L 0 108.617188 C 0 108.617188 5.902344 85.429688 7.265625 84.519531 C 8.644531 83.613281 32.726562 83.613281 32.726562 83.613281 L 40.003906 74.0625 L 62.269531 64.527344 " fill-opacity="1" fill-rule="nonzero"/></g><path fill="#ffffff" d="M 196.277344 141.988281 C 196.277344 141.988281 196.949219 141.460938 196.949219 140.429688 C 196.949219 140.191406 196.902344 139.960938 196.8125 139.742188 C 196.71875 139.519531 196.589844 139.324219 196.421875 139.15625 C 196.25 138.988281 196.054688 138.859375 195.835938 138.765625 C 195.613281 138.675781 195.382812 138.628906 195.144531 138.628906 L 190.339844 138.628906 L 190.339844 141.632812 L 191.308594 144 L 190.941406 144 L 190.339844 142.550781 L 189.527344 140.59375 L 188.710938 138.628906 L 184.519531 138.628906 L 181.777344 143.664062 L 179.039062 138.628906 L 177.792969 138.628906 L 177.792969 145.34375 L 179.070312 145.34375 L 179.070312 141.582031 L 181.1875 145.34375 L 182.371094 145.34375 L 184.46875 141.617188 L 184.488281 141.582031 L 185.480469 139.820312 L 187.191406 139.820312 L 185.765625 142.730469 L 185.765625 140.054688 L 184.488281 142.324219 L 184.488281 145.34375 L 185.929688 145.34375 L 186.644531 143.859375 L 189.519531 143.859375 L 190.15625 145.34375 L 195.074219 145.34375 C 196.109375 145.34375 197.070312 144.507812 197.070312 143.472656 C 197.070312 142.449219 196.574219 142.105469 196.277344 141.988281 Z M 187.203125 142.703125 L 187.984375 141.089844 L 187.402344 139.820312 L 187.78125 139.820312 L 189.027344 142.703125 Z M 195.476562 143.789062 C 195.335938 143.929688 195.164062 144 194.964844 144 L 191.578125 144 L 191.578125 142.558594 L 194.964844 142.558594 C 195.285156 142.558594 195.507812 142.707031 195.632812 143.003906 C 195.757812 143.300781 195.703125 143.5625 195.476562 143.789062 Z M 195.476562 141.113281 C 195.335938 141.25 195.164062 141.320312 194.964844 141.320312 L 191.578125 141.320312 L 191.578125 139.882812 L 194.964844 139.882812 C 195.285156 139.878906 195.507812 140.027344 195.632812 140.324219 C 195.757812 140.621094 195.703125 140.882812 195.476562 141.113281 Z M 195.476562 141.113281 " fill-opacity="1" fill-rule="nonzero"/><g clip-path="url(#b39c523bda)"><path fill="#ffffff" d="M 196.25 163.917969 L 193.613281 168.21875 C 193.613281 168.21875 199.980469 170.015625 199.980469 170.882812 C 199.980469 171.75 195.671875 173.996094 187.40625 173.996094 C 180.5 173.996094 176.175781 171.824219 174.9375 171.105469 C 174.84375 171.050781 174.792969 170.96875 174.785156 170.863281 C 174.78125 170.753906 174.820312 170.664062 174.910156 170.601562 C 175.777344 169.949219 178.457031 168.363281 184.363281 167.832031 L 187.40625 173.03125 L 199.742188 151.894531 L 199.746094 151.890625 C 200.617188 150.582031 201.28125 149.175781 201.730469 147.671875 C 202.183594 146.167969 202.410156 144.628906 202.40625 143.058594 C 202.40625 134.480469 195.6875 127.523438 187.40625 127.523438 C 179.121094 127.523438 172.40625 134.480469 172.40625 143.058594 C 172.398438 145.996094 173.148438 148.726562 174.660156 151.246094 L 174.699219 151.316406 L 181.757812 163.382812 C 178.742188 163.765625 169.8125 165.375 169.8125 170.976562 C 169.8125 177.71875 185.636719 178.488281 187.40625 178.488281 C 189.171875 178.488281 205.0625 178.550781 205.0625 170.882812 C 205.0625 165.84375 196.25 163.917969 196.25 163.917969 Z M 175.957031 142.71875 C 175.957031 136.3125 181.082031 131.121094 187.40625 131.121094 C 193.726562 131.121094 198.851562 136.3125 198.851562 142.71875 C 198.851562 149.121094 193.726562 154.3125 187.40625 154.3125 C 181.082031 154.3125 175.957031 149.121094 175.957031 142.71875 Z M 175.957031 142.71875 " fill-opacity="1" fill-rule="nonzero"/></g><path fill="#3a3d41" d="M 261.785156 136.660156 C 261.785156 136.660156 262.214844 136.328125 262.214844 135.675781 C 262.214844 135.523438 262.183594 135.378906 262.125 135.238281 C 262.066406 135.101562 261.984375 134.976562 261.878906 134.871094 C 261.769531 134.761719 261.644531 134.679688 261.503906 134.625 C 261.363281 134.566406 261.214844 134.535156 261.0625 134.535156 L 257.996094 134.535156 L 257.996094 136.4375 L 258.613281 137.933594 L 258.378906 137.933594 L 257.996094 137.015625 L 257.476562 135.777344 L 256.957031 134.535156 L 254.28125 134.535156 L 252.53125 137.722656 L 250.78125 134.535156 L 249.988281 134.535156 L 249.988281 138.785156 L 250.800781 138.785156 L 250.800781 136.40625 L 252.152344 138.785156 L 252.910156 138.785156 L 254.25 136.425781 L 254.261719 136.40625 L 254.894531 135.289062 L 255.984375 135.289062 L 255.078125 137.132812 L 255.078125 135.4375 L 254.261719 136.875 L 254.261719 138.785156 L 255.179688 138.785156 L 255.636719 137.84375 L 257.472656 137.84375 L 257.878906 138.785156 L 261.019531 138.785156 C 261.679688 138.785156 262.292969 138.253906 262.292969 137.601562 C 262.292969 136.953125 261.972656 136.734375 261.785156 136.660156 Z M 255.996094 137.113281 L 256.492188 136.09375 L 256.121094 135.289062 L 256.363281 135.289062 L 257.15625 137.113281 Z M 261.273438 137.800781 C 261.183594 137.890625 261.074219 137.933594 260.949219 137.933594 L 258.785156 137.933594 L 258.785156 137.023438 L 260.949219 137.023438 C 261.152344 137.023438 261.296875 137.117188 261.375 137.304688 C 261.453125 137.492188 261.417969 137.65625 261.273438 137.800781 Z M 261.273438 136.105469 C 261.183594 136.195312 261.074219 136.238281 260.949219 136.238281 L 258.785156 136.238281 L 258.785156 135.328125 L 260.949219 135.328125 C 261.152344 135.328125 261.296875 135.421875 261.375 135.609375 C 261.453125 135.796875 261.417969 135.964844 261.273438 136.105469 Z M 261.273438 136.105469 " fill-opacity="1" fill-rule="nonzero"/><g clip-path="url(#d162473dd2)"><path fill="#3a3d41" d="M 261.765625 150.535156 L 260.085938 153.253906 C 260.085938 153.253906 264.148438 154.390625 264.148438 154.9375 C 264.148438 155.488281 261.398438 156.910156 256.121094 156.910156 C 251.714844 156.910156 248.953125 155.535156 248.164062 155.082031 C 248.105469 155.046875 248.074219 154.996094 248.070312 154.925781 C 248.0625 154.855469 248.089844 154.800781 248.144531 154.761719 C 248.703125 154.347656 250.410156 153.347656 254.179688 153.007812 L 256.125 156.300781 L 263.996094 142.929688 L 264 142.925781 C 265.136719 141.234375 265.703125 139.371094 265.695312 137.339844 C 265.695312 131.910156 261.410156 127.511719 256.125 127.511719 C 250.835938 127.511719 246.546875 131.910156 246.546875 137.339844 C 246.542969 139.195312 247.023438 140.921875 247.988281 142.519531 L 248.011719 142.5625 L 252.519531 150.195312 C 250.59375 150.4375 244.890625 151.457031 244.890625 155 C 244.890625 159.261719 254.996094 159.75 256.121094 159.75 C 257.25 159.75 267.390625 159.792969 267.390625 154.9375 C 267.390625 151.75 261.765625 150.535156 261.765625 150.535156 Z M 248.816406 137.121094 C 248.816406 133.070312 252.085938 129.789062 256.125 129.789062 C 260.15625 129.789062 263.429688 133.070312 263.429688 137.121094 C 263.429688 141.171875 260.15625 144.457031 256.125 144.457031 C 252.085938 144.457031 248.816406 141.171875 248.816406 137.121094 Z M 248.816406 137.121094 " fill-opacity="1" fill-rule="nonzero"/></g><g fill="#ffffff" fill-opacity="1"><g transform="translate(156.399325, 205.778014)"><g><path d="M 3.921875 0 L 1.703125 0 L 1.703125 -13.765625 L 7.625 -13.765625 C 8.863281 -13.765625 9.835938 -13.390625 10.546875 -12.640625 C 11.253906 -11.898438 11.609375 -10.894531 11.609375 -9.625 C 11.609375 -8.632812 11.378906 -7.8125 10.921875 -7.15625 C 10.472656 -6.507812 9.8125 -6.054688 8.9375 -5.796875 L 11.90625 0 L 9.421875 0 L 6.671875 -5.5625 L 3.921875 -5.5625 Z M 7.46875 -7.4375 C 8.039062 -7.4375 8.484375 -7.582031 8.796875 -7.875 C 9.109375 -8.175781 9.265625 -8.601562 9.265625 -9.15625 L 9.265625 -10.09375 C 9.265625 -10.644531 9.109375 -11.066406 8.796875 -11.359375 C 8.484375 -11.660156 8.039062 -11.8125 7.46875 -11.8125 L 3.921875 -11.8125 L 3.921875 -7.4375 Z M 7.46875 -7.4375 "/></g></g></g><g fill="#ffffff" fill-opacity="1"><g transform="translate(169.310044, 205.778014)"><g><path d="M 2.625 -12.09375 C 2.175781 -12.09375 1.847656 -12.195312 1.640625 -12.40625 C 1.441406 -12.613281 1.34375 -12.882812 1.34375 -13.21875 L 1.34375 -13.546875 C 1.34375 -13.878906 1.441406 -14.148438 1.640625 -14.359375 C 1.847656 -14.566406 2.175781 -14.671875 2.625 -14.671875 C 3.070312 -14.671875 3.394531 -14.566406 3.59375 -14.359375 C 3.789062 -14.148438 3.890625 -13.878906 3.890625 -13.546875 L 3.890625 -13.21875 C 3.890625 -12.882812 3.789062 -12.613281 3.59375 -12.40625 C 3.394531 -12.195312 3.070312 -12.09375 2.625 -12.09375 Z M 1.53125 -10.25 L 3.6875 -10.25 L 3.6875 0 L 1.53125 0 Z M 1.53125 -10.25 "/></g></g></g><g fill="#ffffff" fill-opacity="1"><g transform="translate(174.533459, 205.778014)"><g><path d="M 7.828125 -10.25 L 9.90625 -10.25 L 5.578125 2.03125 C 5.460938 2.375 5.328125 2.664062 5.171875 2.90625 C 5.023438 3.144531 4.847656 3.34375 4.640625 3.5 C 4.441406 3.65625 4.195312 3.765625 3.90625 3.828125 C 3.613281 3.898438 3.269531 3.9375 2.875 3.9375 L 1.640625 3.9375 L 1.640625 2.1875 L 3.375 2.1875 L 3.96875 0.453125 L 0.234375 -10.25 L 2.390625 -10.25 L 4.4375 -4.21875 L 5.03125 -1.984375 L 5.125 -1.984375 L 5.78125 -4.21875 Z M 7.828125 -10.25 "/></g></g></g><g fill="#ffffff" fill-opacity="1"><g transform="translate(184.664924, 205.778014)"><g><path d="M 9.046875 0 C 8.484375 0 8.050781 -0.160156 7.75 -0.484375 C 7.445312 -0.804688 7.265625 -1.21875 7.203125 -1.71875 L 7.09375 -1.71875 C 6.894531 -1.070312 6.53125 -0.582031 6 -0.25 C 5.476562 0.0703125 4.84375 0.234375 4.09375 0.234375 C 3.03125 0.234375 2.210938 -0.0390625 1.640625 -0.59375 C 1.066406 -1.144531 0.78125 -1.882812 0.78125 -2.8125 C 0.78125 -3.84375 1.148438 -4.613281 1.890625 -5.125 C 2.640625 -5.632812 3.734375 -5.890625 5.171875 -5.890625 L 7.015625 -5.890625 L 7.015625 -6.765625 C 7.015625 -7.390625 6.84375 -7.875 6.5 -8.21875 C 6.164062 -8.5625 5.632812 -8.734375 4.90625 -8.734375 C 4.300781 -8.734375 3.804688 -8.601562 3.421875 -8.34375 C 3.046875 -8.082031 2.726562 -7.742188 2.46875 -7.328125 L 1.1875 -8.5 C 1.53125 -9.070312 2.007812 -9.546875 2.625 -9.921875 C 3.238281 -10.296875 4.046875 -10.484375 5.046875 -10.484375 C 6.378906 -10.484375 7.398438 -10.175781 8.109375 -9.5625 C 8.816406 -8.945312 9.171875 -8.0625 9.171875 -6.90625 L 9.171875 -1.75 L 10.25 -1.75 L 10.25 0 Z M 4.71875 -1.40625 C 5.382812 -1.40625 5.929688 -1.550781 6.359375 -1.84375 C 6.796875 -2.132812 7.015625 -2.53125 7.015625 -3.03125 L 7.015625 -4.515625 L 5.203125 -4.515625 C 3.722656 -4.515625 2.984375 -4.054688 2.984375 -3.140625 L 2.984375 -2.78125 C 2.984375 -2.320312 3.132812 -1.976562 3.4375 -1.75 C 3.75 -1.519531 4.175781 -1.40625 4.71875 -1.40625 Z M 4.71875 -1.40625 "/></g></g></g><g fill="#ffffff" fill-opacity="1"><g transform="translate(195.486274, 205.778014)"><g><path d="M 7.984375 -1.703125 L 7.890625 -1.703125 C 7.660156 -1.085938 7.289062 -0.609375 6.78125 -0.265625 C 6.28125 0.0664062 5.691406 0.234375 5.015625 0.234375 C 3.710938 0.234375 2.703125 -0.234375 1.984375 -1.171875 C 1.273438 -2.109375 0.921875 -3.425781 0.921875 -5.125 C 0.921875 -6.820312 1.273438 -8.140625 1.984375 -9.078125 C 2.703125 -10.015625 3.710938 -10.484375 5.015625 -10.484375 C 5.691406 -10.484375 6.28125 -10.316406 6.78125 -9.984375 C 7.289062 -9.648438 7.660156 -9.175781 7.890625 -8.5625 L 7.984375 -8.5625 L 7.984375 -14.59375 L 10.140625 -14.59375 L 10.140625 0 L 7.984375 0 Z M 5.65625 -1.609375 C 6.3125 -1.609375 6.863281 -1.769531 7.3125 -2.09375 C 7.757812 -2.414062 7.984375 -2.84375 7.984375 -3.375 L 7.984375 -6.875 C 7.984375 -7.40625 7.757812 -7.832031 7.3125 -8.15625 C 6.863281 -8.476562 6.3125 -8.640625 5.65625 -8.640625 C 4.90625 -8.640625 4.304688 -8.398438 3.859375 -7.921875 C 3.410156 -7.441406 3.1875 -6.804688 3.1875 -6.015625 L 3.1875 -4.234375 C 3.1875 -3.453125 3.410156 -2.816406 3.859375 -2.328125 C 4.304688 -1.847656 4.90625 -1.609375 5.65625 -1.609375 Z M 5.65625 -1.609375 "/></g></g></g><g fill="#ffffff" fill-opacity="1"><g transform="translate(207.155195, 205.778014)"><g><path d="M 1.53125 -14.59375 L 3.6875 -14.59375 L 3.6875 -8.5625 L 3.78125 -8.5625 C 4.007812 -9.113281 4.347656 -9.570312 4.796875 -9.9375 C 5.253906 -10.300781 5.878906 -10.484375 6.671875 -10.484375 C 7.722656 -10.484375 8.539062 -10.140625 9.125 -9.453125 C 9.707031 -8.765625 10 -7.78125 10 -6.5 L 10 0 L 7.84375 0 L 7.84375 -6.25 C 7.84375 -7.84375 7.203125 -8.640625 5.921875 -8.640625 C 5.640625 -8.640625 5.363281 -8.601562 5.09375 -8.53125 C 4.820312 -8.457031 4.582031 -8.347656 4.375 -8.203125 C 4.164062 -8.054688 4 -7.867188 3.875 -7.640625 C 3.75 -7.421875 3.6875 -7.164062 3.6875 -6.875 L 3.6875 0 L 1.53125 0 Z M 1.53125 -14.59375 "/></g></g></g><g fill="#ffffff" fill-opacity="1"><g transform="translate(216.85705, 174.533382)"><g><path d="M 6.5 0 L 5.703125 -2.34375 L 2.46875 -2.34375 L 1.703125 0 L 0.28125 0 L 3.234375 -8.6875 L 5 -8.6875 L 7.953125 0 Z M 4.109375 -7.390625 L 4.046875 -7.390625 L 2.796875 -3.5625 L 5.359375 -3.5625 Z M 4.109375 -7.390625 "/></g></g></g><g fill="#ffffff" fill-opacity="1"><g transform="translate(225.085256, 174.533382)"><g><path d="M 2.34375 0 C 1.882812 0 1.539062 -0.113281 1.3125 -0.34375 C 1.082031 -0.582031 0.96875 -0.914062 0.96875 -1.34375 L 0.96875 -9.203125 L 2.328125 -9.203125 L 2.328125 -1.109375 L 3.21875 -1.109375 L 3.21875 0 Z M 2.34375 0 "/></g></g></g><g fill="#ffffff" fill-opacity="1"><g transform="translate(228.627613, 174.533382)"><g/></g></g><g fill="#ffffff" fill-opacity="1"><g transform="translate(231.560935, 174.533382)"><g><path d="M 3.671875 -4.046875 L 2.46875 -2.6875 L 2.46875 0 L 1.0625 0 L 1.0625 -8.6875 L 2.46875 -8.6875 L 2.46875 -4.28125 L 2.53125 -4.28125 L 3.765625 -5.859375 L 6.109375 -8.6875 L 7.75 -8.6875 L 4.65625 -5.03125 L 8 0 L 6.3125 0 Z M 3.671875 -4.046875 "/></g></g></g><g fill="#ffffff" fill-opacity="1"><g transform="translate(239.764289, 174.533382)"><g><path d="M 0.96875 -9.203125 L 2.328125 -9.203125 L 2.328125 -5.390625 L 2.390625 -5.390625 C 2.523438 -5.742188 2.734375 -6.035156 3.015625 -6.265625 C 3.304688 -6.492188 3.703125 -6.609375 4.203125 -6.609375 C 4.867188 -6.609375 5.382812 -6.390625 5.75 -5.953125 C 6.125 -5.523438 6.3125 -4.910156 6.3125 -4.109375 L 6.3125 0 L 4.953125 0 L 4.953125 -3.9375 C 4.953125 -4.945312 4.546875 -5.453125 3.734375 -5.453125 C 3.554688 -5.453125 3.378906 -5.425781 3.203125 -5.375 C 3.035156 -5.332031 2.882812 -5.265625 2.75 -5.171875 C 2.625 -5.078125 2.519531 -4.957031 2.4375 -4.8125 C 2.363281 -4.675781 2.328125 -4.519531 2.328125 -4.34375 L 2.328125 0 L 0.96875 0 Z M 0.96875 -9.203125 "/></g></g></g><g fill="#ffffff" fill-opacity="1"><g transform="translate(246.973297, 174.533382)"><g><path d="M 3.5 0.15625 C 3.050781 0.15625 2.644531 0.078125 2.28125 -0.078125 C 1.914062 -0.242188 1.601562 -0.472656 1.34375 -0.765625 C 1.082031 -1.054688 0.878906 -1.410156 0.734375 -1.828125 C 0.597656 -2.253906 0.53125 -2.722656 0.53125 -3.234375 C 0.53125 -3.742188 0.597656 -4.207031 0.734375 -4.625 C 0.878906 -5.050781 1.082031 -5.410156 1.34375 -5.703125 C 1.601562 -5.992188 1.914062 -6.21875 2.28125 -6.375 C 2.644531 -6.53125 3.050781 -6.609375 3.5 -6.609375 C 3.945312 -6.609375 4.351562 -6.53125 4.71875 -6.375 C 5.09375 -6.21875 5.410156 -5.992188 5.671875 -5.703125 C 5.929688 -5.410156 6.128906 -5.050781 6.265625 -4.625 C 6.410156 -4.207031 6.484375 -3.742188 6.484375 -3.234375 C 6.484375 -2.722656 6.410156 -2.253906 6.265625 -1.828125 C 6.128906 -1.410156 5.929688 -1.054688 5.671875 -0.765625 C 5.410156 -0.472656 5.09375 -0.242188 4.71875 -0.078125 C 4.351562 0.078125 3.945312 0.15625 3.5 0.15625 Z M 3.5 -0.96875 C 3.96875 -0.96875 4.34375 -1.109375 4.625 -1.390625 C 4.90625 -1.679688 5.046875 -2.113281 5.046875 -2.6875 L 5.046875 -3.78125 C 5.046875 -4.351562 4.90625 -4.78125 4.625 -5.0625 C 4.34375 -5.351562 3.96875 -5.5 3.5 -5.5 C 3.039062 -5.5 2.671875 -5.351562 2.390625 -5.0625 C 2.109375 -4.78125 1.96875 -4.351562 1.96875 -3.78125 L 1.96875 -2.6875 C 1.96875 -2.113281 2.109375 -1.679688 2.390625 -1.390625 C 2.671875 -1.109375 3.039062 -0.96875 3.5 -0.96875 Z M 3.5 -0.96875 "/></g></g></g><g fill="#ffffff" fill-opacity="1"><g transform="translate(253.983435, 174.533382)"><g><path d="M 0.96875 -9.203125 L 2.328125 -9.203125 L 2.328125 -5.390625 L 2.390625 -5.390625 C 2.523438 -5.785156 2.753906 -6.085938 3.078125 -6.296875 C 3.398438 -6.503906 3.773438 -6.609375 4.203125 -6.609375 C 5.023438 -6.609375 5.660156 -6.3125 6.109375 -5.71875 C 6.554688 -5.132812 6.78125 -4.304688 6.78125 -3.234375 C 6.78125 -2.160156 6.554688 -1.328125 6.109375 -0.734375 C 5.660156 -0.140625 5.023438 0.15625 4.203125 0.15625 C 3.773438 0.15625 3.398438 0.046875 3.078125 -0.171875 C 2.753906 -0.390625 2.523438 -0.6875 2.390625 -1.0625 L 2.328125 -1.0625 L 2.328125 0 L 0.96875 0 Z M 3.796875 -1.015625 C 4.265625 -1.015625 4.640625 -1.164062 4.921875 -1.46875 C 5.203125 -1.769531 5.34375 -2.171875 5.34375 -2.671875 L 5.34375 -3.796875 C 5.34375 -4.296875 5.203125 -4.695312 4.921875 -5 C 4.640625 -5.300781 4.265625 -5.453125 3.796875 -5.453125 C 3.378906 -5.453125 3.03125 -5.347656 2.75 -5.140625 C 2.46875 -4.941406 2.328125 -4.675781 2.328125 -4.34375 L 2.328125 -2.125 C 2.328125 -1.789062 2.46875 -1.519531 2.75 -1.3125 C 3.03125 -1.113281 3.378906 -1.015625 3.796875 -1.015625 Z M 3.796875 -1.015625 "/></g></g></g><g fill="#ffffff" fill-opacity="1"><g transform="translate(261.341591, 174.533382)"><g><path d="M 5.703125 0 C 5.347656 0 5.078125 -0.0976562 4.890625 -0.296875 C 4.703125 -0.503906 4.585938 -0.765625 4.546875 -1.078125 L 4.484375 -1.078125 C 4.359375 -0.671875 4.128906 -0.363281 3.796875 -0.15625 C 3.460938 0.0507812 3.0625 0.15625 2.59375 0.15625 C 1.914062 0.15625 1.394531 -0.015625 1.03125 -0.359375 C 0.675781 -0.710938 0.5 -1.1875 0.5 -1.78125 C 0.5 -2.425781 0.734375 -2.910156 1.203125 -3.234375 C 1.671875 -3.554688 2.359375 -3.71875 3.265625 -3.71875 L 4.421875 -3.71875 L 4.421875 -4.265625 C 4.421875 -4.660156 4.3125 -4.96875 4.09375 -5.1875 C 3.882812 -5.40625 3.550781 -5.515625 3.09375 -5.515625 C 2.71875 -5.515625 2.40625 -5.429688 2.15625 -5.265625 C 1.914062 -5.097656 1.71875 -4.882812 1.5625 -4.625 L 0.75 -5.359375 C 0.957031 -5.722656 1.253906 -6.019531 1.640625 -6.25 C 2.035156 -6.488281 2.550781 -6.609375 3.1875 -6.609375 C 4.019531 -6.609375 4.660156 -6.414062 5.109375 -6.03125 C 5.554688 -5.644531 5.78125 -5.085938 5.78125 -4.359375 L 5.78125 -1.109375 L 6.46875 -1.109375 L 6.46875 0 Z M 2.96875 -0.890625 C 3.394531 -0.890625 3.742188 -0.976562 4.015625 -1.15625 C 4.285156 -1.34375 4.421875 -1.597656 4.421875 -1.921875 L 4.421875 -2.84375 L 3.28125 -2.84375 C 2.34375 -2.84375 1.875 -2.554688 1.875 -1.984375 L 1.875 -1.75 C 1.875 -1.457031 1.972656 -1.238281 2.171875 -1.09375 C 2.367188 -0.957031 2.632812 -0.890625 2.96875 -0.890625 Z M 2.96875 -0.890625 "/></g></g></g><g fill="#ffffff" fill-opacity="1"><g transform="translate(268.165288, 174.533382)"><g><path d="M 0.96875 0 L 0.96875 -6.46875 L 2.328125 -6.46875 L 2.328125 -5.21875 L 2.390625 -5.21875 C 2.484375 -5.550781 2.671875 -5.84375 2.953125 -6.09375 C 3.242188 -6.34375 3.648438 -6.46875 4.171875 -6.46875 L 4.53125 -6.46875 L 4.53125 -5.15625 L 4 -5.15625 C 3.457031 -5.15625 3.039062 -5.066406 2.75 -4.890625 C 2.46875 -4.722656 2.328125 -4.46875 2.328125 -4.125 L 2.328125 0 Z M 0.96875 0 "/></g></g></g><g fill="#ffffff" fill-opacity="1"><g transform="translate(244.885715, 191.558966)"><g/></g></g><g fill="#ffffff" fill-opacity="1"><g transform="translate(81.239015, 240.117362)"><g><path d="M 5.578125 -8.6875 L 5.578125 -2.359375 C 5.578125 -1.984375 5.515625 -1.640625 5.390625 -1.328125 C 5.273438 -1.023438 5.101562 -0.765625 4.875 -0.546875 C 4.644531 -0.328125 4.363281 -0.15625 4.03125 -0.03125 C 3.707031 0.09375 3.347656 0.15625 2.953125 0.15625 C 2.191406 0.15625 1.59375 -0.046875 1.15625 -0.453125 C 0.726562 -0.859375 0.453125 -1.382812 0.328125 -2.03125 L 1.625 -2.3125 C 1.695312 -1.9375 1.835938 -1.640625 2.046875 -1.421875 C 2.265625 -1.210938 2.566406 -1.109375 2.953125 -1.109375 C 3.316406 -1.109375 3.609375 -1.222656 3.828125 -1.453125 C 4.054688 -1.679688 4.171875 -2.035156 4.171875 -2.515625 L 4.171875 -7.515625 L 1.34375 -7.515625 L 1.34375 -8.6875 Z M 5.578125 -8.6875 "/></g></g></g><g fill="#ffffff" fill-opacity="1"><g transform="translate(87.838982, 240.117362)"><g><path d="M 3.5 0.15625 C 3.039062 0.15625 2.628906 0.078125 2.265625 -0.078125 C 1.898438 -0.242188 1.585938 -0.472656 1.328125 -0.765625 C 1.066406 -1.054688 0.867188 -1.410156 0.734375 -1.828125 C 0.597656 -2.253906 0.53125 -2.722656 0.53125 -3.234375 C 0.53125 -3.742188 0.597656 -4.207031 0.734375 -4.625 C 0.867188 -5.050781 1.066406 -5.410156 1.328125 -5.703125 C 1.585938 -5.992188 1.898438 -6.21875 2.265625 -6.375 C 2.628906 -6.53125 3.039062 -6.609375 3.5 -6.609375 C 3.976562 -6.609375 4.394531 -6.523438 4.75 -6.359375 C 5.113281 -6.203125 5.414062 -5.972656 5.65625 -5.671875 C 5.894531 -5.378906 6.070312 -5.035156 6.1875 -4.640625 C 6.3125 -4.253906 6.375 -3.835938 6.375 -3.390625 L 6.375 -2.890625 L 1.9375 -2.890625 L 1.9375 -2.671875 C 1.9375 -2.171875 2.082031 -1.757812 2.375 -1.4375 C 2.675781 -1.125 3.097656 -0.96875 3.640625 -0.96875 C 4.035156 -0.96875 4.367188 -1.054688 4.640625 -1.234375 C 4.921875 -1.410156 5.15625 -1.644531 5.34375 -1.9375 L 6.140625 -1.15625 C 5.898438 -0.757812 5.550781 -0.441406 5.09375 -0.203125 C 4.644531 0.0351562 4.113281 0.15625 3.5 0.15625 Z M 3.5 -5.5625 C 3.269531 -5.5625 3.054688 -5.519531 2.859375 -5.4375 C 2.671875 -5.351562 2.507812 -5.234375 2.375 -5.078125 C 2.238281 -4.929688 2.128906 -4.753906 2.046875 -4.546875 C 1.972656 -4.335938 1.9375 -4.113281 1.9375 -3.875 L 1.9375 -3.78125 L 4.953125 -3.78125 L 4.953125 -3.90625 C 4.953125 -4.40625 4.820312 -4.804688 4.5625 -5.109375 C 4.300781 -5.410156 3.945312 -5.5625 3.5 -5.5625 Z M 3.5 -5.5625 "/></g></g></g><g fill="#ffffff" fill-opacity="1"><g transform="translate(94.749686, 240.117362)"><g><path d="M 5.03125 -1.0625 L 4.96875 -1.0625 C 4.832031 -0.6875 4.601562 -0.390625 4.28125 -0.171875 C 3.96875 0.046875 3.59375 0.15625 3.15625 0.15625 C 2.332031 0.15625 1.695312 -0.140625 1.25 -0.734375 C 0.800781 -1.328125 0.578125 -2.160156 0.578125 -3.234375 C 0.578125 -4.304688 0.800781 -5.132812 1.25 -5.71875 C 1.695312 -6.3125 2.332031 -6.609375 3.15625 -6.609375 C 3.59375 -6.609375 3.96875 -6.503906 4.28125 -6.296875 C 4.601562 -6.085938 4.832031 -5.785156 4.96875 -5.390625 L 5.03125 -5.390625 L 5.03125 -9.203125 L 6.390625 -9.203125 L 6.390625 0 L 5.03125 0 Z M 3.5625 -1.015625 C 3.976562 -1.015625 4.328125 -1.113281 4.609375 -1.3125 C 4.890625 -1.519531 5.03125 -1.789062 5.03125 -2.125 L 5.03125 -4.34375 C 5.03125 -4.675781 4.890625 -4.941406 4.609375 -5.140625 C 4.328125 -5.347656 3.976562 -5.453125 3.5625 -5.453125 C 3.09375 -5.453125 2.71875 -5.300781 2.4375 -5 C 2.15625 -4.695312 2.015625 -4.296875 2.015625 -3.796875 L 2.015625 -2.671875 C 2.015625 -2.171875 2.15625 -1.769531 2.4375 -1.46875 C 2.71875 -1.164062 3.09375 -1.015625 3.5625 -1.015625 Z M 3.5625 -1.015625 "/></g></g></g><g fill="#ffffff" fill-opacity="1"><g transform="translate(102.107842, 240.117362)"><g><path d="M 5.03125 -1.0625 L 4.96875 -1.0625 C 4.832031 -0.6875 4.601562 -0.390625 4.28125 -0.171875 C 3.96875 0.046875 3.59375 0.15625 3.15625 0.15625 C 2.332031 0.15625 1.695312 -0.140625 1.25 -0.734375 C 0.800781 -1.328125 0.578125 -2.160156 0.578125 -3.234375 C 0.578125 -4.304688 0.800781 -5.132812 1.25 -5.71875 C 1.695312 -6.3125 2.332031 -6.609375 3.15625 -6.609375 C 3.59375 -6.609375 3.96875 -6.503906 4.28125 -6.296875 C 4.601562 -6.085938 4.832031 -5.785156 4.96875 -5.390625 L 5.03125 -5.390625 L 5.03125 -9.203125 L 6.390625 -9.203125 L 6.390625 0 L 5.03125 0 Z M 3.5625 -1.015625 C 3.976562 -1.015625 4.328125 -1.113281 4.609375 -1.3125 C 4.890625 -1.519531 5.03125 -1.789062 5.03125 -2.125 L 5.03125 -4.34375 C 5.03125 -4.675781 4.890625 -4.941406 4.609375 -5.140625 C 4.328125 -5.347656 3.976562 -5.453125 3.5625 -5.453125 C 3.09375 -5.453125 2.71875 -5.300781 2.4375 -5 C 2.15625 -4.695312 2.015625 -4.296875 2.015625 -3.796875 L 2.015625 -2.671875 C 2.015625 -2.171875 2.15625 -1.769531 2.4375 -1.46875 C 2.71875 -1.164062 3.09375 -1.015625 3.5625 -1.015625 Z M 3.5625 -1.015625 "/></g></g></g><g fill="#ffffff" fill-opacity="1"><g transform="translate(109.465999, 240.117362)"><g><path d="M 5.703125 0 C 5.347656 0 5.078125 -0.0976562 4.890625 -0.296875 C 4.703125 -0.503906 4.585938 -0.765625 4.546875 -1.078125 L 4.484375 -1.078125 C 4.359375 -0.671875 4.128906 -0.363281 3.796875 -0.15625 C 3.460938 0.0507812 3.0625 0.15625 2.59375 0.15625 C 1.914062 0.15625 1.394531 -0.015625 1.03125 -0.359375 C 0.675781 -0.710938 0.5 -1.1875 0.5 -1.78125 C 0.5 -2.425781 0.734375 -2.910156 1.203125 -3.234375 C 1.671875 -3.554688 2.359375 -3.71875 3.265625 -3.71875 L 4.421875 -3.71875 L 4.421875 -4.265625 C 4.421875 -4.660156 4.3125 -4.96875 4.09375 -5.1875 C 3.882812 -5.40625 3.550781 -5.515625 3.09375 -5.515625 C 2.71875 -5.515625 2.40625 -5.429688 2.15625 -5.265625 C 1.914062 -5.097656 1.71875 -4.882812 1.5625 -4.625 L 0.75 -5.359375 C 0.957031 -5.722656 1.253906 -6.019531 1.640625 -6.25 C 2.035156 -6.488281 2.550781 -6.609375 3.1875 -6.609375 C 4.019531 -6.609375 4.660156 -6.414062 5.109375 -6.03125 C 5.554688 -5.644531 5.78125 -5.085938 5.78125 -4.359375 L 5.78125 -1.109375 L 6.46875 -1.109375 L 6.46875 0 Z M 2.96875 -0.890625 C 3.394531 -0.890625 3.742188 -0.976562 4.015625 -1.15625 C 4.285156 -1.34375 4.421875 -1.597656 4.421875 -1.921875 L 4.421875 -2.84375 L 3.28125 -2.84375 C 2.34375 -2.84375 1.875 -2.554688 1.875 -1.984375 L 1.875 -1.75 C 1.875 -1.457031 1.972656 -1.238281 2.171875 -1.09375 C 2.367188 -0.957031 2.632812 -0.890625 2.96875 -0.890625 Z M 2.96875 -0.890625 "/></g></g></g><g fill="#ffffff" fill-opacity="1"><g transform="translate(116.289695, 240.117362)"><g><path d="M 0.96875 -9.203125 L 2.328125 -9.203125 L 2.328125 -5.390625 L 2.390625 -5.390625 C 2.523438 -5.742188 2.734375 -6.035156 3.015625 -6.265625 C 3.304688 -6.492188 3.703125 -6.609375 4.203125 -6.609375 C 4.867188 -6.609375 5.382812 -6.390625 5.75 -5.953125 C 6.125 -5.523438 6.3125 -4.910156 6.3125 -4.109375 L 6.3125 0 L 4.953125 0 L 4.953125 -3.9375 C 4.953125 -4.945312 4.546875 -5.453125 3.734375 -5.453125 C 3.554688 -5.453125 3.378906 -5.425781 3.203125 -5.375 C 3.035156 -5.332031 2.882812 -5.265625 2.75 -5.171875 C 2.625 -5.078125 2.519531 -4.957031 2.4375 -4.8125 C 2.363281 -4.675781 2.328125 -4.519531 2.328125 -4.34375 L 2.328125 0 L 0.96875 0 Z M 0.96875 -9.203125 "/></g></g></g><path fill="#3a3d41" d="M 82.550781 144.347656 C 82.550781 144.347656 82.976562 144.011719 82.976562 143.363281 C 82.976562 143.210938 82.949219 143.066406 82.890625 142.925781 C 82.832031 142.785156 82.75 142.664062 82.640625 142.554688 C 82.53125 142.449219 82.410156 142.367188 82.265625 142.308594 C 82.125 142.25 81.980469 142.222656 81.828125 142.222656 L 78.757812 142.222656 L 78.757812 144.125 L 79.378906 145.621094 L 79.144531 145.621094 L 78.757812 144.703125 L 78.242188 143.464844 L 77.71875 142.222656 L 75.046875 142.222656 L 73.296875 145.40625 L 71.546875 142.222656 L 70.75 142.222656 L 70.75 146.46875 L 71.566406 146.46875 L 71.566406 144.089844 L 72.917969 146.46875 L 73.671875 146.46875 L 75.011719 144.113281 L 75.023438 144.089844 L 75.660156 142.976562 L 76.75 142.976562 L 75.839844 144.816406 L 75.839844 143.125 L 75.023438 144.558594 L 75.023438 146.46875 L 75.945312 146.46875 L 76.402344 145.53125 L 78.238281 145.53125 L 78.640625 146.46875 L 81.78125 146.46875 C 82.441406 146.46875 83.054688 145.941406 83.054688 145.285156 C 83.054688 144.640625 82.738281 144.421875 82.550781 144.347656 Z M 76.757812 144.800781 L 77.257812 143.777344 L 76.886719 142.976562 L 77.125 142.976562 L 77.921875 144.800781 Z M 82.039062 145.488281 C 81.949219 145.578125 81.839844 145.621094 81.710938 145.621094 L 79.550781 145.621094 L 79.550781 144.710938 L 81.710938 144.710938 C 81.917969 144.710938 82.058594 144.804688 82.136719 144.992188 C 82.21875 145.179688 82.183594 145.34375 82.039062 145.488281 Z M 82.039062 143.792969 C 81.949219 143.882812 81.839844 143.925781 81.710938 143.925781 L 79.550781 143.925781 L 79.550781 143.015625 L 81.710938 143.015625 C 81.917969 143.015625 82.058594 143.109375 82.136719 143.296875 C 82.21875 143.484375 82.183594 143.648438 82.039062 143.792969 Z M 82.039062 143.792969 " fill-opacity="1" fill-rule="nonzero"/><g clip-path="url(#71d1e21d15)"><path fill="#3a3d41" d="M 82.53125 158.21875 L 80.847656 160.941406 C 80.847656 160.941406 84.914062 162.078125 84.914062 162.625 C 84.914062 163.171875 82.164062 164.59375 76.886719 164.59375 C 72.480469 164.59375 69.71875 163.21875 68.929688 162.769531 C 68.867188 162.734375 68.835938 162.679688 68.832031 162.613281 C 68.828125 162.542969 68.855469 162.488281 68.910156 162.445312 C 69.464844 162.035156 71.175781 161.03125 74.945312 160.695312 L 76.886719 163.984375 L 84.761719 150.617188 L 84.765625 150.609375 C 85.902344 148.917969 86.464844 147.054688 86.460938 145.023438 C 86.460938 139.597656 82.175781 135.199219 76.886719 135.199219 C 71.597656 135.199219 67.3125 139.597656 67.3125 145.023438 C 67.308594 146.882812 67.789062 148.609375 68.75 150.203125 L 68.777344 150.25 L 73.28125 157.878906 C 71.359375 158.125 65.65625 159.140625 65.65625 162.6875 C 65.65625 166.949219 75.757812 167.4375 76.886719 167.4375 C 78.015625 167.4375 88.15625 167.476562 88.15625 162.625 C 88.15625 159.4375 82.53125 158.21875 82.53125 158.21875 Z M 69.578125 144.808594 C 69.578125 140.757812 72.851562 137.472656 76.886719 137.472656 C 80.921875 137.472656 84.195312 140.757812 84.195312 144.808594 C 84.195312 148.859375 80.921875 152.144531 76.886719 152.144531 C 72.851562 152.144531 69.578125 148.859375 69.578125 144.808594 Z M 69.578125 144.808594 " fill-opacity="1" fill-rule="nonzero"/></g><g fill="#ffffff" fill-opacity="1"><g transform="translate(58.232799, 180.898494)"><g><path d="M 7.71875 -6.640625 L 7.65625 -6.640625 L 6.96875 -5.234375 L 5.0625 -1.765625 L 3.15625 -5.234375 L 2.46875 -6.640625 L 2.40625 -6.640625 L 2.40625 0 L 1.0625 0 L 1.0625 -8.6875 L 2.734375 -8.6875 L 5.0625 -4.265625 L 5.140625 -4.265625 L 7.46875 -8.6875 L 9.046875 -8.6875 L 9.046875 0 L 7.71875 0 Z M 7.71875 -6.640625 "/></g></g></g><g fill="#ffffff" fill-opacity="1"><g transform="translate(68.350262, 180.898494)"><g><path d="M 5.703125 0 C 5.347656 0 5.078125 -0.0976562 4.890625 -0.296875 C 4.703125 -0.503906 4.585938 -0.765625 4.546875 -1.078125 L 4.484375 -1.078125 C 4.359375 -0.671875 4.128906 -0.363281 3.796875 -0.15625 C 3.460938 0.0507812 3.0625 0.15625 2.59375 0.15625 C 1.914062 0.15625 1.394531 -0.015625 1.03125 -0.359375 C 0.675781 -0.710938 0.5 -1.1875 0.5 -1.78125 C 0.5 -2.425781 0.734375 -2.910156 1.203125 -3.234375 C 1.671875 -3.554688 2.359375 -3.71875 3.265625 -3.71875 L 4.421875 -3.71875 L 4.421875 -4.265625 C 4.421875 -4.660156 4.3125 -4.96875 4.09375 -5.1875 C 3.882812 -5.40625 3.550781 -5.515625 3.09375 -5.515625 C 2.71875 -5.515625 2.40625 -5.429688 2.15625 -5.265625 C 1.914062 -5.097656 1.71875 -4.882812 1.5625 -4.625 L 0.75 -5.359375 C 0.957031 -5.722656 1.253906 -6.019531 1.640625 -6.25 C 2.035156 -6.488281 2.550781 -6.609375 3.1875 -6.609375 C 4.019531 -6.609375 4.660156 -6.414062 5.109375 -6.03125 C 5.554688 -5.644531 5.78125 -5.085938 5.78125 -4.359375 L 5.78125 -1.109375 L 6.46875 -1.109375 L 6.46875 0 Z M 2.96875 -0.890625 C 3.394531 -0.890625 3.742188 -0.976562 4.015625 -1.15625 C 4.285156 -1.34375 4.421875 -1.597656 4.421875 -1.921875 L 4.421875 -2.84375 L 3.28125 -2.84375 C 2.34375 -2.84375 1.875 -2.554688 1.875 -1.984375 L 1.875 -1.75 C 1.875 -1.457031 1.972656 -1.238281 2.171875 -1.09375 C 2.367188 -0.957031 2.632812 -0.890625 2.96875 -0.890625 Z M 2.96875 -0.890625 "/></g></g></g><g fill="#ffffff" fill-opacity="1"><g transform="translate(75.173958, 180.898494)"><g><path d="M 5.03125 -1.0625 L 4.96875 -1.0625 C 4.832031 -0.6875 4.601562 -0.390625 4.28125 -0.171875 C 3.96875 0.046875 3.59375 0.15625 3.15625 0.15625 C 2.332031 0.15625 1.695312 -0.140625 1.25 -0.734375 C 0.800781 -1.328125 0.578125 -2.160156 0.578125 -3.234375 C 0.578125 -4.304688 0.800781 -5.132812 1.25 -5.71875 C 1.695312 -6.3125 2.332031 -6.609375 3.15625 -6.609375 C 3.59375 -6.609375 3.96875 -6.503906 4.28125 -6.296875 C 4.601562 -6.085938 4.832031 -5.785156 4.96875 -5.390625 L 5.03125 -5.390625 L 5.03125 -9.203125 L 6.390625 -9.203125 L 6.390625 0 L 5.03125 0 Z M 3.5625 -1.015625 C 3.976562 -1.015625 4.328125 -1.113281 4.609375 -1.3125 C 4.890625 -1.519531 5.03125 -1.789062 5.03125 -2.125 L 5.03125 -4.34375 C 5.03125 -4.675781 4.890625 -4.941406 4.609375 -5.140625 C 4.328125 -5.347656 3.976562 -5.453125 3.5625 -5.453125 C 3.09375 -5.453125 2.71875 -5.300781 2.4375 -5 C 2.15625 -4.695312 2.015625 -4.296875 2.015625 -3.796875 L 2.015625 -2.671875 C 2.015625 -2.171875 2.15625 -1.769531 2.4375 -1.46875 C 2.71875 -1.164062 3.09375 -1.015625 3.5625 -1.015625 Z M 3.5625 -1.015625 "/></g></g></g><g fill="#ffffff" fill-opacity="1"><g transform="translate(82.532114, 180.898494)"><g><path d="M 1.65625 -7.625 C 1.375 -7.625 1.164062 -7.6875 1.03125 -7.8125 C 0.90625 -7.945312 0.84375 -8.117188 0.84375 -8.328125 L 0.84375 -8.546875 C 0.84375 -8.753906 0.90625 -8.921875 1.03125 -9.046875 C 1.164062 -9.179688 1.375 -9.25 1.65625 -9.25 C 1.9375 -9.25 2.140625 -9.179688 2.265625 -9.046875 C 2.390625 -8.921875 2.453125 -8.753906 2.453125 -8.546875 L 2.453125 -8.328125 C 2.453125 -8.117188 2.390625 -7.945312 2.265625 -7.8125 C 2.140625 -7.6875 1.9375 -7.625 1.65625 -7.625 Z M 0.96875 -6.46875 L 2.328125 -6.46875 L 2.328125 0 L 0.96875 0 Z M 0.96875 -6.46875 "/></g></g></g><g fill="#ffffff" fill-opacity="1"><g transform="translate(85.825881, 180.898494)"><g><path d="M 0.96875 0 L 0.96875 -6.46875 L 2.328125 -6.46875 L 2.328125 -5.390625 L 2.390625 -5.390625 C 2.523438 -5.742188 2.734375 -6.035156 3.015625 -6.265625 C 3.304688 -6.492188 3.703125 -6.609375 4.203125 -6.609375 C 4.867188 -6.609375 5.382812 -6.390625 5.75 -5.953125 C 6.125 -5.523438 6.3125 -4.910156 6.3125 -4.109375 L 6.3125 0 L 4.953125 0 L 4.953125 -3.9375 C 4.953125 -4.945312 4.546875 -5.453125 3.734375 -5.453125 C 3.554688 -5.453125 3.378906 -5.425781 3.203125 -5.375 C 3.035156 -5.332031 2.882812 -5.265625 2.75 -5.171875 C 2.625 -5.078125 2.519531 -4.957031 2.4375 -4.8125 C 2.363281 -4.675781 2.328125 -4.515625 2.328125 -4.328125 L 2.328125 0 Z M 0.96875 0 "/></g></g></g><g fill="#ffffff" fill-opacity="1"><g transform="translate(93.034889, 180.898494)"><g><path d="M 5.703125 0 C 5.347656 0 5.078125 -0.0976562 4.890625 -0.296875 C 4.703125 -0.503906 4.585938 -0.765625 4.546875 -1.078125 L 4.484375 -1.078125 C 4.359375 -0.671875 4.128906 -0.363281 3.796875 -0.15625 C 3.460938 0.0507812 3.0625 0.15625 2.59375 0.15625 C 1.914062 0.15625 1.394531 -0.015625 1.03125 -0.359375 C 0.675781 -0.710938 0.5 -1.1875 0.5 -1.78125 C 0.5 -2.425781 0.734375 -2.910156 1.203125 -3.234375 C 1.671875 -3.554688 2.359375 -3.71875 3.265625 -3.71875 L 4.421875 -3.71875 L 4.421875 -4.265625 C 4.421875 -4.660156 4.3125 -4.96875 4.09375 -5.1875 C 3.882812 -5.40625 3.550781 -5.515625 3.09375 -5.515625 C 2.71875 -5.515625 2.40625 -5.429688 2.15625 -5.265625 C 1.914062 -5.097656 1.71875 -4.882812 1.5625 -4.625 L 0.75 -5.359375 C 0.957031 -5.722656 1.253906 -6.019531 1.640625 -6.25 C 2.035156 -6.488281 2.550781 -6.609375 3.1875 -6.609375 C 4.019531 -6.609375 4.660156 -6.414062 5.109375 -6.03125 C 5.554688 -5.644531 5.78125 -5.085938 5.78125 -4.359375 L 5.78125 -1.109375 L 6.46875 -1.109375 L 6.46875 0 Z M 2.96875 -0.890625 C 3.394531 -0.890625 3.742188 -0.976562 4.015625 -1.15625 C 4.285156 -1.34375 4.421875 -1.597656 4.421875 -1.921875 L 4.421875 -2.84375 L 3.28125 -2.84375 C 2.34375 -2.84375 1.875 -2.554688 1.875 -1.984375 L 1.875 -1.75 C 1.875 -1.457031 1.972656 -1.238281 2.171875 -1.09375 C 2.367188 -0.957031 2.632812 -0.890625 2.96875 -0.890625 Z M 2.96875 -0.890625 "/></g></g></g><path fill="#3a3d41" d="M 87.871094 196.65625 C 87.871094 196.65625 88.300781 196.320312 88.300781 195.667969 C 88.300781 195.519531 88.273438 195.371094 88.214844 195.234375 C 88.15625 195.09375 88.070312 194.96875 87.964844 194.863281 C 87.855469 194.757812 87.730469 194.675781 87.589844 194.617188 C 87.449219 194.558594 87.300781 194.53125 87.148438 194.53125 L 84.082031 194.53125 L 84.082031 196.429688 L 84.703125 197.929688 L 84.464844 197.929688 L 84.082031 197.011719 L 83.5625 195.773438 L 83.042969 194.53125 L 80.367188 194.53125 L 78.617188 197.714844 L 76.867188 194.53125 L 76.074219 194.53125 L 76.074219 198.777344 L 76.890625 198.777344 L 76.890625 196.398438 L 78.242188 198.777344 L 78.996094 198.777344 L 80.335938 196.421875 L 80.347656 196.398438 L 80.980469 195.285156 L 82.074219 195.285156 L 81.164062 197.125 L 81.164062 195.433594 L 80.347656 196.867188 L 80.347656 198.777344 L 81.265625 198.777344 L 81.726562 197.839844 L 83.558594 197.839844 L 83.964844 198.777344 L 87.105469 198.777344 C 87.765625 198.777344 88.378906 198.246094 88.378906 197.59375 C 88.378906 196.949219 88.0625 196.730469 87.871094 196.65625 Z M 82.082031 197.105469 L 82.582031 196.085938 L 82.207031 195.285156 L 82.449219 195.285156 L 83.246094 197.105469 Z M 87.359375 197.796875 C 87.269531 197.882812 87.164062 197.929688 87.035156 197.929688 L 84.875 197.929688 L 84.875 197.015625 L 87.035156 197.015625 C 87.242188 197.015625 87.382812 197.109375 87.460938 197.296875 C 87.539062 197.484375 87.507812 197.652344 87.359375 197.796875 Z M 87.359375 196.101562 C 87.269531 196.1875 87.164062 196.234375 87.035156 196.234375 L 84.875 196.234375 L 84.875 195.324219 L 87.035156 195.324219 C 87.242188 195.320312 87.382812 195.414062 87.460938 195.601562 C 87.539062 195.792969 87.507812 195.957031 87.359375 196.101562 Z M 87.359375 196.101562 " fill-opacity="1" fill-rule="nonzero"/><g clip-path="url(#d6329a3b6b)"><path fill="#3a3d41" d="M 87.855469 210.527344 L 86.171875 213.246094 C 86.171875 213.246094 90.234375 214.382812 90.234375 214.933594 C 90.234375 215.480469 87.488281 216.902344 82.210938 216.902344 C 77.800781 216.902344 75.042969 215.527344 74.253906 215.074219 C 74.191406 215.039062 74.160156 214.988281 74.15625 214.917969 C 74.152344 214.851562 74.175781 214.796875 74.234375 214.753906 C 74.789062 214.34375 76.496094 213.339844 80.265625 213.003906 L 82.210938 216.292969 L 90.082031 202.921875 L 90.085938 202.917969 C 91.222656 201.226562 91.789062 199.363281 91.785156 197.332031 C 91.785156 191.90625 87.496094 187.507812 82.210938 187.507812 C 76.921875 187.507812 72.636719 191.90625 72.636719 197.332031 C 72.632812 199.191406 73.109375 200.917969 74.074219 202.511719 L 74.101562 202.554688 L 78.605469 210.1875 C 76.679688 210.429688 70.980469 211.449219 70.980469 214.992188 C 70.980469 219.257812 81.082031 219.742188 82.210938 219.742188 C 83.339844 219.742188 93.480469 219.785156 93.480469 214.933594 C 93.480469 211.746094 87.855469 210.527344 87.855469 210.527344 Z M 74.902344 197.117188 C 74.902344 193.066406 78.175781 189.78125 82.210938 189.78125 C 86.246094 189.78125 89.515625 193.066406 89.515625 197.117188 C 89.515625 201.167969 86.246094 204.449219 82.210938 204.449219 C 78.175781 204.449219 74.902344 201.167969 74.902344 197.117188 Z M 74.902344 197.117188 " fill-opacity="1" fill-rule="nonzero"/></g><path fill="#3a3d41" d="M 40.042969 92.101562 C 40.042969 92.101562 40.398438 91.816406 40.398438 91.253906 C 40.398438 90.984375 40.304688 90.753906 40.117188 90.5625 C 39.929688 90.371094 39.703125 90.277344 39.4375 90.277344 L 36.882812 90.277344 L 36.882812 91.910156 L 37.398438 93.199219 L 37.203125 93.199219 L 36.882812 92.410156 L 36.015625 90.277344 L 33.789062 90.277344 L 32.328125 93.015625 L 30.871094 90.277344 L 30.207031 90.277344 L 30.207031 93.929688 L 30.886719 93.929688 L 30.886719 91.882812 L 32.015625 93.929688 L 32.644531 93.929688 L 33.757812 91.902344 L 33.769531 91.882812 L 34.296875 90.921875 L 35.207031 90.921875 L 34.449219 92.507812 L 34.449219 91.050781 L 33.769531 92.285156 L 33.769531 93.929688 L 34.535156 93.929688 L 34.917969 93.121094 L 36.449219 93.121094 L 36.785156 93.929688 L 39.402344 93.929688 C 39.953125 93.929688 40.464844 93.472656 40.464844 92.910156 C 40.464844 92.355469 40.199219 92.167969 40.042969 92.101562 Z M 35.214844 92.492188 L 35.628906 91.613281 L 35.320312 90.921875 L 35.519531 90.921875 L 36.183594 92.492188 Z M 39.613281 93.082031 C 39.539062 93.160156 39.449219 93.199219 39.34375 93.199219 L 37.542969 93.199219 L 37.542969 92.414062 L 39.34375 92.414062 C 39.515625 92.414062 39.632812 92.496094 39.699219 92.65625 C 39.765625 92.816406 39.734375 92.960938 39.613281 93.082031 Z M 39.613281 91.625 C 39.539062 91.703125 39.449219 91.742188 39.34375 91.742188 L 37.542969 91.742188 L 37.542969 90.957031 L 39.34375 90.957031 C 39.515625 90.957031 39.632812 91.035156 39.699219 91.199219 C 39.765625 91.359375 39.734375 91.503906 39.613281 91.625 Z M 39.613281 91.625 " fill-opacity="1" fill-rule="nonzero"/><g clip-path="url(#34869ab64f)"><path fill="#3a3d41" d="M 40.027344 104.035156 L 38.621094 106.375 C 38.621094 106.375 42.011719 107.355469 42.011719 107.824219 C 42.011719 108.296875 39.71875 109.519531 35.320312 109.519531 C 31.648438 109.519531 29.347656 108.335938 28.691406 107.949219 C 28.640625 107.917969 28.613281 107.875 28.609375 107.8125 C 28.605469 107.753906 28.628906 107.707031 28.675781 107.671875 C 29.136719 107.316406 30.5625 106.453125 33.703125 106.164062 L 35.320312 108.996094 L 41.882812 97.496094 L 41.886719 97.492188 C 42.832031 96.035156 43.304688 94.433594 43.300781 92.683594 C 43.300781 88.015625 39.726562 84.234375 35.320312 84.234375 C 30.914062 84.234375 27.34375 88.015625 27.34375 92.683594 C 27.339844 94.285156 27.738281 95.769531 28.542969 97.140625 L 28.5625 97.179688 L 32.320312 103.746094 C 30.714844 103.953125 25.964844 104.828125 25.964844 107.878906 C 25.964844 111.546875 34.382812 111.964844 35.320312 111.964844 C 36.261719 111.964844 44.714844 112 44.714844 107.824219 C 44.714844 105.082031 40.027344 104.035156 40.027344 104.035156 Z M 29.234375 92.5 C 29.234375 89.015625 31.960938 86.191406 35.320312 86.191406 C 38.683594 86.191406 41.410156 89.015625 41.410156 92.5 C 41.410156 95.984375 38.683594 98.808594 35.320312 98.808594 C 31.960938 98.808594 29.234375 95.984375 29.234375 92.5 Z M 29.234375 92.5 " fill-opacity="1" fill-rule="nonzero"/></g><g fill="#ffffff" fill-opacity="1"><g transform="translate(22.267242, 123.597069)"><g><path d="M 3.6875 -6.40625 L 3.6875 0 L 2.484375 0 L 2.484375 -6.40625 L 0.25 -6.40625 L 0.25 -7.46875 L 5.921875 -7.46875 L 5.921875 -6.40625 Z M 3.6875 -6.40625 "/></g></g></g><g fill="#ffffff" fill-opacity="1"><g transform="translate(28.445314, 123.597069)"><g><path d="M 4.90625 0 C 4.601562 0 4.367188 -0.0859375 4.203125 -0.265625 C 4.035156 -0.441406 3.9375 -0.664062 3.90625 -0.9375 L 3.859375 -0.9375 C 3.742188 -0.582031 3.546875 -0.316406 3.265625 -0.140625 C 2.984375 0.0351562 2.632812 0.125 2.21875 0.125 C 1.644531 0.125 1.203125 -0.0195312 0.890625 -0.3125 C 0.578125 -0.613281 0.421875 -1.019531 0.421875 -1.53125 C 0.421875 -2.082031 0.625 -2.5 1.03125 -2.78125 C 1.4375 -3.0625 2.023438 -3.203125 2.796875 -3.203125 L 3.8125 -3.203125 L 3.8125 -3.671875 C 3.8125 -4.015625 3.71875 -4.273438 3.53125 -4.453125 C 3.34375 -4.640625 3.054688 -4.734375 2.671875 -4.734375 C 2.335938 -4.734375 2.066406 -4.660156 1.859375 -4.515625 C 1.648438 -4.378906 1.476562 -4.203125 1.34375 -3.984375 L 0.640625 -4.609375 C 0.828125 -4.921875 1.085938 -5.175781 1.421875 -5.375 C 1.753906 -5.582031 2.191406 -5.6875 2.734375 -5.6875 C 3.460938 -5.6875 4.019531 -5.519531 4.40625 -5.1875 C 4.789062 -4.851562 4.984375 -4.375 4.984375 -3.75 L 4.984375 -0.953125 L 5.5625 -0.953125 L 5.5625 0 Z M 2.5625 -0.765625 C 2.925781 -0.765625 3.222656 -0.84375 3.453125 -1 C 3.691406 -1.15625 3.8125 -1.367188 3.8125 -1.640625 L 3.8125 -2.453125 L 2.828125 -2.453125 C 2.015625 -2.453125 1.609375 -2.203125 1.609375 -1.703125 L 1.609375 -1.515625 C 1.609375 -1.265625 1.691406 -1.078125 1.859375 -0.953125 C 2.035156 -0.828125 2.269531 -0.765625 2.5625 -0.765625 Z M 2.5625 -0.765625 "/></g></g></g><g fill="#ffffff" fill-opacity="1"><g transform="translate(34.323587, 123.597069)"><g><path d="M 0.828125 -7.921875 L 2 -7.921875 L 2 -4.640625 L 2.0625 -4.640625 C 2.175781 -4.972656 2.367188 -5.226562 2.640625 -5.40625 C 2.921875 -5.59375 3.25 -5.6875 3.625 -5.6875 C 4.320312 -5.6875 4.863281 -5.429688 5.25 -4.921875 C 5.632812 -4.410156 5.828125 -3.695312 5.828125 -2.78125 C 5.828125 -1.863281 5.632812 -1.148438 5.25 -0.640625 C 4.863281 -0.128906 4.320312 0.125 3.625 0.125 C 3.25 0.125 2.921875 0.0351562 2.640625 -0.140625 C 2.367188 -0.328125 2.175781 -0.585938 2.0625 -0.921875 L 2 -0.921875 L 2 0 L 0.828125 0 Z M 3.265625 -0.875 C 3.671875 -0.875 3.992188 -1.003906 4.234375 -1.265625 C 4.484375 -1.523438 4.609375 -1.867188 4.609375 -2.296875 L 4.609375 -3.265625 C 4.609375 -3.691406 4.484375 -4.035156 4.234375 -4.296875 C 3.992188 -4.554688 3.671875 -4.6875 3.265625 -4.6875 C 2.910156 -4.6875 2.609375 -4.597656 2.359375 -4.421875 C 2.117188 -4.242188 2 -4.015625 2 -3.734375 L 2 -1.828125 C 2 -1.546875 2.117188 -1.316406 2.359375 -1.140625 C 2.609375 -0.960938 2.910156 -0.875 3.265625 -0.875 Z M 3.265625 -0.875 "/></g></g></g><g fill="#ffffff" fill-opacity="1"><g transform="translate(40.662269, 123.597069)"><g><path d="M 4.203125 -0.921875 L 4.15625 -0.921875 C 4.113281 -0.785156 4.050781 -0.648438 3.96875 -0.515625 C 3.882812 -0.390625 3.78125 -0.28125 3.65625 -0.1875 C 3.53125 -0.09375 3.378906 -0.0195312 3.203125 0.03125 C 3.023438 0.09375 2.820312 0.125 2.59375 0.125 C 2.019531 0.125 1.570312 -0.0546875 1.25 -0.421875 C 0.9375 -0.796875 0.78125 -1.328125 0.78125 -2.015625 L 0.78125 -5.5625 L 1.953125 -5.5625 L 1.953125 -2.171875 C 1.953125 -1.304688 2.304688 -0.875 3.015625 -0.875 C 3.171875 -0.875 3.316406 -0.894531 3.453125 -0.9375 C 3.597656 -0.976562 3.722656 -1.035156 3.828125 -1.109375 C 3.941406 -1.191406 4.03125 -1.289062 4.09375 -1.40625 C 4.164062 -1.53125 4.203125 -1.675781 4.203125 -1.84375 L 4.203125 -5.5625 L 5.375 -5.5625 L 5.375 0 L 4.203125 0 Z M 4.203125 -0.921875 "/></g></g></g><g fill="#ffffff" fill-opacity="1"><g transform="translate(46.872469, 123.597069)"><g><path d="M 0.828125 -7.921875 L 2 -7.921875 L 2 -3.0625 L 2.0625 -3.0625 L 2.828125 -4.0625 L 4.15625 -5.5625 L 5.515625 -5.5625 L 3.578125 -3.421875 L 5.765625 0 L 4.359375 0 L 2.765625 -2.65625 L 2 -1.8125 L 2 0 L 0.828125 0 Z M 0.828125 -7.921875 "/></g></g></g></svg>