<svg xmlns="http://www.w3.org/2000/svg" xmlns:xlink="http://www.w3.org/1999/xlink" width="1920" zoomAndPan="magnify" viewBox="0 0 1440 809.999993" height="1080" preserveAspectRatio="xMidYMid meet" version="1.0"><defs><clipPath id="id1"><path d="M 350.558594 86.136719 L 1118.558594 86.136719 L 1118.558594 723.636719 L 350.558594 723.636719 Z M 350.558594 86.136719 " clip-rule="nonzero"/></clipPath><clipPath id="id2"><path d="M 698.488281 282.078125 L 771.238281 282.078125 L 771.238281 387.078125 L 698.488281 387.078125 Z M 698.488281 282.078125 " clip-rule="nonzero"/></clipPath><clipPath id="id3"><path d="M 852.324219 282.078125 L 897.324219 282.078125 L 897.324219 348.078125 L 852.324219 348.078125 Z M 852.324219 282.078125 " clip-rule="nonzero"/></clipPath><clipPath id="id4"><path d="M 541.347656 235.53125 L 586.347656 235.53125 L 586.347656 301.53125 L 541.347656 301.53125 Z M 541.347656 235.53125 " clip-rule="nonzero"/></clipPath><clipPath id="id5"><path d="M 495.988281 405 L 540.988281 405 L 540.988281 471 L 495.988281 471 Z M 495.988281 405 " clip-rule="nonzero"/></clipPath><clipPath id="id6"><path d="M 574.746094 574.214844 L 619.746094 574.214844 L 619.746094 640.214844 L 574.746094 640.214844 Z M 574.746094 574.214844 " clip-rule="nonzero"/></clipPath></defs><g clip-path="url(#id1)"><path fill="#1d918a" d="M 478.085938 153.011719 L 450.15625 111.097656 L 526.507812 86.074219 L 581.40625 109.238281 L 705.21875 213.527344 L 798.335938 225.617188 L 817.867188 242.359375 L 834.636719 242.359375 L 864.425781 274.972656 L 864.425781 291.714844 L 897.9375 308.488281 L 897.9375 352.230469 L 937.957031 394.113281 L 962.167969 394.113281 L 989.019531 458.378906 L 1064.558594 472.332031 L 1093.417969 464.890625 L 1118.558594 495.613281 L 1093.417969 569.152344 L 908.167969 633.386719 L 850.449219 653.878906 L 802.058594 706.953125 L 774.128906 687.390625 L 719.199219 688.320312 L 652.175781 678.089844 L 645.667969 723.695312 L 633.546875 723.695312 L 577.6875 640.828125 L 541.386719 571.941406 L 493.925781 533.777344 L 479.949219 497.472656 L 492.996094 454.628906 L 450.15625 398.796875 L 378.488281 255.410156 L 350.558594 243.320312 C 350.558594 243.320312 362.648438 195.824219 365.4375 193.964844 C 368.257812 192.105469 417.578125 192.105469 417.578125 192.105469 L 432.488281 172.542969 L 478.085938 153.011719 " fill-opacity="1" fill-rule="nonzero"/></g><path fill="#ffffff" d="M 753.109375 311.886719 C 753.109375 311.886719 754.496094 310.800781 754.496094 308.675781 C 754.496094 308.1875 754.402344 307.714844 754.210938 307.257812 C 754.023438 306.804688 753.753906 306.402344 753.40625 306.054688 C 753.054688 305.707031 752.652344 305.441406 752.199219 305.253906 C 751.742188 305.066406 751.265625 304.972656 750.773438 304.972656 L 740.855469 304.972656 L 740.855469 311.15625 L 742.859375 316.03125 L 742.09375 316.03125 L 740.855469 313.046875 L 739.175781 309.011719 L 737.496094 304.972656 L 728.847656 304.972656 L 723.1875 315.339844 L 717.53125 304.972656 L 714.960938 304.972656 L 714.960938 318.796875 L 717.59375 318.796875 L 717.59375 311.050781 L 721.964844 318.796875 L 724.410156 318.796875 L 728.738281 311.125 L 728.78125 311.050781 L 730.828125 307.425781 L 734.359375 307.425781 L 731.417969 313.414062 L 731.417969 307.90625 L 728.78125 312.578125 L 728.78125 318.796875 L 731.753906 318.796875 L 733.234375 315.742188 L 739.167969 315.742188 L 740.476562 318.796875 L 750.628906 318.796875 C 752.765625 318.796875 754.746094 317.074219 754.746094 314.945312 C 754.746094 312.839844 753.71875 312.132812 753.109375 311.886719 Z M 734.386719 313.359375 L 734.386719 313.355469 L 736 310.035156 L 734.796875 307.425781 L 735.574219 307.425781 L 738.144531 313.355469 L 738.144531 313.359375 Z M 751.457031 315.597656 C 751.164062 315.886719 750.8125 316.03125 750.402344 316.03125 L 743.414062 316.03125 L 743.414062 313.066406 L 750.402344 313.066406 C 750.703125 313.066406 750.980469 313.148438 751.230469 313.316406 C 751.480469 313.480469 751.664062 313.703125 751.78125 313.980469 C 751.894531 314.257812 751.925781 314.542969 751.863281 314.839844 C 751.804688 315.132812 751.667969 315.386719 751.457031 315.597656 Z M 751.457031 310.082031 C 751.164062 310.371094 750.8125 310.515625 750.402344 310.515625 L 743.414062 310.515625 L 743.414062 307.550781 L 750.402344 307.550781 C 750.703125 307.546875 750.980469 307.632812 751.230469 307.796875 C 751.480469 307.964844 751.664062 308.1875 751.78125 308.464844 C 751.894531 308.742188 751.925781 309.027344 751.863281 309.324219 C 751.804688 309.617188 751.667969 309.871094 751.457031 310.082031 Z M 751.457031 310.082031 " fill-opacity="1" fill-rule="nonzero"/><g clip-path="url(#id2)"><path fill="#ffffff" d="M 753.050781 357.046875 L 747.609375 365.902344 C 747.609375 365.902344 760.75 369.605469 760.75 371.386719 C 760.75 373.171875 751.863281 377.800781 734.800781 377.800781 C 720.546875 377.800781 711.625 373.324219 709.070312 371.851562 C 708.980469 371.800781 708.90625 371.726562 708.851562 371.640625 C 708.796875 371.550781 708.765625 371.453125 708.757812 371.347656 C 708.75 371.242188 708.769531 371.140625 708.816406 371.046875 C 708.859375 370.949219 708.925781 370.871094 709.011719 370.808594 C 710.804688 369.46875 716.332031 366.203125 728.519531 365.105469 L 734.800781 375.816406 L 760.257812 332.292969 L 760.269531 332.277344 C 762.066406 329.582031 763.433594 326.6875 764.367188 323.589844 C 765.304688 320.492188 765.765625 317.324219 765.757812 314.089844 C 765.757812 296.425781 751.894531 282.105469 734.800781 282.105469 C 717.703125 282.105469 703.84375 296.425781 703.84375 314.089844 C 703.835938 317.058594 704.226562 319.976562 705.015625 322.835938 C 705.804688 325.699219 706.964844 328.40625 708.492188 330.953125 L 708.578125 331.097656 L 723.148438 355.941406 C 716.921875 356.734375 698.488281 360.050781 698.488281 371.585938 C 698.488281 385.464844 731.152344 387.050781 734.800781 387.050781 C 738.449219 387.050781 771.238281 387.183594 771.238281 371.386719 C 771.238281 361.011719 753.050781 357.046875 753.050781 357.046875 Z M 711.175781 313.390625 C 711.175781 300.203125 721.753906 289.511719 734.800781 289.511719 C 747.847656 289.511719 758.425781 300.203125 758.425781 313.390625 C 758.425781 326.574219 747.847656 337.265625 734.800781 337.265625 C 721.753906 337.265625 711.175781 326.574219 711.175781 313.390625 Z M 711.175781 313.390625 " fill-opacity="1" fill-rule="nonzero"/></g><path fill="#3a3d41" d="M 886.113281 300.8125 C 886.113281 300.8125 886.96875 300.132812 886.96875 298.796875 C 886.96875 298.488281 886.910156 298.191406 886.792969 297.90625 C 886.675781 297.621094 886.511719 297.367188 886.292969 297.148438 C 886.078125 296.929688 885.828125 296.761719 885.546875 296.644531 C 885.265625 296.527344 884.972656 296.46875 884.664062 296.46875 L 878.53125 296.46875 L 878.53125 300.355469 L 879.769531 303.421875 L 879.296875 303.421875 L 878.53125 301.542969 L 877.492188 299.007812 L 876.453125 296.46875 L 871.101562 296.46875 L 867.601562 302.984375 L 864.105469 296.46875 L 862.511719 296.46875 L 862.511719 305.160156 L 864.144531 305.160156 L 864.144531 300.289062 L 866.847656 305.160156 L 868.359375 305.160156 L 871.035156 300.335938 L 871.0625 300.289062 L 872.328125 298.007812 L 874.511719 298.007812 L 872.695312 301.777344 L 872.695312 298.3125 L 871.0625 301.25 L 871.0625 305.160156 L 872.902344 305.160156 L 873.816406 303.238281 L 877.488281 303.238281 L 878.296875 305.160156 L 884.574219 305.160156 C 885.898438 305.160156 887.125 304.074219 887.125 302.738281 C 887.125 301.414062 886.488281 300.96875 886.113281 300.8125 Z M 874.527344 301.738281 L 875.527344 299.652344 L 874.785156 298.007812 L 875.261719 298.007812 L 876.855469 301.738281 Z M 885.089844 303.148438 C 884.90625 303.328125 884.691406 303.421875 884.4375 303.421875 L 880.113281 303.421875 L 880.113281 301.554688 L 884.4375 301.554688 C 884.621094 301.554688 884.792969 301.609375 884.949219 301.710938 C 885.105469 301.816406 885.21875 301.957031 885.289062 302.132812 C 885.359375 302.304688 885.378906 302.484375 885.339844 302.671875 C 885.304688 302.855469 885.21875 303.015625 885.089844 303.148438 Z M 885.089844 299.679688 C 884.90625 299.863281 884.691406 299.953125 884.4375 299.953125 L 880.113281 299.953125 L 880.113281 298.089844 L 884.4375 298.089844 C 884.621094 298.085938 884.792969 298.140625 884.949219 298.246094 C 885.105469 298.347656 885.21875 298.488281 885.289062 298.664062 C 885.359375 298.835938 885.378906 299.019531 885.339844 299.203125 C 885.304688 299.386719 885.21875 299.546875 885.089844 299.679688 Z M 885.089844 299.679688 " fill-opacity="1" fill-rule="nonzero"/><g clip-path="url(#id3)"><path fill="#3a3d41" d="M 886.074219 329.203125 L 882.707031 334.769531 C 882.707031 334.769531 890.835938 337.09375 890.835938 338.214844 C 890.835938 339.335938 885.339844 342.246094 874.785156 342.246094 C 865.96875 342.246094 860.449219 339.433594 858.871094 338.507812 C 858.8125 338.476562 858.769531 338.429688 858.734375 338.375 C 858.699219 338.316406 858.679688 338.257812 858.675781 338.191406 C 858.671875 338.125 858.683594 338.0625 858.710938 338 C 858.738281 337.941406 858.78125 337.890625 858.832031 337.851562 C 859.941406 337.007812 863.359375 334.957031 870.902344 334.265625 L 874.785156 341 L 890.535156 313.640625 L 890.539062 313.632812 C 891.652344 311.9375 892.496094 310.117188 893.074219 308.171875 C 893.652344 306.222656 893.9375 304.234375 893.933594 302.199219 C 893.933594 291.09375 885.359375 282.09375 874.785156 282.09375 C 864.210938 282.09375 855.636719 291.09375 855.636719 302.199219 C 855.628906 306.003906 856.585938 309.535156 858.511719 312.800781 L 858.566406 312.890625 L 867.578125 328.507812 C 863.726562 329.003906 852.324219 331.089844 852.324219 338.339844 C 852.324219 347.066406 872.527344 348.0625 874.785156 348.0625 C 877.042969 348.0625 897.324219 348.144531 897.324219 338.214844 C 897.324219 331.695312 886.074219 329.203125 886.074219 329.203125 Z M 860.171875 301.757812 C 860.171875 293.46875 866.714844 286.75 874.785156 286.75 C 882.855469 286.75 889.398438 293.46875 889.398438 301.757812 C 889.398438 310.046875 882.855469 316.765625 874.785156 316.765625 C 866.714844 316.765625 860.171875 310.046875 860.171875 301.757812 Z M 860.171875 301.757812 " fill-opacity="1" fill-rule="nonzero"/></g><path fill="#3a3d41" d="M 575.136719 254.265625 C 575.136719 254.265625 575.992188 253.582031 575.992188 252.25 C 575.992188 251.941406 575.933594 251.644531 575.816406 251.359375 C 575.699219 251.074219 575.535156 250.820312 575.316406 250.601562 C 575.101562 250.382812 574.851562 250.214844 574.570312 250.097656 C 574.289062 249.980469 573.996094 249.921875 573.691406 249.921875 L 567.554688 249.921875 L 567.554688 253.808594 L 568.792969 256.871094 L 568.320312 256.871094 L 567.554688 254.996094 L 566.515625 252.460938 L 565.476562 249.921875 L 560.128906 249.921875 L 556.628906 256.4375 L 553.128906 249.921875 L 551.539062 249.921875 L 551.539062 258.609375 L 553.167969 258.609375 L 553.167969 253.742188 L 555.871094 258.609375 L 557.382812 258.609375 L 560.058594 253.789062 L 560.085938 253.742188 L 561.351562 251.460938 L 563.535156 251.460938 L 561.71875 255.226562 L 561.71875 251.765625 L 560.085938 254.703125 L 560.085938 258.609375 L 561.925781 258.609375 L 562.839844 256.691406 L 562.839844 256.6875 L 566.511719 256.6875 L 566.511719 256.691406 L 567.320312 258.609375 L 573.601562 258.609375 C 574.921875 258.609375 576.148438 257.527344 576.148438 256.191406 C 576.148438 254.867188 575.511719 254.421875 575.136719 254.265625 Z M 563.554688 255.191406 L 564.550781 253.105469 L 563.808594 251.460938 L 564.289062 251.460938 L 565.878906 255.191406 Z M 574.113281 256.601562 C 573.933594 256.78125 573.714844 256.871094 573.460938 256.871094 L 569.136719 256.871094 L 569.136719 255.007812 L 573.460938 255.007812 C 573.648438 255.007812 573.816406 255.058594 573.972656 255.164062 C 574.128906 255.269531 574.242188 255.410156 574.3125 255.582031 C 574.382812 255.757812 574.402344 255.9375 574.367188 256.121094 C 574.328125 256.308594 574.246094 256.46875 574.113281 256.601562 Z M 574.113281 253.132812 C 573.933594 253.316406 573.714844 253.40625 573.460938 253.40625 L 569.136719 253.40625 L 569.136719 251.539062 L 573.460938 251.539062 C 573.648438 251.539062 573.816406 251.59375 573.972656 251.695312 C 574.128906 251.800781 574.242188 251.941406 574.3125 252.117188 C 574.382812 252.289062 574.402344 252.46875 574.367188 252.65625 C 574.328125 252.839844 574.246094 253 574.113281 253.132812 Z M 574.113281 253.132812 " fill-opacity="1" fill-rule="nonzero"/><g clip-path="url(#id4)"><path fill="#3a3d41" d="M 575.097656 282.652344 L 571.734375 288.21875 C 571.734375 288.21875 579.863281 290.546875 579.863281 291.667969 C 579.863281 292.789062 574.363281 295.699219 563.808594 295.699219 C 554.992188 295.699219 549.472656 292.886719 547.894531 291.960938 C 547.839844 291.925781 547.792969 291.882812 547.757812 291.824219 C 547.722656 291.769531 547.703125 291.707031 547.699219 291.640625 C 547.699219 291.574219 547.710938 291.511719 547.738281 291.453125 C 547.765625 291.394531 547.804688 291.34375 547.855469 291.304688 C 548.96875 290.460938 552.386719 288.410156 559.925781 287.71875 L 563.808594 294.453125 L 579.558594 267.09375 L 579.5625 267.082031 C 580.675781 265.390625 581.519531 263.570312 582.097656 261.625 C 582.675781 259.675781 582.964844 257.6875 582.957031 255.652344 C 582.957031 244.546875 574.382812 235.546875 563.808594 235.546875 C 553.234375 235.546875 544.660156 244.546875 544.660156 255.652344 C 544.652344 259.453125 545.609375 262.988281 547.535156 266.25 L 547.589844 266.34375 L 556.601562 281.960938 C 552.753906 282.457031 541.347656 284.542969 541.347656 291.792969 C 541.347656 300.515625 561.554688 301.515625 563.808594 301.515625 C 566.066406 301.515625 586.347656 301.597656 586.347656 291.667969 C 586.347656 285.148438 575.097656 282.652344 575.097656 282.652344 Z M 549.195312 255.210938 C 549.195312 246.921875 555.738281 240.203125 563.808594 240.203125 C 571.878906 240.203125 578.421875 246.921875 578.421875 255.210938 C 578.421875 263.5 571.878906 270.21875 563.808594 270.21875 C 555.738281 270.21875 549.195312 263.5 549.195312 255.210938 Z M 549.195312 255.210938 " fill-opacity="1" fill-rule="nonzero"/></g><path fill="#3a3d41" d="M 529.777344 423.738281 C 529.777344 423.738281 530.632812 423.054688 530.632812 421.71875 C 530.632812 421.410156 530.574219 421.113281 530.457031 420.828125 C 530.339844 420.542969 530.175781 420.289062 529.957031 420.070312 C 529.742188 419.851562 529.492188 419.683594 529.210938 419.566406 C 528.929688 419.449219 528.636719 419.390625 528.332031 419.390625 L 522.195312 419.390625 L 522.195312 423.277344 L 523.433594 426.34375 L 522.960938 426.34375 L 522.195312 424.464844 L 521.15625 421.929688 L 520.117188 419.390625 L 514.769531 419.390625 L 511.269531 425.90625 L 507.769531 419.390625 L 506.179688 419.390625 L 506.179688 428.082031 L 507.808594 428.082031 L 507.808594 423.210938 L 510.511719 428.082031 L 512.023438 428.082031 L 514.703125 423.257812 L 514.726562 423.210938 L 515.992188 420.933594 L 518.175781 420.933594 L 516.359375 424.699219 L 516.359375 421.234375 L 514.726562 424.171875 L 514.726562 428.082031 L 516.566406 428.082031 L 517.480469 426.160156 L 521.152344 426.160156 L 521.960938 428.082031 L 528.242188 428.082031 C 529.5625 428.082031 530.789062 426.996094 530.789062 425.660156 C 530.789062 424.335938 530.152344 423.890625 529.777344 423.738281 Z M 518.195312 424.660156 L 519.191406 422.574219 L 518.449219 420.933594 L 518.929688 420.933594 L 520.519531 424.660156 Z M 528.753906 426.070312 C 528.574219 426.253906 528.355469 426.34375 528.101562 426.34375 L 523.777344 426.34375 L 523.777344 424.476562 L 528.101562 424.476562 C 528.289062 424.476562 528.457031 424.53125 528.613281 424.636719 C 528.769531 424.738281 528.882812 424.878906 528.953125 425.054688 C 529.023438 425.226562 529.042969 425.40625 529.007812 425.59375 C 528.96875 425.777344 528.886719 425.9375 528.753906 426.070312 Z M 528.753906 422.601562 C 528.574219 422.785156 528.355469 422.875 528.101562 422.875 L 523.777344 422.875 L 523.777344 421.011719 L 528.101562 421.011719 C 528.289062 421.011719 528.457031 421.0625 528.613281 421.167969 C 528.769531 421.273438 528.882812 421.410156 528.953125 421.585938 C 529.023438 421.761719 529.042969 421.941406 529.007812 422.125 C 528.96875 422.308594 528.886719 422.46875 528.753906 422.601562 Z M 528.753906 422.601562 " fill-opacity="1" fill-rule="nonzero"/><g clip-path="url(#id5)"><path fill="#3a3d41" d="M 529.738281 452.125 L 526.375 457.691406 C 526.375 457.691406 534.503906 460.015625 534.503906 461.136719 C 534.503906 462.261719 529.003906 465.167969 518.449219 465.167969 C 509.632812 465.167969 504.113281 462.355469 502.535156 461.429688 C 502.480469 461.398438 502.433594 461.351562 502.398438 461.296875 C 502.363281 461.238281 502.34375 461.179688 502.339844 461.113281 C 502.339844 461.046875 502.351562 460.984375 502.378906 460.921875 C 502.40625 460.863281 502.445312 460.8125 502.496094 460.773438 C 503.609375 459.933594 507.027344 457.878906 514.566406 457.1875 L 518.449219 463.921875 L 534.199219 436.5625 L 534.203125 436.554688 C 535.316406 434.859375 536.160156 433.039062 536.738281 431.09375 C 537.316406 429.144531 537.605469 427.15625 537.597656 425.121094 C 537.597656 414.019531 529.023438 405.015625 518.449219 405.015625 C 507.875 405.015625 499.300781 414.019531 499.300781 425.121094 C 499.292969 428.925781 500.25 432.457031 502.175781 435.722656 L 502.230469 435.8125 L 511.242188 451.429688 C 507.394531 451.925781 495.988281 454.011719 495.988281 461.261719 C 495.988281 469.988281 516.195312 470.984375 518.449219 470.984375 C 520.707031 470.984375 540.988281 471.066406 540.988281 461.136719 C 540.988281 454.617188 529.738281 452.125 529.738281 452.125 Z M 503.835938 424.679688 C 503.835938 416.390625 510.378906 409.671875 518.449219 409.671875 C 526.519531 409.671875 533.0625 416.390625 533.0625 424.679688 C 533.0625 432.96875 526.519531 439.6875 518.449219 439.6875 C 510.378906 439.6875 503.835938 432.96875 503.835938 424.679688 Z M 503.835938 424.679688 " fill-opacity="1" fill-rule="nonzero"/></g><path fill="#3a3d41" d="M 608.53125 592.953125 C 608.53125 592.953125 609.390625 592.269531 609.390625 590.933594 C 609.390625 590.625 609.332031 590.328125 609.214844 590.042969 C 609.097656 589.757812 608.929688 589.507812 608.714844 589.289062 C 608.5 589.070312 608.25 588.902344 607.96875 588.78125 C 607.6875 588.664062 607.390625 588.605469 607.085938 588.605469 L 600.953125 588.605469 L 600.953125 592.492188 L 602.191406 595.558594 L 601.71875 595.558594 L 600.953125 593.679688 L 599.914062 591.144531 L 598.875 588.605469 L 593.523438 588.605469 L 590.023438 595.125 L 586.527344 588.605469 L 584.933594 588.605469 L 584.933594 597.296875 L 586.566406 597.296875 L 586.566406 592.425781 L 589.269531 597.296875 L 590.78125 597.296875 L 593.457031 592.472656 L 593.484375 592.425781 L 594.75 590.148438 L 596.933594 590.148438 L 595.117188 593.914062 L 595.117188 590.449219 L 593.484375 593.386719 L 593.484375 597.296875 L 595.320312 597.296875 L 596.238281 595.375 L 599.910156 595.375 L 600.71875 597.296875 L 606.996094 597.296875 C 608.320312 597.296875 609.546875 596.210938 609.546875 594.875 C 609.546875 593.550781 608.910156 593.105469 608.53125 592.953125 Z M 596.949219 593.878906 L 596.949219 593.875 L 597.949219 591.789062 L 597.207031 590.148438 L 597.683594 590.148438 L 599.277344 593.875 L 599.277344 593.878906 Z M 607.511719 595.285156 C 607.328125 595.46875 607.113281 595.558594 606.859375 595.558594 L 602.535156 595.558594 L 602.535156 593.695312 L 606.859375 593.695312 C 607.042969 593.695312 607.214844 593.746094 607.371094 593.851562 C 607.527344 593.957031 607.640625 594.09375 607.710938 594.269531 C 607.78125 594.445312 607.800781 594.625 607.761719 594.808594 C 607.726562 594.992188 607.640625 595.152344 607.511719 595.285156 Z M 607.511719 591.820312 C 607.328125 592 607.113281 592.089844 606.859375 592.089844 L 602.535156 592.089844 L 602.535156 590.226562 L 606.859375 590.226562 C 607.042969 590.226562 607.214844 590.277344 607.371094 590.382812 C 607.527344 590.488281 607.640625 590.628906 607.710938 590.800781 C 607.78125 590.976562 607.800781 591.15625 607.761719 591.339844 C 607.726562 591.527344 607.640625 591.683594 607.511719 591.820312 Z M 607.511719 591.820312 " fill-opacity="1" fill-rule="nonzero"/><g clip-path="url(#id6)"><path fill="#3a3d41" d="M 608.496094 621.339844 L 605.128906 626.90625 C 605.128906 626.90625 613.257812 629.234375 613.257812 630.355469 C 613.257812 631.476562 607.761719 634.382812 597.207031 634.382812 C 588.390625 634.382812 582.871094 631.570312 581.292969 630.644531 C 581.234375 630.613281 581.191406 630.566406 581.15625 630.511719 C 581.121094 630.457031 581.101562 630.394531 581.097656 630.328125 C 581.09375 630.261719 581.105469 630.199219 581.132812 630.136719 C 581.160156 630.078125 581.203125 630.027344 581.253906 629.988281 C 582.363281 629.148438 585.78125 627.09375 593.324219 626.40625 L 597.207031 633.136719 L 612.957031 605.777344 L 612.960938 605.769531 C 614.074219 604.078125 614.917969 602.257812 615.496094 600.308594 C 616.074219 598.363281 616.359375 596.371094 616.355469 594.339844 C 616.355469 583.234375 607.78125 574.230469 597.207031 574.230469 C 586.632812 574.230469 578.058594 583.234375 578.058594 594.339844 C 578.050781 598.140625 579.007812 601.671875 580.933594 604.9375 L 580.988281 605.03125 L 590 620.644531 C 586.148438 621.144531 574.746094 623.226562 574.746094 630.480469 C 574.746094 639.203125 594.949219 640.199219 597.207031 640.199219 C 599.464844 640.199219 619.746094 640.28125 619.746094 630.355469 C 619.746094 623.832031 608.496094 621.339844 608.496094 621.339844 Z M 582.59375 593.898438 C 582.59375 585.609375 589.136719 578.890625 597.207031 578.890625 C 605.277344 578.890625 611.820312 585.609375 611.820312 593.898438 C 611.820312 602.183594 605.277344 608.90625 597.207031 608.90625 C 589.136719 608.90625 582.59375 602.183594 582.59375 593.898438 Z M 582.59375 593.898438 " fill-opacity="1" fill-rule="nonzero"/></g></svg>